%TF.GenerationSoftware,KiCad,Pcbnew,(5.1.9)-1*%
%TF.CreationDate,2021-09-09T09:31:17+08:00*%
%TF.ProjectId,RP2040,52503230-3430-42e6-9b69-6361645f7063,rev?*%
%TF.SameCoordinates,Original*%
%TF.FileFunction,Soldermask,Top*%
%TF.FilePolarity,Negative*%
%FSLAX46Y46*%
G04 Gerber Fmt 4.6, Leading zero omitted, Abs format (unit mm)*
G04 Created by KiCad (PCBNEW (5.1.9)-1) date 2021-09-09 09:31:17*
%MOMM*%
%LPD*%
G01*
G04 APERTURE LIST*
%ADD10R,1.200000X1.400000*%
%ADD11C,1.100000*%
%ADD12O,3.500000X1.900000*%
%ADD13R,2.500000X1.100000*%
%ADD14R,2.440000X1.120000*%
%ADD15O,1.700000X1.700000*%
%ADD16R,1.700000X1.700000*%
%ADD17R,2.000000X1.500000*%
%ADD18R,2.000000X3.800000*%
%ADD19R,0.900000X0.800000*%
G04 APERTURE END LIST*
%TO.C,R6*%
G36*
G01*
X155297200Y-91467000D02*
X155297200Y-91667000D01*
G75*
G02*
X155197200Y-91767000I-100000J0D01*
G01*
X154937200Y-91767000D01*
G75*
G02*
X154837200Y-91667000I0J100000D01*
G01*
X154837200Y-91467000D01*
G75*
G02*
X154937200Y-91367000I100000J0D01*
G01*
X155197200Y-91367000D01*
G75*
G02*
X155297200Y-91467000I0J-100000D01*
G01*
G37*
G36*
G01*
X155937200Y-91467000D02*
X155937200Y-91667000D01*
G75*
G02*
X155837200Y-91767000I-100000J0D01*
G01*
X155577200Y-91767000D01*
G75*
G02*
X155477200Y-91667000I0J100000D01*
G01*
X155477200Y-91467000D01*
G75*
G02*
X155577200Y-91367000I100000J0D01*
G01*
X155837200Y-91367000D01*
G75*
G02*
X155937200Y-91467000I0J-100000D01*
G01*
G37*
%TD*%
%TO.C,R10*%
G36*
G01*
X151030000Y-96940200D02*
X151230000Y-96940200D01*
G75*
G02*
X151330000Y-97040200I0J-100000D01*
G01*
X151330000Y-97300200D01*
G75*
G02*
X151230000Y-97400200I-100000J0D01*
G01*
X151030000Y-97400200D01*
G75*
G02*
X150930000Y-97300200I0J100000D01*
G01*
X150930000Y-97040200D01*
G75*
G02*
X151030000Y-96940200I100000J0D01*
G01*
G37*
G36*
G01*
X151030000Y-96300200D02*
X151230000Y-96300200D01*
G75*
G02*
X151330000Y-96400200I0J-100000D01*
G01*
X151330000Y-96660200D01*
G75*
G02*
X151230000Y-96760200I-100000J0D01*
G01*
X151030000Y-96760200D01*
G75*
G02*
X150930000Y-96660200I0J100000D01*
G01*
X150930000Y-96400200D01*
G75*
G02*
X151030000Y-96300200I100000J0D01*
G01*
G37*
%TD*%
%TO.C,C8*%
G36*
G01*
X155487200Y-89381000D02*
X155487200Y-89181000D01*
G75*
G02*
X155587200Y-89081000I100000J0D01*
G01*
X155847200Y-89081000D01*
G75*
G02*
X155947200Y-89181000I0J-100000D01*
G01*
X155947200Y-89381000D01*
G75*
G02*
X155847200Y-89481000I-100000J0D01*
G01*
X155587200Y-89481000D01*
G75*
G02*
X155487200Y-89381000I0J100000D01*
G01*
G37*
G36*
G01*
X154847200Y-89381000D02*
X154847200Y-89181000D01*
G75*
G02*
X154947200Y-89081000I100000J0D01*
G01*
X155207200Y-89081000D01*
G75*
G02*
X155307200Y-89181000I0J-100000D01*
G01*
X155307200Y-89381000D01*
G75*
G02*
X155207200Y-89481000I-100000J0D01*
G01*
X154947200Y-89481000D01*
G75*
G02*
X154847200Y-89381000I0J100000D01*
G01*
G37*
%TD*%
%TO.C,R7*%
G36*
G01*
X150468000Y-95287000D02*
X150268000Y-95287000D01*
G75*
G02*
X150168000Y-95187000I0J100000D01*
G01*
X150168000Y-94927000D01*
G75*
G02*
X150268000Y-94827000I100000J0D01*
G01*
X150468000Y-94827000D01*
G75*
G02*
X150568000Y-94927000I0J-100000D01*
G01*
X150568000Y-95187000D01*
G75*
G02*
X150468000Y-95287000I-100000J0D01*
G01*
G37*
G36*
G01*
X150468000Y-95927000D02*
X150268000Y-95927000D01*
G75*
G02*
X150168000Y-95827000I0J100000D01*
G01*
X150168000Y-95567000D01*
G75*
G02*
X150268000Y-95467000I100000J0D01*
G01*
X150468000Y-95467000D01*
G75*
G02*
X150568000Y-95567000I0J-100000D01*
G01*
X150568000Y-95827000D01*
G75*
G02*
X150468000Y-95927000I-100000J0D01*
G01*
G37*
%TD*%
D10*
%TO.C,Y1*%
X140551800Y-89771400D03*
X140551800Y-87571400D03*
X142251800Y-87571400D03*
X142251800Y-89771400D03*
%TD*%
D11*
%TO.C,J1*%
X173440000Y-91200000D03*
X173440000Y-86600000D03*
D12*
X173440000Y-94600000D03*
X173440000Y-83200000D03*
D13*
X170690000Y-92400000D03*
X170690000Y-85400000D03*
X170690000Y-89900000D03*
X170690000Y-87900000D03*
%TD*%
%TO.C,U2*%
G36*
G01*
X159362000Y-84003800D02*
X159662000Y-84003800D01*
G75*
G02*
X159812000Y-84153800I0J-150000D01*
G01*
X159812000Y-85453800D01*
G75*
G02*
X159662000Y-85603800I-150000J0D01*
G01*
X159362000Y-85603800D01*
G75*
G02*
X159212000Y-85453800I0J150000D01*
G01*
X159212000Y-84153800D01*
G75*
G02*
X159362000Y-84003800I150000J0D01*
G01*
G37*
G36*
G01*
X158092000Y-84003800D02*
X158392000Y-84003800D01*
G75*
G02*
X158542000Y-84153800I0J-150000D01*
G01*
X158542000Y-85453800D01*
G75*
G02*
X158392000Y-85603800I-150000J0D01*
G01*
X158092000Y-85603800D01*
G75*
G02*
X157942000Y-85453800I0J150000D01*
G01*
X157942000Y-84153800D01*
G75*
G02*
X158092000Y-84003800I150000J0D01*
G01*
G37*
G36*
G01*
X156822000Y-84003800D02*
X157122000Y-84003800D01*
G75*
G02*
X157272000Y-84153800I0J-150000D01*
G01*
X157272000Y-85453800D01*
G75*
G02*
X157122000Y-85603800I-150000J0D01*
G01*
X156822000Y-85603800D01*
G75*
G02*
X156672000Y-85453800I0J150000D01*
G01*
X156672000Y-84153800D01*
G75*
G02*
X156822000Y-84003800I150000J0D01*
G01*
G37*
G36*
G01*
X155552000Y-84003800D02*
X155852000Y-84003800D01*
G75*
G02*
X156002000Y-84153800I0J-150000D01*
G01*
X156002000Y-85453800D01*
G75*
G02*
X155852000Y-85603800I-150000J0D01*
G01*
X155552000Y-85603800D01*
G75*
G02*
X155402000Y-85453800I0J150000D01*
G01*
X155402000Y-84153800D01*
G75*
G02*
X155552000Y-84003800I150000J0D01*
G01*
G37*
G36*
G01*
X155552000Y-76803800D02*
X155852000Y-76803800D01*
G75*
G02*
X156002000Y-76953800I0J-150000D01*
G01*
X156002000Y-78253800D01*
G75*
G02*
X155852000Y-78403800I-150000J0D01*
G01*
X155552000Y-78403800D01*
G75*
G02*
X155402000Y-78253800I0J150000D01*
G01*
X155402000Y-76953800D01*
G75*
G02*
X155552000Y-76803800I150000J0D01*
G01*
G37*
G36*
G01*
X156822000Y-76803800D02*
X157122000Y-76803800D01*
G75*
G02*
X157272000Y-76953800I0J-150000D01*
G01*
X157272000Y-78253800D01*
G75*
G02*
X157122000Y-78403800I-150000J0D01*
G01*
X156822000Y-78403800D01*
G75*
G02*
X156672000Y-78253800I0J150000D01*
G01*
X156672000Y-76953800D01*
G75*
G02*
X156822000Y-76803800I150000J0D01*
G01*
G37*
G36*
G01*
X158092000Y-76803800D02*
X158392000Y-76803800D01*
G75*
G02*
X158542000Y-76953800I0J-150000D01*
G01*
X158542000Y-78253800D01*
G75*
G02*
X158392000Y-78403800I-150000J0D01*
G01*
X158092000Y-78403800D01*
G75*
G02*
X157942000Y-78253800I0J150000D01*
G01*
X157942000Y-76953800D01*
G75*
G02*
X158092000Y-76803800I150000J0D01*
G01*
G37*
G36*
G01*
X159362000Y-76803800D02*
X159662000Y-76803800D01*
G75*
G02*
X159812000Y-76953800I0J-150000D01*
G01*
X159812000Y-78253800D01*
G75*
G02*
X159662000Y-78403800I-150000J0D01*
G01*
X159362000Y-78403800D01*
G75*
G02*
X159212000Y-78253800I0J150000D01*
G01*
X159212000Y-76953800D01*
G75*
G02*
X159362000Y-76803800I150000J0D01*
G01*
G37*
%TD*%
%TO.C,U1*%
G36*
G01*
X151263000Y-78128000D02*
X151263000Y-77828000D01*
G75*
G02*
X151413000Y-77678000I150000J0D01*
G01*
X152713000Y-77678000D01*
G75*
G02*
X152863000Y-77828000I0J-150000D01*
G01*
X152863000Y-78128000D01*
G75*
G02*
X152713000Y-78278000I-150000J0D01*
G01*
X151413000Y-78278000D01*
G75*
G02*
X151263000Y-78128000I0J150000D01*
G01*
G37*
G36*
G01*
X151263000Y-79398000D02*
X151263000Y-79098000D01*
G75*
G02*
X151413000Y-78948000I150000J0D01*
G01*
X152713000Y-78948000D01*
G75*
G02*
X152863000Y-79098000I0J-150000D01*
G01*
X152863000Y-79398000D01*
G75*
G02*
X152713000Y-79548000I-150000J0D01*
G01*
X151413000Y-79548000D01*
G75*
G02*
X151263000Y-79398000I0J150000D01*
G01*
G37*
G36*
G01*
X151263000Y-80668000D02*
X151263000Y-80368000D01*
G75*
G02*
X151413000Y-80218000I150000J0D01*
G01*
X152713000Y-80218000D01*
G75*
G02*
X152863000Y-80368000I0J-150000D01*
G01*
X152863000Y-80668000D01*
G75*
G02*
X152713000Y-80818000I-150000J0D01*
G01*
X151413000Y-80818000D01*
G75*
G02*
X151263000Y-80668000I0J150000D01*
G01*
G37*
G36*
G01*
X151263000Y-81938000D02*
X151263000Y-81638000D01*
G75*
G02*
X151413000Y-81488000I150000J0D01*
G01*
X152713000Y-81488000D01*
G75*
G02*
X152863000Y-81638000I0J-150000D01*
G01*
X152863000Y-81938000D01*
G75*
G02*
X152713000Y-82088000I-150000J0D01*
G01*
X151413000Y-82088000D01*
G75*
G02*
X151263000Y-81938000I0J150000D01*
G01*
G37*
G36*
G01*
X144063000Y-81938000D02*
X144063000Y-81638000D01*
G75*
G02*
X144213000Y-81488000I150000J0D01*
G01*
X145513000Y-81488000D01*
G75*
G02*
X145663000Y-81638000I0J-150000D01*
G01*
X145663000Y-81938000D01*
G75*
G02*
X145513000Y-82088000I-150000J0D01*
G01*
X144213000Y-82088000D01*
G75*
G02*
X144063000Y-81938000I0J150000D01*
G01*
G37*
G36*
G01*
X144063000Y-80668000D02*
X144063000Y-80368000D01*
G75*
G02*
X144213000Y-80218000I150000J0D01*
G01*
X145513000Y-80218000D01*
G75*
G02*
X145663000Y-80368000I0J-150000D01*
G01*
X145663000Y-80668000D01*
G75*
G02*
X145513000Y-80818000I-150000J0D01*
G01*
X144213000Y-80818000D01*
G75*
G02*
X144063000Y-80668000I0J150000D01*
G01*
G37*
G36*
G01*
X144063000Y-79398000D02*
X144063000Y-79098000D01*
G75*
G02*
X144213000Y-78948000I150000J0D01*
G01*
X145513000Y-78948000D01*
G75*
G02*
X145663000Y-79098000I0J-150000D01*
G01*
X145663000Y-79398000D01*
G75*
G02*
X145513000Y-79548000I-150000J0D01*
G01*
X144213000Y-79548000D01*
G75*
G02*
X144063000Y-79398000I0J150000D01*
G01*
G37*
G36*
G01*
X144063000Y-78128000D02*
X144063000Y-77828000D01*
G75*
G02*
X144213000Y-77678000I150000J0D01*
G01*
X145513000Y-77678000D01*
G75*
G02*
X145663000Y-77828000I0J-150000D01*
G01*
X145663000Y-78128000D01*
G75*
G02*
X145513000Y-78278000I-150000J0D01*
G01*
X144213000Y-78278000D01*
G75*
G02*
X144063000Y-78128000I0J150000D01*
G01*
G37*
%TD*%
D14*
%TO.C,SW2*%
X171183000Y-99060000D03*
X162573000Y-99060000D03*
%TD*%
%TO.C,R31*%
G36*
G01*
X133948000Y-100430000D02*
X133948000Y-100230000D01*
G75*
G02*
X134048000Y-100130000I100000J0D01*
G01*
X134308000Y-100130000D01*
G75*
G02*
X134408000Y-100230000I0J-100000D01*
G01*
X134408000Y-100430000D01*
G75*
G02*
X134308000Y-100530000I-100000J0D01*
G01*
X134048000Y-100530000D01*
G75*
G02*
X133948000Y-100430000I0J100000D01*
G01*
G37*
G36*
G01*
X133308000Y-100430000D02*
X133308000Y-100230000D01*
G75*
G02*
X133408000Y-100130000I100000J0D01*
G01*
X133668000Y-100130000D01*
G75*
G02*
X133768000Y-100230000I0J-100000D01*
G01*
X133768000Y-100430000D01*
G75*
G02*
X133668000Y-100530000I-100000J0D01*
G01*
X133408000Y-100530000D01*
G75*
G02*
X133308000Y-100430000I0J100000D01*
G01*
G37*
%TD*%
%TO.C,R30*%
G36*
G01*
X133948000Y-97890000D02*
X133948000Y-97690000D01*
G75*
G02*
X134048000Y-97590000I100000J0D01*
G01*
X134308000Y-97590000D01*
G75*
G02*
X134408000Y-97690000I0J-100000D01*
G01*
X134408000Y-97890000D01*
G75*
G02*
X134308000Y-97990000I-100000J0D01*
G01*
X134048000Y-97990000D01*
G75*
G02*
X133948000Y-97890000I0J100000D01*
G01*
G37*
G36*
G01*
X133308000Y-97890000D02*
X133308000Y-97690000D01*
G75*
G02*
X133408000Y-97590000I100000J0D01*
G01*
X133668000Y-97590000D01*
G75*
G02*
X133768000Y-97690000I0J-100000D01*
G01*
X133768000Y-97890000D01*
G75*
G02*
X133668000Y-97990000I-100000J0D01*
G01*
X133408000Y-97990000D01*
G75*
G02*
X133308000Y-97890000I0J100000D01*
G01*
G37*
%TD*%
%TO.C,R29*%
G36*
G01*
X133948000Y-95350000D02*
X133948000Y-95150000D01*
G75*
G02*
X134048000Y-95050000I100000J0D01*
G01*
X134308000Y-95050000D01*
G75*
G02*
X134408000Y-95150000I0J-100000D01*
G01*
X134408000Y-95350000D01*
G75*
G02*
X134308000Y-95450000I-100000J0D01*
G01*
X134048000Y-95450000D01*
G75*
G02*
X133948000Y-95350000I0J100000D01*
G01*
G37*
G36*
G01*
X133308000Y-95350000D02*
X133308000Y-95150000D01*
G75*
G02*
X133408000Y-95050000I100000J0D01*
G01*
X133668000Y-95050000D01*
G75*
G02*
X133768000Y-95150000I0J-100000D01*
G01*
X133768000Y-95350000D01*
G75*
G02*
X133668000Y-95450000I-100000J0D01*
G01*
X133408000Y-95450000D01*
G75*
G02*
X133308000Y-95350000I0J100000D01*
G01*
G37*
%TD*%
%TO.C,R28*%
G36*
G01*
X133948000Y-92810000D02*
X133948000Y-92610000D01*
G75*
G02*
X134048000Y-92510000I100000J0D01*
G01*
X134308000Y-92510000D01*
G75*
G02*
X134408000Y-92610000I0J-100000D01*
G01*
X134408000Y-92810000D01*
G75*
G02*
X134308000Y-92910000I-100000J0D01*
G01*
X134048000Y-92910000D01*
G75*
G02*
X133948000Y-92810000I0J100000D01*
G01*
G37*
G36*
G01*
X133308000Y-92810000D02*
X133308000Y-92610000D01*
G75*
G02*
X133408000Y-92510000I100000J0D01*
G01*
X133668000Y-92510000D01*
G75*
G02*
X133768000Y-92610000I0J-100000D01*
G01*
X133768000Y-92810000D01*
G75*
G02*
X133668000Y-92910000I-100000J0D01*
G01*
X133408000Y-92910000D01*
G75*
G02*
X133308000Y-92810000I0J100000D01*
G01*
G37*
%TD*%
%TO.C,R27*%
G36*
G01*
X133948000Y-90270000D02*
X133948000Y-90070000D01*
G75*
G02*
X134048000Y-89970000I100000J0D01*
G01*
X134308000Y-89970000D01*
G75*
G02*
X134408000Y-90070000I0J-100000D01*
G01*
X134408000Y-90270000D01*
G75*
G02*
X134308000Y-90370000I-100000J0D01*
G01*
X134048000Y-90370000D01*
G75*
G02*
X133948000Y-90270000I0J100000D01*
G01*
G37*
G36*
G01*
X133308000Y-90270000D02*
X133308000Y-90070000D01*
G75*
G02*
X133408000Y-89970000I100000J0D01*
G01*
X133668000Y-89970000D01*
G75*
G02*
X133768000Y-90070000I0J-100000D01*
G01*
X133768000Y-90270000D01*
G75*
G02*
X133668000Y-90370000I-100000J0D01*
G01*
X133408000Y-90370000D01*
G75*
G02*
X133308000Y-90270000I0J100000D01*
G01*
G37*
%TD*%
%TO.C,R26*%
G36*
G01*
X133948000Y-87730000D02*
X133948000Y-87530000D01*
G75*
G02*
X134048000Y-87430000I100000J0D01*
G01*
X134308000Y-87430000D01*
G75*
G02*
X134408000Y-87530000I0J-100000D01*
G01*
X134408000Y-87730000D01*
G75*
G02*
X134308000Y-87830000I-100000J0D01*
G01*
X134048000Y-87830000D01*
G75*
G02*
X133948000Y-87730000I0J100000D01*
G01*
G37*
G36*
G01*
X133308000Y-87730000D02*
X133308000Y-87530000D01*
G75*
G02*
X133408000Y-87430000I100000J0D01*
G01*
X133668000Y-87430000D01*
G75*
G02*
X133768000Y-87530000I0J-100000D01*
G01*
X133768000Y-87730000D01*
G75*
G02*
X133668000Y-87830000I-100000J0D01*
G01*
X133408000Y-87830000D01*
G75*
G02*
X133308000Y-87730000I0J100000D01*
G01*
G37*
%TD*%
%TO.C,R25*%
G36*
G01*
X133948000Y-85164600D02*
X133948000Y-84964600D01*
G75*
G02*
X134048000Y-84864600I100000J0D01*
G01*
X134308000Y-84864600D01*
G75*
G02*
X134408000Y-84964600I0J-100000D01*
G01*
X134408000Y-85164600D01*
G75*
G02*
X134308000Y-85264600I-100000J0D01*
G01*
X134048000Y-85264600D01*
G75*
G02*
X133948000Y-85164600I0J100000D01*
G01*
G37*
G36*
G01*
X133308000Y-85164600D02*
X133308000Y-84964600D01*
G75*
G02*
X133408000Y-84864600I100000J0D01*
G01*
X133668000Y-84864600D01*
G75*
G02*
X133768000Y-84964600I0J-100000D01*
G01*
X133768000Y-85164600D01*
G75*
G02*
X133668000Y-85264600I-100000J0D01*
G01*
X133408000Y-85264600D01*
G75*
G02*
X133308000Y-85164600I0J100000D01*
G01*
G37*
%TD*%
%TO.C,R24*%
G36*
G01*
X133948000Y-82650000D02*
X133948000Y-82450000D01*
G75*
G02*
X134048000Y-82350000I100000J0D01*
G01*
X134308000Y-82350000D01*
G75*
G02*
X134408000Y-82450000I0J-100000D01*
G01*
X134408000Y-82650000D01*
G75*
G02*
X134308000Y-82750000I-100000J0D01*
G01*
X134048000Y-82750000D01*
G75*
G02*
X133948000Y-82650000I0J100000D01*
G01*
G37*
G36*
G01*
X133308000Y-82650000D02*
X133308000Y-82450000D01*
G75*
G02*
X133408000Y-82350000I100000J0D01*
G01*
X133668000Y-82350000D01*
G75*
G02*
X133768000Y-82450000I0J-100000D01*
G01*
X133768000Y-82650000D01*
G75*
G02*
X133668000Y-82750000I-100000J0D01*
G01*
X133408000Y-82750000D01*
G75*
G02*
X133308000Y-82650000I0J100000D01*
G01*
G37*
%TD*%
%TO.C,R23*%
G36*
G01*
X133948000Y-80110000D02*
X133948000Y-79910000D01*
G75*
G02*
X134048000Y-79810000I100000J0D01*
G01*
X134308000Y-79810000D01*
G75*
G02*
X134408000Y-79910000I0J-100000D01*
G01*
X134408000Y-80110000D01*
G75*
G02*
X134308000Y-80210000I-100000J0D01*
G01*
X134048000Y-80210000D01*
G75*
G02*
X133948000Y-80110000I0J100000D01*
G01*
G37*
G36*
G01*
X133308000Y-80110000D02*
X133308000Y-79910000D01*
G75*
G02*
X133408000Y-79810000I100000J0D01*
G01*
X133668000Y-79810000D01*
G75*
G02*
X133768000Y-79910000I0J-100000D01*
G01*
X133768000Y-80110000D01*
G75*
G02*
X133668000Y-80210000I-100000J0D01*
G01*
X133408000Y-80210000D01*
G75*
G02*
X133308000Y-80110000I0J100000D01*
G01*
G37*
%TD*%
%TO.C,R20*%
G36*
G01*
X133768000Y-98960000D02*
X133768000Y-99160000D01*
G75*
G02*
X133668000Y-99260000I-100000J0D01*
G01*
X133408000Y-99260000D01*
G75*
G02*
X133308000Y-99160000I0J100000D01*
G01*
X133308000Y-98960000D01*
G75*
G02*
X133408000Y-98860000I100000J0D01*
G01*
X133668000Y-98860000D01*
G75*
G02*
X133768000Y-98960000I0J-100000D01*
G01*
G37*
G36*
G01*
X134408000Y-98960000D02*
X134408000Y-99160000D01*
G75*
G02*
X134308000Y-99260000I-100000J0D01*
G01*
X134048000Y-99260000D01*
G75*
G02*
X133948000Y-99160000I0J100000D01*
G01*
X133948000Y-98960000D01*
G75*
G02*
X134048000Y-98860000I100000J0D01*
G01*
X134308000Y-98860000D01*
G75*
G02*
X134408000Y-98960000I0J-100000D01*
G01*
G37*
%TD*%
%TO.C,R19*%
G36*
G01*
X133768000Y-96420000D02*
X133768000Y-96620000D01*
G75*
G02*
X133668000Y-96720000I-100000J0D01*
G01*
X133408000Y-96720000D01*
G75*
G02*
X133308000Y-96620000I0J100000D01*
G01*
X133308000Y-96420000D01*
G75*
G02*
X133408000Y-96320000I100000J0D01*
G01*
X133668000Y-96320000D01*
G75*
G02*
X133768000Y-96420000I0J-100000D01*
G01*
G37*
G36*
G01*
X134408000Y-96420000D02*
X134408000Y-96620000D01*
G75*
G02*
X134308000Y-96720000I-100000J0D01*
G01*
X134048000Y-96720000D01*
G75*
G02*
X133948000Y-96620000I0J100000D01*
G01*
X133948000Y-96420000D01*
G75*
G02*
X134048000Y-96320000I100000J0D01*
G01*
X134308000Y-96320000D01*
G75*
G02*
X134408000Y-96420000I0J-100000D01*
G01*
G37*
%TD*%
%TO.C,R18*%
G36*
G01*
X133768000Y-93880000D02*
X133768000Y-94080000D01*
G75*
G02*
X133668000Y-94180000I-100000J0D01*
G01*
X133408000Y-94180000D01*
G75*
G02*
X133308000Y-94080000I0J100000D01*
G01*
X133308000Y-93880000D01*
G75*
G02*
X133408000Y-93780000I100000J0D01*
G01*
X133668000Y-93780000D01*
G75*
G02*
X133768000Y-93880000I0J-100000D01*
G01*
G37*
G36*
G01*
X134408000Y-93880000D02*
X134408000Y-94080000D01*
G75*
G02*
X134308000Y-94180000I-100000J0D01*
G01*
X134048000Y-94180000D01*
G75*
G02*
X133948000Y-94080000I0J100000D01*
G01*
X133948000Y-93880000D01*
G75*
G02*
X134048000Y-93780000I100000J0D01*
G01*
X134308000Y-93780000D01*
G75*
G02*
X134408000Y-93880000I0J-100000D01*
G01*
G37*
%TD*%
%TO.C,R17*%
G36*
G01*
X133768000Y-91340000D02*
X133768000Y-91540000D01*
G75*
G02*
X133668000Y-91640000I-100000J0D01*
G01*
X133408000Y-91640000D01*
G75*
G02*
X133308000Y-91540000I0J100000D01*
G01*
X133308000Y-91340000D01*
G75*
G02*
X133408000Y-91240000I100000J0D01*
G01*
X133668000Y-91240000D01*
G75*
G02*
X133768000Y-91340000I0J-100000D01*
G01*
G37*
G36*
G01*
X134408000Y-91340000D02*
X134408000Y-91540000D01*
G75*
G02*
X134308000Y-91640000I-100000J0D01*
G01*
X134048000Y-91640000D01*
G75*
G02*
X133948000Y-91540000I0J100000D01*
G01*
X133948000Y-91340000D01*
G75*
G02*
X134048000Y-91240000I100000J0D01*
G01*
X134308000Y-91240000D01*
G75*
G02*
X134408000Y-91340000I0J-100000D01*
G01*
G37*
%TD*%
%TO.C,R16*%
G36*
G01*
X133768000Y-88800000D02*
X133768000Y-89000000D01*
G75*
G02*
X133668000Y-89100000I-100000J0D01*
G01*
X133408000Y-89100000D01*
G75*
G02*
X133308000Y-89000000I0J100000D01*
G01*
X133308000Y-88800000D01*
G75*
G02*
X133408000Y-88700000I100000J0D01*
G01*
X133668000Y-88700000D01*
G75*
G02*
X133768000Y-88800000I0J-100000D01*
G01*
G37*
G36*
G01*
X134408000Y-88800000D02*
X134408000Y-89000000D01*
G75*
G02*
X134308000Y-89100000I-100000J0D01*
G01*
X134048000Y-89100000D01*
G75*
G02*
X133948000Y-89000000I0J100000D01*
G01*
X133948000Y-88800000D01*
G75*
G02*
X134048000Y-88700000I100000J0D01*
G01*
X134308000Y-88700000D01*
G75*
G02*
X134408000Y-88800000I0J-100000D01*
G01*
G37*
%TD*%
%TO.C,R15*%
G36*
G01*
X133768000Y-86260000D02*
X133768000Y-86460000D01*
G75*
G02*
X133668000Y-86560000I-100000J0D01*
G01*
X133408000Y-86560000D01*
G75*
G02*
X133308000Y-86460000I0J100000D01*
G01*
X133308000Y-86260000D01*
G75*
G02*
X133408000Y-86160000I100000J0D01*
G01*
X133668000Y-86160000D01*
G75*
G02*
X133768000Y-86260000I0J-100000D01*
G01*
G37*
G36*
G01*
X134408000Y-86260000D02*
X134408000Y-86460000D01*
G75*
G02*
X134308000Y-86560000I-100000J0D01*
G01*
X134048000Y-86560000D01*
G75*
G02*
X133948000Y-86460000I0J100000D01*
G01*
X133948000Y-86260000D01*
G75*
G02*
X134048000Y-86160000I100000J0D01*
G01*
X134308000Y-86160000D01*
G75*
G02*
X134408000Y-86260000I0J-100000D01*
G01*
G37*
%TD*%
%TO.C,R14*%
G36*
G01*
X133768000Y-83720000D02*
X133768000Y-83920000D01*
G75*
G02*
X133668000Y-84020000I-100000J0D01*
G01*
X133408000Y-84020000D01*
G75*
G02*
X133308000Y-83920000I0J100000D01*
G01*
X133308000Y-83720000D01*
G75*
G02*
X133408000Y-83620000I100000J0D01*
G01*
X133668000Y-83620000D01*
G75*
G02*
X133768000Y-83720000I0J-100000D01*
G01*
G37*
G36*
G01*
X134408000Y-83720000D02*
X134408000Y-83920000D01*
G75*
G02*
X134308000Y-84020000I-100000J0D01*
G01*
X134048000Y-84020000D01*
G75*
G02*
X133948000Y-83920000I0J100000D01*
G01*
X133948000Y-83720000D01*
G75*
G02*
X134048000Y-83620000I100000J0D01*
G01*
X134308000Y-83620000D01*
G75*
G02*
X134408000Y-83720000I0J-100000D01*
G01*
G37*
%TD*%
%TO.C,R13*%
G36*
G01*
X133768000Y-81180000D02*
X133768000Y-81380000D01*
G75*
G02*
X133668000Y-81480000I-100000J0D01*
G01*
X133408000Y-81480000D01*
G75*
G02*
X133308000Y-81380000I0J100000D01*
G01*
X133308000Y-81180000D01*
G75*
G02*
X133408000Y-81080000I100000J0D01*
G01*
X133668000Y-81080000D01*
G75*
G02*
X133768000Y-81180000I0J-100000D01*
G01*
G37*
G36*
G01*
X134408000Y-81180000D02*
X134408000Y-81380000D01*
G75*
G02*
X134308000Y-81480000I-100000J0D01*
G01*
X134048000Y-81480000D01*
G75*
G02*
X133948000Y-81380000I0J100000D01*
G01*
X133948000Y-81180000D01*
G75*
G02*
X134048000Y-81080000I100000J0D01*
G01*
X134308000Y-81080000D01*
G75*
G02*
X134408000Y-81180000I0J-100000D01*
G01*
G37*
%TD*%
%TO.C,R12*%
G36*
G01*
X133768000Y-78640000D02*
X133768000Y-78840000D01*
G75*
G02*
X133668000Y-78940000I-100000J0D01*
G01*
X133408000Y-78940000D01*
G75*
G02*
X133308000Y-78840000I0J100000D01*
G01*
X133308000Y-78640000D01*
G75*
G02*
X133408000Y-78540000I100000J0D01*
G01*
X133668000Y-78540000D01*
G75*
G02*
X133768000Y-78640000I0J-100000D01*
G01*
G37*
G36*
G01*
X134408000Y-78640000D02*
X134408000Y-78840000D01*
G75*
G02*
X134308000Y-78940000I-100000J0D01*
G01*
X134048000Y-78940000D01*
G75*
G02*
X133948000Y-78840000I0J100000D01*
G01*
X133948000Y-78640000D01*
G75*
G02*
X134048000Y-78540000I100000J0D01*
G01*
X134308000Y-78540000D01*
G75*
G02*
X134408000Y-78640000I0J-100000D01*
G01*
G37*
%TD*%
%TO.C,R2*%
G36*
G01*
X143279800Y-78218200D02*
X143079800Y-78218200D01*
G75*
G02*
X142979800Y-78118200I0J100000D01*
G01*
X142979800Y-77858200D01*
G75*
G02*
X143079800Y-77758200I100000J0D01*
G01*
X143279800Y-77758200D01*
G75*
G02*
X143379800Y-77858200I0J-100000D01*
G01*
X143379800Y-78118200D01*
G75*
G02*
X143279800Y-78218200I-100000J0D01*
G01*
G37*
G36*
G01*
X143279800Y-78858200D02*
X143079800Y-78858200D01*
G75*
G02*
X142979800Y-78758200I0J100000D01*
G01*
X142979800Y-78498200D01*
G75*
G02*
X143079800Y-78398200I100000J0D01*
G01*
X143279800Y-78398200D01*
G75*
G02*
X143379800Y-78498200I0J-100000D01*
G01*
X143379800Y-78758200D01*
G75*
G02*
X143279800Y-78858200I-100000J0D01*
G01*
G37*
%TD*%
D15*
%TO.C,J3*%
X130810000Y-100330000D03*
X128270000Y-100330000D03*
X130810000Y-97790000D03*
X128270000Y-97790000D03*
X130810000Y-95250000D03*
X128270000Y-95250000D03*
X130810000Y-92710000D03*
X128270000Y-92710000D03*
X130810000Y-90170000D03*
X128270000Y-90170000D03*
X130810000Y-87630000D03*
X128270000Y-87630000D03*
X130810000Y-85090000D03*
X128270000Y-85090000D03*
X130810000Y-82550000D03*
X128270000Y-82550000D03*
X130810000Y-80010000D03*
X128270000Y-80010000D03*
X130810000Y-77470000D03*
D16*
X128270000Y-77470000D03*
%TD*%
%TO.C,C17*%
G36*
G01*
X133785000Y-77274600D02*
X133785000Y-77614600D01*
G75*
G02*
X133645000Y-77754600I-140000J0D01*
G01*
X133365000Y-77754600D01*
G75*
G02*
X133225000Y-77614600I0J140000D01*
G01*
X133225000Y-77274600D01*
G75*
G02*
X133365000Y-77134600I140000J0D01*
G01*
X133645000Y-77134600D01*
G75*
G02*
X133785000Y-77274600I0J-140000D01*
G01*
G37*
G36*
G01*
X134745000Y-77274600D02*
X134745000Y-77614600D01*
G75*
G02*
X134605000Y-77754600I-140000J0D01*
G01*
X134325000Y-77754600D01*
G75*
G02*
X134185000Y-77614600I0J140000D01*
G01*
X134185000Y-77274600D01*
G75*
G02*
X134325000Y-77134600I140000J0D01*
G01*
X134605000Y-77134600D01*
G75*
G02*
X134745000Y-77274600I0J-140000D01*
G01*
G37*
%TD*%
%TO.C,C3*%
G36*
G01*
X153646200Y-78398200D02*
X153846200Y-78398200D01*
G75*
G02*
X153946200Y-78498200I0J-100000D01*
G01*
X153946200Y-78758200D01*
G75*
G02*
X153846200Y-78858200I-100000J0D01*
G01*
X153646200Y-78858200D01*
G75*
G02*
X153546200Y-78758200I0J100000D01*
G01*
X153546200Y-78498200D01*
G75*
G02*
X153646200Y-78398200I100000J0D01*
G01*
G37*
G36*
G01*
X153646200Y-77758200D02*
X153846200Y-77758200D01*
G75*
G02*
X153946200Y-77858200I0J-100000D01*
G01*
X153946200Y-78118200D01*
G75*
G02*
X153846200Y-78218200I-100000J0D01*
G01*
X153646200Y-78218200D01*
G75*
G02*
X153546200Y-78118200I0J100000D01*
G01*
X153546200Y-77858200D01*
G75*
G02*
X153646200Y-77758200I100000J0D01*
G01*
G37*
%TD*%
%TO.C,R32*%
G36*
G01*
X135472000Y-80110000D02*
X135472000Y-79910000D01*
G75*
G02*
X135572000Y-79810000I100000J0D01*
G01*
X135832000Y-79810000D01*
G75*
G02*
X135932000Y-79910000I0J-100000D01*
G01*
X135932000Y-80110000D01*
G75*
G02*
X135832000Y-80210000I-100000J0D01*
G01*
X135572000Y-80210000D01*
G75*
G02*
X135472000Y-80110000I0J100000D01*
G01*
G37*
G36*
G01*
X134832000Y-80110000D02*
X134832000Y-79910000D01*
G75*
G02*
X134932000Y-79810000I100000J0D01*
G01*
X135192000Y-79810000D01*
G75*
G02*
X135292000Y-79910000I0J-100000D01*
G01*
X135292000Y-80110000D01*
G75*
G02*
X135192000Y-80210000I-100000J0D01*
G01*
X134932000Y-80210000D01*
G75*
G02*
X134832000Y-80110000I0J100000D01*
G01*
G37*
%TD*%
%TO.C,C10*%
G36*
G01*
X155800400Y-94378600D02*
X155800400Y-94038600D01*
G75*
G02*
X155940400Y-93898600I140000J0D01*
G01*
X156220400Y-93898600D01*
G75*
G02*
X156360400Y-94038600I0J-140000D01*
G01*
X156360400Y-94378600D01*
G75*
G02*
X156220400Y-94518600I-140000J0D01*
G01*
X155940400Y-94518600D01*
G75*
G02*
X155800400Y-94378600I0J140000D01*
G01*
G37*
G36*
G01*
X154840400Y-94378600D02*
X154840400Y-94038600D01*
G75*
G02*
X154980400Y-93898600I140000J0D01*
G01*
X155260400Y-93898600D01*
G75*
G02*
X155400400Y-94038600I0J-140000D01*
G01*
X155400400Y-94378600D01*
G75*
G02*
X155260400Y-94518600I-140000J0D01*
G01*
X154980400Y-94518600D01*
G75*
G02*
X154840400Y-94378600I0J140000D01*
G01*
G37*
%TD*%
%TO.C,C9*%
G36*
G01*
X155800400Y-92626000D02*
X155800400Y-92286000D01*
G75*
G02*
X155940400Y-92146000I140000J0D01*
G01*
X156220400Y-92146000D01*
G75*
G02*
X156360400Y-92286000I0J-140000D01*
G01*
X156360400Y-92626000D01*
G75*
G02*
X156220400Y-92766000I-140000J0D01*
G01*
X155940400Y-92766000D01*
G75*
G02*
X155800400Y-92626000I0J140000D01*
G01*
G37*
G36*
G01*
X154840400Y-92626000D02*
X154840400Y-92286000D01*
G75*
G02*
X154980400Y-92146000I140000J0D01*
G01*
X155260400Y-92146000D01*
G75*
G02*
X155400400Y-92286000I0J-140000D01*
G01*
X155400400Y-92626000D01*
G75*
G02*
X155260400Y-92766000I-140000J0D01*
G01*
X154980400Y-92766000D01*
G75*
G02*
X154840400Y-92626000I0J140000D01*
G01*
G37*
%TD*%
%TO.C,C4*%
G36*
G01*
X160936000Y-85180000D02*
X161136000Y-85180000D01*
G75*
G02*
X161236000Y-85280000I0J-100000D01*
G01*
X161236000Y-85540000D01*
G75*
G02*
X161136000Y-85640000I-100000J0D01*
G01*
X160936000Y-85640000D01*
G75*
G02*
X160836000Y-85540000I0J100000D01*
G01*
X160836000Y-85280000D01*
G75*
G02*
X160936000Y-85180000I100000J0D01*
G01*
G37*
G36*
G01*
X160936000Y-84540000D02*
X161136000Y-84540000D01*
G75*
G02*
X161236000Y-84640000I0J-100000D01*
G01*
X161236000Y-84900000D01*
G75*
G02*
X161136000Y-85000000I-100000J0D01*
G01*
X160936000Y-85000000D01*
G75*
G02*
X160836000Y-84900000I0J100000D01*
G01*
X160836000Y-84640000D01*
G75*
G02*
X160936000Y-84540000I100000J0D01*
G01*
G37*
%TD*%
%TO.C,C2*%
G36*
G01*
X141999800Y-91413000D02*
X141999800Y-91213000D01*
G75*
G02*
X142099800Y-91113000I100000J0D01*
G01*
X142359800Y-91113000D01*
G75*
G02*
X142459800Y-91213000I0J-100000D01*
G01*
X142459800Y-91413000D01*
G75*
G02*
X142359800Y-91513000I-100000J0D01*
G01*
X142099800Y-91513000D01*
G75*
G02*
X141999800Y-91413000I0J100000D01*
G01*
G37*
G36*
G01*
X141359800Y-91413000D02*
X141359800Y-91213000D01*
G75*
G02*
X141459800Y-91113000I100000J0D01*
G01*
X141719800Y-91113000D01*
G75*
G02*
X141819800Y-91213000I0J-100000D01*
G01*
X141819800Y-91413000D01*
G75*
G02*
X141719800Y-91513000I-100000J0D01*
G01*
X141459800Y-91513000D01*
G75*
G02*
X141359800Y-91413000I0J100000D01*
G01*
G37*
%TD*%
%TO.C,C1*%
G36*
G01*
X139215800Y-87794000D02*
X139015800Y-87794000D01*
G75*
G02*
X138915800Y-87694000I0J100000D01*
G01*
X138915800Y-87434000D01*
G75*
G02*
X139015800Y-87334000I100000J0D01*
G01*
X139215800Y-87334000D01*
G75*
G02*
X139315800Y-87434000I0J-100000D01*
G01*
X139315800Y-87694000D01*
G75*
G02*
X139215800Y-87794000I-100000J0D01*
G01*
G37*
G36*
G01*
X139215800Y-88434000D02*
X139015800Y-88434000D01*
G75*
G02*
X138915800Y-88334000I0J100000D01*
G01*
X138915800Y-88074000D01*
G75*
G02*
X139015800Y-87974000I100000J0D01*
G01*
X139215800Y-87974000D01*
G75*
G02*
X139315800Y-88074000I0J-100000D01*
G01*
X139315800Y-88334000D01*
G75*
G02*
X139215800Y-88434000I-100000J0D01*
G01*
G37*
%TD*%
%TO.C,R11*%
G36*
G01*
X135472000Y-78840000D02*
X135472000Y-78640000D01*
G75*
G02*
X135572000Y-78540000I100000J0D01*
G01*
X135832000Y-78540000D01*
G75*
G02*
X135932000Y-78640000I0J-100000D01*
G01*
X135932000Y-78840000D01*
G75*
G02*
X135832000Y-78940000I-100000J0D01*
G01*
X135572000Y-78940000D01*
G75*
G02*
X135472000Y-78840000I0J100000D01*
G01*
G37*
G36*
G01*
X134832000Y-78840000D02*
X134832000Y-78640000D01*
G75*
G02*
X134932000Y-78540000I100000J0D01*
G01*
X135192000Y-78540000D01*
G75*
G02*
X135292000Y-78640000I0J-100000D01*
G01*
X135292000Y-78840000D01*
G75*
G02*
X135192000Y-78940000I-100000J0D01*
G01*
X134932000Y-78940000D01*
G75*
G02*
X134832000Y-78840000I0J100000D01*
G01*
G37*
%TD*%
%TO.C,R22*%
G36*
G01*
X140130200Y-80250200D02*
X139930200Y-80250200D01*
G75*
G02*
X139830200Y-80150200I0J100000D01*
G01*
X139830200Y-79890200D01*
G75*
G02*
X139930200Y-79790200I100000J0D01*
G01*
X140130200Y-79790200D01*
G75*
G02*
X140230200Y-79890200I0J-100000D01*
G01*
X140230200Y-80150200D01*
G75*
G02*
X140130200Y-80250200I-100000J0D01*
G01*
G37*
G36*
G01*
X140130200Y-80890200D02*
X139930200Y-80890200D01*
G75*
G02*
X139830200Y-80790200I0J100000D01*
G01*
X139830200Y-80530200D01*
G75*
G02*
X139930200Y-80430200I100000J0D01*
G01*
X140130200Y-80430200D01*
G75*
G02*
X140230200Y-80530200I0J-100000D01*
G01*
X140230200Y-80790200D01*
G75*
G02*
X140130200Y-80890200I-100000J0D01*
G01*
G37*
%TD*%
%TO.C,R21*%
G36*
G01*
X141781200Y-80224800D02*
X141581200Y-80224800D01*
G75*
G02*
X141481200Y-80124800I0J100000D01*
G01*
X141481200Y-79864800D01*
G75*
G02*
X141581200Y-79764800I100000J0D01*
G01*
X141781200Y-79764800D01*
G75*
G02*
X141881200Y-79864800I0J-100000D01*
G01*
X141881200Y-80124800D01*
G75*
G02*
X141781200Y-80224800I-100000J0D01*
G01*
G37*
G36*
G01*
X141781200Y-80864800D02*
X141581200Y-80864800D01*
G75*
G02*
X141481200Y-80764800I0J100000D01*
G01*
X141481200Y-80504800D01*
G75*
G02*
X141581200Y-80404800I100000J0D01*
G01*
X141781200Y-80404800D01*
G75*
G02*
X141881200Y-80504800I0J-100000D01*
G01*
X141881200Y-80764800D01*
G75*
G02*
X141781200Y-80864800I-100000J0D01*
G01*
G37*
%TD*%
%TO.C,R9*%
G36*
G01*
X142467000Y-99859000D02*
X142267000Y-99859000D01*
G75*
G02*
X142167000Y-99759000I0J100000D01*
G01*
X142167000Y-99499000D01*
G75*
G02*
X142267000Y-99399000I100000J0D01*
G01*
X142467000Y-99399000D01*
G75*
G02*
X142567000Y-99499000I0J-100000D01*
G01*
X142567000Y-99759000D01*
G75*
G02*
X142467000Y-99859000I-100000J0D01*
G01*
G37*
G36*
G01*
X142467000Y-100499000D02*
X142267000Y-100499000D01*
G75*
G02*
X142167000Y-100399000I0J100000D01*
G01*
X142167000Y-100139000D01*
G75*
G02*
X142267000Y-100039000I100000J0D01*
G01*
X142467000Y-100039000D01*
G75*
G02*
X142567000Y-100139000I0J-100000D01*
G01*
X142567000Y-100399000D01*
G75*
G02*
X142467000Y-100499000I-100000J0D01*
G01*
G37*
%TD*%
%TO.C,R8*%
G36*
G01*
X151230000Y-95287000D02*
X151030000Y-95287000D01*
G75*
G02*
X150930000Y-95187000I0J100000D01*
G01*
X150930000Y-94927000D01*
G75*
G02*
X151030000Y-94827000I100000J0D01*
G01*
X151230000Y-94827000D01*
G75*
G02*
X151330000Y-94927000I0J-100000D01*
G01*
X151330000Y-95187000D01*
G75*
G02*
X151230000Y-95287000I-100000J0D01*
G01*
G37*
G36*
G01*
X151230000Y-95927000D02*
X151030000Y-95927000D01*
G75*
G02*
X150930000Y-95827000I0J100000D01*
G01*
X150930000Y-95567000D01*
G75*
G02*
X151030000Y-95467000I100000J0D01*
G01*
X151230000Y-95467000D01*
G75*
G02*
X151330000Y-95567000I0J-100000D01*
G01*
X151330000Y-95827000D01*
G75*
G02*
X151230000Y-95927000I-100000J0D01*
G01*
G37*
%TD*%
%TO.C,R5*%
G36*
G01*
X155297200Y-90705000D02*
X155297200Y-90905000D01*
G75*
G02*
X155197200Y-91005000I-100000J0D01*
G01*
X154937200Y-91005000D01*
G75*
G02*
X154837200Y-90905000I0J100000D01*
G01*
X154837200Y-90705000D01*
G75*
G02*
X154937200Y-90605000I100000J0D01*
G01*
X155197200Y-90605000D01*
G75*
G02*
X155297200Y-90705000I0J-100000D01*
G01*
G37*
G36*
G01*
X155937200Y-90705000D02*
X155937200Y-90905000D01*
G75*
G02*
X155837200Y-91005000I-100000J0D01*
G01*
X155577200Y-91005000D01*
G75*
G02*
X155477200Y-90905000I0J100000D01*
G01*
X155477200Y-90705000D01*
G75*
G02*
X155577200Y-90605000I100000J0D01*
G01*
X155837200Y-90605000D01*
G75*
G02*
X155937200Y-90705000I0J-100000D01*
G01*
G37*
%TD*%
%TO.C,R4*%
G36*
G01*
X144182000Y-89054000D02*
X144182000Y-89254000D01*
G75*
G02*
X144082000Y-89354000I-100000J0D01*
G01*
X143822000Y-89354000D01*
G75*
G02*
X143722000Y-89254000I0J100000D01*
G01*
X143722000Y-89054000D01*
G75*
G02*
X143822000Y-88954000I100000J0D01*
G01*
X144082000Y-88954000D01*
G75*
G02*
X144182000Y-89054000I0J-100000D01*
G01*
G37*
G36*
G01*
X144822000Y-89054000D02*
X144822000Y-89254000D01*
G75*
G02*
X144722000Y-89354000I-100000J0D01*
G01*
X144462000Y-89354000D01*
G75*
G02*
X144362000Y-89254000I0J100000D01*
G01*
X144362000Y-89054000D01*
G75*
G02*
X144462000Y-88954000I100000J0D01*
G01*
X144722000Y-88954000D01*
G75*
G02*
X144822000Y-89054000I0J-100000D01*
G01*
G37*
%TD*%
%TO.C,R3*%
G36*
G01*
X162089000Y-82450000D02*
X162089000Y-82650000D01*
G75*
G02*
X161989000Y-82750000I-100000J0D01*
G01*
X161729000Y-82750000D01*
G75*
G02*
X161629000Y-82650000I0J100000D01*
G01*
X161629000Y-82450000D01*
G75*
G02*
X161729000Y-82350000I100000J0D01*
G01*
X161989000Y-82350000D01*
G75*
G02*
X162089000Y-82450000I0J-100000D01*
G01*
G37*
G36*
G01*
X162729000Y-82450000D02*
X162729000Y-82650000D01*
G75*
G02*
X162629000Y-82750000I-100000J0D01*
G01*
X162369000Y-82750000D01*
G75*
G02*
X162269000Y-82650000I0J100000D01*
G01*
X162269000Y-82450000D01*
G75*
G02*
X162369000Y-82350000I100000J0D01*
G01*
X162629000Y-82350000D01*
G75*
G02*
X162729000Y-82450000I0J-100000D01*
G01*
G37*
%TD*%
%TO.C,R1*%
G36*
G01*
X162269000Y-81761000D02*
X162269000Y-81561000D01*
G75*
G02*
X162369000Y-81461000I100000J0D01*
G01*
X162629000Y-81461000D01*
G75*
G02*
X162729000Y-81561000I0J-100000D01*
G01*
X162729000Y-81761000D01*
G75*
G02*
X162629000Y-81861000I-100000J0D01*
G01*
X162369000Y-81861000D01*
G75*
G02*
X162269000Y-81761000I0J100000D01*
G01*
G37*
G36*
G01*
X161629000Y-81761000D02*
X161629000Y-81561000D01*
G75*
G02*
X161729000Y-81461000I100000J0D01*
G01*
X161989000Y-81461000D01*
G75*
G02*
X162089000Y-81561000I0J-100000D01*
G01*
X162089000Y-81761000D01*
G75*
G02*
X161989000Y-81861000I-100000J0D01*
G01*
X161729000Y-81861000D01*
G75*
G02*
X161629000Y-81761000I0J100000D01*
G01*
G37*
%TD*%
%TO.C,C18*%
G36*
G01*
X155487200Y-93445000D02*
X155487200Y-93245000D01*
G75*
G02*
X155587200Y-93145000I100000J0D01*
G01*
X155847200Y-93145000D01*
G75*
G02*
X155947200Y-93245000I0J-100000D01*
G01*
X155947200Y-93445000D01*
G75*
G02*
X155847200Y-93545000I-100000J0D01*
G01*
X155587200Y-93545000D01*
G75*
G02*
X155487200Y-93445000I0J100000D01*
G01*
G37*
G36*
G01*
X154847200Y-93445000D02*
X154847200Y-93245000D01*
G75*
G02*
X154947200Y-93145000I100000J0D01*
G01*
X155207200Y-93145000D01*
G75*
G02*
X155307200Y-93245000I0J-100000D01*
G01*
X155307200Y-93445000D01*
G75*
G02*
X155207200Y-93545000I-100000J0D01*
G01*
X154947200Y-93545000D01*
G75*
G02*
X154847200Y-93445000I0J100000D01*
G01*
G37*
%TD*%
%TO.C,C16*%
G36*
G01*
X155477200Y-90143000D02*
X155477200Y-89943000D01*
G75*
G02*
X155577200Y-89843000I100000J0D01*
G01*
X155837200Y-89843000D01*
G75*
G02*
X155937200Y-89943000I0J-100000D01*
G01*
X155937200Y-90143000D01*
G75*
G02*
X155837200Y-90243000I-100000J0D01*
G01*
X155577200Y-90243000D01*
G75*
G02*
X155477200Y-90143000I0J100000D01*
G01*
G37*
G36*
G01*
X154837200Y-90143000D02*
X154837200Y-89943000D01*
G75*
G02*
X154937200Y-89843000I100000J0D01*
G01*
X155197200Y-89843000D01*
G75*
G02*
X155297200Y-89943000I0J-100000D01*
G01*
X155297200Y-90143000D01*
G75*
G02*
X155197200Y-90243000I-100000J0D01*
G01*
X154937200Y-90243000D01*
G75*
G02*
X154837200Y-90143000I0J100000D01*
G01*
G37*
%TD*%
%TO.C,C15*%
G36*
G01*
X153316000Y-95467000D02*
X153516000Y-95467000D01*
G75*
G02*
X153616000Y-95567000I0J-100000D01*
G01*
X153616000Y-95827000D01*
G75*
G02*
X153516000Y-95927000I-100000J0D01*
G01*
X153316000Y-95927000D01*
G75*
G02*
X153216000Y-95827000I0J100000D01*
G01*
X153216000Y-95567000D01*
G75*
G02*
X153316000Y-95467000I100000J0D01*
G01*
G37*
G36*
G01*
X153316000Y-94827000D02*
X153516000Y-94827000D01*
G75*
G02*
X153616000Y-94927000I0J-100000D01*
G01*
X153616000Y-95187000D01*
G75*
G02*
X153516000Y-95287000I-100000J0D01*
G01*
X153316000Y-95287000D01*
G75*
G02*
X153216000Y-95187000I0J100000D01*
G01*
X153216000Y-94927000D01*
G75*
G02*
X153316000Y-94827000I100000J0D01*
G01*
G37*
%TD*%
%TO.C,C14*%
G36*
G01*
X148363000Y-95467000D02*
X148563000Y-95467000D01*
G75*
G02*
X148663000Y-95567000I0J-100000D01*
G01*
X148663000Y-95827000D01*
G75*
G02*
X148563000Y-95927000I-100000J0D01*
G01*
X148363000Y-95927000D01*
G75*
G02*
X148263000Y-95827000I0J100000D01*
G01*
X148263000Y-95567000D01*
G75*
G02*
X148363000Y-95467000I100000J0D01*
G01*
G37*
G36*
G01*
X148363000Y-94827000D02*
X148563000Y-94827000D01*
G75*
G02*
X148663000Y-94927000I0J-100000D01*
G01*
X148663000Y-95187000D01*
G75*
G02*
X148563000Y-95287000I-100000J0D01*
G01*
X148363000Y-95287000D01*
G75*
G02*
X148263000Y-95187000I0J100000D01*
G01*
X148263000Y-94927000D01*
G75*
G02*
X148363000Y-94827000I100000J0D01*
G01*
G37*
%TD*%
%TO.C,C13*%
G36*
G01*
X144182000Y-89816000D02*
X144182000Y-90016000D01*
G75*
G02*
X144082000Y-90116000I-100000J0D01*
G01*
X143822000Y-90116000D01*
G75*
G02*
X143722000Y-90016000I0J100000D01*
G01*
X143722000Y-89816000D01*
G75*
G02*
X143822000Y-89716000I100000J0D01*
G01*
X144082000Y-89716000D01*
G75*
G02*
X144182000Y-89816000I0J-100000D01*
G01*
G37*
G36*
G01*
X144822000Y-89816000D02*
X144822000Y-90016000D01*
G75*
G02*
X144722000Y-90116000I-100000J0D01*
G01*
X144462000Y-90116000D01*
G75*
G02*
X144362000Y-90016000I0J100000D01*
G01*
X144362000Y-89816000D01*
G75*
G02*
X144462000Y-89716000I100000J0D01*
G01*
X144722000Y-89716000D01*
G75*
G02*
X144822000Y-89816000I0J-100000D01*
G01*
G37*
%TD*%
%TO.C,C12*%
G36*
G01*
X148436000Y-84238000D02*
X148236000Y-84238000D01*
G75*
G02*
X148136000Y-84138000I0J100000D01*
G01*
X148136000Y-83878000D01*
G75*
G02*
X148236000Y-83778000I100000J0D01*
G01*
X148436000Y-83778000D01*
G75*
G02*
X148536000Y-83878000I0J-100000D01*
G01*
X148536000Y-84138000D01*
G75*
G02*
X148436000Y-84238000I-100000J0D01*
G01*
G37*
G36*
G01*
X148436000Y-84878000D02*
X148236000Y-84878000D01*
G75*
G02*
X148136000Y-84778000I0J100000D01*
G01*
X148136000Y-84518000D01*
G75*
G02*
X148236000Y-84418000I100000J0D01*
G01*
X148436000Y-84418000D01*
G75*
G02*
X148536000Y-84518000I0J-100000D01*
G01*
X148536000Y-84778000D01*
G75*
G02*
X148436000Y-84878000I-100000J0D01*
G01*
G37*
%TD*%
%TO.C,C11*%
G36*
G01*
X153008000Y-84365000D02*
X152808000Y-84365000D01*
G75*
G02*
X152708000Y-84265000I0J100000D01*
G01*
X152708000Y-84005000D01*
G75*
G02*
X152808000Y-83905000I100000J0D01*
G01*
X153008000Y-83905000D01*
G75*
G02*
X153108000Y-84005000I0J-100000D01*
G01*
X153108000Y-84265000D01*
G75*
G02*
X153008000Y-84365000I-100000J0D01*
G01*
G37*
G36*
G01*
X153008000Y-85005000D02*
X152808000Y-85005000D01*
G75*
G02*
X152708000Y-84905000I0J100000D01*
G01*
X152708000Y-84645000D01*
G75*
G02*
X152808000Y-84545000I100000J0D01*
G01*
X153008000Y-84545000D01*
G75*
G02*
X153108000Y-84645000I0J-100000D01*
G01*
X153108000Y-84905000D01*
G75*
G02*
X153008000Y-85005000I-100000J0D01*
G01*
G37*
%TD*%
%TO.C,C7*%
G36*
G01*
X144182000Y-90578000D02*
X144182000Y-90778000D01*
G75*
G02*
X144082000Y-90878000I-100000J0D01*
G01*
X143822000Y-90878000D01*
G75*
G02*
X143722000Y-90778000I0J100000D01*
G01*
X143722000Y-90578000D01*
G75*
G02*
X143822000Y-90478000I100000J0D01*
G01*
X144082000Y-90478000D01*
G75*
G02*
X144182000Y-90578000I0J-100000D01*
G01*
G37*
G36*
G01*
X144822000Y-90578000D02*
X144822000Y-90778000D01*
G75*
G02*
X144722000Y-90878000I-100000J0D01*
G01*
X144462000Y-90878000D01*
G75*
G02*
X144362000Y-90778000I0J100000D01*
G01*
X144362000Y-90578000D01*
G75*
G02*
X144462000Y-90478000I100000J0D01*
G01*
X144722000Y-90478000D01*
G75*
G02*
X144822000Y-90578000I0J-100000D01*
G01*
G37*
%TD*%
%TO.C,U4*%
G36*
G01*
X152910000Y-87216000D02*
X153685000Y-87216000D01*
G75*
G02*
X153735000Y-87266000I0J-50000D01*
G01*
X153735000Y-87366000D01*
G75*
G02*
X153685000Y-87416000I-50000J0D01*
G01*
X152910000Y-87416000D01*
G75*
G02*
X152860000Y-87366000I0J50000D01*
G01*
X152860000Y-87266000D01*
G75*
G02*
X152910000Y-87216000I50000J0D01*
G01*
G37*
G36*
G01*
X152910000Y-87616000D02*
X153685000Y-87616000D01*
G75*
G02*
X153735000Y-87666000I0J-50000D01*
G01*
X153735000Y-87766000D01*
G75*
G02*
X153685000Y-87816000I-50000J0D01*
G01*
X152910000Y-87816000D01*
G75*
G02*
X152860000Y-87766000I0J50000D01*
G01*
X152860000Y-87666000D01*
G75*
G02*
X152910000Y-87616000I50000J0D01*
G01*
G37*
G36*
G01*
X152910000Y-88016000D02*
X153685000Y-88016000D01*
G75*
G02*
X153735000Y-88066000I0J-50000D01*
G01*
X153735000Y-88166000D01*
G75*
G02*
X153685000Y-88216000I-50000J0D01*
G01*
X152910000Y-88216000D01*
G75*
G02*
X152860000Y-88166000I0J50000D01*
G01*
X152860000Y-88066000D01*
G75*
G02*
X152910000Y-88016000I50000J0D01*
G01*
G37*
G36*
G01*
X152910000Y-88416000D02*
X153685000Y-88416000D01*
G75*
G02*
X153735000Y-88466000I0J-50000D01*
G01*
X153735000Y-88566000D01*
G75*
G02*
X153685000Y-88616000I-50000J0D01*
G01*
X152910000Y-88616000D01*
G75*
G02*
X152860000Y-88566000I0J50000D01*
G01*
X152860000Y-88466000D01*
G75*
G02*
X152910000Y-88416000I50000J0D01*
G01*
G37*
G36*
G01*
X152910000Y-88816000D02*
X153685000Y-88816000D01*
G75*
G02*
X153735000Y-88866000I0J-50000D01*
G01*
X153735000Y-88966000D01*
G75*
G02*
X153685000Y-89016000I-50000J0D01*
G01*
X152910000Y-89016000D01*
G75*
G02*
X152860000Y-88966000I0J50000D01*
G01*
X152860000Y-88866000D01*
G75*
G02*
X152910000Y-88816000I50000J0D01*
G01*
G37*
G36*
G01*
X152910000Y-89216000D02*
X153685000Y-89216000D01*
G75*
G02*
X153735000Y-89266000I0J-50000D01*
G01*
X153735000Y-89366000D01*
G75*
G02*
X153685000Y-89416000I-50000J0D01*
G01*
X152910000Y-89416000D01*
G75*
G02*
X152860000Y-89366000I0J50000D01*
G01*
X152860000Y-89266000D01*
G75*
G02*
X152910000Y-89216000I50000J0D01*
G01*
G37*
G36*
G01*
X152910000Y-89616000D02*
X153685000Y-89616000D01*
G75*
G02*
X153735000Y-89666000I0J-50000D01*
G01*
X153735000Y-89766000D01*
G75*
G02*
X153685000Y-89816000I-50000J0D01*
G01*
X152910000Y-89816000D01*
G75*
G02*
X152860000Y-89766000I0J50000D01*
G01*
X152860000Y-89666000D01*
G75*
G02*
X152910000Y-89616000I50000J0D01*
G01*
G37*
G36*
G01*
X152910000Y-90016000D02*
X153685000Y-90016000D01*
G75*
G02*
X153735000Y-90066000I0J-50000D01*
G01*
X153735000Y-90166000D01*
G75*
G02*
X153685000Y-90216000I-50000J0D01*
G01*
X152910000Y-90216000D01*
G75*
G02*
X152860000Y-90166000I0J50000D01*
G01*
X152860000Y-90066000D01*
G75*
G02*
X152910000Y-90016000I50000J0D01*
G01*
G37*
G36*
G01*
X152910000Y-90416000D02*
X153685000Y-90416000D01*
G75*
G02*
X153735000Y-90466000I0J-50000D01*
G01*
X153735000Y-90566000D01*
G75*
G02*
X153685000Y-90616000I-50000J0D01*
G01*
X152910000Y-90616000D01*
G75*
G02*
X152860000Y-90566000I0J50000D01*
G01*
X152860000Y-90466000D01*
G75*
G02*
X152910000Y-90416000I50000J0D01*
G01*
G37*
G36*
G01*
X152910000Y-90816000D02*
X153685000Y-90816000D01*
G75*
G02*
X153735000Y-90866000I0J-50000D01*
G01*
X153735000Y-90966000D01*
G75*
G02*
X153685000Y-91016000I-50000J0D01*
G01*
X152910000Y-91016000D01*
G75*
G02*
X152860000Y-90966000I0J50000D01*
G01*
X152860000Y-90866000D01*
G75*
G02*
X152910000Y-90816000I50000J0D01*
G01*
G37*
G36*
G01*
X152910000Y-91216000D02*
X153685000Y-91216000D01*
G75*
G02*
X153735000Y-91266000I0J-50000D01*
G01*
X153735000Y-91366000D01*
G75*
G02*
X153685000Y-91416000I-50000J0D01*
G01*
X152910000Y-91416000D01*
G75*
G02*
X152860000Y-91366000I0J50000D01*
G01*
X152860000Y-91266000D01*
G75*
G02*
X152910000Y-91216000I50000J0D01*
G01*
G37*
G36*
G01*
X152910000Y-91616000D02*
X153685000Y-91616000D01*
G75*
G02*
X153735000Y-91666000I0J-50000D01*
G01*
X153735000Y-91766000D01*
G75*
G02*
X153685000Y-91816000I-50000J0D01*
G01*
X152910000Y-91816000D01*
G75*
G02*
X152860000Y-91766000I0J50000D01*
G01*
X152860000Y-91666000D01*
G75*
G02*
X152910000Y-91616000I50000J0D01*
G01*
G37*
G36*
G01*
X152910000Y-92016000D02*
X153685000Y-92016000D01*
G75*
G02*
X153735000Y-92066000I0J-50000D01*
G01*
X153735000Y-92166000D01*
G75*
G02*
X153685000Y-92216000I-50000J0D01*
G01*
X152910000Y-92216000D01*
G75*
G02*
X152860000Y-92166000I0J50000D01*
G01*
X152860000Y-92066000D01*
G75*
G02*
X152910000Y-92016000I50000J0D01*
G01*
G37*
G36*
G01*
X152910000Y-92416000D02*
X153685000Y-92416000D01*
G75*
G02*
X153735000Y-92466000I0J-50000D01*
G01*
X153735000Y-92566000D01*
G75*
G02*
X153685000Y-92616000I-50000J0D01*
G01*
X152910000Y-92616000D01*
G75*
G02*
X152860000Y-92566000I0J50000D01*
G01*
X152860000Y-92466000D01*
G75*
G02*
X152910000Y-92416000I50000J0D01*
G01*
G37*
G36*
G01*
X152410000Y-92916000D02*
X152510000Y-92916000D01*
G75*
G02*
X152560000Y-92966000I0J-50000D01*
G01*
X152560000Y-93741000D01*
G75*
G02*
X152510000Y-93791000I-50000J0D01*
G01*
X152410000Y-93791000D01*
G75*
G02*
X152360000Y-93741000I0J50000D01*
G01*
X152360000Y-92966000D01*
G75*
G02*
X152410000Y-92916000I50000J0D01*
G01*
G37*
G36*
G01*
X152010000Y-92916000D02*
X152110000Y-92916000D01*
G75*
G02*
X152160000Y-92966000I0J-50000D01*
G01*
X152160000Y-93741000D01*
G75*
G02*
X152110000Y-93791000I-50000J0D01*
G01*
X152010000Y-93791000D01*
G75*
G02*
X151960000Y-93741000I0J50000D01*
G01*
X151960000Y-92966000D01*
G75*
G02*
X152010000Y-92916000I50000J0D01*
G01*
G37*
G36*
G01*
X151610000Y-92916000D02*
X151710000Y-92916000D01*
G75*
G02*
X151760000Y-92966000I0J-50000D01*
G01*
X151760000Y-93741000D01*
G75*
G02*
X151710000Y-93791000I-50000J0D01*
G01*
X151610000Y-93791000D01*
G75*
G02*
X151560000Y-93741000I0J50000D01*
G01*
X151560000Y-92966000D01*
G75*
G02*
X151610000Y-92916000I50000J0D01*
G01*
G37*
G36*
G01*
X151210000Y-92916000D02*
X151310000Y-92916000D01*
G75*
G02*
X151360000Y-92966000I0J-50000D01*
G01*
X151360000Y-93741000D01*
G75*
G02*
X151310000Y-93791000I-50000J0D01*
G01*
X151210000Y-93791000D01*
G75*
G02*
X151160000Y-93741000I0J50000D01*
G01*
X151160000Y-92966000D01*
G75*
G02*
X151210000Y-92916000I50000J0D01*
G01*
G37*
G36*
G01*
X150810000Y-92916000D02*
X150910000Y-92916000D01*
G75*
G02*
X150960000Y-92966000I0J-50000D01*
G01*
X150960000Y-93741000D01*
G75*
G02*
X150910000Y-93791000I-50000J0D01*
G01*
X150810000Y-93791000D01*
G75*
G02*
X150760000Y-93741000I0J50000D01*
G01*
X150760000Y-92966000D01*
G75*
G02*
X150810000Y-92916000I50000J0D01*
G01*
G37*
G36*
G01*
X150410000Y-92916000D02*
X150510000Y-92916000D01*
G75*
G02*
X150560000Y-92966000I0J-50000D01*
G01*
X150560000Y-93741000D01*
G75*
G02*
X150510000Y-93791000I-50000J0D01*
G01*
X150410000Y-93791000D01*
G75*
G02*
X150360000Y-93741000I0J50000D01*
G01*
X150360000Y-92966000D01*
G75*
G02*
X150410000Y-92916000I50000J0D01*
G01*
G37*
G36*
G01*
X150010000Y-92916000D02*
X150110000Y-92916000D01*
G75*
G02*
X150160000Y-92966000I0J-50000D01*
G01*
X150160000Y-93741000D01*
G75*
G02*
X150110000Y-93791000I-50000J0D01*
G01*
X150010000Y-93791000D01*
G75*
G02*
X149960000Y-93741000I0J50000D01*
G01*
X149960000Y-92966000D01*
G75*
G02*
X150010000Y-92916000I50000J0D01*
G01*
G37*
G36*
G01*
X149610000Y-92916000D02*
X149710000Y-92916000D01*
G75*
G02*
X149760000Y-92966000I0J-50000D01*
G01*
X149760000Y-93741000D01*
G75*
G02*
X149710000Y-93791000I-50000J0D01*
G01*
X149610000Y-93791000D01*
G75*
G02*
X149560000Y-93741000I0J50000D01*
G01*
X149560000Y-92966000D01*
G75*
G02*
X149610000Y-92916000I50000J0D01*
G01*
G37*
G36*
G01*
X149210000Y-92916000D02*
X149310000Y-92916000D01*
G75*
G02*
X149360000Y-92966000I0J-50000D01*
G01*
X149360000Y-93741000D01*
G75*
G02*
X149310000Y-93791000I-50000J0D01*
G01*
X149210000Y-93791000D01*
G75*
G02*
X149160000Y-93741000I0J50000D01*
G01*
X149160000Y-92966000D01*
G75*
G02*
X149210000Y-92916000I50000J0D01*
G01*
G37*
G36*
G01*
X148810000Y-92916000D02*
X148910000Y-92916000D01*
G75*
G02*
X148960000Y-92966000I0J-50000D01*
G01*
X148960000Y-93741000D01*
G75*
G02*
X148910000Y-93791000I-50000J0D01*
G01*
X148810000Y-93791000D01*
G75*
G02*
X148760000Y-93741000I0J50000D01*
G01*
X148760000Y-92966000D01*
G75*
G02*
X148810000Y-92916000I50000J0D01*
G01*
G37*
G36*
G01*
X148410000Y-92916000D02*
X148510000Y-92916000D01*
G75*
G02*
X148560000Y-92966000I0J-50000D01*
G01*
X148560000Y-93741000D01*
G75*
G02*
X148510000Y-93791000I-50000J0D01*
G01*
X148410000Y-93791000D01*
G75*
G02*
X148360000Y-93741000I0J50000D01*
G01*
X148360000Y-92966000D01*
G75*
G02*
X148410000Y-92916000I50000J0D01*
G01*
G37*
G36*
G01*
X148010000Y-92916000D02*
X148110000Y-92916000D01*
G75*
G02*
X148160000Y-92966000I0J-50000D01*
G01*
X148160000Y-93741000D01*
G75*
G02*
X148110000Y-93791000I-50000J0D01*
G01*
X148010000Y-93791000D01*
G75*
G02*
X147960000Y-93741000I0J50000D01*
G01*
X147960000Y-92966000D01*
G75*
G02*
X148010000Y-92916000I50000J0D01*
G01*
G37*
G36*
G01*
X147610000Y-92916000D02*
X147710000Y-92916000D01*
G75*
G02*
X147760000Y-92966000I0J-50000D01*
G01*
X147760000Y-93741000D01*
G75*
G02*
X147710000Y-93791000I-50000J0D01*
G01*
X147610000Y-93791000D01*
G75*
G02*
X147560000Y-93741000I0J50000D01*
G01*
X147560000Y-92966000D01*
G75*
G02*
X147610000Y-92916000I50000J0D01*
G01*
G37*
G36*
G01*
X147210000Y-92916000D02*
X147310000Y-92916000D01*
G75*
G02*
X147360000Y-92966000I0J-50000D01*
G01*
X147360000Y-93741000D01*
G75*
G02*
X147310000Y-93791000I-50000J0D01*
G01*
X147210000Y-93791000D01*
G75*
G02*
X147160000Y-93741000I0J50000D01*
G01*
X147160000Y-92966000D01*
G75*
G02*
X147210000Y-92916000I50000J0D01*
G01*
G37*
G36*
G01*
X146035000Y-92416000D02*
X146810000Y-92416000D01*
G75*
G02*
X146860000Y-92466000I0J-50000D01*
G01*
X146860000Y-92566000D01*
G75*
G02*
X146810000Y-92616000I-50000J0D01*
G01*
X146035000Y-92616000D01*
G75*
G02*
X145985000Y-92566000I0J50000D01*
G01*
X145985000Y-92466000D01*
G75*
G02*
X146035000Y-92416000I50000J0D01*
G01*
G37*
G36*
G01*
X146035000Y-92016000D02*
X146810000Y-92016000D01*
G75*
G02*
X146860000Y-92066000I0J-50000D01*
G01*
X146860000Y-92166000D01*
G75*
G02*
X146810000Y-92216000I-50000J0D01*
G01*
X146035000Y-92216000D01*
G75*
G02*
X145985000Y-92166000I0J50000D01*
G01*
X145985000Y-92066000D01*
G75*
G02*
X146035000Y-92016000I50000J0D01*
G01*
G37*
G36*
G01*
X146035000Y-91616000D02*
X146810000Y-91616000D01*
G75*
G02*
X146860000Y-91666000I0J-50000D01*
G01*
X146860000Y-91766000D01*
G75*
G02*
X146810000Y-91816000I-50000J0D01*
G01*
X146035000Y-91816000D01*
G75*
G02*
X145985000Y-91766000I0J50000D01*
G01*
X145985000Y-91666000D01*
G75*
G02*
X146035000Y-91616000I50000J0D01*
G01*
G37*
G36*
G01*
X146035000Y-91216000D02*
X146810000Y-91216000D01*
G75*
G02*
X146860000Y-91266000I0J-50000D01*
G01*
X146860000Y-91366000D01*
G75*
G02*
X146810000Y-91416000I-50000J0D01*
G01*
X146035000Y-91416000D01*
G75*
G02*
X145985000Y-91366000I0J50000D01*
G01*
X145985000Y-91266000D01*
G75*
G02*
X146035000Y-91216000I50000J0D01*
G01*
G37*
G36*
G01*
X146035000Y-90816000D02*
X146810000Y-90816000D01*
G75*
G02*
X146860000Y-90866000I0J-50000D01*
G01*
X146860000Y-90966000D01*
G75*
G02*
X146810000Y-91016000I-50000J0D01*
G01*
X146035000Y-91016000D01*
G75*
G02*
X145985000Y-90966000I0J50000D01*
G01*
X145985000Y-90866000D01*
G75*
G02*
X146035000Y-90816000I50000J0D01*
G01*
G37*
G36*
G01*
X146035000Y-90416000D02*
X146810000Y-90416000D01*
G75*
G02*
X146860000Y-90466000I0J-50000D01*
G01*
X146860000Y-90566000D01*
G75*
G02*
X146810000Y-90616000I-50000J0D01*
G01*
X146035000Y-90616000D01*
G75*
G02*
X145985000Y-90566000I0J50000D01*
G01*
X145985000Y-90466000D01*
G75*
G02*
X146035000Y-90416000I50000J0D01*
G01*
G37*
G36*
G01*
X146035000Y-90016000D02*
X146810000Y-90016000D01*
G75*
G02*
X146860000Y-90066000I0J-50000D01*
G01*
X146860000Y-90166000D01*
G75*
G02*
X146810000Y-90216000I-50000J0D01*
G01*
X146035000Y-90216000D01*
G75*
G02*
X145985000Y-90166000I0J50000D01*
G01*
X145985000Y-90066000D01*
G75*
G02*
X146035000Y-90016000I50000J0D01*
G01*
G37*
G36*
G01*
X146035000Y-89616000D02*
X146810000Y-89616000D01*
G75*
G02*
X146860000Y-89666000I0J-50000D01*
G01*
X146860000Y-89766000D01*
G75*
G02*
X146810000Y-89816000I-50000J0D01*
G01*
X146035000Y-89816000D01*
G75*
G02*
X145985000Y-89766000I0J50000D01*
G01*
X145985000Y-89666000D01*
G75*
G02*
X146035000Y-89616000I50000J0D01*
G01*
G37*
G36*
G01*
X146035000Y-89216000D02*
X146810000Y-89216000D01*
G75*
G02*
X146860000Y-89266000I0J-50000D01*
G01*
X146860000Y-89366000D01*
G75*
G02*
X146810000Y-89416000I-50000J0D01*
G01*
X146035000Y-89416000D01*
G75*
G02*
X145985000Y-89366000I0J50000D01*
G01*
X145985000Y-89266000D01*
G75*
G02*
X146035000Y-89216000I50000J0D01*
G01*
G37*
G36*
G01*
X146035000Y-88816000D02*
X146810000Y-88816000D01*
G75*
G02*
X146860000Y-88866000I0J-50000D01*
G01*
X146860000Y-88966000D01*
G75*
G02*
X146810000Y-89016000I-50000J0D01*
G01*
X146035000Y-89016000D01*
G75*
G02*
X145985000Y-88966000I0J50000D01*
G01*
X145985000Y-88866000D01*
G75*
G02*
X146035000Y-88816000I50000J0D01*
G01*
G37*
G36*
G01*
X146035000Y-88416000D02*
X146810000Y-88416000D01*
G75*
G02*
X146860000Y-88466000I0J-50000D01*
G01*
X146860000Y-88566000D01*
G75*
G02*
X146810000Y-88616000I-50000J0D01*
G01*
X146035000Y-88616000D01*
G75*
G02*
X145985000Y-88566000I0J50000D01*
G01*
X145985000Y-88466000D01*
G75*
G02*
X146035000Y-88416000I50000J0D01*
G01*
G37*
G36*
G01*
X146035000Y-88016000D02*
X146810000Y-88016000D01*
G75*
G02*
X146860000Y-88066000I0J-50000D01*
G01*
X146860000Y-88166000D01*
G75*
G02*
X146810000Y-88216000I-50000J0D01*
G01*
X146035000Y-88216000D01*
G75*
G02*
X145985000Y-88166000I0J50000D01*
G01*
X145985000Y-88066000D01*
G75*
G02*
X146035000Y-88016000I50000J0D01*
G01*
G37*
G36*
G01*
X146035000Y-87616000D02*
X146810000Y-87616000D01*
G75*
G02*
X146860000Y-87666000I0J-50000D01*
G01*
X146860000Y-87766000D01*
G75*
G02*
X146810000Y-87816000I-50000J0D01*
G01*
X146035000Y-87816000D01*
G75*
G02*
X145985000Y-87766000I0J50000D01*
G01*
X145985000Y-87666000D01*
G75*
G02*
X146035000Y-87616000I50000J0D01*
G01*
G37*
G36*
G01*
X146035000Y-87216000D02*
X146810000Y-87216000D01*
G75*
G02*
X146860000Y-87266000I0J-50000D01*
G01*
X146860000Y-87366000D01*
G75*
G02*
X146810000Y-87416000I-50000J0D01*
G01*
X146035000Y-87416000D01*
G75*
G02*
X145985000Y-87366000I0J50000D01*
G01*
X145985000Y-87266000D01*
G75*
G02*
X146035000Y-87216000I50000J0D01*
G01*
G37*
G36*
G01*
X147210000Y-86041000D02*
X147310000Y-86041000D01*
G75*
G02*
X147360000Y-86091000I0J-50000D01*
G01*
X147360000Y-86866000D01*
G75*
G02*
X147310000Y-86916000I-50000J0D01*
G01*
X147210000Y-86916000D01*
G75*
G02*
X147160000Y-86866000I0J50000D01*
G01*
X147160000Y-86091000D01*
G75*
G02*
X147210000Y-86041000I50000J0D01*
G01*
G37*
G36*
G01*
X147610000Y-86041000D02*
X147710000Y-86041000D01*
G75*
G02*
X147760000Y-86091000I0J-50000D01*
G01*
X147760000Y-86866000D01*
G75*
G02*
X147710000Y-86916000I-50000J0D01*
G01*
X147610000Y-86916000D01*
G75*
G02*
X147560000Y-86866000I0J50000D01*
G01*
X147560000Y-86091000D01*
G75*
G02*
X147610000Y-86041000I50000J0D01*
G01*
G37*
G36*
G01*
X148010000Y-86041000D02*
X148110000Y-86041000D01*
G75*
G02*
X148160000Y-86091000I0J-50000D01*
G01*
X148160000Y-86866000D01*
G75*
G02*
X148110000Y-86916000I-50000J0D01*
G01*
X148010000Y-86916000D01*
G75*
G02*
X147960000Y-86866000I0J50000D01*
G01*
X147960000Y-86091000D01*
G75*
G02*
X148010000Y-86041000I50000J0D01*
G01*
G37*
G36*
G01*
X148410000Y-86041000D02*
X148510000Y-86041000D01*
G75*
G02*
X148560000Y-86091000I0J-50000D01*
G01*
X148560000Y-86866000D01*
G75*
G02*
X148510000Y-86916000I-50000J0D01*
G01*
X148410000Y-86916000D01*
G75*
G02*
X148360000Y-86866000I0J50000D01*
G01*
X148360000Y-86091000D01*
G75*
G02*
X148410000Y-86041000I50000J0D01*
G01*
G37*
G36*
G01*
X148810000Y-86041000D02*
X148910000Y-86041000D01*
G75*
G02*
X148960000Y-86091000I0J-50000D01*
G01*
X148960000Y-86866000D01*
G75*
G02*
X148910000Y-86916000I-50000J0D01*
G01*
X148810000Y-86916000D01*
G75*
G02*
X148760000Y-86866000I0J50000D01*
G01*
X148760000Y-86091000D01*
G75*
G02*
X148810000Y-86041000I50000J0D01*
G01*
G37*
G36*
G01*
X149210000Y-86041000D02*
X149310000Y-86041000D01*
G75*
G02*
X149360000Y-86091000I0J-50000D01*
G01*
X149360000Y-86866000D01*
G75*
G02*
X149310000Y-86916000I-50000J0D01*
G01*
X149210000Y-86916000D01*
G75*
G02*
X149160000Y-86866000I0J50000D01*
G01*
X149160000Y-86091000D01*
G75*
G02*
X149210000Y-86041000I50000J0D01*
G01*
G37*
G36*
G01*
X149610000Y-86041000D02*
X149710000Y-86041000D01*
G75*
G02*
X149760000Y-86091000I0J-50000D01*
G01*
X149760000Y-86866000D01*
G75*
G02*
X149710000Y-86916000I-50000J0D01*
G01*
X149610000Y-86916000D01*
G75*
G02*
X149560000Y-86866000I0J50000D01*
G01*
X149560000Y-86091000D01*
G75*
G02*
X149610000Y-86041000I50000J0D01*
G01*
G37*
G36*
G01*
X150010000Y-86041000D02*
X150110000Y-86041000D01*
G75*
G02*
X150160000Y-86091000I0J-50000D01*
G01*
X150160000Y-86866000D01*
G75*
G02*
X150110000Y-86916000I-50000J0D01*
G01*
X150010000Y-86916000D01*
G75*
G02*
X149960000Y-86866000I0J50000D01*
G01*
X149960000Y-86091000D01*
G75*
G02*
X150010000Y-86041000I50000J0D01*
G01*
G37*
G36*
G01*
X150410000Y-86041000D02*
X150510000Y-86041000D01*
G75*
G02*
X150560000Y-86091000I0J-50000D01*
G01*
X150560000Y-86866000D01*
G75*
G02*
X150510000Y-86916000I-50000J0D01*
G01*
X150410000Y-86916000D01*
G75*
G02*
X150360000Y-86866000I0J50000D01*
G01*
X150360000Y-86091000D01*
G75*
G02*
X150410000Y-86041000I50000J0D01*
G01*
G37*
G36*
G01*
X150810000Y-86041000D02*
X150910000Y-86041000D01*
G75*
G02*
X150960000Y-86091000I0J-50000D01*
G01*
X150960000Y-86866000D01*
G75*
G02*
X150910000Y-86916000I-50000J0D01*
G01*
X150810000Y-86916000D01*
G75*
G02*
X150760000Y-86866000I0J50000D01*
G01*
X150760000Y-86091000D01*
G75*
G02*
X150810000Y-86041000I50000J0D01*
G01*
G37*
G36*
G01*
X151210000Y-86041000D02*
X151310000Y-86041000D01*
G75*
G02*
X151360000Y-86091000I0J-50000D01*
G01*
X151360000Y-86866000D01*
G75*
G02*
X151310000Y-86916000I-50000J0D01*
G01*
X151210000Y-86916000D01*
G75*
G02*
X151160000Y-86866000I0J50000D01*
G01*
X151160000Y-86091000D01*
G75*
G02*
X151210000Y-86041000I50000J0D01*
G01*
G37*
G36*
G01*
X151610000Y-86041000D02*
X151710000Y-86041000D01*
G75*
G02*
X151760000Y-86091000I0J-50000D01*
G01*
X151760000Y-86866000D01*
G75*
G02*
X151710000Y-86916000I-50000J0D01*
G01*
X151610000Y-86916000D01*
G75*
G02*
X151560000Y-86866000I0J50000D01*
G01*
X151560000Y-86091000D01*
G75*
G02*
X151610000Y-86041000I50000J0D01*
G01*
G37*
G36*
G01*
X152010000Y-86041000D02*
X152110000Y-86041000D01*
G75*
G02*
X152160000Y-86091000I0J-50000D01*
G01*
X152160000Y-86866000D01*
G75*
G02*
X152110000Y-86916000I-50000J0D01*
G01*
X152010000Y-86916000D01*
G75*
G02*
X151960000Y-86866000I0J50000D01*
G01*
X151960000Y-86091000D01*
G75*
G02*
X152010000Y-86041000I50000J0D01*
G01*
G37*
G36*
G01*
X152410000Y-86041000D02*
X152510000Y-86041000D01*
G75*
G02*
X152560000Y-86091000I0J-50000D01*
G01*
X152560000Y-86866000D01*
G75*
G02*
X152510000Y-86916000I-50000J0D01*
G01*
X152410000Y-86916000D01*
G75*
G02*
X152360000Y-86866000I0J50000D01*
G01*
X152360000Y-86091000D01*
G75*
G02*
X152410000Y-86041000I50000J0D01*
G01*
G37*
G36*
G01*
X148404000Y-88316000D02*
X151316000Y-88316000D01*
G75*
G02*
X151460000Y-88460000I0J-144000D01*
G01*
X151460000Y-91372000D01*
G75*
G02*
X151316000Y-91516000I-144000J0D01*
G01*
X148404000Y-91516000D01*
G75*
G02*
X148260000Y-91372000I0J144000D01*
G01*
X148260000Y-88460000D01*
G75*
G02*
X148404000Y-88316000I144000J0D01*
G01*
G37*
%TD*%
D17*
%TO.C,U3*%
X166345000Y-92724000D03*
X166345000Y-88124000D03*
X166345000Y-90424000D03*
D18*
X160045000Y-90424000D03*
%TD*%
D14*
%TO.C,SW1*%
X162573000Y-78740000D03*
X171183000Y-78740000D03*
%TD*%
D19*
%TO.C,Q1*%
X138954000Y-99314000D03*
X140954000Y-98364000D03*
X140954000Y-100264000D03*
%TD*%
D15*
%TO.C,J2*%
X153797000Y-99822000D03*
X151257000Y-99822000D03*
X148717000Y-99822000D03*
D16*
X146177000Y-99822000D03*
%TD*%
%TO.C,D2*%
G36*
G01*
X139773950Y-78328000D02*
X140286450Y-78328000D01*
G75*
G02*
X140505200Y-78546750I0J-218750D01*
G01*
X140505200Y-78984250D01*
G75*
G02*
X140286450Y-79203000I-218750J0D01*
G01*
X139773950Y-79203000D01*
G75*
G02*
X139555200Y-78984250I0J218750D01*
G01*
X139555200Y-78546750D01*
G75*
G02*
X139773950Y-78328000I218750J0D01*
G01*
G37*
G36*
G01*
X139773950Y-76753000D02*
X140286450Y-76753000D01*
G75*
G02*
X140505200Y-76971750I0J-218750D01*
G01*
X140505200Y-77409250D01*
G75*
G02*
X140286450Y-77628000I-218750J0D01*
G01*
X139773950Y-77628000D01*
G75*
G02*
X139555200Y-77409250I0J218750D01*
G01*
X139555200Y-76971750D01*
G75*
G02*
X139773950Y-76753000I218750J0D01*
G01*
G37*
%TD*%
%TO.C,D1*%
G36*
G01*
X141424950Y-78328000D02*
X141937450Y-78328000D01*
G75*
G02*
X142156200Y-78546750I0J-218750D01*
G01*
X142156200Y-78984250D01*
G75*
G02*
X141937450Y-79203000I-218750J0D01*
G01*
X141424950Y-79203000D01*
G75*
G02*
X141206200Y-78984250I0J218750D01*
G01*
X141206200Y-78546750D01*
G75*
G02*
X141424950Y-78328000I218750J0D01*
G01*
G37*
G36*
G01*
X141424950Y-76753000D02*
X141937450Y-76753000D01*
G75*
G02*
X142156200Y-76971750I0J-218750D01*
G01*
X142156200Y-77409250D01*
G75*
G02*
X141937450Y-77628000I-218750J0D01*
G01*
X141424950Y-77628000D01*
G75*
G02*
X141206200Y-77409250I0J218750D01*
G01*
X141206200Y-76971750D01*
G75*
G02*
X141424950Y-76753000I218750J0D01*
G01*
G37*
%TD*%
%TO.C,C6*%
G36*
G01*
X161120000Y-95373000D02*
X161120000Y-94873000D01*
G75*
G02*
X161345000Y-94648000I225000J0D01*
G01*
X161795000Y-94648000D01*
G75*
G02*
X162020000Y-94873000I0J-225000D01*
G01*
X162020000Y-95373000D01*
G75*
G02*
X161795000Y-95598000I-225000J0D01*
G01*
X161345000Y-95598000D01*
G75*
G02*
X161120000Y-95373000I0J225000D01*
G01*
G37*
G36*
G01*
X159570000Y-95373000D02*
X159570000Y-94873000D01*
G75*
G02*
X159795000Y-94648000I225000J0D01*
G01*
X160245000Y-94648000D01*
G75*
G02*
X160470000Y-94873000I0J-225000D01*
G01*
X160470000Y-95373000D01*
G75*
G02*
X160245000Y-95598000I-225000J0D01*
G01*
X159795000Y-95598000D01*
G75*
G02*
X159570000Y-95373000I0J225000D01*
G01*
G37*
%TD*%
%TO.C,C5*%
G36*
G01*
X165283000Y-85449600D02*
X165283000Y-85949600D01*
G75*
G02*
X165058000Y-86174600I-225000J0D01*
G01*
X164608000Y-86174600D01*
G75*
G02*
X164383000Y-85949600I0J225000D01*
G01*
X164383000Y-85449600D01*
G75*
G02*
X164608000Y-85224600I225000J0D01*
G01*
X165058000Y-85224600D01*
G75*
G02*
X165283000Y-85449600I0J-225000D01*
G01*
G37*
G36*
G01*
X166833000Y-85449600D02*
X166833000Y-85949600D01*
G75*
G02*
X166608000Y-86174600I-225000J0D01*
G01*
X166158000Y-86174600D01*
G75*
G02*
X165933000Y-85949600I0J225000D01*
G01*
X165933000Y-85449600D01*
G75*
G02*
X166158000Y-85224600I225000J0D01*
G01*
X166608000Y-85224600D01*
G75*
G02*
X166833000Y-85449600I0J-225000D01*
G01*
G37*
%TD*%
M02*
