%TF.GenerationSoftware,KiCad,Pcbnew,(5.1.9)-1*%
%TF.CreationDate,2021-09-09T09:31:17+08:00*%
%TF.ProjectId,RP2040,52503230-3430-42e6-9b69-6361645f7063,rev?*%
%TF.SameCoordinates,Original*%
%TF.FileFunction,Copper,L3,Inr*%
%TF.FilePolarity,Positive*%
%FSLAX46Y46*%
G04 Gerber Fmt 4.6, Leading zero omitted, Abs format (unit mm)*
G04 Created by KiCad (PCBNEW (5.1.9)-1) date 2021-09-09 09:31:17*
%MOMM*%
%LPD*%
G01*
G04 APERTURE LIST*
%TA.AperFunction,ComponentPad*%
%ADD10O,3.500000X1.900000*%
%TD*%
%TA.AperFunction,ComponentPad*%
%ADD11O,1.700000X1.700000*%
%TD*%
%TA.AperFunction,ComponentPad*%
%ADD12R,1.700000X1.700000*%
%TD*%
%TA.AperFunction,ComponentPad*%
%ADD13C,0.600000*%
%TD*%
%TA.AperFunction,ViaPad*%
%ADD14C,0.508000*%
%TD*%
%TA.AperFunction,Conductor*%
%ADD15C,0.254000*%
%TD*%
%TA.AperFunction,Conductor*%
%ADD16C,0.350000*%
%TD*%
%ADD17C,0.304800*%
%ADD18C,0.350000*%
%ADD19O,2.500000X0.900000*%
G04 APERTURE END LIST*
D10*
%TO.N,GND*%
%TO.C,J1*%
X173440000Y-94600000D03*
X173440000Y-83200000D03*
%TD*%
D11*
%TO.N,Net-(J3-Pad20)*%
%TO.C,J3*%
X130810000Y-100330000D03*
%TO.N,Net-(J3-Pad19)*%
X128270000Y-100330000D03*
%TO.N,Net-(J3-Pad18)*%
X130810000Y-97790000D03*
%TO.N,Net-(J3-Pad17)*%
X128270000Y-97790000D03*
%TO.N,Net-(J3-Pad16)*%
X130810000Y-95250000D03*
%TO.N,Net-(J3-Pad15)*%
X128270000Y-95250000D03*
%TO.N,Net-(J3-Pad14)*%
X130810000Y-92710000D03*
%TO.N,Net-(J3-Pad13)*%
X128270000Y-92710000D03*
%TO.N,Net-(J3-Pad12)*%
X130810000Y-90170000D03*
%TO.N,Net-(J3-Pad11)*%
X128270000Y-90170000D03*
%TO.N,Net-(J3-Pad10)*%
X130810000Y-87630000D03*
%TO.N,Net-(J3-Pad9)*%
X128270000Y-87630000D03*
%TO.N,Net-(J3-Pad8)*%
X130810000Y-85090000D03*
%TO.N,Net-(J3-Pad7)*%
X128270000Y-85090000D03*
%TO.N,Net-(J3-Pad6)*%
X130810000Y-82550000D03*
%TO.N,Net-(J3-Pad5)*%
X128270000Y-82550000D03*
%TO.N,Net-(J3-Pad4)*%
X130810000Y-80010000D03*
%TO.N,Net-(J3-Pad3)*%
X128270000Y-80010000D03*
%TO.N,Vdrive*%
X130810000Y-77470000D03*
D12*
%TO.N,GND*%
X128270000Y-77470000D03*
%TD*%
D13*
%TO.N,GND*%
%TO.C,U4*%
X148585000Y-91191000D03*
X148585000Y-89916000D03*
X148585000Y-88641000D03*
X149860000Y-91191000D03*
X149860000Y-89916000D03*
X149860000Y-88641000D03*
X151135000Y-91191000D03*
X151135000Y-89916000D03*
X151135000Y-88641000D03*
%TD*%
D11*
%TO.N,GND*%
%TO.C,J2*%
X153797000Y-99822000D03*
%TO.N,/SWCLK*%
X151257000Y-99822000D03*
%TO.N,/SWD*%
X148717000Y-99822000D03*
D12*
%TO.N,+3V3*%
X146177000Y-99822000D03*
%TD*%
D14*
%TO.N,/USB_D+*%
X156464000Y-90805000D03*
%TO.N,/USB_D-*%
X156464000Y-91567000D03*
%TO.N,GND*%
X166344600Y-94361000D03*
X154813000Y-77597000D03*
X153797000Y-79375000D03*
X143510000Y-87503000D03*
X143383000Y-81788000D03*
X147574000Y-83947000D03*
X138963500Y-77190500D03*
X132715000Y-78232000D03*
X151663400Y-97180400D03*
X156080400Y-94917200D03*
X153898600Y-96545400D03*
X156337000Y-88671400D03*
X162712400Y-95123000D03*
X163753800Y-85699600D03*
X161036000Y-86080600D03*
X147447000Y-95986600D03*
X153035000Y-82931000D03*
X143002000Y-90932000D03*
X140462000Y-91186000D03*
%TO.N,+3V3*%
X153797000Y-77216000D03*
X159512000Y-86106000D03*
X160020000Y-93472000D03*
X141732000Y-98933000D03*
X145161000Y-89916000D03*
X154305000Y-90297000D03*
X152877500Y-94518500D03*
X154368500Y-92773500D03*
X152908000Y-85725000D03*
X148717000Y-85217000D03*
X143179800Y-79298800D03*
X146812000Y-95478600D03*
%TO.N,/USB_D-*%
X172339000Y-87884000D03*
%TO.N,/USB_D+*%
X168656000Y-89916000D03*
%TO.N,/SWCLK*%
X143637000Y-91567000D03*
X143764000Y-96901000D03*
%TO.N,/SWD*%
X143002000Y-91948000D03*
X143002000Y-97155000D03*
%TO.N,Vdrive*%
X138938000Y-98425000D03*
X135509000Y-77470000D03*
X136271000Y-80010000D03*
X148717000Y-96774000D03*
%TO.N,/DUT_PWR_CTL*%
X150241000Y-96520000D03*
X143190000Y-100269000D03*
%TO.N,/QSPI_SS*%
X159512000Y-78994000D03*
X153543000Y-83693000D03*
%TO.N,/LED1*%
X147828000Y-82804000D03*
X141605000Y-81407000D03*
%TO.N,/LED2*%
X147066000Y-83312000D03*
X140017500Y-81343500D03*
%TO.N,/QSPI_SD2*%
X154559000Y-81788000D03*
X156972000Y-78994000D03*
%TO.N,/QSPI_SD1*%
X153924000Y-82550000D03*
X158242000Y-78994000D03*
%TO.N,Net-(J3-Pad3)*%
X132715000Y-79248000D03*
%TO.N,/W25_SS*%
X146177000Y-77978000D03*
X152273000Y-83693000D03*
%TO.N,/SW_USER*%
X149377400Y-96393000D03*
X160782000Y-99060000D03*
%TO.N,/W25_SD3*%
X149606000Y-83058000D03*
X150749000Y-79375000D03*
%TD*%
D15*
%TO.N,+3V3*%
X175795001Y-81967649D02*
X175795001Y-82865996D01*
X175711434Y-82590512D01*
X175564256Y-82315161D01*
X175366187Y-82073813D01*
X175124839Y-81875744D01*
X174849488Y-81728566D01*
X174550714Y-81637934D01*
X174317864Y-81615000D01*
X172562136Y-81615000D01*
X172329286Y-81637934D01*
X172030512Y-81728566D01*
X171755161Y-81875744D01*
X171513813Y-82073813D01*
X171315744Y-82315161D01*
X171168566Y-82590512D01*
X171077934Y-82889286D01*
X171047331Y-83200000D01*
X171077934Y-83510714D01*
X171168566Y-83809488D01*
X171315744Y-84084839D01*
X171513813Y-84326187D01*
X171755161Y-84524256D01*
X172030512Y-84671434D01*
X172329286Y-84762066D01*
X172562136Y-84785000D01*
X174317864Y-84785000D01*
X174550714Y-84762066D01*
X174849488Y-84671434D01*
X175124839Y-84524256D01*
X175366187Y-84326187D01*
X175564256Y-84084839D01*
X175711434Y-83809488D01*
X175795001Y-83534005D01*
X175795000Y-94265993D01*
X175711434Y-93990512D01*
X175564256Y-93715161D01*
X175366187Y-93473813D01*
X175124839Y-93275744D01*
X174849488Y-93128566D01*
X174550714Y-93037934D01*
X174317864Y-93015000D01*
X172562136Y-93015000D01*
X172329286Y-93037934D01*
X172030512Y-93128566D01*
X171755161Y-93275744D01*
X171513813Y-93473813D01*
X171315744Y-93715161D01*
X171168566Y-93990512D01*
X171077934Y-94289286D01*
X171047331Y-94600000D01*
X171077934Y-94910714D01*
X171168566Y-95209488D01*
X171315744Y-95484839D01*
X171513813Y-95726187D01*
X171755161Y-95924256D01*
X172030512Y-96071434D01*
X172329286Y-96162066D01*
X172562136Y-96185000D01*
X174317864Y-96185000D01*
X174550714Y-96162066D01*
X174849488Y-96071434D01*
X175124839Y-95924256D01*
X175366187Y-95726187D01*
X175564256Y-95484839D01*
X175711434Y-95209488D01*
X175795000Y-94934007D01*
X175795000Y-95836754D01*
X170764554Y-100867195D01*
X154851909Y-100867198D01*
X154950475Y-100768632D01*
X155112990Y-100525411D01*
X155224932Y-100255158D01*
X155282000Y-99968260D01*
X155282000Y-99675740D01*
X155224932Y-99388842D01*
X155112990Y-99118589D01*
X155015338Y-98972441D01*
X159893000Y-98972441D01*
X159893000Y-99147559D01*
X159927164Y-99319312D01*
X159994179Y-99481099D01*
X160091469Y-99626704D01*
X160215296Y-99750531D01*
X160360901Y-99847821D01*
X160522688Y-99914836D01*
X160694441Y-99949000D01*
X160869559Y-99949000D01*
X161041312Y-99914836D01*
X161203099Y-99847821D01*
X161348704Y-99750531D01*
X161472531Y-99626704D01*
X161569821Y-99481099D01*
X161636836Y-99319312D01*
X161671000Y-99147559D01*
X161671000Y-98972441D01*
X161636836Y-98800688D01*
X161569821Y-98638901D01*
X161472531Y-98493296D01*
X161348704Y-98369469D01*
X161203099Y-98272179D01*
X161041312Y-98205164D01*
X160869559Y-98171000D01*
X160694441Y-98171000D01*
X160522688Y-98205164D01*
X160360901Y-98272179D01*
X160215296Y-98369469D01*
X160091469Y-98493296D01*
X159994179Y-98638901D01*
X159927164Y-98800688D01*
X159893000Y-98972441D01*
X155015338Y-98972441D01*
X154950475Y-98875368D01*
X154743632Y-98668525D01*
X154500411Y-98506010D01*
X154230158Y-98394068D01*
X153943260Y-98337000D01*
X153650740Y-98337000D01*
X153363842Y-98394068D01*
X153093589Y-98506010D01*
X152850368Y-98668525D01*
X152643525Y-98875368D01*
X152527000Y-99049760D01*
X152410475Y-98875368D01*
X152203632Y-98668525D01*
X151960411Y-98506010D01*
X151690158Y-98394068D01*
X151403260Y-98337000D01*
X151110740Y-98337000D01*
X150823842Y-98394068D01*
X150553589Y-98506010D01*
X150310368Y-98668525D01*
X150103525Y-98875368D01*
X149987000Y-99049760D01*
X149870475Y-98875368D01*
X149663632Y-98668525D01*
X149420411Y-98506010D01*
X149150158Y-98394068D01*
X148863260Y-98337000D01*
X148570740Y-98337000D01*
X148283842Y-98394068D01*
X148013589Y-98506010D01*
X147770368Y-98668525D01*
X147638513Y-98800380D01*
X147616502Y-98727820D01*
X147557537Y-98617506D01*
X147478185Y-98520815D01*
X147381494Y-98441463D01*
X147271180Y-98382498D01*
X147151482Y-98346188D01*
X147027000Y-98333928D01*
X146462750Y-98337000D01*
X146304000Y-98495750D01*
X146304000Y-99695000D01*
X146324000Y-99695000D01*
X146324000Y-99949000D01*
X146304000Y-99949000D01*
X146304000Y-99969000D01*
X146050000Y-99969000D01*
X146050000Y-99949000D01*
X144850750Y-99949000D01*
X144692000Y-100107750D01*
X144688928Y-100672000D01*
X144701188Y-100796482D01*
X144722640Y-100867199D01*
X143849036Y-100867199D01*
X143880531Y-100835704D01*
X143977821Y-100690099D01*
X144044836Y-100528312D01*
X144079000Y-100356559D01*
X144079000Y-100181441D01*
X144044836Y-100009688D01*
X143977821Y-99847901D01*
X143880531Y-99702296D01*
X143756704Y-99578469D01*
X143611099Y-99481179D01*
X143449312Y-99414164D01*
X143277559Y-99380000D01*
X143102441Y-99380000D01*
X142930688Y-99414164D01*
X142768901Y-99481179D01*
X142623296Y-99578469D01*
X142499469Y-99702296D01*
X142402179Y-99847901D01*
X142335164Y-100009688D01*
X142301000Y-100181441D01*
X142301000Y-100356559D01*
X142335164Y-100528312D01*
X142402179Y-100690099D01*
X142499469Y-100835704D01*
X142530965Y-100867200D01*
X132194836Y-100867201D01*
X132237932Y-100763158D01*
X132295000Y-100476260D01*
X132295000Y-100183740D01*
X132237932Y-99896842D01*
X132125990Y-99626589D01*
X131963475Y-99383368D01*
X131756632Y-99176525D01*
X131582240Y-99060000D01*
X131756632Y-98943475D01*
X131963475Y-98736632D01*
X132125990Y-98493411D01*
X132190594Y-98337441D01*
X138049000Y-98337441D01*
X138049000Y-98512559D01*
X138083164Y-98684312D01*
X138150179Y-98846099D01*
X138247469Y-98991704D01*
X138371296Y-99115531D01*
X138516901Y-99212821D01*
X138678688Y-99279836D01*
X138850441Y-99314000D01*
X139025559Y-99314000D01*
X139197312Y-99279836D01*
X139359099Y-99212821D01*
X139504704Y-99115531D01*
X139628531Y-98991704D01*
X139641696Y-98972000D01*
X144688928Y-98972000D01*
X144692000Y-99536250D01*
X144850750Y-99695000D01*
X146050000Y-99695000D01*
X146050000Y-98495750D01*
X145891250Y-98337000D01*
X145327000Y-98333928D01*
X145202518Y-98346188D01*
X145082820Y-98382498D01*
X144972506Y-98441463D01*
X144875815Y-98520815D01*
X144796463Y-98617506D01*
X144737498Y-98727820D01*
X144701188Y-98847518D01*
X144688928Y-98972000D01*
X139641696Y-98972000D01*
X139725821Y-98846099D01*
X139792836Y-98684312D01*
X139827000Y-98512559D01*
X139827000Y-98337441D01*
X139792836Y-98165688D01*
X139725821Y-98003901D01*
X139628531Y-97858296D01*
X139504704Y-97734469D01*
X139359099Y-97637179D01*
X139197312Y-97570164D01*
X139025559Y-97536000D01*
X138850441Y-97536000D01*
X138678688Y-97570164D01*
X138516901Y-97637179D01*
X138371296Y-97734469D01*
X138247469Y-97858296D01*
X138150179Y-98003901D01*
X138083164Y-98165688D01*
X138049000Y-98337441D01*
X132190594Y-98337441D01*
X132237932Y-98223158D01*
X132295000Y-97936260D01*
X132295000Y-97643740D01*
X132237932Y-97356842D01*
X132125990Y-97086589D01*
X132113196Y-97067441D01*
X142113000Y-97067441D01*
X142113000Y-97242559D01*
X142147164Y-97414312D01*
X142214179Y-97576099D01*
X142311469Y-97721704D01*
X142435296Y-97845531D01*
X142580901Y-97942821D01*
X142742688Y-98009836D01*
X142914441Y-98044000D01*
X143089559Y-98044000D01*
X143261312Y-98009836D01*
X143423099Y-97942821D01*
X143568704Y-97845531D01*
X143632897Y-97781338D01*
X143676441Y-97790000D01*
X143851559Y-97790000D01*
X144023312Y-97755836D01*
X144185099Y-97688821D01*
X144330704Y-97591531D01*
X144454531Y-97467704D01*
X144551821Y-97322099D01*
X144618836Y-97160312D01*
X144653000Y-96988559D01*
X144653000Y-96813441D01*
X144618836Y-96641688D01*
X144551821Y-96479901D01*
X144454531Y-96334296D01*
X144330704Y-96210469D01*
X144185099Y-96113179D01*
X144023312Y-96046164D01*
X143851559Y-96012000D01*
X143676441Y-96012000D01*
X143504688Y-96046164D01*
X143342901Y-96113179D01*
X143197296Y-96210469D01*
X143133103Y-96274662D01*
X143089559Y-96266000D01*
X142914441Y-96266000D01*
X142742688Y-96300164D01*
X142580901Y-96367179D01*
X142435296Y-96464469D01*
X142311469Y-96588296D01*
X142214179Y-96733901D01*
X142147164Y-96895688D01*
X142113000Y-97067441D01*
X132113196Y-97067441D01*
X131963475Y-96843368D01*
X131756632Y-96636525D01*
X131582240Y-96520000D01*
X131756632Y-96403475D01*
X131963475Y-96196632D01*
X132125990Y-95953411D01*
X132148510Y-95899041D01*
X146558000Y-95899041D01*
X146558000Y-96074159D01*
X146592164Y-96245912D01*
X146659179Y-96407699D01*
X146756469Y-96553304D01*
X146880296Y-96677131D01*
X147025901Y-96774421D01*
X147187688Y-96841436D01*
X147359441Y-96875600D01*
X147534559Y-96875600D01*
X147706312Y-96841436D01*
X147828000Y-96791031D01*
X147828000Y-96861559D01*
X147862164Y-97033312D01*
X147929179Y-97195099D01*
X148026469Y-97340704D01*
X148150296Y-97464531D01*
X148295901Y-97561821D01*
X148457688Y-97628836D01*
X148629441Y-97663000D01*
X148804559Y-97663000D01*
X148976312Y-97628836D01*
X149138099Y-97561821D01*
X149283704Y-97464531D01*
X149407531Y-97340704D01*
X149446756Y-97282000D01*
X149464959Y-97282000D01*
X149636712Y-97247836D01*
X149694378Y-97223950D01*
X149819901Y-97307821D01*
X149981688Y-97374836D01*
X150153441Y-97409000D01*
X150328559Y-97409000D01*
X150500312Y-97374836D01*
X150662099Y-97307821D01*
X150774400Y-97232784D01*
X150774400Y-97267959D01*
X150808564Y-97439712D01*
X150875579Y-97601499D01*
X150972869Y-97747104D01*
X151096696Y-97870931D01*
X151242301Y-97968221D01*
X151404088Y-98035236D01*
X151575841Y-98069400D01*
X151750959Y-98069400D01*
X151922712Y-98035236D01*
X152084499Y-97968221D01*
X152230104Y-97870931D01*
X152353931Y-97747104D01*
X152451221Y-97601499D01*
X152518236Y-97439712D01*
X152552400Y-97267959D01*
X152552400Y-97092841D01*
X152518236Y-96921088D01*
X152451221Y-96759301D01*
X152353931Y-96613696D01*
X152230104Y-96489869D01*
X152182171Y-96457841D01*
X153009600Y-96457841D01*
X153009600Y-96632959D01*
X153043764Y-96804712D01*
X153110779Y-96966499D01*
X153208069Y-97112104D01*
X153331896Y-97235931D01*
X153477501Y-97333221D01*
X153639288Y-97400236D01*
X153811041Y-97434400D01*
X153986159Y-97434400D01*
X154157912Y-97400236D01*
X154319699Y-97333221D01*
X154465304Y-97235931D01*
X154589131Y-97112104D01*
X154686421Y-96966499D01*
X154753436Y-96804712D01*
X154787600Y-96632959D01*
X154787600Y-96457841D01*
X154753436Y-96286088D01*
X154686421Y-96124301D01*
X154589131Y-95978696D01*
X154465304Y-95854869D01*
X154319699Y-95757579D01*
X154157912Y-95690564D01*
X153986159Y-95656400D01*
X153811041Y-95656400D01*
X153639288Y-95690564D01*
X153477501Y-95757579D01*
X153331896Y-95854869D01*
X153208069Y-95978696D01*
X153110779Y-96124301D01*
X153043764Y-96286088D01*
X153009600Y-96457841D01*
X152182171Y-96457841D01*
X152084499Y-96392579D01*
X151922712Y-96325564D01*
X151750959Y-96291400D01*
X151575841Y-96291400D01*
X151404088Y-96325564D01*
X151242301Y-96392579D01*
X151130000Y-96467616D01*
X151130000Y-96432441D01*
X151095836Y-96260688D01*
X151028821Y-96098901D01*
X150931531Y-95953296D01*
X150807704Y-95829469D01*
X150662099Y-95732179D01*
X150500312Y-95665164D01*
X150328559Y-95631000D01*
X150153441Y-95631000D01*
X149981688Y-95665164D01*
X149924022Y-95689050D01*
X149798499Y-95605179D01*
X149636712Y-95538164D01*
X149464959Y-95504000D01*
X149289841Y-95504000D01*
X149118088Y-95538164D01*
X148956301Y-95605179D01*
X148810696Y-95702469D01*
X148686869Y-95826296D01*
X148647644Y-95885000D01*
X148629441Y-95885000D01*
X148457688Y-95919164D01*
X148336000Y-95969569D01*
X148336000Y-95899041D01*
X148301836Y-95727288D01*
X148234821Y-95565501D01*
X148137531Y-95419896D01*
X148013704Y-95296069D01*
X147868099Y-95198779D01*
X147706312Y-95131764D01*
X147534559Y-95097600D01*
X147359441Y-95097600D01*
X147187688Y-95131764D01*
X147025901Y-95198779D01*
X146880296Y-95296069D01*
X146756469Y-95419896D01*
X146659179Y-95565501D01*
X146592164Y-95727288D01*
X146558000Y-95899041D01*
X132148510Y-95899041D01*
X132237932Y-95683158D01*
X132295000Y-95396260D01*
X132295000Y-95103740D01*
X132240478Y-94829641D01*
X155191400Y-94829641D01*
X155191400Y-95004759D01*
X155225564Y-95176512D01*
X155292579Y-95338299D01*
X155389869Y-95483904D01*
X155513696Y-95607731D01*
X155659301Y-95705021D01*
X155821088Y-95772036D01*
X155992841Y-95806200D01*
X156167959Y-95806200D01*
X156339712Y-95772036D01*
X156501499Y-95705021D01*
X156647104Y-95607731D01*
X156770931Y-95483904D01*
X156868221Y-95338299D01*
X156935236Y-95176512D01*
X156963296Y-95035441D01*
X161823400Y-95035441D01*
X161823400Y-95210559D01*
X161857564Y-95382312D01*
X161924579Y-95544099D01*
X162021869Y-95689704D01*
X162145696Y-95813531D01*
X162291301Y-95910821D01*
X162453088Y-95977836D01*
X162624841Y-96012000D01*
X162799959Y-96012000D01*
X162971712Y-95977836D01*
X163133499Y-95910821D01*
X163279104Y-95813531D01*
X163402931Y-95689704D01*
X163500221Y-95544099D01*
X163567236Y-95382312D01*
X163601400Y-95210559D01*
X163601400Y-95035441D01*
X163567236Y-94863688D01*
X163500221Y-94701901D01*
X163402931Y-94556296D01*
X163279104Y-94432469D01*
X163133499Y-94335179D01*
X162984452Y-94273441D01*
X165455600Y-94273441D01*
X165455600Y-94448559D01*
X165489764Y-94620312D01*
X165556779Y-94782099D01*
X165654069Y-94927704D01*
X165777896Y-95051531D01*
X165923501Y-95148821D01*
X166085288Y-95215836D01*
X166257041Y-95250000D01*
X166432159Y-95250000D01*
X166603912Y-95215836D01*
X166765699Y-95148821D01*
X166911304Y-95051531D01*
X167035131Y-94927704D01*
X167132421Y-94782099D01*
X167199436Y-94620312D01*
X167233600Y-94448559D01*
X167233600Y-94273441D01*
X167199436Y-94101688D01*
X167132421Y-93939901D01*
X167035131Y-93794296D01*
X166911304Y-93670469D01*
X166765699Y-93573179D01*
X166603912Y-93506164D01*
X166432159Y-93472000D01*
X166257041Y-93472000D01*
X166085288Y-93506164D01*
X165923501Y-93573179D01*
X165777896Y-93670469D01*
X165654069Y-93794296D01*
X165556779Y-93939901D01*
X165489764Y-94101688D01*
X165455600Y-94273441D01*
X162984452Y-94273441D01*
X162971712Y-94268164D01*
X162799959Y-94234000D01*
X162624841Y-94234000D01*
X162453088Y-94268164D01*
X162291301Y-94335179D01*
X162145696Y-94432469D01*
X162021869Y-94556296D01*
X161924579Y-94701901D01*
X161857564Y-94863688D01*
X161823400Y-95035441D01*
X156963296Y-95035441D01*
X156969400Y-95004759D01*
X156969400Y-94829641D01*
X156935236Y-94657888D01*
X156868221Y-94496101D01*
X156770931Y-94350496D01*
X156647104Y-94226669D01*
X156501499Y-94129379D01*
X156339712Y-94062364D01*
X156167959Y-94028200D01*
X155992841Y-94028200D01*
X155821088Y-94062364D01*
X155659301Y-94129379D01*
X155513696Y-94226669D01*
X155389869Y-94350496D01*
X155292579Y-94496101D01*
X155225564Y-94657888D01*
X155191400Y-94829641D01*
X132240478Y-94829641D01*
X132237932Y-94816842D01*
X132125990Y-94546589D01*
X131963475Y-94303368D01*
X131756632Y-94096525D01*
X131582240Y-93980000D01*
X131756632Y-93863475D01*
X131963475Y-93656632D01*
X132125990Y-93413411D01*
X132237932Y-93143158D01*
X132295000Y-92856260D01*
X132295000Y-92563740D01*
X132237932Y-92276842D01*
X132125990Y-92006589D01*
X131963475Y-91763368D01*
X131756632Y-91556525D01*
X131582240Y-91440000D01*
X131756632Y-91323475D01*
X131963475Y-91116632D01*
X131975629Y-91098441D01*
X139573000Y-91098441D01*
X139573000Y-91273559D01*
X139607164Y-91445312D01*
X139674179Y-91607099D01*
X139771469Y-91752704D01*
X139895296Y-91876531D01*
X140040901Y-91973821D01*
X140202688Y-92040836D01*
X140374441Y-92075000D01*
X140549559Y-92075000D01*
X140721312Y-92040836D01*
X140883099Y-91973821D01*
X141028704Y-91876531D01*
X141152531Y-91752704D01*
X141249821Y-91607099D01*
X141316836Y-91445312D01*
X141351000Y-91273559D01*
X141351000Y-91098441D01*
X141316836Y-90926688D01*
X141282768Y-90844441D01*
X142113000Y-90844441D01*
X142113000Y-91019559D01*
X142147164Y-91191312D01*
X142214179Y-91353099D01*
X142272244Y-91440000D01*
X142214179Y-91526901D01*
X142147164Y-91688688D01*
X142113000Y-91860441D01*
X142113000Y-92035559D01*
X142147164Y-92207312D01*
X142214179Y-92369099D01*
X142311469Y-92514704D01*
X142435296Y-92638531D01*
X142580901Y-92735821D01*
X142742688Y-92802836D01*
X142914441Y-92837000D01*
X143089559Y-92837000D01*
X143261312Y-92802836D01*
X143423099Y-92735821D01*
X143568704Y-92638531D01*
X143692531Y-92514704D01*
X143732859Y-92454349D01*
X143896312Y-92421836D01*
X144058099Y-92354821D01*
X144203704Y-92257531D01*
X144327531Y-92133704D01*
X144424821Y-91988099D01*
X144491836Y-91826312D01*
X144526000Y-91654559D01*
X144526000Y-91479441D01*
X144491836Y-91307688D01*
X144424821Y-91145901D01*
X144327531Y-91000296D01*
X144203704Y-90876469D01*
X144058099Y-90779179D01*
X143896312Y-90712164D01*
X143863386Y-90705614D01*
X143856836Y-90672688D01*
X143789821Y-90510901D01*
X143692531Y-90365296D01*
X143568704Y-90241469D01*
X143423099Y-90144179D01*
X143261312Y-90077164D01*
X143089559Y-90043000D01*
X142914441Y-90043000D01*
X142742688Y-90077164D01*
X142580901Y-90144179D01*
X142435296Y-90241469D01*
X142311469Y-90365296D01*
X142214179Y-90510901D01*
X142147164Y-90672688D01*
X142113000Y-90844441D01*
X141282768Y-90844441D01*
X141249821Y-90764901D01*
X141152531Y-90619296D01*
X141028704Y-90495469D01*
X140883099Y-90398179D01*
X140721312Y-90331164D01*
X140549559Y-90297000D01*
X140374441Y-90297000D01*
X140202688Y-90331164D01*
X140040901Y-90398179D01*
X139895296Y-90495469D01*
X139771469Y-90619296D01*
X139674179Y-90764901D01*
X139607164Y-90926688D01*
X139573000Y-91098441D01*
X131975629Y-91098441D01*
X132125990Y-90873411D01*
X132237932Y-90603158D01*
X132295000Y-90316260D01*
X132295000Y-90023740D01*
X132237932Y-89736842D01*
X132125990Y-89466589D01*
X131963475Y-89223368D01*
X131756632Y-89016525D01*
X131582240Y-88900000D01*
X131756632Y-88783475D01*
X131963475Y-88576632D01*
X131981997Y-88548911D01*
X147650000Y-88548911D01*
X147650000Y-88733089D01*
X147685932Y-88913729D01*
X147756414Y-89083889D01*
X147858738Y-89237028D01*
X147900210Y-89278500D01*
X147858738Y-89319972D01*
X147756414Y-89473111D01*
X147685932Y-89643271D01*
X147650000Y-89823911D01*
X147650000Y-90008089D01*
X147685932Y-90188729D01*
X147756414Y-90358889D01*
X147858738Y-90512028D01*
X147900210Y-90553500D01*
X147858738Y-90594972D01*
X147756414Y-90748111D01*
X147685932Y-90918271D01*
X147650000Y-91098911D01*
X147650000Y-91283089D01*
X147685932Y-91463729D01*
X147756414Y-91633889D01*
X147858738Y-91787028D01*
X147988972Y-91917262D01*
X148142111Y-92019586D01*
X148312271Y-92090068D01*
X148492911Y-92126000D01*
X148677089Y-92126000D01*
X148857729Y-92090068D01*
X149027889Y-92019586D01*
X149181028Y-91917262D01*
X149222500Y-91875790D01*
X149263972Y-91917262D01*
X149417111Y-92019586D01*
X149587271Y-92090068D01*
X149767911Y-92126000D01*
X149952089Y-92126000D01*
X150132729Y-92090068D01*
X150302889Y-92019586D01*
X150456028Y-91917262D01*
X150497500Y-91875790D01*
X150538972Y-91917262D01*
X150692111Y-92019586D01*
X150862271Y-92090068D01*
X151042911Y-92126000D01*
X151227089Y-92126000D01*
X151407729Y-92090068D01*
X151577889Y-92019586D01*
X151731028Y-91917262D01*
X151861262Y-91787028D01*
X151963586Y-91633889D01*
X152034068Y-91463729D01*
X152070000Y-91283089D01*
X152070000Y-91098911D01*
X152034068Y-90918271D01*
X151963586Y-90748111D01*
X151943094Y-90717441D01*
X155575000Y-90717441D01*
X155575000Y-90892559D01*
X155609164Y-91064312D01*
X155659569Y-91186000D01*
X155609164Y-91307688D01*
X155575000Y-91479441D01*
X155575000Y-91654559D01*
X155609164Y-91826312D01*
X155676179Y-91988099D01*
X155773469Y-92133704D01*
X155897296Y-92257531D01*
X156042901Y-92354821D01*
X156204688Y-92421836D01*
X156376441Y-92456000D01*
X156551559Y-92456000D01*
X156723312Y-92421836D01*
X156885099Y-92354821D01*
X157030704Y-92257531D01*
X157154531Y-92133704D01*
X157251821Y-91988099D01*
X157318836Y-91826312D01*
X157353000Y-91654559D01*
X157353000Y-91479441D01*
X157318836Y-91307688D01*
X157268431Y-91186000D01*
X157310975Y-91083288D01*
X172255000Y-91083288D01*
X172255000Y-91316712D01*
X172300539Y-91545652D01*
X172389866Y-91761308D01*
X172519550Y-91955394D01*
X172684606Y-92120450D01*
X172878692Y-92250134D01*
X173094348Y-92339461D01*
X173323288Y-92385000D01*
X173556712Y-92385000D01*
X173785652Y-92339461D01*
X174001308Y-92250134D01*
X174195394Y-92120450D01*
X174360450Y-91955394D01*
X174490134Y-91761308D01*
X174579461Y-91545652D01*
X174625000Y-91316712D01*
X174625000Y-91083288D01*
X174579461Y-90854348D01*
X174490134Y-90638692D01*
X174360450Y-90444606D01*
X174195394Y-90279550D01*
X174001308Y-90149866D01*
X173785652Y-90060539D01*
X173556712Y-90015000D01*
X173323288Y-90015000D01*
X173094348Y-90060539D01*
X172878692Y-90149866D01*
X172684606Y-90279550D01*
X172519550Y-90444606D01*
X172389866Y-90638692D01*
X172300539Y-90854348D01*
X172255000Y-91083288D01*
X157310975Y-91083288D01*
X157318836Y-91064312D01*
X157353000Y-90892559D01*
X157353000Y-90717441D01*
X157318836Y-90545688D01*
X157251821Y-90383901D01*
X157154531Y-90238296D01*
X157030704Y-90114469D01*
X156885099Y-90017179D01*
X156723312Y-89950164D01*
X156551559Y-89916000D01*
X156376441Y-89916000D01*
X156204688Y-89950164D01*
X156042901Y-90017179D01*
X155897296Y-90114469D01*
X155773469Y-90238296D01*
X155676179Y-90383901D01*
X155609164Y-90545688D01*
X155575000Y-90717441D01*
X151943094Y-90717441D01*
X151861262Y-90594972D01*
X151819790Y-90553500D01*
X151861262Y-90512028D01*
X151963586Y-90358889D01*
X152034068Y-90188729D01*
X152070000Y-90008089D01*
X152070000Y-89828441D01*
X167767000Y-89828441D01*
X167767000Y-90003559D01*
X167801164Y-90175312D01*
X167868179Y-90337099D01*
X167965469Y-90482704D01*
X168089296Y-90606531D01*
X168234901Y-90703821D01*
X168396688Y-90770836D01*
X168568441Y-90805000D01*
X168743559Y-90805000D01*
X168915312Y-90770836D01*
X169077099Y-90703821D01*
X169222704Y-90606531D01*
X169346531Y-90482704D01*
X169443821Y-90337099D01*
X169510836Y-90175312D01*
X169545000Y-90003559D01*
X169545000Y-89828441D01*
X169510836Y-89656688D01*
X169443821Y-89494901D01*
X169346531Y-89349296D01*
X169222704Y-89225469D01*
X169077099Y-89128179D01*
X168915312Y-89061164D01*
X168743559Y-89027000D01*
X168568441Y-89027000D01*
X168396688Y-89061164D01*
X168234901Y-89128179D01*
X168089296Y-89225469D01*
X167965469Y-89349296D01*
X167868179Y-89494901D01*
X167801164Y-89656688D01*
X167767000Y-89828441D01*
X152070000Y-89828441D01*
X152070000Y-89823911D01*
X152034068Y-89643271D01*
X151963586Y-89473111D01*
X151861262Y-89319972D01*
X151819790Y-89278500D01*
X151861262Y-89237028D01*
X151963586Y-89083889D01*
X152034068Y-88913729D01*
X152070000Y-88733089D01*
X152070000Y-88583841D01*
X155448000Y-88583841D01*
X155448000Y-88758959D01*
X155482164Y-88930712D01*
X155549179Y-89092499D01*
X155646469Y-89238104D01*
X155770296Y-89361931D01*
X155915901Y-89459221D01*
X156077688Y-89526236D01*
X156249441Y-89560400D01*
X156424559Y-89560400D01*
X156596312Y-89526236D01*
X156758099Y-89459221D01*
X156903704Y-89361931D01*
X157027531Y-89238104D01*
X157124821Y-89092499D01*
X157191836Y-88930712D01*
X157226000Y-88758959D01*
X157226000Y-88583841D01*
X157191836Y-88412088D01*
X157124821Y-88250301D01*
X157027531Y-88104696D01*
X156903704Y-87980869D01*
X156758099Y-87883579D01*
X156596312Y-87816564D01*
X156495148Y-87796441D01*
X171450000Y-87796441D01*
X171450000Y-87971559D01*
X171484164Y-88143312D01*
X171551179Y-88305099D01*
X171648469Y-88450704D01*
X171772296Y-88574531D01*
X171917901Y-88671821D01*
X172079688Y-88738836D01*
X172251441Y-88773000D01*
X172426559Y-88773000D01*
X172598312Y-88738836D01*
X172760099Y-88671821D01*
X172905704Y-88574531D01*
X173029531Y-88450704D01*
X173126821Y-88305099D01*
X173193836Y-88143312D01*
X173228000Y-87971559D01*
X173228000Y-87796441D01*
X173221705Y-87764794D01*
X173323288Y-87785000D01*
X173556712Y-87785000D01*
X173785652Y-87739461D01*
X174001308Y-87650134D01*
X174195394Y-87520450D01*
X174360450Y-87355394D01*
X174490134Y-87161308D01*
X174579461Y-86945652D01*
X174625000Y-86716712D01*
X174625000Y-86483288D01*
X174579461Y-86254348D01*
X174490134Y-86038692D01*
X174360450Y-85844606D01*
X174195394Y-85679550D01*
X174001308Y-85549866D01*
X173785652Y-85460539D01*
X173556712Y-85415000D01*
X173323288Y-85415000D01*
X173094348Y-85460539D01*
X172878692Y-85549866D01*
X172684606Y-85679550D01*
X172519550Y-85844606D01*
X172389866Y-86038692D01*
X172300539Y-86254348D01*
X172255000Y-86483288D01*
X172255000Y-86716712D01*
X172300539Y-86945652D01*
X172320979Y-86995000D01*
X172251441Y-86995000D01*
X172079688Y-87029164D01*
X171917901Y-87096179D01*
X171772296Y-87193469D01*
X171648469Y-87317296D01*
X171551179Y-87462901D01*
X171484164Y-87624688D01*
X171450000Y-87796441D01*
X156495148Y-87796441D01*
X156424559Y-87782400D01*
X156249441Y-87782400D01*
X156077688Y-87816564D01*
X155915901Y-87883579D01*
X155770296Y-87980869D01*
X155646469Y-88104696D01*
X155549179Y-88250301D01*
X155482164Y-88412088D01*
X155448000Y-88583841D01*
X152070000Y-88583841D01*
X152070000Y-88548911D01*
X152034068Y-88368271D01*
X151963586Y-88198111D01*
X151861262Y-88044972D01*
X151731028Y-87914738D01*
X151577889Y-87812414D01*
X151407729Y-87741932D01*
X151227089Y-87706000D01*
X151042911Y-87706000D01*
X150862271Y-87741932D01*
X150692111Y-87812414D01*
X150538972Y-87914738D01*
X150497500Y-87956210D01*
X150456028Y-87914738D01*
X150302889Y-87812414D01*
X150132729Y-87741932D01*
X149952089Y-87706000D01*
X149767911Y-87706000D01*
X149587271Y-87741932D01*
X149417111Y-87812414D01*
X149263972Y-87914738D01*
X149222500Y-87956210D01*
X149181028Y-87914738D01*
X149027889Y-87812414D01*
X148857729Y-87741932D01*
X148677089Y-87706000D01*
X148492911Y-87706000D01*
X148312271Y-87741932D01*
X148142111Y-87812414D01*
X147988972Y-87914738D01*
X147858738Y-88044972D01*
X147756414Y-88198111D01*
X147685932Y-88368271D01*
X147650000Y-88548911D01*
X131981997Y-88548911D01*
X132125990Y-88333411D01*
X132237932Y-88063158D01*
X132295000Y-87776260D01*
X132295000Y-87483740D01*
X132281415Y-87415441D01*
X142621000Y-87415441D01*
X142621000Y-87590559D01*
X142655164Y-87762312D01*
X142722179Y-87924099D01*
X142819469Y-88069704D01*
X142943296Y-88193531D01*
X143088901Y-88290821D01*
X143250688Y-88357836D01*
X143422441Y-88392000D01*
X143597559Y-88392000D01*
X143769312Y-88357836D01*
X143931099Y-88290821D01*
X144076704Y-88193531D01*
X144200531Y-88069704D01*
X144297821Y-87924099D01*
X144364836Y-87762312D01*
X144399000Y-87590559D01*
X144399000Y-87415441D01*
X144364836Y-87243688D01*
X144297821Y-87081901D01*
X144200531Y-86936296D01*
X144076704Y-86812469D01*
X143931099Y-86715179D01*
X143769312Y-86648164D01*
X143597559Y-86614000D01*
X143422441Y-86614000D01*
X143250688Y-86648164D01*
X143088901Y-86715179D01*
X142943296Y-86812469D01*
X142819469Y-86936296D01*
X142722179Y-87081901D01*
X142655164Y-87243688D01*
X142621000Y-87415441D01*
X132281415Y-87415441D01*
X132237932Y-87196842D01*
X132125990Y-86926589D01*
X131963475Y-86683368D01*
X131756632Y-86476525D01*
X131582240Y-86360000D01*
X131756632Y-86243475D01*
X131963475Y-86036632D01*
X131992601Y-85993041D01*
X160147000Y-85993041D01*
X160147000Y-86168159D01*
X160181164Y-86339912D01*
X160248179Y-86501699D01*
X160345469Y-86647304D01*
X160469296Y-86771131D01*
X160614901Y-86868421D01*
X160776688Y-86935436D01*
X160948441Y-86969600D01*
X161123559Y-86969600D01*
X161295312Y-86935436D01*
X161457099Y-86868421D01*
X161602704Y-86771131D01*
X161726531Y-86647304D01*
X161823821Y-86501699D01*
X161890836Y-86339912D01*
X161925000Y-86168159D01*
X161925000Y-85993041D01*
X161890836Y-85821288D01*
X161823821Y-85659501D01*
X161792110Y-85612041D01*
X162864800Y-85612041D01*
X162864800Y-85787159D01*
X162898964Y-85958912D01*
X162965979Y-86120699D01*
X163063269Y-86266304D01*
X163187096Y-86390131D01*
X163332701Y-86487421D01*
X163494488Y-86554436D01*
X163666241Y-86588600D01*
X163841359Y-86588600D01*
X164013112Y-86554436D01*
X164174899Y-86487421D01*
X164320504Y-86390131D01*
X164444331Y-86266304D01*
X164541621Y-86120699D01*
X164608636Y-85958912D01*
X164642800Y-85787159D01*
X164642800Y-85612041D01*
X164608636Y-85440288D01*
X164541621Y-85278501D01*
X164444331Y-85132896D01*
X164320504Y-85009069D01*
X164174899Y-84911779D01*
X164013112Y-84844764D01*
X163841359Y-84810600D01*
X163666241Y-84810600D01*
X163494488Y-84844764D01*
X163332701Y-84911779D01*
X163187096Y-85009069D01*
X163063269Y-85132896D01*
X162965979Y-85278501D01*
X162898964Y-85440288D01*
X162864800Y-85612041D01*
X161792110Y-85612041D01*
X161726531Y-85513896D01*
X161602704Y-85390069D01*
X161457099Y-85292779D01*
X161295312Y-85225764D01*
X161123559Y-85191600D01*
X160948441Y-85191600D01*
X160776688Y-85225764D01*
X160614901Y-85292779D01*
X160469296Y-85390069D01*
X160345469Y-85513896D01*
X160248179Y-85659501D01*
X160181164Y-85821288D01*
X160147000Y-85993041D01*
X131992601Y-85993041D01*
X132125990Y-85793411D01*
X132237932Y-85523158D01*
X132295000Y-85236260D01*
X132295000Y-84943740D01*
X132237932Y-84656842D01*
X132125990Y-84386589D01*
X131963475Y-84143368D01*
X131756632Y-83936525D01*
X131582240Y-83820000D01*
X131756632Y-83703475D01*
X131963475Y-83496632D01*
X132125990Y-83253411D01*
X132137989Y-83224441D01*
X146177000Y-83224441D01*
X146177000Y-83399559D01*
X146211164Y-83571312D01*
X146278179Y-83733099D01*
X146375469Y-83878704D01*
X146499296Y-84002531D01*
X146644901Y-84099821D01*
X146702748Y-84123782D01*
X146719164Y-84206312D01*
X146786179Y-84368099D01*
X146883469Y-84513704D01*
X147007296Y-84637531D01*
X147152901Y-84734821D01*
X147314688Y-84801836D01*
X147486441Y-84836000D01*
X147661559Y-84836000D01*
X147833312Y-84801836D01*
X147995099Y-84734821D01*
X148140704Y-84637531D01*
X148264531Y-84513704D01*
X148361821Y-84368099D01*
X148428836Y-84206312D01*
X148463000Y-84034559D01*
X148463000Y-83859441D01*
X148428836Y-83687688D01*
X148361821Y-83525901D01*
X148357480Y-83519404D01*
X148394704Y-83494531D01*
X148518531Y-83370704D01*
X148615821Y-83225099D01*
X148682836Y-83063312D01*
X148701309Y-82970441D01*
X148717000Y-82970441D01*
X148717000Y-83145559D01*
X148751164Y-83317312D01*
X148818179Y-83479099D01*
X148915469Y-83624704D01*
X149039296Y-83748531D01*
X149184901Y-83845821D01*
X149346688Y-83912836D01*
X149518441Y-83947000D01*
X149693559Y-83947000D01*
X149865312Y-83912836D01*
X150027099Y-83845821D01*
X150172704Y-83748531D01*
X150296531Y-83624704D01*
X150309402Y-83605441D01*
X151384000Y-83605441D01*
X151384000Y-83780559D01*
X151418164Y-83952312D01*
X151485179Y-84114099D01*
X151582469Y-84259704D01*
X151706296Y-84383531D01*
X151851901Y-84480821D01*
X152013688Y-84547836D01*
X152185441Y-84582000D01*
X152360559Y-84582000D01*
X152532312Y-84547836D01*
X152694099Y-84480821D01*
X152839704Y-84383531D01*
X152908000Y-84315235D01*
X152976296Y-84383531D01*
X153121901Y-84480821D01*
X153283688Y-84547836D01*
X153455441Y-84582000D01*
X153630559Y-84582000D01*
X153802312Y-84547836D01*
X153964099Y-84480821D01*
X154109704Y-84383531D01*
X154233531Y-84259704D01*
X154330821Y-84114099D01*
X154397836Y-83952312D01*
X154432000Y-83780559D01*
X154432000Y-83605441D01*
X154397836Y-83433688D01*
X154355302Y-83331003D01*
X154490704Y-83240531D01*
X154614531Y-83116704D01*
X154711821Y-82971099D01*
X154778836Y-82809312D01*
X154811688Y-82644154D01*
X154818312Y-82642836D01*
X154980099Y-82575821D01*
X155125704Y-82478531D01*
X155249531Y-82354704D01*
X155346821Y-82209099D01*
X155413836Y-82047312D01*
X155448000Y-81875559D01*
X155448000Y-81700441D01*
X155413836Y-81528688D01*
X155346821Y-81366901D01*
X155249531Y-81221296D01*
X155125704Y-81097469D01*
X154980099Y-81000179D01*
X154818312Y-80933164D01*
X154646559Y-80899000D01*
X154471441Y-80899000D01*
X154299688Y-80933164D01*
X154137901Y-81000179D01*
X153992296Y-81097469D01*
X153868469Y-81221296D01*
X153771179Y-81366901D01*
X153704164Y-81528688D01*
X153671312Y-81693846D01*
X153664688Y-81695164D01*
X153502901Y-81762179D01*
X153357296Y-81859469D01*
X153233469Y-81983296D01*
X153185834Y-82054586D01*
X153122559Y-82042000D01*
X152947441Y-82042000D01*
X152775688Y-82076164D01*
X152613901Y-82143179D01*
X152468296Y-82240469D01*
X152344469Y-82364296D01*
X152247179Y-82509901D01*
X152180164Y-82671688D01*
X152152544Y-82810544D01*
X152013688Y-82838164D01*
X151851901Y-82905179D01*
X151706296Y-83002469D01*
X151582469Y-83126296D01*
X151485179Y-83271901D01*
X151418164Y-83433688D01*
X151384000Y-83605441D01*
X150309402Y-83605441D01*
X150393821Y-83479099D01*
X150460836Y-83317312D01*
X150495000Y-83145559D01*
X150495000Y-82970441D01*
X150460836Y-82798688D01*
X150393821Y-82636901D01*
X150296531Y-82491296D01*
X150172704Y-82367469D01*
X150027099Y-82270179D01*
X149865312Y-82203164D01*
X149693559Y-82169000D01*
X149518441Y-82169000D01*
X149346688Y-82203164D01*
X149184901Y-82270179D01*
X149039296Y-82367469D01*
X148915469Y-82491296D01*
X148818179Y-82636901D01*
X148751164Y-82798688D01*
X148717000Y-82970441D01*
X148701309Y-82970441D01*
X148717000Y-82891559D01*
X148717000Y-82716441D01*
X148682836Y-82544688D01*
X148615821Y-82382901D01*
X148518531Y-82237296D01*
X148394704Y-82113469D01*
X148249099Y-82016179D01*
X148087312Y-81949164D01*
X147915559Y-81915000D01*
X147740441Y-81915000D01*
X147568688Y-81949164D01*
X147406901Y-82016179D01*
X147261296Y-82113469D01*
X147137469Y-82237296D01*
X147040179Y-82382901D01*
X147023569Y-82423000D01*
X146978441Y-82423000D01*
X146806688Y-82457164D01*
X146644901Y-82524179D01*
X146499296Y-82621469D01*
X146375469Y-82745296D01*
X146278179Y-82890901D01*
X146211164Y-83052688D01*
X146177000Y-83224441D01*
X132137989Y-83224441D01*
X132237932Y-82983158D01*
X132295000Y-82696260D01*
X132295000Y-82403740D01*
X132237932Y-82116842D01*
X132125990Y-81846589D01*
X131963475Y-81603368D01*
X131756632Y-81396525D01*
X131582240Y-81280000D01*
X131618246Y-81255941D01*
X139128500Y-81255941D01*
X139128500Y-81431059D01*
X139162664Y-81602812D01*
X139229679Y-81764599D01*
X139326969Y-81910204D01*
X139450796Y-82034031D01*
X139596401Y-82131321D01*
X139758188Y-82198336D01*
X139929941Y-82232500D01*
X140105059Y-82232500D01*
X140276812Y-82198336D01*
X140438599Y-82131321D01*
X140584204Y-82034031D01*
X140708031Y-81910204D01*
X140796404Y-81777944D01*
X140817179Y-81828099D01*
X140914469Y-81973704D01*
X141038296Y-82097531D01*
X141183901Y-82194821D01*
X141345688Y-82261836D01*
X141517441Y-82296000D01*
X141692559Y-82296000D01*
X141864312Y-82261836D01*
X142026099Y-82194821D01*
X142171704Y-82097531D01*
X142295531Y-81973704D01*
X142392821Y-81828099D01*
X142445699Y-81700441D01*
X142494000Y-81700441D01*
X142494000Y-81875559D01*
X142528164Y-82047312D01*
X142595179Y-82209099D01*
X142692469Y-82354704D01*
X142816296Y-82478531D01*
X142961901Y-82575821D01*
X143123688Y-82642836D01*
X143295441Y-82677000D01*
X143470559Y-82677000D01*
X143642312Y-82642836D01*
X143804099Y-82575821D01*
X143949704Y-82478531D01*
X144073531Y-82354704D01*
X144170821Y-82209099D01*
X144237836Y-82047312D01*
X144272000Y-81875559D01*
X144272000Y-81700441D01*
X144237836Y-81528688D01*
X144170821Y-81366901D01*
X144073531Y-81221296D01*
X143949704Y-81097469D01*
X143804099Y-81000179D01*
X143642312Y-80933164D01*
X143470559Y-80899000D01*
X143295441Y-80899000D01*
X143123688Y-80933164D01*
X142961901Y-81000179D01*
X142816296Y-81097469D01*
X142692469Y-81221296D01*
X142595179Y-81366901D01*
X142528164Y-81528688D01*
X142494000Y-81700441D01*
X142445699Y-81700441D01*
X142459836Y-81666312D01*
X142494000Y-81494559D01*
X142494000Y-81319441D01*
X142459836Y-81147688D01*
X142392821Y-80985901D01*
X142295531Y-80840296D01*
X142171704Y-80716469D01*
X142026099Y-80619179D01*
X141864312Y-80552164D01*
X141692559Y-80518000D01*
X141517441Y-80518000D01*
X141345688Y-80552164D01*
X141183901Y-80619179D01*
X141038296Y-80716469D01*
X140914469Y-80840296D01*
X140826096Y-80972556D01*
X140805321Y-80922401D01*
X140708031Y-80776796D01*
X140584204Y-80652969D01*
X140438599Y-80555679D01*
X140276812Y-80488664D01*
X140105059Y-80454500D01*
X139929941Y-80454500D01*
X139758188Y-80488664D01*
X139596401Y-80555679D01*
X139450796Y-80652969D01*
X139326969Y-80776796D01*
X139229679Y-80922401D01*
X139162664Y-81084188D01*
X139128500Y-81255941D01*
X131618246Y-81255941D01*
X131756632Y-81163475D01*
X131963475Y-80956632D01*
X132125990Y-80713411D01*
X132237932Y-80443158D01*
X132295000Y-80156260D01*
X132295000Y-80036276D01*
X132455688Y-80102836D01*
X132627441Y-80137000D01*
X132802559Y-80137000D01*
X132974312Y-80102836D01*
X133136099Y-80035821D01*
X133281704Y-79938531D01*
X133297794Y-79922441D01*
X135382000Y-79922441D01*
X135382000Y-80097559D01*
X135416164Y-80269312D01*
X135483179Y-80431099D01*
X135580469Y-80576704D01*
X135704296Y-80700531D01*
X135849901Y-80797821D01*
X136011688Y-80864836D01*
X136183441Y-80899000D01*
X136358559Y-80899000D01*
X136530312Y-80864836D01*
X136692099Y-80797821D01*
X136837704Y-80700531D01*
X136961531Y-80576704D01*
X137058821Y-80431099D01*
X137125836Y-80269312D01*
X137160000Y-80097559D01*
X137160000Y-79922441D01*
X137125836Y-79750688D01*
X137058821Y-79588901D01*
X136961531Y-79443296D01*
X136837704Y-79319469D01*
X136789771Y-79287441D01*
X149860000Y-79287441D01*
X149860000Y-79462559D01*
X149894164Y-79634312D01*
X149961179Y-79796099D01*
X150058469Y-79941704D01*
X150182296Y-80065531D01*
X150327901Y-80162821D01*
X150489688Y-80229836D01*
X150661441Y-80264000D01*
X150836559Y-80264000D01*
X151008312Y-80229836D01*
X151170099Y-80162821D01*
X151315704Y-80065531D01*
X151439531Y-79941704D01*
X151536821Y-79796099D01*
X151603836Y-79634312D01*
X151638000Y-79462559D01*
X151638000Y-79287441D01*
X152908000Y-79287441D01*
X152908000Y-79462559D01*
X152942164Y-79634312D01*
X153009179Y-79796099D01*
X153106469Y-79941704D01*
X153230296Y-80065531D01*
X153375901Y-80162821D01*
X153537688Y-80229836D01*
X153709441Y-80264000D01*
X153884559Y-80264000D01*
X154056312Y-80229836D01*
X154218099Y-80162821D01*
X154363704Y-80065531D01*
X154487531Y-79941704D01*
X154584821Y-79796099D01*
X154651836Y-79634312D01*
X154686000Y-79462559D01*
X154686000Y-79287441D01*
X154651836Y-79115688D01*
X154584821Y-78953901D01*
X154553110Y-78906441D01*
X156083000Y-78906441D01*
X156083000Y-79081559D01*
X156117164Y-79253312D01*
X156184179Y-79415099D01*
X156281469Y-79560704D01*
X156405296Y-79684531D01*
X156550901Y-79781821D01*
X156712688Y-79848836D01*
X156884441Y-79883000D01*
X157059559Y-79883000D01*
X157231312Y-79848836D01*
X157393099Y-79781821D01*
X157538704Y-79684531D01*
X157607000Y-79616235D01*
X157675296Y-79684531D01*
X157820901Y-79781821D01*
X157982688Y-79848836D01*
X158154441Y-79883000D01*
X158329559Y-79883000D01*
X158501312Y-79848836D01*
X158663099Y-79781821D01*
X158808704Y-79684531D01*
X158877000Y-79616235D01*
X158945296Y-79684531D01*
X159090901Y-79781821D01*
X159252688Y-79848836D01*
X159424441Y-79883000D01*
X159599559Y-79883000D01*
X159771312Y-79848836D01*
X159933099Y-79781821D01*
X160078704Y-79684531D01*
X160202531Y-79560704D01*
X160299821Y-79415099D01*
X160366836Y-79253312D01*
X160401000Y-79081559D01*
X160401000Y-78906441D01*
X160366836Y-78734688D01*
X160299821Y-78572901D01*
X160202531Y-78427296D01*
X160078704Y-78303469D01*
X159933099Y-78206179D01*
X159771312Y-78139164D01*
X159599559Y-78105000D01*
X159424441Y-78105000D01*
X159252688Y-78139164D01*
X159090901Y-78206179D01*
X158945296Y-78303469D01*
X158877000Y-78371765D01*
X158808704Y-78303469D01*
X158663099Y-78206179D01*
X158501312Y-78139164D01*
X158329559Y-78105000D01*
X158154441Y-78105000D01*
X157982688Y-78139164D01*
X157820901Y-78206179D01*
X157675296Y-78303469D01*
X157607000Y-78371765D01*
X157538704Y-78303469D01*
X157393099Y-78206179D01*
X157231312Y-78139164D01*
X157059559Y-78105000D01*
X156884441Y-78105000D01*
X156712688Y-78139164D01*
X156550901Y-78206179D01*
X156405296Y-78303469D01*
X156281469Y-78427296D01*
X156184179Y-78572901D01*
X156117164Y-78734688D01*
X156083000Y-78906441D01*
X154553110Y-78906441D01*
X154487531Y-78808296D01*
X154363704Y-78684469D01*
X154218099Y-78587179D01*
X154056312Y-78520164D01*
X153884559Y-78486000D01*
X153709441Y-78486000D01*
X153537688Y-78520164D01*
X153375901Y-78587179D01*
X153230296Y-78684469D01*
X153106469Y-78808296D01*
X153009179Y-78953901D01*
X152942164Y-79115688D01*
X152908000Y-79287441D01*
X151638000Y-79287441D01*
X151603836Y-79115688D01*
X151536821Y-78953901D01*
X151439531Y-78808296D01*
X151315704Y-78684469D01*
X151170099Y-78587179D01*
X151008312Y-78520164D01*
X150836559Y-78486000D01*
X150661441Y-78486000D01*
X150489688Y-78520164D01*
X150327901Y-78587179D01*
X150182296Y-78684469D01*
X150058469Y-78808296D01*
X149961179Y-78953901D01*
X149894164Y-79115688D01*
X149860000Y-79287441D01*
X136789771Y-79287441D01*
X136692099Y-79222179D01*
X136530312Y-79155164D01*
X136358559Y-79121000D01*
X136183441Y-79121000D01*
X136011688Y-79155164D01*
X135849901Y-79222179D01*
X135704296Y-79319469D01*
X135580469Y-79443296D01*
X135483179Y-79588901D01*
X135416164Y-79750688D01*
X135382000Y-79922441D01*
X133297794Y-79922441D01*
X133405531Y-79814704D01*
X133502821Y-79669099D01*
X133569836Y-79507312D01*
X133604000Y-79335559D01*
X133604000Y-79160441D01*
X133569836Y-78988688D01*
X133502821Y-78826901D01*
X133444756Y-78740000D01*
X133502821Y-78653099D01*
X133569836Y-78491312D01*
X133604000Y-78319559D01*
X133604000Y-78144441D01*
X133569836Y-77972688D01*
X133502821Y-77810901D01*
X133405531Y-77665296D01*
X133281704Y-77541469D01*
X133136099Y-77444179D01*
X132974312Y-77377164D01*
X132802559Y-77343000D01*
X132627441Y-77343000D01*
X132455688Y-77377164D01*
X132295000Y-77443724D01*
X132295000Y-77323740D01*
X132237932Y-77036842D01*
X132196661Y-76937205D01*
X134795812Y-76937205D01*
X134721179Y-77048901D01*
X134654164Y-77210688D01*
X134620000Y-77382441D01*
X134620000Y-77557559D01*
X134654164Y-77729312D01*
X134721179Y-77891099D01*
X134818469Y-78036704D01*
X134942296Y-78160531D01*
X135087901Y-78257821D01*
X135249688Y-78324836D01*
X135421441Y-78359000D01*
X135596559Y-78359000D01*
X135768312Y-78324836D01*
X135930099Y-78257821D01*
X136075704Y-78160531D01*
X136199531Y-78036704D01*
X136296821Y-77891099D01*
X136363836Y-77729312D01*
X136398000Y-77557559D01*
X136398000Y-77382441D01*
X136363836Y-77210688D01*
X136296821Y-77048901D01*
X136222188Y-76937205D01*
X138107467Y-76937204D01*
X138074500Y-77102941D01*
X138074500Y-77278059D01*
X138108664Y-77449812D01*
X138175679Y-77611599D01*
X138272969Y-77757204D01*
X138396796Y-77881031D01*
X138542401Y-77978321D01*
X138704188Y-78045336D01*
X138875941Y-78079500D01*
X139051059Y-78079500D01*
X139222812Y-78045336D01*
X139384599Y-77978321D01*
X139516120Y-77890441D01*
X145288000Y-77890441D01*
X145288000Y-78065559D01*
X145322164Y-78237312D01*
X145389179Y-78399099D01*
X145486469Y-78544704D01*
X145610296Y-78668531D01*
X145755901Y-78765821D01*
X145917688Y-78832836D01*
X146089441Y-78867000D01*
X146264559Y-78867000D01*
X146436312Y-78832836D01*
X146598099Y-78765821D01*
X146743704Y-78668531D01*
X146867531Y-78544704D01*
X146964821Y-78399099D01*
X147031836Y-78237312D01*
X147066000Y-78065559D01*
X147066000Y-77890441D01*
X147031836Y-77718688D01*
X146964821Y-77556901D01*
X146867531Y-77411296D01*
X146743704Y-77287469D01*
X146598099Y-77190179D01*
X146436312Y-77123164D01*
X146264559Y-77089000D01*
X146089441Y-77089000D01*
X145917688Y-77123164D01*
X145755901Y-77190179D01*
X145610296Y-77287469D01*
X145486469Y-77411296D01*
X145389179Y-77556901D01*
X145322164Y-77718688D01*
X145288000Y-77890441D01*
X139516120Y-77890441D01*
X139530204Y-77881031D01*
X139654031Y-77757204D01*
X139751321Y-77611599D01*
X139818336Y-77449812D01*
X139852500Y-77278059D01*
X139852500Y-77102941D01*
X139819533Y-76937204D01*
X154215563Y-76937202D01*
X154122469Y-77030296D01*
X154025179Y-77175901D01*
X153958164Y-77337688D01*
X153924000Y-77509441D01*
X153924000Y-77684559D01*
X153958164Y-77856312D01*
X154025179Y-78018099D01*
X154122469Y-78163704D01*
X154246296Y-78287531D01*
X154391901Y-78384821D01*
X154553688Y-78451836D01*
X154725441Y-78486000D01*
X154900559Y-78486000D01*
X155072312Y-78451836D01*
X155234099Y-78384821D01*
X155379704Y-78287531D01*
X155503531Y-78163704D01*
X155600821Y-78018099D01*
X155667836Y-77856312D01*
X155702000Y-77684559D01*
X155702000Y-77509441D01*
X155667836Y-77337688D01*
X155600821Y-77175901D01*
X155503531Y-77030296D01*
X155410437Y-76937202D01*
X170764553Y-76937200D01*
X175795001Y-81967649D01*
%TA.AperFunction,Conductor*%
D16*
G36*
X175795001Y-81967649D02*
G01*
X175795001Y-82865996D01*
X175711434Y-82590512D01*
X175564256Y-82315161D01*
X175366187Y-82073813D01*
X175124839Y-81875744D01*
X174849488Y-81728566D01*
X174550714Y-81637934D01*
X174317864Y-81615000D01*
X172562136Y-81615000D01*
X172329286Y-81637934D01*
X172030512Y-81728566D01*
X171755161Y-81875744D01*
X171513813Y-82073813D01*
X171315744Y-82315161D01*
X171168566Y-82590512D01*
X171077934Y-82889286D01*
X171047331Y-83200000D01*
X171077934Y-83510714D01*
X171168566Y-83809488D01*
X171315744Y-84084839D01*
X171513813Y-84326187D01*
X171755161Y-84524256D01*
X172030512Y-84671434D01*
X172329286Y-84762066D01*
X172562136Y-84785000D01*
X174317864Y-84785000D01*
X174550714Y-84762066D01*
X174849488Y-84671434D01*
X175124839Y-84524256D01*
X175366187Y-84326187D01*
X175564256Y-84084839D01*
X175711434Y-83809488D01*
X175795001Y-83534005D01*
X175795000Y-94265993D01*
X175711434Y-93990512D01*
X175564256Y-93715161D01*
X175366187Y-93473813D01*
X175124839Y-93275744D01*
X174849488Y-93128566D01*
X174550714Y-93037934D01*
X174317864Y-93015000D01*
X172562136Y-93015000D01*
X172329286Y-93037934D01*
X172030512Y-93128566D01*
X171755161Y-93275744D01*
X171513813Y-93473813D01*
X171315744Y-93715161D01*
X171168566Y-93990512D01*
X171077934Y-94289286D01*
X171047331Y-94600000D01*
X171077934Y-94910714D01*
X171168566Y-95209488D01*
X171315744Y-95484839D01*
X171513813Y-95726187D01*
X171755161Y-95924256D01*
X172030512Y-96071434D01*
X172329286Y-96162066D01*
X172562136Y-96185000D01*
X174317864Y-96185000D01*
X174550714Y-96162066D01*
X174849488Y-96071434D01*
X175124839Y-95924256D01*
X175366187Y-95726187D01*
X175564256Y-95484839D01*
X175711434Y-95209488D01*
X175795000Y-94934007D01*
X175795000Y-95836754D01*
X170764554Y-100867195D01*
X154851909Y-100867198D01*
X154950475Y-100768632D01*
X155112990Y-100525411D01*
X155224932Y-100255158D01*
X155282000Y-99968260D01*
X155282000Y-99675740D01*
X155224932Y-99388842D01*
X155112990Y-99118589D01*
X155015338Y-98972441D01*
X159893000Y-98972441D01*
X159893000Y-99147559D01*
X159927164Y-99319312D01*
X159994179Y-99481099D01*
X160091469Y-99626704D01*
X160215296Y-99750531D01*
X160360901Y-99847821D01*
X160522688Y-99914836D01*
X160694441Y-99949000D01*
X160869559Y-99949000D01*
X161041312Y-99914836D01*
X161203099Y-99847821D01*
X161348704Y-99750531D01*
X161472531Y-99626704D01*
X161569821Y-99481099D01*
X161636836Y-99319312D01*
X161671000Y-99147559D01*
X161671000Y-98972441D01*
X161636836Y-98800688D01*
X161569821Y-98638901D01*
X161472531Y-98493296D01*
X161348704Y-98369469D01*
X161203099Y-98272179D01*
X161041312Y-98205164D01*
X160869559Y-98171000D01*
X160694441Y-98171000D01*
X160522688Y-98205164D01*
X160360901Y-98272179D01*
X160215296Y-98369469D01*
X160091469Y-98493296D01*
X159994179Y-98638901D01*
X159927164Y-98800688D01*
X159893000Y-98972441D01*
X155015338Y-98972441D01*
X154950475Y-98875368D01*
X154743632Y-98668525D01*
X154500411Y-98506010D01*
X154230158Y-98394068D01*
X153943260Y-98337000D01*
X153650740Y-98337000D01*
X153363842Y-98394068D01*
X153093589Y-98506010D01*
X152850368Y-98668525D01*
X152643525Y-98875368D01*
X152527000Y-99049760D01*
X152410475Y-98875368D01*
X152203632Y-98668525D01*
X151960411Y-98506010D01*
X151690158Y-98394068D01*
X151403260Y-98337000D01*
X151110740Y-98337000D01*
X150823842Y-98394068D01*
X150553589Y-98506010D01*
X150310368Y-98668525D01*
X150103525Y-98875368D01*
X149987000Y-99049760D01*
X149870475Y-98875368D01*
X149663632Y-98668525D01*
X149420411Y-98506010D01*
X149150158Y-98394068D01*
X148863260Y-98337000D01*
X148570740Y-98337000D01*
X148283842Y-98394068D01*
X148013589Y-98506010D01*
X147770368Y-98668525D01*
X147638513Y-98800380D01*
X147616502Y-98727820D01*
X147557537Y-98617506D01*
X147478185Y-98520815D01*
X147381494Y-98441463D01*
X147271180Y-98382498D01*
X147151482Y-98346188D01*
X147027000Y-98333928D01*
X146462750Y-98337000D01*
X146304000Y-98495750D01*
X146304000Y-99695000D01*
X146324000Y-99695000D01*
X146324000Y-99949000D01*
X146304000Y-99949000D01*
X146304000Y-99969000D01*
X146050000Y-99969000D01*
X146050000Y-99949000D01*
X144850750Y-99949000D01*
X144692000Y-100107750D01*
X144688928Y-100672000D01*
X144701188Y-100796482D01*
X144722640Y-100867199D01*
X143849036Y-100867199D01*
X143880531Y-100835704D01*
X143977821Y-100690099D01*
X144044836Y-100528312D01*
X144079000Y-100356559D01*
X144079000Y-100181441D01*
X144044836Y-100009688D01*
X143977821Y-99847901D01*
X143880531Y-99702296D01*
X143756704Y-99578469D01*
X143611099Y-99481179D01*
X143449312Y-99414164D01*
X143277559Y-99380000D01*
X143102441Y-99380000D01*
X142930688Y-99414164D01*
X142768901Y-99481179D01*
X142623296Y-99578469D01*
X142499469Y-99702296D01*
X142402179Y-99847901D01*
X142335164Y-100009688D01*
X142301000Y-100181441D01*
X142301000Y-100356559D01*
X142335164Y-100528312D01*
X142402179Y-100690099D01*
X142499469Y-100835704D01*
X142530965Y-100867200D01*
X132194836Y-100867201D01*
X132237932Y-100763158D01*
X132295000Y-100476260D01*
X132295000Y-100183740D01*
X132237932Y-99896842D01*
X132125990Y-99626589D01*
X131963475Y-99383368D01*
X131756632Y-99176525D01*
X131582240Y-99060000D01*
X131756632Y-98943475D01*
X131963475Y-98736632D01*
X132125990Y-98493411D01*
X132190594Y-98337441D01*
X138049000Y-98337441D01*
X138049000Y-98512559D01*
X138083164Y-98684312D01*
X138150179Y-98846099D01*
X138247469Y-98991704D01*
X138371296Y-99115531D01*
X138516901Y-99212821D01*
X138678688Y-99279836D01*
X138850441Y-99314000D01*
X139025559Y-99314000D01*
X139197312Y-99279836D01*
X139359099Y-99212821D01*
X139504704Y-99115531D01*
X139628531Y-98991704D01*
X139641696Y-98972000D01*
X144688928Y-98972000D01*
X144692000Y-99536250D01*
X144850750Y-99695000D01*
X146050000Y-99695000D01*
X146050000Y-98495750D01*
X145891250Y-98337000D01*
X145327000Y-98333928D01*
X145202518Y-98346188D01*
X145082820Y-98382498D01*
X144972506Y-98441463D01*
X144875815Y-98520815D01*
X144796463Y-98617506D01*
X144737498Y-98727820D01*
X144701188Y-98847518D01*
X144688928Y-98972000D01*
X139641696Y-98972000D01*
X139725821Y-98846099D01*
X139792836Y-98684312D01*
X139827000Y-98512559D01*
X139827000Y-98337441D01*
X139792836Y-98165688D01*
X139725821Y-98003901D01*
X139628531Y-97858296D01*
X139504704Y-97734469D01*
X139359099Y-97637179D01*
X139197312Y-97570164D01*
X139025559Y-97536000D01*
X138850441Y-97536000D01*
X138678688Y-97570164D01*
X138516901Y-97637179D01*
X138371296Y-97734469D01*
X138247469Y-97858296D01*
X138150179Y-98003901D01*
X138083164Y-98165688D01*
X138049000Y-98337441D01*
X132190594Y-98337441D01*
X132237932Y-98223158D01*
X132295000Y-97936260D01*
X132295000Y-97643740D01*
X132237932Y-97356842D01*
X132125990Y-97086589D01*
X132113196Y-97067441D01*
X142113000Y-97067441D01*
X142113000Y-97242559D01*
X142147164Y-97414312D01*
X142214179Y-97576099D01*
X142311469Y-97721704D01*
X142435296Y-97845531D01*
X142580901Y-97942821D01*
X142742688Y-98009836D01*
X142914441Y-98044000D01*
X143089559Y-98044000D01*
X143261312Y-98009836D01*
X143423099Y-97942821D01*
X143568704Y-97845531D01*
X143632897Y-97781338D01*
X143676441Y-97790000D01*
X143851559Y-97790000D01*
X144023312Y-97755836D01*
X144185099Y-97688821D01*
X144330704Y-97591531D01*
X144454531Y-97467704D01*
X144551821Y-97322099D01*
X144618836Y-97160312D01*
X144653000Y-96988559D01*
X144653000Y-96813441D01*
X144618836Y-96641688D01*
X144551821Y-96479901D01*
X144454531Y-96334296D01*
X144330704Y-96210469D01*
X144185099Y-96113179D01*
X144023312Y-96046164D01*
X143851559Y-96012000D01*
X143676441Y-96012000D01*
X143504688Y-96046164D01*
X143342901Y-96113179D01*
X143197296Y-96210469D01*
X143133103Y-96274662D01*
X143089559Y-96266000D01*
X142914441Y-96266000D01*
X142742688Y-96300164D01*
X142580901Y-96367179D01*
X142435296Y-96464469D01*
X142311469Y-96588296D01*
X142214179Y-96733901D01*
X142147164Y-96895688D01*
X142113000Y-97067441D01*
X132113196Y-97067441D01*
X131963475Y-96843368D01*
X131756632Y-96636525D01*
X131582240Y-96520000D01*
X131756632Y-96403475D01*
X131963475Y-96196632D01*
X132125990Y-95953411D01*
X132148510Y-95899041D01*
X146558000Y-95899041D01*
X146558000Y-96074159D01*
X146592164Y-96245912D01*
X146659179Y-96407699D01*
X146756469Y-96553304D01*
X146880296Y-96677131D01*
X147025901Y-96774421D01*
X147187688Y-96841436D01*
X147359441Y-96875600D01*
X147534559Y-96875600D01*
X147706312Y-96841436D01*
X147828000Y-96791031D01*
X147828000Y-96861559D01*
X147862164Y-97033312D01*
X147929179Y-97195099D01*
X148026469Y-97340704D01*
X148150296Y-97464531D01*
X148295901Y-97561821D01*
X148457688Y-97628836D01*
X148629441Y-97663000D01*
X148804559Y-97663000D01*
X148976312Y-97628836D01*
X149138099Y-97561821D01*
X149283704Y-97464531D01*
X149407531Y-97340704D01*
X149446756Y-97282000D01*
X149464959Y-97282000D01*
X149636712Y-97247836D01*
X149694378Y-97223950D01*
X149819901Y-97307821D01*
X149981688Y-97374836D01*
X150153441Y-97409000D01*
X150328559Y-97409000D01*
X150500312Y-97374836D01*
X150662099Y-97307821D01*
X150774400Y-97232784D01*
X150774400Y-97267959D01*
X150808564Y-97439712D01*
X150875579Y-97601499D01*
X150972869Y-97747104D01*
X151096696Y-97870931D01*
X151242301Y-97968221D01*
X151404088Y-98035236D01*
X151575841Y-98069400D01*
X151750959Y-98069400D01*
X151922712Y-98035236D01*
X152084499Y-97968221D01*
X152230104Y-97870931D01*
X152353931Y-97747104D01*
X152451221Y-97601499D01*
X152518236Y-97439712D01*
X152552400Y-97267959D01*
X152552400Y-97092841D01*
X152518236Y-96921088D01*
X152451221Y-96759301D01*
X152353931Y-96613696D01*
X152230104Y-96489869D01*
X152182171Y-96457841D01*
X153009600Y-96457841D01*
X153009600Y-96632959D01*
X153043764Y-96804712D01*
X153110779Y-96966499D01*
X153208069Y-97112104D01*
X153331896Y-97235931D01*
X153477501Y-97333221D01*
X153639288Y-97400236D01*
X153811041Y-97434400D01*
X153986159Y-97434400D01*
X154157912Y-97400236D01*
X154319699Y-97333221D01*
X154465304Y-97235931D01*
X154589131Y-97112104D01*
X154686421Y-96966499D01*
X154753436Y-96804712D01*
X154787600Y-96632959D01*
X154787600Y-96457841D01*
X154753436Y-96286088D01*
X154686421Y-96124301D01*
X154589131Y-95978696D01*
X154465304Y-95854869D01*
X154319699Y-95757579D01*
X154157912Y-95690564D01*
X153986159Y-95656400D01*
X153811041Y-95656400D01*
X153639288Y-95690564D01*
X153477501Y-95757579D01*
X153331896Y-95854869D01*
X153208069Y-95978696D01*
X153110779Y-96124301D01*
X153043764Y-96286088D01*
X153009600Y-96457841D01*
X152182171Y-96457841D01*
X152084499Y-96392579D01*
X151922712Y-96325564D01*
X151750959Y-96291400D01*
X151575841Y-96291400D01*
X151404088Y-96325564D01*
X151242301Y-96392579D01*
X151130000Y-96467616D01*
X151130000Y-96432441D01*
X151095836Y-96260688D01*
X151028821Y-96098901D01*
X150931531Y-95953296D01*
X150807704Y-95829469D01*
X150662099Y-95732179D01*
X150500312Y-95665164D01*
X150328559Y-95631000D01*
X150153441Y-95631000D01*
X149981688Y-95665164D01*
X149924022Y-95689050D01*
X149798499Y-95605179D01*
X149636712Y-95538164D01*
X149464959Y-95504000D01*
X149289841Y-95504000D01*
X149118088Y-95538164D01*
X148956301Y-95605179D01*
X148810696Y-95702469D01*
X148686869Y-95826296D01*
X148647644Y-95885000D01*
X148629441Y-95885000D01*
X148457688Y-95919164D01*
X148336000Y-95969569D01*
X148336000Y-95899041D01*
X148301836Y-95727288D01*
X148234821Y-95565501D01*
X148137531Y-95419896D01*
X148013704Y-95296069D01*
X147868099Y-95198779D01*
X147706312Y-95131764D01*
X147534559Y-95097600D01*
X147359441Y-95097600D01*
X147187688Y-95131764D01*
X147025901Y-95198779D01*
X146880296Y-95296069D01*
X146756469Y-95419896D01*
X146659179Y-95565501D01*
X146592164Y-95727288D01*
X146558000Y-95899041D01*
X132148510Y-95899041D01*
X132237932Y-95683158D01*
X132295000Y-95396260D01*
X132295000Y-95103740D01*
X132240478Y-94829641D01*
X155191400Y-94829641D01*
X155191400Y-95004759D01*
X155225564Y-95176512D01*
X155292579Y-95338299D01*
X155389869Y-95483904D01*
X155513696Y-95607731D01*
X155659301Y-95705021D01*
X155821088Y-95772036D01*
X155992841Y-95806200D01*
X156167959Y-95806200D01*
X156339712Y-95772036D01*
X156501499Y-95705021D01*
X156647104Y-95607731D01*
X156770931Y-95483904D01*
X156868221Y-95338299D01*
X156935236Y-95176512D01*
X156963296Y-95035441D01*
X161823400Y-95035441D01*
X161823400Y-95210559D01*
X161857564Y-95382312D01*
X161924579Y-95544099D01*
X162021869Y-95689704D01*
X162145696Y-95813531D01*
X162291301Y-95910821D01*
X162453088Y-95977836D01*
X162624841Y-96012000D01*
X162799959Y-96012000D01*
X162971712Y-95977836D01*
X163133499Y-95910821D01*
X163279104Y-95813531D01*
X163402931Y-95689704D01*
X163500221Y-95544099D01*
X163567236Y-95382312D01*
X163601400Y-95210559D01*
X163601400Y-95035441D01*
X163567236Y-94863688D01*
X163500221Y-94701901D01*
X163402931Y-94556296D01*
X163279104Y-94432469D01*
X163133499Y-94335179D01*
X162984452Y-94273441D01*
X165455600Y-94273441D01*
X165455600Y-94448559D01*
X165489764Y-94620312D01*
X165556779Y-94782099D01*
X165654069Y-94927704D01*
X165777896Y-95051531D01*
X165923501Y-95148821D01*
X166085288Y-95215836D01*
X166257041Y-95250000D01*
X166432159Y-95250000D01*
X166603912Y-95215836D01*
X166765699Y-95148821D01*
X166911304Y-95051531D01*
X167035131Y-94927704D01*
X167132421Y-94782099D01*
X167199436Y-94620312D01*
X167233600Y-94448559D01*
X167233600Y-94273441D01*
X167199436Y-94101688D01*
X167132421Y-93939901D01*
X167035131Y-93794296D01*
X166911304Y-93670469D01*
X166765699Y-93573179D01*
X166603912Y-93506164D01*
X166432159Y-93472000D01*
X166257041Y-93472000D01*
X166085288Y-93506164D01*
X165923501Y-93573179D01*
X165777896Y-93670469D01*
X165654069Y-93794296D01*
X165556779Y-93939901D01*
X165489764Y-94101688D01*
X165455600Y-94273441D01*
X162984452Y-94273441D01*
X162971712Y-94268164D01*
X162799959Y-94234000D01*
X162624841Y-94234000D01*
X162453088Y-94268164D01*
X162291301Y-94335179D01*
X162145696Y-94432469D01*
X162021869Y-94556296D01*
X161924579Y-94701901D01*
X161857564Y-94863688D01*
X161823400Y-95035441D01*
X156963296Y-95035441D01*
X156969400Y-95004759D01*
X156969400Y-94829641D01*
X156935236Y-94657888D01*
X156868221Y-94496101D01*
X156770931Y-94350496D01*
X156647104Y-94226669D01*
X156501499Y-94129379D01*
X156339712Y-94062364D01*
X156167959Y-94028200D01*
X155992841Y-94028200D01*
X155821088Y-94062364D01*
X155659301Y-94129379D01*
X155513696Y-94226669D01*
X155389869Y-94350496D01*
X155292579Y-94496101D01*
X155225564Y-94657888D01*
X155191400Y-94829641D01*
X132240478Y-94829641D01*
X132237932Y-94816842D01*
X132125990Y-94546589D01*
X131963475Y-94303368D01*
X131756632Y-94096525D01*
X131582240Y-93980000D01*
X131756632Y-93863475D01*
X131963475Y-93656632D01*
X132125990Y-93413411D01*
X132237932Y-93143158D01*
X132295000Y-92856260D01*
X132295000Y-92563740D01*
X132237932Y-92276842D01*
X132125990Y-92006589D01*
X131963475Y-91763368D01*
X131756632Y-91556525D01*
X131582240Y-91440000D01*
X131756632Y-91323475D01*
X131963475Y-91116632D01*
X131975629Y-91098441D01*
X139573000Y-91098441D01*
X139573000Y-91273559D01*
X139607164Y-91445312D01*
X139674179Y-91607099D01*
X139771469Y-91752704D01*
X139895296Y-91876531D01*
X140040901Y-91973821D01*
X140202688Y-92040836D01*
X140374441Y-92075000D01*
X140549559Y-92075000D01*
X140721312Y-92040836D01*
X140883099Y-91973821D01*
X141028704Y-91876531D01*
X141152531Y-91752704D01*
X141249821Y-91607099D01*
X141316836Y-91445312D01*
X141351000Y-91273559D01*
X141351000Y-91098441D01*
X141316836Y-90926688D01*
X141282768Y-90844441D01*
X142113000Y-90844441D01*
X142113000Y-91019559D01*
X142147164Y-91191312D01*
X142214179Y-91353099D01*
X142272244Y-91440000D01*
X142214179Y-91526901D01*
X142147164Y-91688688D01*
X142113000Y-91860441D01*
X142113000Y-92035559D01*
X142147164Y-92207312D01*
X142214179Y-92369099D01*
X142311469Y-92514704D01*
X142435296Y-92638531D01*
X142580901Y-92735821D01*
X142742688Y-92802836D01*
X142914441Y-92837000D01*
X143089559Y-92837000D01*
X143261312Y-92802836D01*
X143423099Y-92735821D01*
X143568704Y-92638531D01*
X143692531Y-92514704D01*
X143732859Y-92454349D01*
X143896312Y-92421836D01*
X144058099Y-92354821D01*
X144203704Y-92257531D01*
X144327531Y-92133704D01*
X144424821Y-91988099D01*
X144491836Y-91826312D01*
X144526000Y-91654559D01*
X144526000Y-91479441D01*
X144491836Y-91307688D01*
X144424821Y-91145901D01*
X144327531Y-91000296D01*
X144203704Y-90876469D01*
X144058099Y-90779179D01*
X143896312Y-90712164D01*
X143863386Y-90705614D01*
X143856836Y-90672688D01*
X143789821Y-90510901D01*
X143692531Y-90365296D01*
X143568704Y-90241469D01*
X143423099Y-90144179D01*
X143261312Y-90077164D01*
X143089559Y-90043000D01*
X142914441Y-90043000D01*
X142742688Y-90077164D01*
X142580901Y-90144179D01*
X142435296Y-90241469D01*
X142311469Y-90365296D01*
X142214179Y-90510901D01*
X142147164Y-90672688D01*
X142113000Y-90844441D01*
X141282768Y-90844441D01*
X141249821Y-90764901D01*
X141152531Y-90619296D01*
X141028704Y-90495469D01*
X140883099Y-90398179D01*
X140721312Y-90331164D01*
X140549559Y-90297000D01*
X140374441Y-90297000D01*
X140202688Y-90331164D01*
X140040901Y-90398179D01*
X139895296Y-90495469D01*
X139771469Y-90619296D01*
X139674179Y-90764901D01*
X139607164Y-90926688D01*
X139573000Y-91098441D01*
X131975629Y-91098441D01*
X132125990Y-90873411D01*
X132237932Y-90603158D01*
X132295000Y-90316260D01*
X132295000Y-90023740D01*
X132237932Y-89736842D01*
X132125990Y-89466589D01*
X131963475Y-89223368D01*
X131756632Y-89016525D01*
X131582240Y-88900000D01*
X131756632Y-88783475D01*
X131963475Y-88576632D01*
X131981997Y-88548911D01*
X147650000Y-88548911D01*
X147650000Y-88733089D01*
X147685932Y-88913729D01*
X147756414Y-89083889D01*
X147858738Y-89237028D01*
X147900210Y-89278500D01*
X147858738Y-89319972D01*
X147756414Y-89473111D01*
X147685932Y-89643271D01*
X147650000Y-89823911D01*
X147650000Y-90008089D01*
X147685932Y-90188729D01*
X147756414Y-90358889D01*
X147858738Y-90512028D01*
X147900210Y-90553500D01*
X147858738Y-90594972D01*
X147756414Y-90748111D01*
X147685932Y-90918271D01*
X147650000Y-91098911D01*
X147650000Y-91283089D01*
X147685932Y-91463729D01*
X147756414Y-91633889D01*
X147858738Y-91787028D01*
X147988972Y-91917262D01*
X148142111Y-92019586D01*
X148312271Y-92090068D01*
X148492911Y-92126000D01*
X148677089Y-92126000D01*
X148857729Y-92090068D01*
X149027889Y-92019586D01*
X149181028Y-91917262D01*
X149222500Y-91875790D01*
X149263972Y-91917262D01*
X149417111Y-92019586D01*
X149587271Y-92090068D01*
X149767911Y-92126000D01*
X149952089Y-92126000D01*
X150132729Y-92090068D01*
X150302889Y-92019586D01*
X150456028Y-91917262D01*
X150497500Y-91875790D01*
X150538972Y-91917262D01*
X150692111Y-92019586D01*
X150862271Y-92090068D01*
X151042911Y-92126000D01*
X151227089Y-92126000D01*
X151407729Y-92090068D01*
X151577889Y-92019586D01*
X151731028Y-91917262D01*
X151861262Y-91787028D01*
X151963586Y-91633889D01*
X152034068Y-91463729D01*
X152070000Y-91283089D01*
X152070000Y-91098911D01*
X152034068Y-90918271D01*
X151963586Y-90748111D01*
X151943094Y-90717441D01*
X155575000Y-90717441D01*
X155575000Y-90892559D01*
X155609164Y-91064312D01*
X155659569Y-91186000D01*
X155609164Y-91307688D01*
X155575000Y-91479441D01*
X155575000Y-91654559D01*
X155609164Y-91826312D01*
X155676179Y-91988099D01*
X155773469Y-92133704D01*
X155897296Y-92257531D01*
X156042901Y-92354821D01*
X156204688Y-92421836D01*
X156376441Y-92456000D01*
X156551559Y-92456000D01*
X156723312Y-92421836D01*
X156885099Y-92354821D01*
X157030704Y-92257531D01*
X157154531Y-92133704D01*
X157251821Y-91988099D01*
X157318836Y-91826312D01*
X157353000Y-91654559D01*
X157353000Y-91479441D01*
X157318836Y-91307688D01*
X157268431Y-91186000D01*
X157310975Y-91083288D01*
X172255000Y-91083288D01*
X172255000Y-91316712D01*
X172300539Y-91545652D01*
X172389866Y-91761308D01*
X172519550Y-91955394D01*
X172684606Y-92120450D01*
X172878692Y-92250134D01*
X173094348Y-92339461D01*
X173323288Y-92385000D01*
X173556712Y-92385000D01*
X173785652Y-92339461D01*
X174001308Y-92250134D01*
X174195394Y-92120450D01*
X174360450Y-91955394D01*
X174490134Y-91761308D01*
X174579461Y-91545652D01*
X174625000Y-91316712D01*
X174625000Y-91083288D01*
X174579461Y-90854348D01*
X174490134Y-90638692D01*
X174360450Y-90444606D01*
X174195394Y-90279550D01*
X174001308Y-90149866D01*
X173785652Y-90060539D01*
X173556712Y-90015000D01*
X173323288Y-90015000D01*
X173094348Y-90060539D01*
X172878692Y-90149866D01*
X172684606Y-90279550D01*
X172519550Y-90444606D01*
X172389866Y-90638692D01*
X172300539Y-90854348D01*
X172255000Y-91083288D01*
X157310975Y-91083288D01*
X157318836Y-91064312D01*
X157353000Y-90892559D01*
X157353000Y-90717441D01*
X157318836Y-90545688D01*
X157251821Y-90383901D01*
X157154531Y-90238296D01*
X157030704Y-90114469D01*
X156885099Y-90017179D01*
X156723312Y-89950164D01*
X156551559Y-89916000D01*
X156376441Y-89916000D01*
X156204688Y-89950164D01*
X156042901Y-90017179D01*
X155897296Y-90114469D01*
X155773469Y-90238296D01*
X155676179Y-90383901D01*
X155609164Y-90545688D01*
X155575000Y-90717441D01*
X151943094Y-90717441D01*
X151861262Y-90594972D01*
X151819790Y-90553500D01*
X151861262Y-90512028D01*
X151963586Y-90358889D01*
X152034068Y-90188729D01*
X152070000Y-90008089D01*
X152070000Y-89828441D01*
X167767000Y-89828441D01*
X167767000Y-90003559D01*
X167801164Y-90175312D01*
X167868179Y-90337099D01*
X167965469Y-90482704D01*
X168089296Y-90606531D01*
X168234901Y-90703821D01*
X168396688Y-90770836D01*
X168568441Y-90805000D01*
X168743559Y-90805000D01*
X168915312Y-90770836D01*
X169077099Y-90703821D01*
X169222704Y-90606531D01*
X169346531Y-90482704D01*
X169443821Y-90337099D01*
X169510836Y-90175312D01*
X169545000Y-90003559D01*
X169545000Y-89828441D01*
X169510836Y-89656688D01*
X169443821Y-89494901D01*
X169346531Y-89349296D01*
X169222704Y-89225469D01*
X169077099Y-89128179D01*
X168915312Y-89061164D01*
X168743559Y-89027000D01*
X168568441Y-89027000D01*
X168396688Y-89061164D01*
X168234901Y-89128179D01*
X168089296Y-89225469D01*
X167965469Y-89349296D01*
X167868179Y-89494901D01*
X167801164Y-89656688D01*
X167767000Y-89828441D01*
X152070000Y-89828441D01*
X152070000Y-89823911D01*
X152034068Y-89643271D01*
X151963586Y-89473111D01*
X151861262Y-89319972D01*
X151819790Y-89278500D01*
X151861262Y-89237028D01*
X151963586Y-89083889D01*
X152034068Y-88913729D01*
X152070000Y-88733089D01*
X152070000Y-88583841D01*
X155448000Y-88583841D01*
X155448000Y-88758959D01*
X155482164Y-88930712D01*
X155549179Y-89092499D01*
X155646469Y-89238104D01*
X155770296Y-89361931D01*
X155915901Y-89459221D01*
X156077688Y-89526236D01*
X156249441Y-89560400D01*
X156424559Y-89560400D01*
X156596312Y-89526236D01*
X156758099Y-89459221D01*
X156903704Y-89361931D01*
X157027531Y-89238104D01*
X157124821Y-89092499D01*
X157191836Y-88930712D01*
X157226000Y-88758959D01*
X157226000Y-88583841D01*
X157191836Y-88412088D01*
X157124821Y-88250301D01*
X157027531Y-88104696D01*
X156903704Y-87980869D01*
X156758099Y-87883579D01*
X156596312Y-87816564D01*
X156495148Y-87796441D01*
X171450000Y-87796441D01*
X171450000Y-87971559D01*
X171484164Y-88143312D01*
X171551179Y-88305099D01*
X171648469Y-88450704D01*
X171772296Y-88574531D01*
X171917901Y-88671821D01*
X172079688Y-88738836D01*
X172251441Y-88773000D01*
X172426559Y-88773000D01*
X172598312Y-88738836D01*
X172760099Y-88671821D01*
X172905704Y-88574531D01*
X173029531Y-88450704D01*
X173126821Y-88305099D01*
X173193836Y-88143312D01*
X173228000Y-87971559D01*
X173228000Y-87796441D01*
X173221705Y-87764794D01*
X173323288Y-87785000D01*
X173556712Y-87785000D01*
X173785652Y-87739461D01*
X174001308Y-87650134D01*
X174195394Y-87520450D01*
X174360450Y-87355394D01*
X174490134Y-87161308D01*
X174579461Y-86945652D01*
X174625000Y-86716712D01*
X174625000Y-86483288D01*
X174579461Y-86254348D01*
X174490134Y-86038692D01*
X174360450Y-85844606D01*
X174195394Y-85679550D01*
X174001308Y-85549866D01*
X173785652Y-85460539D01*
X173556712Y-85415000D01*
X173323288Y-85415000D01*
X173094348Y-85460539D01*
X172878692Y-85549866D01*
X172684606Y-85679550D01*
X172519550Y-85844606D01*
X172389866Y-86038692D01*
X172300539Y-86254348D01*
X172255000Y-86483288D01*
X172255000Y-86716712D01*
X172300539Y-86945652D01*
X172320979Y-86995000D01*
X172251441Y-86995000D01*
X172079688Y-87029164D01*
X171917901Y-87096179D01*
X171772296Y-87193469D01*
X171648469Y-87317296D01*
X171551179Y-87462901D01*
X171484164Y-87624688D01*
X171450000Y-87796441D01*
X156495148Y-87796441D01*
X156424559Y-87782400D01*
X156249441Y-87782400D01*
X156077688Y-87816564D01*
X155915901Y-87883579D01*
X155770296Y-87980869D01*
X155646469Y-88104696D01*
X155549179Y-88250301D01*
X155482164Y-88412088D01*
X155448000Y-88583841D01*
X152070000Y-88583841D01*
X152070000Y-88548911D01*
X152034068Y-88368271D01*
X151963586Y-88198111D01*
X151861262Y-88044972D01*
X151731028Y-87914738D01*
X151577889Y-87812414D01*
X151407729Y-87741932D01*
X151227089Y-87706000D01*
X151042911Y-87706000D01*
X150862271Y-87741932D01*
X150692111Y-87812414D01*
X150538972Y-87914738D01*
X150497500Y-87956210D01*
X150456028Y-87914738D01*
X150302889Y-87812414D01*
X150132729Y-87741932D01*
X149952089Y-87706000D01*
X149767911Y-87706000D01*
X149587271Y-87741932D01*
X149417111Y-87812414D01*
X149263972Y-87914738D01*
X149222500Y-87956210D01*
X149181028Y-87914738D01*
X149027889Y-87812414D01*
X148857729Y-87741932D01*
X148677089Y-87706000D01*
X148492911Y-87706000D01*
X148312271Y-87741932D01*
X148142111Y-87812414D01*
X147988972Y-87914738D01*
X147858738Y-88044972D01*
X147756414Y-88198111D01*
X147685932Y-88368271D01*
X147650000Y-88548911D01*
X131981997Y-88548911D01*
X132125990Y-88333411D01*
X132237932Y-88063158D01*
X132295000Y-87776260D01*
X132295000Y-87483740D01*
X132281415Y-87415441D01*
X142621000Y-87415441D01*
X142621000Y-87590559D01*
X142655164Y-87762312D01*
X142722179Y-87924099D01*
X142819469Y-88069704D01*
X142943296Y-88193531D01*
X143088901Y-88290821D01*
X143250688Y-88357836D01*
X143422441Y-88392000D01*
X143597559Y-88392000D01*
X143769312Y-88357836D01*
X143931099Y-88290821D01*
X144076704Y-88193531D01*
X144200531Y-88069704D01*
X144297821Y-87924099D01*
X144364836Y-87762312D01*
X144399000Y-87590559D01*
X144399000Y-87415441D01*
X144364836Y-87243688D01*
X144297821Y-87081901D01*
X144200531Y-86936296D01*
X144076704Y-86812469D01*
X143931099Y-86715179D01*
X143769312Y-86648164D01*
X143597559Y-86614000D01*
X143422441Y-86614000D01*
X143250688Y-86648164D01*
X143088901Y-86715179D01*
X142943296Y-86812469D01*
X142819469Y-86936296D01*
X142722179Y-87081901D01*
X142655164Y-87243688D01*
X142621000Y-87415441D01*
X132281415Y-87415441D01*
X132237932Y-87196842D01*
X132125990Y-86926589D01*
X131963475Y-86683368D01*
X131756632Y-86476525D01*
X131582240Y-86360000D01*
X131756632Y-86243475D01*
X131963475Y-86036632D01*
X131992601Y-85993041D01*
X160147000Y-85993041D01*
X160147000Y-86168159D01*
X160181164Y-86339912D01*
X160248179Y-86501699D01*
X160345469Y-86647304D01*
X160469296Y-86771131D01*
X160614901Y-86868421D01*
X160776688Y-86935436D01*
X160948441Y-86969600D01*
X161123559Y-86969600D01*
X161295312Y-86935436D01*
X161457099Y-86868421D01*
X161602704Y-86771131D01*
X161726531Y-86647304D01*
X161823821Y-86501699D01*
X161890836Y-86339912D01*
X161925000Y-86168159D01*
X161925000Y-85993041D01*
X161890836Y-85821288D01*
X161823821Y-85659501D01*
X161792110Y-85612041D01*
X162864800Y-85612041D01*
X162864800Y-85787159D01*
X162898964Y-85958912D01*
X162965979Y-86120699D01*
X163063269Y-86266304D01*
X163187096Y-86390131D01*
X163332701Y-86487421D01*
X163494488Y-86554436D01*
X163666241Y-86588600D01*
X163841359Y-86588600D01*
X164013112Y-86554436D01*
X164174899Y-86487421D01*
X164320504Y-86390131D01*
X164444331Y-86266304D01*
X164541621Y-86120699D01*
X164608636Y-85958912D01*
X164642800Y-85787159D01*
X164642800Y-85612041D01*
X164608636Y-85440288D01*
X164541621Y-85278501D01*
X164444331Y-85132896D01*
X164320504Y-85009069D01*
X164174899Y-84911779D01*
X164013112Y-84844764D01*
X163841359Y-84810600D01*
X163666241Y-84810600D01*
X163494488Y-84844764D01*
X163332701Y-84911779D01*
X163187096Y-85009069D01*
X163063269Y-85132896D01*
X162965979Y-85278501D01*
X162898964Y-85440288D01*
X162864800Y-85612041D01*
X161792110Y-85612041D01*
X161726531Y-85513896D01*
X161602704Y-85390069D01*
X161457099Y-85292779D01*
X161295312Y-85225764D01*
X161123559Y-85191600D01*
X160948441Y-85191600D01*
X160776688Y-85225764D01*
X160614901Y-85292779D01*
X160469296Y-85390069D01*
X160345469Y-85513896D01*
X160248179Y-85659501D01*
X160181164Y-85821288D01*
X160147000Y-85993041D01*
X131992601Y-85993041D01*
X132125990Y-85793411D01*
X132237932Y-85523158D01*
X132295000Y-85236260D01*
X132295000Y-84943740D01*
X132237932Y-84656842D01*
X132125990Y-84386589D01*
X131963475Y-84143368D01*
X131756632Y-83936525D01*
X131582240Y-83820000D01*
X131756632Y-83703475D01*
X131963475Y-83496632D01*
X132125990Y-83253411D01*
X132137989Y-83224441D01*
X146177000Y-83224441D01*
X146177000Y-83399559D01*
X146211164Y-83571312D01*
X146278179Y-83733099D01*
X146375469Y-83878704D01*
X146499296Y-84002531D01*
X146644901Y-84099821D01*
X146702748Y-84123782D01*
X146719164Y-84206312D01*
X146786179Y-84368099D01*
X146883469Y-84513704D01*
X147007296Y-84637531D01*
X147152901Y-84734821D01*
X147314688Y-84801836D01*
X147486441Y-84836000D01*
X147661559Y-84836000D01*
X147833312Y-84801836D01*
X147995099Y-84734821D01*
X148140704Y-84637531D01*
X148264531Y-84513704D01*
X148361821Y-84368099D01*
X148428836Y-84206312D01*
X148463000Y-84034559D01*
X148463000Y-83859441D01*
X148428836Y-83687688D01*
X148361821Y-83525901D01*
X148357480Y-83519404D01*
X148394704Y-83494531D01*
X148518531Y-83370704D01*
X148615821Y-83225099D01*
X148682836Y-83063312D01*
X148701309Y-82970441D01*
X148717000Y-82970441D01*
X148717000Y-83145559D01*
X148751164Y-83317312D01*
X148818179Y-83479099D01*
X148915469Y-83624704D01*
X149039296Y-83748531D01*
X149184901Y-83845821D01*
X149346688Y-83912836D01*
X149518441Y-83947000D01*
X149693559Y-83947000D01*
X149865312Y-83912836D01*
X150027099Y-83845821D01*
X150172704Y-83748531D01*
X150296531Y-83624704D01*
X150309402Y-83605441D01*
X151384000Y-83605441D01*
X151384000Y-83780559D01*
X151418164Y-83952312D01*
X151485179Y-84114099D01*
X151582469Y-84259704D01*
X151706296Y-84383531D01*
X151851901Y-84480821D01*
X152013688Y-84547836D01*
X152185441Y-84582000D01*
X152360559Y-84582000D01*
X152532312Y-84547836D01*
X152694099Y-84480821D01*
X152839704Y-84383531D01*
X152908000Y-84315235D01*
X152976296Y-84383531D01*
X153121901Y-84480821D01*
X153283688Y-84547836D01*
X153455441Y-84582000D01*
X153630559Y-84582000D01*
X153802312Y-84547836D01*
X153964099Y-84480821D01*
X154109704Y-84383531D01*
X154233531Y-84259704D01*
X154330821Y-84114099D01*
X154397836Y-83952312D01*
X154432000Y-83780559D01*
X154432000Y-83605441D01*
X154397836Y-83433688D01*
X154355302Y-83331003D01*
X154490704Y-83240531D01*
X154614531Y-83116704D01*
X154711821Y-82971099D01*
X154778836Y-82809312D01*
X154811688Y-82644154D01*
X154818312Y-82642836D01*
X154980099Y-82575821D01*
X155125704Y-82478531D01*
X155249531Y-82354704D01*
X155346821Y-82209099D01*
X155413836Y-82047312D01*
X155448000Y-81875559D01*
X155448000Y-81700441D01*
X155413836Y-81528688D01*
X155346821Y-81366901D01*
X155249531Y-81221296D01*
X155125704Y-81097469D01*
X154980099Y-81000179D01*
X154818312Y-80933164D01*
X154646559Y-80899000D01*
X154471441Y-80899000D01*
X154299688Y-80933164D01*
X154137901Y-81000179D01*
X153992296Y-81097469D01*
X153868469Y-81221296D01*
X153771179Y-81366901D01*
X153704164Y-81528688D01*
X153671312Y-81693846D01*
X153664688Y-81695164D01*
X153502901Y-81762179D01*
X153357296Y-81859469D01*
X153233469Y-81983296D01*
X153185834Y-82054586D01*
X153122559Y-82042000D01*
X152947441Y-82042000D01*
X152775688Y-82076164D01*
X152613901Y-82143179D01*
X152468296Y-82240469D01*
X152344469Y-82364296D01*
X152247179Y-82509901D01*
X152180164Y-82671688D01*
X152152544Y-82810544D01*
X152013688Y-82838164D01*
X151851901Y-82905179D01*
X151706296Y-83002469D01*
X151582469Y-83126296D01*
X151485179Y-83271901D01*
X151418164Y-83433688D01*
X151384000Y-83605441D01*
X150309402Y-83605441D01*
X150393821Y-83479099D01*
X150460836Y-83317312D01*
X150495000Y-83145559D01*
X150495000Y-82970441D01*
X150460836Y-82798688D01*
X150393821Y-82636901D01*
X150296531Y-82491296D01*
X150172704Y-82367469D01*
X150027099Y-82270179D01*
X149865312Y-82203164D01*
X149693559Y-82169000D01*
X149518441Y-82169000D01*
X149346688Y-82203164D01*
X149184901Y-82270179D01*
X149039296Y-82367469D01*
X148915469Y-82491296D01*
X148818179Y-82636901D01*
X148751164Y-82798688D01*
X148717000Y-82970441D01*
X148701309Y-82970441D01*
X148717000Y-82891559D01*
X148717000Y-82716441D01*
X148682836Y-82544688D01*
X148615821Y-82382901D01*
X148518531Y-82237296D01*
X148394704Y-82113469D01*
X148249099Y-82016179D01*
X148087312Y-81949164D01*
X147915559Y-81915000D01*
X147740441Y-81915000D01*
X147568688Y-81949164D01*
X147406901Y-82016179D01*
X147261296Y-82113469D01*
X147137469Y-82237296D01*
X147040179Y-82382901D01*
X147023569Y-82423000D01*
X146978441Y-82423000D01*
X146806688Y-82457164D01*
X146644901Y-82524179D01*
X146499296Y-82621469D01*
X146375469Y-82745296D01*
X146278179Y-82890901D01*
X146211164Y-83052688D01*
X146177000Y-83224441D01*
X132137989Y-83224441D01*
X132237932Y-82983158D01*
X132295000Y-82696260D01*
X132295000Y-82403740D01*
X132237932Y-82116842D01*
X132125990Y-81846589D01*
X131963475Y-81603368D01*
X131756632Y-81396525D01*
X131582240Y-81280000D01*
X131618246Y-81255941D01*
X139128500Y-81255941D01*
X139128500Y-81431059D01*
X139162664Y-81602812D01*
X139229679Y-81764599D01*
X139326969Y-81910204D01*
X139450796Y-82034031D01*
X139596401Y-82131321D01*
X139758188Y-82198336D01*
X139929941Y-82232500D01*
X140105059Y-82232500D01*
X140276812Y-82198336D01*
X140438599Y-82131321D01*
X140584204Y-82034031D01*
X140708031Y-81910204D01*
X140796404Y-81777944D01*
X140817179Y-81828099D01*
X140914469Y-81973704D01*
X141038296Y-82097531D01*
X141183901Y-82194821D01*
X141345688Y-82261836D01*
X141517441Y-82296000D01*
X141692559Y-82296000D01*
X141864312Y-82261836D01*
X142026099Y-82194821D01*
X142171704Y-82097531D01*
X142295531Y-81973704D01*
X142392821Y-81828099D01*
X142445699Y-81700441D01*
X142494000Y-81700441D01*
X142494000Y-81875559D01*
X142528164Y-82047312D01*
X142595179Y-82209099D01*
X142692469Y-82354704D01*
X142816296Y-82478531D01*
X142961901Y-82575821D01*
X143123688Y-82642836D01*
X143295441Y-82677000D01*
X143470559Y-82677000D01*
X143642312Y-82642836D01*
X143804099Y-82575821D01*
X143949704Y-82478531D01*
X144073531Y-82354704D01*
X144170821Y-82209099D01*
X144237836Y-82047312D01*
X144272000Y-81875559D01*
X144272000Y-81700441D01*
X144237836Y-81528688D01*
X144170821Y-81366901D01*
X144073531Y-81221296D01*
X143949704Y-81097469D01*
X143804099Y-81000179D01*
X143642312Y-80933164D01*
X143470559Y-80899000D01*
X143295441Y-80899000D01*
X143123688Y-80933164D01*
X142961901Y-81000179D01*
X142816296Y-81097469D01*
X142692469Y-81221296D01*
X142595179Y-81366901D01*
X142528164Y-81528688D01*
X142494000Y-81700441D01*
X142445699Y-81700441D01*
X142459836Y-81666312D01*
X142494000Y-81494559D01*
X142494000Y-81319441D01*
X142459836Y-81147688D01*
X142392821Y-80985901D01*
X142295531Y-80840296D01*
X142171704Y-80716469D01*
X142026099Y-80619179D01*
X141864312Y-80552164D01*
X141692559Y-80518000D01*
X141517441Y-80518000D01*
X141345688Y-80552164D01*
X141183901Y-80619179D01*
X141038296Y-80716469D01*
X140914469Y-80840296D01*
X140826096Y-80972556D01*
X140805321Y-80922401D01*
X140708031Y-80776796D01*
X140584204Y-80652969D01*
X140438599Y-80555679D01*
X140276812Y-80488664D01*
X140105059Y-80454500D01*
X139929941Y-80454500D01*
X139758188Y-80488664D01*
X139596401Y-80555679D01*
X139450796Y-80652969D01*
X139326969Y-80776796D01*
X139229679Y-80922401D01*
X139162664Y-81084188D01*
X139128500Y-81255941D01*
X131618246Y-81255941D01*
X131756632Y-81163475D01*
X131963475Y-80956632D01*
X132125990Y-80713411D01*
X132237932Y-80443158D01*
X132295000Y-80156260D01*
X132295000Y-80036276D01*
X132455688Y-80102836D01*
X132627441Y-80137000D01*
X132802559Y-80137000D01*
X132974312Y-80102836D01*
X133136099Y-80035821D01*
X133281704Y-79938531D01*
X133297794Y-79922441D01*
X135382000Y-79922441D01*
X135382000Y-80097559D01*
X135416164Y-80269312D01*
X135483179Y-80431099D01*
X135580469Y-80576704D01*
X135704296Y-80700531D01*
X135849901Y-80797821D01*
X136011688Y-80864836D01*
X136183441Y-80899000D01*
X136358559Y-80899000D01*
X136530312Y-80864836D01*
X136692099Y-80797821D01*
X136837704Y-80700531D01*
X136961531Y-80576704D01*
X137058821Y-80431099D01*
X137125836Y-80269312D01*
X137160000Y-80097559D01*
X137160000Y-79922441D01*
X137125836Y-79750688D01*
X137058821Y-79588901D01*
X136961531Y-79443296D01*
X136837704Y-79319469D01*
X136789771Y-79287441D01*
X149860000Y-79287441D01*
X149860000Y-79462559D01*
X149894164Y-79634312D01*
X149961179Y-79796099D01*
X150058469Y-79941704D01*
X150182296Y-80065531D01*
X150327901Y-80162821D01*
X150489688Y-80229836D01*
X150661441Y-80264000D01*
X150836559Y-80264000D01*
X151008312Y-80229836D01*
X151170099Y-80162821D01*
X151315704Y-80065531D01*
X151439531Y-79941704D01*
X151536821Y-79796099D01*
X151603836Y-79634312D01*
X151638000Y-79462559D01*
X151638000Y-79287441D01*
X152908000Y-79287441D01*
X152908000Y-79462559D01*
X152942164Y-79634312D01*
X153009179Y-79796099D01*
X153106469Y-79941704D01*
X153230296Y-80065531D01*
X153375901Y-80162821D01*
X153537688Y-80229836D01*
X153709441Y-80264000D01*
X153884559Y-80264000D01*
X154056312Y-80229836D01*
X154218099Y-80162821D01*
X154363704Y-80065531D01*
X154487531Y-79941704D01*
X154584821Y-79796099D01*
X154651836Y-79634312D01*
X154686000Y-79462559D01*
X154686000Y-79287441D01*
X154651836Y-79115688D01*
X154584821Y-78953901D01*
X154553110Y-78906441D01*
X156083000Y-78906441D01*
X156083000Y-79081559D01*
X156117164Y-79253312D01*
X156184179Y-79415099D01*
X156281469Y-79560704D01*
X156405296Y-79684531D01*
X156550901Y-79781821D01*
X156712688Y-79848836D01*
X156884441Y-79883000D01*
X157059559Y-79883000D01*
X157231312Y-79848836D01*
X157393099Y-79781821D01*
X157538704Y-79684531D01*
X157607000Y-79616235D01*
X157675296Y-79684531D01*
X157820901Y-79781821D01*
X157982688Y-79848836D01*
X158154441Y-79883000D01*
X158329559Y-79883000D01*
X158501312Y-79848836D01*
X158663099Y-79781821D01*
X158808704Y-79684531D01*
X158877000Y-79616235D01*
X158945296Y-79684531D01*
X159090901Y-79781821D01*
X159252688Y-79848836D01*
X159424441Y-79883000D01*
X159599559Y-79883000D01*
X159771312Y-79848836D01*
X159933099Y-79781821D01*
X160078704Y-79684531D01*
X160202531Y-79560704D01*
X160299821Y-79415099D01*
X160366836Y-79253312D01*
X160401000Y-79081559D01*
X160401000Y-78906441D01*
X160366836Y-78734688D01*
X160299821Y-78572901D01*
X160202531Y-78427296D01*
X160078704Y-78303469D01*
X159933099Y-78206179D01*
X159771312Y-78139164D01*
X159599559Y-78105000D01*
X159424441Y-78105000D01*
X159252688Y-78139164D01*
X159090901Y-78206179D01*
X158945296Y-78303469D01*
X158877000Y-78371765D01*
X158808704Y-78303469D01*
X158663099Y-78206179D01*
X158501312Y-78139164D01*
X158329559Y-78105000D01*
X158154441Y-78105000D01*
X157982688Y-78139164D01*
X157820901Y-78206179D01*
X157675296Y-78303469D01*
X157607000Y-78371765D01*
X157538704Y-78303469D01*
X157393099Y-78206179D01*
X157231312Y-78139164D01*
X157059559Y-78105000D01*
X156884441Y-78105000D01*
X156712688Y-78139164D01*
X156550901Y-78206179D01*
X156405296Y-78303469D01*
X156281469Y-78427296D01*
X156184179Y-78572901D01*
X156117164Y-78734688D01*
X156083000Y-78906441D01*
X154553110Y-78906441D01*
X154487531Y-78808296D01*
X154363704Y-78684469D01*
X154218099Y-78587179D01*
X154056312Y-78520164D01*
X153884559Y-78486000D01*
X153709441Y-78486000D01*
X153537688Y-78520164D01*
X153375901Y-78587179D01*
X153230296Y-78684469D01*
X153106469Y-78808296D01*
X153009179Y-78953901D01*
X152942164Y-79115688D01*
X152908000Y-79287441D01*
X151638000Y-79287441D01*
X151603836Y-79115688D01*
X151536821Y-78953901D01*
X151439531Y-78808296D01*
X151315704Y-78684469D01*
X151170099Y-78587179D01*
X151008312Y-78520164D01*
X150836559Y-78486000D01*
X150661441Y-78486000D01*
X150489688Y-78520164D01*
X150327901Y-78587179D01*
X150182296Y-78684469D01*
X150058469Y-78808296D01*
X149961179Y-78953901D01*
X149894164Y-79115688D01*
X149860000Y-79287441D01*
X136789771Y-79287441D01*
X136692099Y-79222179D01*
X136530312Y-79155164D01*
X136358559Y-79121000D01*
X136183441Y-79121000D01*
X136011688Y-79155164D01*
X135849901Y-79222179D01*
X135704296Y-79319469D01*
X135580469Y-79443296D01*
X135483179Y-79588901D01*
X135416164Y-79750688D01*
X135382000Y-79922441D01*
X133297794Y-79922441D01*
X133405531Y-79814704D01*
X133502821Y-79669099D01*
X133569836Y-79507312D01*
X133604000Y-79335559D01*
X133604000Y-79160441D01*
X133569836Y-78988688D01*
X133502821Y-78826901D01*
X133444756Y-78740000D01*
X133502821Y-78653099D01*
X133569836Y-78491312D01*
X133604000Y-78319559D01*
X133604000Y-78144441D01*
X133569836Y-77972688D01*
X133502821Y-77810901D01*
X133405531Y-77665296D01*
X133281704Y-77541469D01*
X133136099Y-77444179D01*
X132974312Y-77377164D01*
X132802559Y-77343000D01*
X132627441Y-77343000D01*
X132455688Y-77377164D01*
X132295000Y-77443724D01*
X132295000Y-77323740D01*
X132237932Y-77036842D01*
X132196661Y-76937205D01*
X134795812Y-76937205D01*
X134721179Y-77048901D01*
X134654164Y-77210688D01*
X134620000Y-77382441D01*
X134620000Y-77557559D01*
X134654164Y-77729312D01*
X134721179Y-77891099D01*
X134818469Y-78036704D01*
X134942296Y-78160531D01*
X135087901Y-78257821D01*
X135249688Y-78324836D01*
X135421441Y-78359000D01*
X135596559Y-78359000D01*
X135768312Y-78324836D01*
X135930099Y-78257821D01*
X136075704Y-78160531D01*
X136199531Y-78036704D01*
X136296821Y-77891099D01*
X136363836Y-77729312D01*
X136398000Y-77557559D01*
X136398000Y-77382441D01*
X136363836Y-77210688D01*
X136296821Y-77048901D01*
X136222188Y-76937205D01*
X138107467Y-76937204D01*
X138074500Y-77102941D01*
X138074500Y-77278059D01*
X138108664Y-77449812D01*
X138175679Y-77611599D01*
X138272969Y-77757204D01*
X138396796Y-77881031D01*
X138542401Y-77978321D01*
X138704188Y-78045336D01*
X138875941Y-78079500D01*
X139051059Y-78079500D01*
X139222812Y-78045336D01*
X139384599Y-77978321D01*
X139516120Y-77890441D01*
X145288000Y-77890441D01*
X145288000Y-78065559D01*
X145322164Y-78237312D01*
X145389179Y-78399099D01*
X145486469Y-78544704D01*
X145610296Y-78668531D01*
X145755901Y-78765821D01*
X145917688Y-78832836D01*
X146089441Y-78867000D01*
X146264559Y-78867000D01*
X146436312Y-78832836D01*
X146598099Y-78765821D01*
X146743704Y-78668531D01*
X146867531Y-78544704D01*
X146964821Y-78399099D01*
X147031836Y-78237312D01*
X147066000Y-78065559D01*
X147066000Y-77890441D01*
X147031836Y-77718688D01*
X146964821Y-77556901D01*
X146867531Y-77411296D01*
X146743704Y-77287469D01*
X146598099Y-77190179D01*
X146436312Y-77123164D01*
X146264559Y-77089000D01*
X146089441Y-77089000D01*
X145917688Y-77123164D01*
X145755901Y-77190179D01*
X145610296Y-77287469D01*
X145486469Y-77411296D01*
X145389179Y-77556901D01*
X145322164Y-77718688D01*
X145288000Y-77890441D01*
X139516120Y-77890441D01*
X139530204Y-77881031D01*
X139654031Y-77757204D01*
X139751321Y-77611599D01*
X139818336Y-77449812D01*
X139852500Y-77278059D01*
X139852500Y-77102941D01*
X139819533Y-76937204D01*
X154215563Y-76937202D01*
X154122469Y-77030296D01*
X154025179Y-77175901D01*
X153958164Y-77337688D01*
X153924000Y-77509441D01*
X153924000Y-77684559D01*
X153958164Y-77856312D01*
X154025179Y-78018099D01*
X154122469Y-78163704D01*
X154246296Y-78287531D01*
X154391901Y-78384821D01*
X154553688Y-78451836D01*
X154725441Y-78486000D01*
X154900559Y-78486000D01*
X155072312Y-78451836D01*
X155234099Y-78384821D01*
X155379704Y-78287531D01*
X155503531Y-78163704D01*
X155600821Y-78018099D01*
X155667836Y-77856312D01*
X155702000Y-77684559D01*
X155702000Y-77509441D01*
X155667836Y-77337688D01*
X155600821Y-77175901D01*
X155503531Y-77030296D01*
X155410437Y-76937202D01*
X170764553Y-76937200D01*
X175795001Y-81967649D01*
G37*
%TD.AperFunction*%
%TD*%
D17*
X156464000Y-90805000D03*
X156464000Y-91567000D03*
X166344600Y-94361000D03*
X154813000Y-77597000D03*
X153797000Y-79375000D03*
X143510000Y-87503000D03*
X143383000Y-81788000D03*
X147574000Y-83947000D03*
X138963500Y-77190500D03*
X132715000Y-78232000D03*
X151663400Y-97180400D03*
X156080400Y-94917200D03*
X153898600Y-96545400D03*
X156337000Y-88671400D03*
X162712400Y-95123000D03*
X163753800Y-85699600D03*
X161036000Y-86080600D03*
X147447000Y-95986600D03*
X153035000Y-82931000D03*
X143002000Y-90932000D03*
X140462000Y-91186000D03*
X153797000Y-77216000D03*
X159512000Y-86106000D03*
X160020000Y-93472000D03*
X141732000Y-98933000D03*
X145161000Y-89916000D03*
X154305000Y-90297000D03*
X152877500Y-94518500D03*
X154368500Y-92773500D03*
X152908000Y-85725000D03*
X148717000Y-85217000D03*
X143179800Y-79298800D03*
X146812000Y-95478600D03*
X172339000Y-87884000D03*
X168656000Y-89916000D03*
X143637000Y-91567000D03*
X143764000Y-96901000D03*
X143002000Y-91948000D03*
X143002000Y-97155000D03*
X138938000Y-98425000D03*
X135509000Y-77470000D03*
X136271000Y-80010000D03*
X148717000Y-96774000D03*
X150241000Y-96520000D03*
X143190000Y-100269000D03*
X159512000Y-78994000D03*
X153543000Y-83693000D03*
X147828000Y-82804000D03*
X141605000Y-81407000D03*
X147066000Y-83312000D03*
X140017500Y-81343500D03*
X154559000Y-81788000D03*
X156972000Y-78994000D03*
X153924000Y-82550000D03*
X158242000Y-78994000D03*
X132715000Y-79248000D03*
X146177000Y-77978000D03*
X152273000Y-83693000D03*
X149377400Y-96393000D03*
X160782000Y-99060000D03*
X149606000Y-83058000D03*
X150749000Y-79375000D03*
D18*
X173440000Y-91200000D03*
X173440000Y-86600000D03*
D19*
X173440000Y-94600000D03*
X173440000Y-83200000D03*
D18*
X130810000Y-100330000D03*
X128270000Y-100330000D03*
X130810000Y-97790000D03*
X128270000Y-97790000D03*
X130810000Y-95250000D03*
X128270000Y-95250000D03*
X130810000Y-92710000D03*
X128270000Y-92710000D03*
X130810000Y-90170000D03*
X128270000Y-90170000D03*
X130810000Y-87630000D03*
X128270000Y-87630000D03*
X130810000Y-85090000D03*
X128270000Y-85090000D03*
X130810000Y-82550000D03*
X128270000Y-82550000D03*
X130810000Y-80010000D03*
X128270000Y-80010000D03*
X130810000Y-77470000D03*
X128270000Y-77470000D03*
X148585000Y-91191000D03*
X148585000Y-89916000D03*
X148585000Y-88641000D03*
X149860000Y-91191000D03*
X149860000Y-89916000D03*
X149860000Y-88641000D03*
X151135000Y-91191000D03*
X151135000Y-89916000D03*
X151135000Y-88641000D03*
X153797000Y-99822000D03*
X151257000Y-99822000D03*
X148717000Y-99822000D03*
X146177000Y-99822000D03*
M02*
