%TF.GenerationSoftware,KiCad,Pcbnew,(5.1.9)-1*%
%TF.CreationDate,2021-09-09T09:31:17+08:00*%
%TF.ProjectId,RP2040,52503230-3430-42e6-9b69-6361645f7063,rev?*%
%TF.SameCoordinates,Original*%
%TF.FileFunction,Paste,Top*%
%TF.FilePolarity,Positive*%
%FSLAX46Y46*%
G04 Gerber Fmt 4.6, Leading zero omitted, Abs format (unit mm)*
G04 Created by KiCad (PCBNEW (5.1.9)-1) date 2021-09-09 09:31:17*
%MOMM*%
%LPD*%
G01*
G04 APERTURE LIST*
%ADD10R,1.200000X1.400000*%
%ADD11R,2.500000X1.100000*%
%ADD12R,2.440000X1.120000*%
%ADD13R,2.000000X1.500000*%
%ADD14R,2.000000X3.800000*%
%ADD15R,0.900000X0.800000*%
G04 APERTURE END LIST*
%TO.C,R6*%
G36*
G01*
X155201200Y-91466500D02*
X155201200Y-91667500D01*
G75*
G02*
X155121700Y-91747000I-79500J0D01*
G01*
X154962700Y-91747000D01*
G75*
G02*
X154883200Y-91667500I0J79500D01*
G01*
X154883200Y-91466500D01*
G75*
G02*
X154962700Y-91387000I79500J0D01*
G01*
X155121700Y-91387000D01*
G75*
G02*
X155201200Y-91466500I0J-79500D01*
G01*
G37*
G36*
G01*
X155891200Y-91466500D02*
X155891200Y-91667500D01*
G75*
G02*
X155811700Y-91747000I-79500J0D01*
G01*
X155652700Y-91747000D01*
G75*
G02*
X155573200Y-91667500I0J79500D01*
G01*
X155573200Y-91466500D01*
G75*
G02*
X155652700Y-91387000I79500J0D01*
G01*
X155811700Y-91387000D01*
G75*
G02*
X155891200Y-91466500I0J-79500D01*
G01*
G37*
%TD*%
%TO.C,R10*%
G36*
G01*
X151029500Y-97036200D02*
X151230500Y-97036200D01*
G75*
G02*
X151310000Y-97115700I0J-79500D01*
G01*
X151310000Y-97274700D01*
G75*
G02*
X151230500Y-97354200I-79500J0D01*
G01*
X151029500Y-97354200D01*
G75*
G02*
X150950000Y-97274700I0J79500D01*
G01*
X150950000Y-97115700D01*
G75*
G02*
X151029500Y-97036200I79500J0D01*
G01*
G37*
G36*
G01*
X151029500Y-96346200D02*
X151230500Y-96346200D01*
G75*
G02*
X151310000Y-96425700I0J-79500D01*
G01*
X151310000Y-96584700D01*
G75*
G02*
X151230500Y-96664200I-79500J0D01*
G01*
X151029500Y-96664200D01*
G75*
G02*
X150950000Y-96584700I0J79500D01*
G01*
X150950000Y-96425700D01*
G75*
G02*
X151029500Y-96346200I79500J0D01*
G01*
G37*
%TD*%
%TO.C,C8*%
G36*
G01*
X155583200Y-89381500D02*
X155583200Y-89180500D01*
G75*
G02*
X155662700Y-89101000I79500J0D01*
G01*
X155821700Y-89101000D01*
G75*
G02*
X155901200Y-89180500I0J-79500D01*
G01*
X155901200Y-89381500D01*
G75*
G02*
X155821700Y-89461000I-79500J0D01*
G01*
X155662700Y-89461000D01*
G75*
G02*
X155583200Y-89381500I0J79500D01*
G01*
G37*
G36*
G01*
X154893200Y-89381500D02*
X154893200Y-89180500D01*
G75*
G02*
X154972700Y-89101000I79500J0D01*
G01*
X155131700Y-89101000D01*
G75*
G02*
X155211200Y-89180500I0J-79500D01*
G01*
X155211200Y-89381500D01*
G75*
G02*
X155131700Y-89461000I-79500J0D01*
G01*
X154972700Y-89461000D01*
G75*
G02*
X154893200Y-89381500I0J79500D01*
G01*
G37*
%TD*%
%TO.C,R7*%
G36*
G01*
X150468500Y-95191000D02*
X150267500Y-95191000D01*
G75*
G02*
X150188000Y-95111500I0J79500D01*
G01*
X150188000Y-94952500D01*
G75*
G02*
X150267500Y-94873000I79500J0D01*
G01*
X150468500Y-94873000D01*
G75*
G02*
X150548000Y-94952500I0J-79500D01*
G01*
X150548000Y-95111500D01*
G75*
G02*
X150468500Y-95191000I-79500J0D01*
G01*
G37*
G36*
G01*
X150468500Y-95881000D02*
X150267500Y-95881000D01*
G75*
G02*
X150188000Y-95801500I0J79500D01*
G01*
X150188000Y-95642500D01*
G75*
G02*
X150267500Y-95563000I79500J0D01*
G01*
X150468500Y-95563000D01*
G75*
G02*
X150548000Y-95642500I0J-79500D01*
G01*
X150548000Y-95801500D01*
G75*
G02*
X150468500Y-95881000I-79500J0D01*
G01*
G37*
%TD*%
D10*
%TO.C,Y1*%
X140551800Y-89771400D03*
X140551800Y-87571400D03*
X142251800Y-87571400D03*
X142251800Y-89771400D03*
%TD*%
D11*
%TO.C,J1*%
X170690000Y-92400000D03*
X170690000Y-85400000D03*
X170690000Y-89900000D03*
X170690000Y-87900000D03*
%TD*%
%TO.C,U2*%
G36*
G01*
X159362000Y-84003800D02*
X159662000Y-84003800D01*
G75*
G02*
X159812000Y-84153800I0J-150000D01*
G01*
X159812000Y-85453800D01*
G75*
G02*
X159662000Y-85603800I-150000J0D01*
G01*
X159362000Y-85603800D01*
G75*
G02*
X159212000Y-85453800I0J150000D01*
G01*
X159212000Y-84153800D01*
G75*
G02*
X159362000Y-84003800I150000J0D01*
G01*
G37*
G36*
G01*
X158092000Y-84003800D02*
X158392000Y-84003800D01*
G75*
G02*
X158542000Y-84153800I0J-150000D01*
G01*
X158542000Y-85453800D01*
G75*
G02*
X158392000Y-85603800I-150000J0D01*
G01*
X158092000Y-85603800D01*
G75*
G02*
X157942000Y-85453800I0J150000D01*
G01*
X157942000Y-84153800D01*
G75*
G02*
X158092000Y-84003800I150000J0D01*
G01*
G37*
G36*
G01*
X156822000Y-84003800D02*
X157122000Y-84003800D01*
G75*
G02*
X157272000Y-84153800I0J-150000D01*
G01*
X157272000Y-85453800D01*
G75*
G02*
X157122000Y-85603800I-150000J0D01*
G01*
X156822000Y-85603800D01*
G75*
G02*
X156672000Y-85453800I0J150000D01*
G01*
X156672000Y-84153800D01*
G75*
G02*
X156822000Y-84003800I150000J0D01*
G01*
G37*
G36*
G01*
X155552000Y-84003800D02*
X155852000Y-84003800D01*
G75*
G02*
X156002000Y-84153800I0J-150000D01*
G01*
X156002000Y-85453800D01*
G75*
G02*
X155852000Y-85603800I-150000J0D01*
G01*
X155552000Y-85603800D01*
G75*
G02*
X155402000Y-85453800I0J150000D01*
G01*
X155402000Y-84153800D01*
G75*
G02*
X155552000Y-84003800I150000J0D01*
G01*
G37*
G36*
G01*
X155552000Y-76803800D02*
X155852000Y-76803800D01*
G75*
G02*
X156002000Y-76953800I0J-150000D01*
G01*
X156002000Y-78253800D01*
G75*
G02*
X155852000Y-78403800I-150000J0D01*
G01*
X155552000Y-78403800D01*
G75*
G02*
X155402000Y-78253800I0J150000D01*
G01*
X155402000Y-76953800D01*
G75*
G02*
X155552000Y-76803800I150000J0D01*
G01*
G37*
G36*
G01*
X156822000Y-76803800D02*
X157122000Y-76803800D01*
G75*
G02*
X157272000Y-76953800I0J-150000D01*
G01*
X157272000Y-78253800D01*
G75*
G02*
X157122000Y-78403800I-150000J0D01*
G01*
X156822000Y-78403800D01*
G75*
G02*
X156672000Y-78253800I0J150000D01*
G01*
X156672000Y-76953800D01*
G75*
G02*
X156822000Y-76803800I150000J0D01*
G01*
G37*
G36*
G01*
X158092000Y-76803800D02*
X158392000Y-76803800D01*
G75*
G02*
X158542000Y-76953800I0J-150000D01*
G01*
X158542000Y-78253800D01*
G75*
G02*
X158392000Y-78403800I-150000J0D01*
G01*
X158092000Y-78403800D01*
G75*
G02*
X157942000Y-78253800I0J150000D01*
G01*
X157942000Y-76953800D01*
G75*
G02*
X158092000Y-76803800I150000J0D01*
G01*
G37*
G36*
G01*
X159362000Y-76803800D02*
X159662000Y-76803800D01*
G75*
G02*
X159812000Y-76953800I0J-150000D01*
G01*
X159812000Y-78253800D01*
G75*
G02*
X159662000Y-78403800I-150000J0D01*
G01*
X159362000Y-78403800D01*
G75*
G02*
X159212000Y-78253800I0J150000D01*
G01*
X159212000Y-76953800D01*
G75*
G02*
X159362000Y-76803800I150000J0D01*
G01*
G37*
%TD*%
%TO.C,U1*%
G36*
G01*
X151263000Y-78128000D02*
X151263000Y-77828000D01*
G75*
G02*
X151413000Y-77678000I150000J0D01*
G01*
X152713000Y-77678000D01*
G75*
G02*
X152863000Y-77828000I0J-150000D01*
G01*
X152863000Y-78128000D01*
G75*
G02*
X152713000Y-78278000I-150000J0D01*
G01*
X151413000Y-78278000D01*
G75*
G02*
X151263000Y-78128000I0J150000D01*
G01*
G37*
G36*
G01*
X151263000Y-79398000D02*
X151263000Y-79098000D01*
G75*
G02*
X151413000Y-78948000I150000J0D01*
G01*
X152713000Y-78948000D01*
G75*
G02*
X152863000Y-79098000I0J-150000D01*
G01*
X152863000Y-79398000D01*
G75*
G02*
X152713000Y-79548000I-150000J0D01*
G01*
X151413000Y-79548000D01*
G75*
G02*
X151263000Y-79398000I0J150000D01*
G01*
G37*
G36*
G01*
X151263000Y-80668000D02*
X151263000Y-80368000D01*
G75*
G02*
X151413000Y-80218000I150000J0D01*
G01*
X152713000Y-80218000D01*
G75*
G02*
X152863000Y-80368000I0J-150000D01*
G01*
X152863000Y-80668000D01*
G75*
G02*
X152713000Y-80818000I-150000J0D01*
G01*
X151413000Y-80818000D01*
G75*
G02*
X151263000Y-80668000I0J150000D01*
G01*
G37*
G36*
G01*
X151263000Y-81938000D02*
X151263000Y-81638000D01*
G75*
G02*
X151413000Y-81488000I150000J0D01*
G01*
X152713000Y-81488000D01*
G75*
G02*
X152863000Y-81638000I0J-150000D01*
G01*
X152863000Y-81938000D01*
G75*
G02*
X152713000Y-82088000I-150000J0D01*
G01*
X151413000Y-82088000D01*
G75*
G02*
X151263000Y-81938000I0J150000D01*
G01*
G37*
G36*
G01*
X144063000Y-81938000D02*
X144063000Y-81638000D01*
G75*
G02*
X144213000Y-81488000I150000J0D01*
G01*
X145513000Y-81488000D01*
G75*
G02*
X145663000Y-81638000I0J-150000D01*
G01*
X145663000Y-81938000D01*
G75*
G02*
X145513000Y-82088000I-150000J0D01*
G01*
X144213000Y-82088000D01*
G75*
G02*
X144063000Y-81938000I0J150000D01*
G01*
G37*
G36*
G01*
X144063000Y-80668000D02*
X144063000Y-80368000D01*
G75*
G02*
X144213000Y-80218000I150000J0D01*
G01*
X145513000Y-80218000D01*
G75*
G02*
X145663000Y-80368000I0J-150000D01*
G01*
X145663000Y-80668000D01*
G75*
G02*
X145513000Y-80818000I-150000J0D01*
G01*
X144213000Y-80818000D01*
G75*
G02*
X144063000Y-80668000I0J150000D01*
G01*
G37*
G36*
G01*
X144063000Y-79398000D02*
X144063000Y-79098000D01*
G75*
G02*
X144213000Y-78948000I150000J0D01*
G01*
X145513000Y-78948000D01*
G75*
G02*
X145663000Y-79098000I0J-150000D01*
G01*
X145663000Y-79398000D01*
G75*
G02*
X145513000Y-79548000I-150000J0D01*
G01*
X144213000Y-79548000D01*
G75*
G02*
X144063000Y-79398000I0J150000D01*
G01*
G37*
G36*
G01*
X144063000Y-78128000D02*
X144063000Y-77828000D01*
G75*
G02*
X144213000Y-77678000I150000J0D01*
G01*
X145513000Y-77678000D01*
G75*
G02*
X145663000Y-77828000I0J-150000D01*
G01*
X145663000Y-78128000D01*
G75*
G02*
X145513000Y-78278000I-150000J0D01*
G01*
X144213000Y-78278000D01*
G75*
G02*
X144063000Y-78128000I0J150000D01*
G01*
G37*
%TD*%
D12*
%TO.C,SW2*%
X171183000Y-99060000D03*
X162573000Y-99060000D03*
%TD*%
%TO.C,R31*%
G36*
G01*
X134044000Y-100430500D02*
X134044000Y-100229500D01*
G75*
G02*
X134123500Y-100150000I79500J0D01*
G01*
X134282500Y-100150000D01*
G75*
G02*
X134362000Y-100229500I0J-79500D01*
G01*
X134362000Y-100430500D01*
G75*
G02*
X134282500Y-100510000I-79500J0D01*
G01*
X134123500Y-100510000D01*
G75*
G02*
X134044000Y-100430500I0J79500D01*
G01*
G37*
G36*
G01*
X133354000Y-100430500D02*
X133354000Y-100229500D01*
G75*
G02*
X133433500Y-100150000I79500J0D01*
G01*
X133592500Y-100150000D01*
G75*
G02*
X133672000Y-100229500I0J-79500D01*
G01*
X133672000Y-100430500D01*
G75*
G02*
X133592500Y-100510000I-79500J0D01*
G01*
X133433500Y-100510000D01*
G75*
G02*
X133354000Y-100430500I0J79500D01*
G01*
G37*
%TD*%
%TO.C,R30*%
G36*
G01*
X134044000Y-97890500D02*
X134044000Y-97689500D01*
G75*
G02*
X134123500Y-97610000I79500J0D01*
G01*
X134282500Y-97610000D01*
G75*
G02*
X134362000Y-97689500I0J-79500D01*
G01*
X134362000Y-97890500D01*
G75*
G02*
X134282500Y-97970000I-79500J0D01*
G01*
X134123500Y-97970000D01*
G75*
G02*
X134044000Y-97890500I0J79500D01*
G01*
G37*
G36*
G01*
X133354000Y-97890500D02*
X133354000Y-97689500D01*
G75*
G02*
X133433500Y-97610000I79500J0D01*
G01*
X133592500Y-97610000D01*
G75*
G02*
X133672000Y-97689500I0J-79500D01*
G01*
X133672000Y-97890500D01*
G75*
G02*
X133592500Y-97970000I-79500J0D01*
G01*
X133433500Y-97970000D01*
G75*
G02*
X133354000Y-97890500I0J79500D01*
G01*
G37*
%TD*%
%TO.C,R29*%
G36*
G01*
X134044000Y-95350500D02*
X134044000Y-95149500D01*
G75*
G02*
X134123500Y-95070000I79500J0D01*
G01*
X134282500Y-95070000D01*
G75*
G02*
X134362000Y-95149500I0J-79500D01*
G01*
X134362000Y-95350500D01*
G75*
G02*
X134282500Y-95430000I-79500J0D01*
G01*
X134123500Y-95430000D01*
G75*
G02*
X134044000Y-95350500I0J79500D01*
G01*
G37*
G36*
G01*
X133354000Y-95350500D02*
X133354000Y-95149500D01*
G75*
G02*
X133433500Y-95070000I79500J0D01*
G01*
X133592500Y-95070000D01*
G75*
G02*
X133672000Y-95149500I0J-79500D01*
G01*
X133672000Y-95350500D01*
G75*
G02*
X133592500Y-95430000I-79500J0D01*
G01*
X133433500Y-95430000D01*
G75*
G02*
X133354000Y-95350500I0J79500D01*
G01*
G37*
%TD*%
%TO.C,R28*%
G36*
G01*
X134044000Y-92810500D02*
X134044000Y-92609500D01*
G75*
G02*
X134123500Y-92530000I79500J0D01*
G01*
X134282500Y-92530000D01*
G75*
G02*
X134362000Y-92609500I0J-79500D01*
G01*
X134362000Y-92810500D01*
G75*
G02*
X134282500Y-92890000I-79500J0D01*
G01*
X134123500Y-92890000D01*
G75*
G02*
X134044000Y-92810500I0J79500D01*
G01*
G37*
G36*
G01*
X133354000Y-92810500D02*
X133354000Y-92609500D01*
G75*
G02*
X133433500Y-92530000I79500J0D01*
G01*
X133592500Y-92530000D01*
G75*
G02*
X133672000Y-92609500I0J-79500D01*
G01*
X133672000Y-92810500D01*
G75*
G02*
X133592500Y-92890000I-79500J0D01*
G01*
X133433500Y-92890000D01*
G75*
G02*
X133354000Y-92810500I0J79500D01*
G01*
G37*
%TD*%
%TO.C,R27*%
G36*
G01*
X134044000Y-90270500D02*
X134044000Y-90069500D01*
G75*
G02*
X134123500Y-89990000I79500J0D01*
G01*
X134282500Y-89990000D01*
G75*
G02*
X134362000Y-90069500I0J-79500D01*
G01*
X134362000Y-90270500D01*
G75*
G02*
X134282500Y-90350000I-79500J0D01*
G01*
X134123500Y-90350000D01*
G75*
G02*
X134044000Y-90270500I0J79500D01*
G01*
G37*
G36*
G01*
X133354000Y-90270500D02*
X133354000Y-90069500D01*
G75*
G02*
X133433500Y-89990000I79500J0D01*
G01*
X133592500Y-89990000D01*
G75*
G02*
X133672000Y-90069500I0J-79500D01*
G01*
X133672000Y-90270500D01*
G75*
G02*
X133592500Y-90350000I-79500J0D01*
G01*
X133433500Y-90350000D01*
G75*
G02*
X133354000Y-90270500I0J79500D01*
G01*
G37*
%TD*%
%TO.C,R26*%
G36*
G01*
X134044000Y-87730500D02*
X134044000Y-87529500D01*
G75*
G02*
X134123500Y-87450000I79500J0D01*
G01*
X134282500Y-87450000D01*
G75*
G02*
X134362000Y-87529500I0J-79500D01*
G01*
X134362000Y-87730500D01*
G75*
G02*
X134282500Y-87810000I-79500J0D01*
G01*
X134123500Y-87810000D01*
G75*
G02*
X134044000Y-87730500I0J79500D01*
G01*
G37*
G36*
G01*
X133354000Y-87730500D02*
X133354000Y-87529500D01*
G75*
G02*
X133433500Y-87450000I79500J0D01*
G01*
X133592500Y-87450000D01*
G75*
G02*
X133672000Y-87529500I0J-79500D01*
G01*
X133672000Y-87730500D01*
G75*
G02*
X133592500Y-87810000I-79500J0D01*
G01*
X133433500Y-87810000D01*
G75*
G02*
X133354000Y-87730500I0J79500D01*
G01*
G37*
%TD*%
%TO.C,R25*%
G36*
G01*
X134044000Y-85165100D02*
X134044000Y-84964100D01*
G75*
G02*
X134123500Y-84884600I79500J0D01*
G01*
X134282500Y-84884600D01*
G75*
G02*
X134362000Y-84964100I0J-79500D01*
G01*
X134362000Y-85165100D01*
G75*
G02*
X134282500Y-85244600I-79500J0D01*
G01*
X134123500Y-85244600D01*
G75*
G02*
X134044000Y-85165100I0J79500D01*
G01*
G37*
G36*
G01*
X133354000Y-85165100D02*
X133354000Y-84964100D01*
G75*
G02*
X133433500Y-84884600I79500J0D01*
G01*
X133592500Y-84884600D01*
G75*
G02*
X133672000Y-84964100I0J-79500D01*
G01*
X133672000Y-85165100D01*
G75*
G02*
X133592500Y-85244600I-79500J0D01*
G01*
X133433500Y-85244600D01*
G75*
G02*
X133354000Y-85165100I0J79500D01*
G01*
G37*
%TD*%
%TO.C,R24*%
G36*
G01*
X134044000Y-82650500D02*
X134044000Y-82449500D01*
G75*
G02*
X134123500Y-82370000I79500J0D01*
G01*
X134282500Y-82370000D01*
G75*
G02*
X134362000Y-82449500I0J-79500D01*
G01*
X134362000Y-82650500D01*
G75*
G02*
X134282500Y-82730000I-79500J0D01*
G01*
X134123500Y-82730000D01*
G75*
G02*
X134044000Y-82650500I0J79500D01*
G01*
G37*
G36*
G01*
X133354000Y-82650500D02*
X133354000Y-82449500D01*
G75*
G02*
X133433500Y-82370000I79500J0D01*
G01*
X133592500Y-82370000D01*
G75*
G02*
X133672000Y-82449500I0J-79500D01*
G01*
X133672000Y-82650500D01*
G75*
G02*
X133592500Y-82730000I-79500J0D01*
G01*
X133433500Y-82730000D01*
G75*
G02*
X133354000Y-82650500I0J79500D01*
G01*
G37*
%TD*%
%TO.C,R23*%
G36*
G01*
X134044000Y-80110500D02*
X134044000Y-79909500D01*
G75*
G02*
X134123500Y-79830000I79500J0D01*
G01*
X134282500Y-79830000D01*
G75*
G02*
X134362000Y-79909500I0J-79500D01*
G01*
X134362000Y-80110500D01*
G75*
G02*
X134282500Y-80190000I-79500J0D01*
G01*
X134123500Y-80190000D01*
G75*
G02*
X134044000Y-80110500I0J79500D01*
G01*
G37*
G36*
G01*
X133354000Y-80110500D02*
X133354000Y-79909500D01*
G75*
G02*
X133433500Y-79830000I79500J0D01*
G01*
X133592500Y-79830000D01*
G75*
G02*
X133672000Y-79909500I0J-79500D01*
G01*
X133672000Y-80110500D01*
G75*
G02*
X133592500Y-80190000I-79500J0D01*
G01*
X133433500Y-80190000D01*
G75*
G02*
X133354000Y-80110500I0J79500D01*
G01*
G37*
%TD*%
%TO.C,R20*%
G36*
G01*
X133672000Y-98959500D02*
X133672000Y-99160500D01*
G75*
G02*
X133592500Y-99240000I-79500J0D01*
G01*
X133433500Y-99240000D01*
G75*
G02*
X133354000Y-99160500I0J79500D01*
G01*
X133354000Y-98959500D01*
G75*
G02*
X133433500Y-98880000I79500J0D01*
G01*
X133592500Y-98880000D01*
G75*
G02*
X133672000Y-98959500I0J-79500D01*
G01*
G37*
G36*
G01*
X134362000Y-98959500D02*
X134362000Y-99160500D01*
G75*
G02*
X134282500Y-99240000I-79500J0D01*
G01*
X134123500Y-99240000D01*
G75*
G02*
X134044000Y-99160500I0J79500D01*
G01*
X134044000Y-98959500D01*
G75*
G02*
X134123500Y-98880000I79500J0D01*
G01*
X134282500Y-98880000D01*
G75*
G02*
X134362000Y-98959500I0J-79500D01*
G01*
G37*
%TD*%
%TO.C,R19*%
G36*
G01*
X133672000Y-96419500D02*
X133672000Y-96620500D01*
G75*
G02*
X133592500Y-96700000I-79500J0D01*
G01*
X133433500Y-96700000D01*
G75*
G02*
X133354000Y-96620500I0J79500D01*
G01*
X133354000Y-96419500D01*
G75*
G02*
X133433500Y-96340000I79500J0D01*
G01*
X133592500Y-96340000D01*
G75*
G02*
X133672000Y-96419500I0J-79500D01*
G01*
G37*
G36*
G01*
X134362000Y-96419500D02*
X134362000Y-96620500D01*
G75*
G02*
X134282500Y-96700000I-79500J0D01*
G01*
X134123500Y-96700000D01*
G75*
G02*
X134044000Y-96620500I0J79500D01*
G01*
X134044000Y-96419500D01*
G75*
G02*
X134123500Y-96340000I79500J0D01*
G01*
X134282500Y-96340000D01*
G75*
G02*
X134362000Y-96419500I0J-79500D01*
G01*
G37*
%TD*%
%TO.C,R18*%
G36*
G01*
X133672000Y-93879500D02*
X133672000Y-94080500D01*
G75*
G02*
X133592500Y-94160000I-79500J0D01*
G01*
X133433500Y-94160000D01*
G75*
G02*
X133354000Y-94080500I0J79500D01*
G01*
X133354000Y-93879500D01*
G75*
G02*
X133433500Y-93800000I79500J0D01*
G01*
X133592500Y-93800000D01*
G75*
G02*
X133672000Y-93879500I0J-79500D01*
G01*
G37*
G36*
G01*
X134362000Y-93879500D02*
X134362000Y-94080500D01*
G75*
G02*
X134282500Y-94160000I-79500J0D01*
G01*
X134123500Y-94160000D01*
G75*
G02*
X134044000Y-94080500I0J79500D01*
G01*
X134044000Y-93879500D01*
G75*
G02*
X134123500Y-93800000I79500J0D01*
G01*
X134282500Y-93800000D01*
G75*
G02*
X134362000Y-93879500I0J-79500D01*
G01*
G37*
%TD*%
%TO.C,R17*%
G36*
G01*
X133672000Y-91339500D02*
X133672000Y-91540500D01*
G75*
G02*
X133592500Y-91620000I-79500J0D01*
G01*
X133433500Y-91620000D01*
G75*
G02*
X133354000Y-91540500I0J79500D01*
G01*
X133354000Y-91339500D01*
G75*
G02*
X133433500Y-91260000I79500J0D01*
G01*
X133592500Y-91260000D01*
G75*
G02*
X133672000Y-91339500I0J-79500D01*
G01*
G37*
G36*
G01*
X134362000Y-91339500D02*
X134362000Y-91540500D01*
G75*
G02*
X134282500Y-91620000I-79500J0D01*
G01*
X134123500Y-91620000D01*
G75*
G02*
X134044000Y-91540500I0J79500D01*
G01*
X134044000Y-91339500D01*
G75*
G02*
X134123500Y-91260000I79500J0D01*
G01*
X134282500Y-91260000D01*
G75*
G02*
X134362000Y-91339500I0J-79500D01*
G01*
G37*
%TD*%
%TO.C,R16*%
G36*
G01*
X133672000Y-88799500D02*
X133672000Y-89000500D01*
G75*
G02*
X133592500Y-89080000I-79500J0D01*
G01*
X133433500Y-89080000D01*
G75*
G02*
X133354000Y-89000500I0J79500D01*
G01*
X133354000Y-88799500D01*
G75*
G02*
X133433500Y-88720000I79500J0D01*
G01*
X133592500Y-88720000D01*
G75*
G02*
X133672000Y-88799500I0J-79500D01*
G01*
G37*
G36*
G01*
X134362000Y-88799500D02*
X134362000Y-89000500D01*
G75*
G02*
X134282500Y-89080000I-79500J0D01*
G01*
X134123500Y-89080000D01*
G75*
G02*
X134044000Y-89000500I0J79500D01*
G01*
X134044000Y-88799500D01*
G75*
G02*
X134123500Y-88720000I79500J0D01*
G01*
X134282500Y-88720000D01*
G75*
G02*
X134362000Y-88799500I0J-79500D01*
G01*
G37*
%TD*%
%TO.C,R15*%
G36*
G01*
X133672000Y-86259500D02*
X133672000Y-86460500D01*
G75*
G02*
X133592500Y-86540000I-79500J0D01*
G01*
X133433500Y-86540000D01*
G75*
G02*
X133354000Y-86460500I0J79500D01*
G01*
X133354000Y-86259500D01*
G75*
G02*
X133433500Y-86180000I79500J0D01*
G01*
X133592500Y-86180000D01*
G75*
G02*
X133672000Y-86259500I0J-79500D01*
G01*
G37*
G36*
G01*
X134362000Y-86259500D02*
X134362000Y-86460500D01*
G75*
G02*
X134282500Y-86540000I-79500J0D01*
G01*
X134123500Y-86540000D01*
G75*
G02*
X134044000Y-86460500I0J79500D01*
G01*
X134044000Y-86259500D01*
G75*
G02*
X134123500Y-86180000I79500J0D01*
G01*
X134282500Y-86180000D01*
G75*
G02*
X134362000Y-86259500I0J-79500D01*
G01*
G37*
%TD*%
%TO.C,R14*%
G36*
G01*
X133672000Y-83719500D02*
X133672000Y-83920500D01*
G75*
G02*
X133592500Y-84000000I-79500J0D01*
G01*
X133433500Y-84000000D01*
G75*
G02*
X133354000Y-83920500I0J79500D01*
G01*
X133354000Y-83719500D01*
G75*
G02*
X133433500Y-83640000I79500J0D01*
G01*
X133592500Y-83640000D01*
G75*
G02*
X133672000Y-83719500I0J-79500D01*
G01*
G37*
G36*
G01*
X134362000Y-83719500D02*
X134362000Y-83920500D01*
G75*
G02*
X134282500Y-84000000I-79500J0D01*
G01*
X134123500Y-84000000D01*
G75*
G02*
X134044000Y-83920500I0J79500D01*
G01*
X134044000Y-83719500D01*
G75*
G02*
X134123500Y-83640000I79500J0D01*
G01*
X134282500Y-83640000D01*
G75*
G02*
X134362000Y-83719500I0J-79500D01*
G01*
G37*
%TD*%
%TO.C,R13*%
G36*
G01*
X133672000Y-81179500D02*
X133672000Y-81380500D01*
G75*
G02*
X133592500Y-81460000I-79500J0D01*
G01*
X133433500Y-81460000D01*
G75*
G02*
X133354000Y-81380500I0J79500D01*
G01*
X133354000Y-81179500D01*
G75*
G02*
X133433500Y-81100000I79500J0D01*
G01*
X133592500Y-81100000D01*
G75*
G02*
X133672000Y-81179500I0J-79500D01*
G01*
G37*
G36*
G01*
X134362000Y-81179500D02*
X134362000Y-81380500D01*
G75*
G02*
X134282500Y-81460000I-79500J0D01*
G01*
X134123500Y-81460000D01*
G75*
G02*
X134044000Y-81380500I0J79500D01*
G01*
X134044000Y-81179500D01*
G75*
G02*
X134123500Y-81100000I79500J0D01*
G01*
X134282500Y-81100000D01*
G75*
G02*
X134362000Y-81179500I0J-79500D01*
G01*
G37*
%TD*%
%TO.C,R12*%
G36*
G01*
X133672000Y-78639500D02*
X133672000Y-78840500D01*
G75*
G02*
X133592500Y-78920000I-79500J0D01*
G01*
X133433500Y-78920000D01*
G75*
G02*
X133354000Y-78840500I0J79500D01*
G01*
X133354000Y-78639500D01*
G75*
G02*
X133433500Y-78560000I79500J0D01*
G01*
X133592500Y-78560000D01*
G75*
G02*
X133672000Y-78639500I0J-79500D01*
G01*
G37*
G36*
G01*
X134362000Y-78639500D02*
X134362000Y-78840500D01*
G75*
G02*
X134282500Y-78920000I-79500J0D01*
G01*
X134123500Y-78920000D01*
G75*
G02*
X134044000Y-78840500I0J79500D01*
G01*
X134044000Y-78639500D01*
G75*
G02*
X134123500Y-78560000I79500J0D01*
G01*
X134282500Y-78560000D01*
G75*
G02*
X134362000Y-78639500I0J-79500D01*
G01*
G37*
%TD*%
%TO.C,R2*%
G36*
G01*
X143280300Y-78122200D02*
X143079300Y-78122200D01*
G75*
G02*
X142999800Y-78042700I0J79500D01*
G01*
X142999800Y-77883700D01*
G75*
G02*
X143079300Y-77804200I79500J0D01*
G01*
X143280300Y-77804200D01*
G75*
G02*
X143359800Y-77883700I0J-79500D01*
G01*
X143359800Y-78042700D01*
G75*
G02*
X143280300Y-78122200I-79500J0D01*
G01*
G37*
G36*
G01*
X143280300Y-78812200D02*
X143079300Y-78812200D01*
G75*
G02*
X142999800Y-78732700I0J79500D01*
G01*
X142999800Y-78573700D01*
G75*
G02*
X143079300Y-78494200I79500J0D01*
G01*
X143280300Y-78494200D01*
G75*
G02*
X143359800Y-78573700I0J-79500D01*
G01*
X143359800Y-78732700D01*
G75*
G02*
X143280300Y-78812200I-79500J0D01*
G01*
G37*
%TD*%
%TO.C,C17*%
G36*
G01*
X133785000Y-77274600D02*
X133785000Y-77614600D01*
G75*
G02*
X133645000Y-77754600I-140000J0D01*
G01*
X133365000Y-77754600D01*
G75*
G02*
X133225000Y-77614600I0J140000D01*
G01*
X133225000Y-77274600D01*
G75*
G02*
X133365000Y-77134600I140000J0D01*
G01*
X133645000Y-77134600D01*
G75*
G02*
X133785000Y-77274600I0J-140000D01*
G01*
G37*
G36*
G01*
X134745000Y-77274600D02*
X134745000Y-77614600D01*
G75*
G02*
X134605000Y-77754600I-140000J0D01*
G01*
X134325000Y-77754600D01*
G75*
G02*
X134185000Y-77614600I0J140000D01*
G01*
X134185000Y-77274600D01*
G75*
G02*
X134325000Y-77134600I140000J0D01*
G01*
X134605000Y-77134600D01*
G75*
G02*
X134745000Y-77274600I0J-140000D01*
G01*
G37*
%TD*%
%TO.C,C3*%
G36*
G01*
X153645700Y-78494200D02*
X153846700Y-78494200D01*
G75*
G02*
X153926200Y-78573700I0J-79500D01*
G01*
X153926200Y-78732700D01*
G75*
G02*
X153846700Y-78812200I-79500J0D01*
G01*
X153645700Y-78812200D01*
G75*
G02*
X153566200Y-78732700I0J79500D01*
G01*
X153566200Y-78573700D01*
G75*
G02*
X153645700Y-78494200I79500J0D01*
G01*
G37*
G36*
G01*
X153645700Y-77804200D02*
X153846700Y-77804200D01*
G75*
G02*
X153926200Y-77883700I0J-79500D01*
G01*
X153926200Y-78042700D01*
G75*
G02*
X153846700Y-78122200I-79500J0D01*
G01*
X153645700Y-78122200D01*
G75*
G02*
X153566200Y-78042700I0J79500D01*
G01*
X153566200Y-77883700D01*
G75*
G02*
X153645700Y-77804200I79500J0D01*
G01*
G37*
%TD*%
%TO.C,R32*%
G36*
G01*
X135568000Y-80110500D02*
X135568000Y-79909500D01*
G75*
G02*
X135647500Y-79830000I79500J0D01*
G01*
X135806500Y-79830000D01*
G75*
G02*
X135886000Y-79909500I0J-79500D01*
G01*
X135886000Y-80110500D01*
G75*
G02*
X135806500Y-80190000I-79500J0D01*
G01*
X135647500Y-80190000D01*
G75*
G02*
X135568000Y-80110500I0J79500D01*
G01*
G37*
G36*
G01*
X134878000Y-80110500D02*
X134878000Y-79909500D01*
G75*
G02*
X134957500Y-79830000I79500J0D01*
G01*
X135116500Y-79830000D01*
G75*
G02*
X135196000Y-79909500I0J-79500D01*
G01*
X135196000Y-80110500D01*
G75*
G02*
X135116500Y-80190000I-79500J0D01*
G01*
X134957500Y-80190000D01*
G75*
G02*
X134878000Y-80110500I0J79500D01*
G01*
G37*
%TD*%
%TO.C,C10*%
G36*
G01*
X155800400Y-94378600D02*
X155800400Y-94038600D01*
G75*
G02*
X155940400Y-93898600I140000J0D01*
G01*
X156220400Y-93898600D01*
G75*
G02*
X156360400Y-94038600I0J-140000D01*
G01*
X156360400Y-94378600D01*
G75*
G02*
X156220400Y-94518600I-140000J0D01*
G01*
X155940400Y-94518600D01*
G75*
G02*
X155800400Y-94378600I0J140000D01*
G01*
G37*
G36*
G01*
X154840400Y-94378600D02*
X154840400Y-94038600D01*
G75*
G02*
X154980400Y-93898600I140000J0D01*
G01*
X155260400Y-93898600D01*
G75*
G02*
X155400400Y-94038600I0J-140000D01*
G01*
X155400400Y-94378600D01*
G75*
G02*
X155260400Y-94518600I-140000J0D01*
G01*
X154980400Y-94518600D01*
G75*
G02*
X154840400Y-94378600I0J140000D01*
G01*
G37*
%TD*%
%TO.C,C9*%
G36*
G01*
X155800400Y-92626000D02*
X155800400Y-92286000D01*
G75*
G02*
X155940400Y-92146000I140000J0D01*
G01*
X156220400Y-92146000D01*
G75*
G02*
X156360400Y-92286000I0J-140000D01*
G01*
X156360400Y-92626000D01*
G75*
G02*
X156220400Y-92766000I-140000J0D01*
G01*
X155940400Y-92766000D01*
G75*
G02*
X155800400Y-92626000I0J140000D01*
G01*
G37*
G36*
G01*
X154840400Y-92626000D02*
X154840400Y-92286000D01*
G75*
G02*
X154980400Y-92146000I140000J0D01*
G01*
X155260400Y-92146000D01*
G75*
G02*
X155400400Y-92286000I0J-140000D01*
G01*
X155400400Y-92626000D01*
G75*
G02*
X155260400Y-92766000I-140000J0D01*
G01*
X154980400Y-92766000D01*
G75*
G02*
X154840400Y-92626000I0J140000D01*
G01*
G37*
%TD*%
%TO.C,C4*%
G36*
G01*
X160935500Y-85276000D02*
X161136500Y-85276000D01*
G75*
G02*
X161216000Y-85355500I0J-79500D01*
G01*
X161216000Y-85514500D01*
G75*
G02*
X161136500Y-85594000I-79500J0D01*
G01*
X160935500Y-85594000D01*
G75*
G02*
X160856000Y-85514500I0J79500D01*
G01*
X160856000Y-85355500D01*
G75*
G02*
X160935500Y-85276000I79500J0D01*
G01*
G37*
G36*
G01*
X160935500Y-84586000D02*
X161136500Y-84586000D01*
G75*
G02*
X161216000Y-84665500I0J-79500D01*
G01*
X161216000Y-84824500D01*
G75*
G02*
X161136500Y-84904000I-79500J0D01*
G01*
X160935500Y-84904000D01*
G75*
G02*
X160856000Y-84824500I0J79500D01*
G01*
X160856000Y-84665500D01*
G75*
G02*
X160935500Y-84586000I79500J0D01*
G01*
G37*
%TD*%
%TO.C,C2*%
G36*
G01*
X142095800Y-91413500D02*
X142095800Y-91212500D01*
G75*
G02*
X142175300Y-91133000I79500J0D01*
G01*
X142334300Y-91133000D01*
G75*
G02*
X142413800Y-91212500I0J-79500D01*
G01*
X142413800Y-91413500D01*
G75*
G02*
X142334300Y-91493000I-79500J0D01*
G01*
X142175300Y-91493000D01*
G75*
G02*
X142095800Y-91413500I0J79500D01*
G01*
G37*
G36*
G01*
X141405800Y-91413500D02*
X141405800Y-91212500D01*
G75*
G02*
X141485300Y-91133000I79500J0D01*
G01*
X141644300Y-91133000D01*
G75*
G02*
X141723800Y-91212500I0J-79500D01*
G01*
X141723800Y-91413500D01*
G75*
G02*
X141644300Y-91493000I-79500J0D01*
G01*
X141485300Y-91493000D01*
G75*
G02*
X141405800Y-91413500I0J79500D01*
G01*
G37*
%TD*%
%TO.C,C1*%
G36*
G01*
X139216300Y-87698000D02*
X139015300Y-87698000D01*
G75*
G02*
X138935800Y-87618500I0J79500D01*
G01*
X138935800Y-87459500D01*
G75*
G02*
X139015300Y-87380000I79500J0D01*
G01*
X139216300Y-87380000D01*
G75*
G02*
X139295800Y-87459500I0J-79500D01*
G01*
X139295800Y-87618500D01*
G75*
G02*
X139216300Y-87698000I-79500J0D01*
G01*
G37*
G36*
G01*
X139216300Y-88388000D02*
X139015300Y-88388000D01*
G75*
G02*
X138935800Y-88308500I0J79500D01*
G01*
X138935800Y-88149500D01*
G75*
G02*
X139015300Y-88070000I79500J0D01*
G01*
X139216300Y-88070000D01*
G75*
G02*
X139295800Y-88149500I0J-79500D01*
G01*
X139295800Y-88308500D01*
G75*
G02*
X139216300Y-88388000I-79500J0D01*
G01*
G37*
%TD*%
%TO.C,R11*%
G36*
G01*
X135568000Y-78840500D02*
X135568000Y-78639500D01*
G75*
G02*
X135647500Y-78560000I79500J0D01*
G01*
X135806500Y-78560000D01*
G75*
G02*
X135886000Y-78639500I0J-79500D01*
G01*
X135886000Y-78840500D01*
G75*
G02*
X135806500Y-78920000I-79500J0D01*
G01*
X135647500Y-78920000D01*
G75*
G02*
X135568000Y-78840500I0J79500D01*
G01*
G37*
G36*
G01*
X134878000Y-78840500D02*
X134878000Y-78639500D01*
G75*
G02*
X134957500Y-78560000I79500J0D01*
G01*
X135116500Y-78560000D01*
G75*
G02*
X135196000Y-78639500I0J-79500D01*
G01*
X135196000Y-78840500D01*
G75*
G02*
X135116500Y-78920000I-79500J0D01*
G01*
X134957500Y-78920000D01*
G75*
G02*
X134878000Y-78840500I0J79500D01*
G01*
G37*
%TD*%
%TO.C,R22*%
G36*
G01*
X140130700Y-80154200D02*
X139929700Y-80154200D01*
G75*
G02*
X139850200Y-80074700I0J79500D01*
G01*
X139850200Y-79915700D01*
G75*
G02*
X139929700Y-79836200I79500J0D01*
G01*
X140130700Y-79836200D01*
G75*
G02*
X140210200Y-79915700I0J-79500D01*
G01*
X140210200Y-80074700D01*
G75*
G02*
X140130700Y-80154200I-79500J0D01*
G01*
G37*
G36*
G01*
X140130700Y-80844200D02*
X139929700Y-80844200D01*
G75*
G02*
X139850200Y-80764700I0J79500D01*
G01*
X139850200Y-80605700D01*
G75*
G02*
X139929700Y-80526200I79500J0D01*
G01*
X140130700Y-80526200D01*
G75*
G02*
X140210200Y-80605700I0J-79500D01*
G01*
X140210200Y-80764700D01*
G75*
G02*
X140130700Y-80844200I-79500J0D01*
G01*
G37*
%TD*%
%TO.C,R21*%
G36*
G01*
X141781700Y-80128800D02*
X141580700Y-80128800D01*
G75*
G02*
X141501200Y-80049300I0J79500D01*
G01*
X141501200Y-79890300D01*
G75*
G02*
X141580700Y-79810800I79500J0D01*
G01*
X141781700Y-79810800D01*
G75*
G02*
X141861200Y-79890300I0J-79500D01*
G01*
X141861200Y-80049300D01*
G75*
G02*
X141781700Y-80128800I-79500J0D01*
G01*
G37*
G36*
G01*
X141781700Y-80818800D02*
X141580700Y-80818800D01*
G75*
G02*
X141501200Y-80739300I0J79500D01*
G01*
X141501200Y-80580300D01*
G75*
G02*
X141580700Y-80500800I79500J0D01*
G01*
X141781700Y-80500800D01*
G75*
G02*
X141861200Y-80580300I0J-79500D01*
G01*
X141861200Y-80739300D01*
G75*
G02*
X141781700Y-80818800I-79500J0D01*
G01*
G37*
%TD*%
%TO.C,R9*%
G36*
G01*
X142467500Y-99763000D02*
X142266500Y-99763000D01*
G75*
G02*
X142187000Y-99683500I0J79500D01*
G01*
X142187000Y-99524500D01*
G75*
G02*
X142266500Y-99445000I79500J0D01*
G01*
X142467500Y-99445000D01*
G75*
G02*
X142547000Y-99524500I0J-79500D01*
G01*
X142547000Y-99683500D01*
G75*
G02*
X142467500Y-99763000I-79500J0D01*
G01*
G37*
G36*
G01*
X142467500Y-100453000D02*
X142266500Y-100453000D01*
G75*
G02*
X142187000Y-100373500I0J79500D01*
G01*
X142187000Y-100214500D01*
G75*
G02*
X142266500Y-100135000I79500J0D01*
G01*
X142467500Y-100135000D01*
G75*
G02*
X142547000Y-100214500I0J-79500D01*
G01*
X142547000Y-100373500D01*
G75*
G02*
X142467500Y-100453000I-79500J0D01*
G01*
G37*
%TD*%
%TO.C,R8*%
G36*
G01*
X151230500Y-95191000D02*
X151029500Y-95191000D01*
G75*
G02*
X150950000Y-95111500I0J79500D01*
G01*
X150950000Y-94952500D01*
G75*
G02*
X151029500Y-94873000I79500J0D01*
G01*
X151230500Y-94873000D01*
G75*
G02*
X151310000Y-94952500I0J-79500D01*
G01*
X151310000Y-95111500D01*
G75*
G02*
X151230500Y-95191000I-79500J0D01*
G01*
G37*
G36*
G01*
X151230500Y-95881000D02*
X151029500Y-95881000D01*
G75*
G02*
X150950000Y-95801500I0J79500D01*
G01*
X150950000Y-95642500D01*
G75*
G02*
X151029500Y-95563000I79500J0D01*
G01*
X151230500Y-95563000D01*
G75*
G02*
X151310000Y-95642500I0J-79500D01*
G01*
X151310000Y-95801500D01*
G75*
G02*
X151230500Y-95881000I-79500J0D01*
G01*
G37*
%TD*%
%TO.C,R5*%
G36*
G01*
X155201200Y-90704500D02*
X155201200Y-90905500D01*
G75*
G02*
X155121700Y-90985000I-79500J0D01*
G01*
X154962700Y-90985000D01*
G75*
G02*
X154883200Y-90905500I0J79500D01*
G01*
X154883200Y-90704500D01*
G75*
G02*
X154962700Y-90625000I79500J0D01*
G01*
X155121700Y-90625000D01*
G75*
G02*
X155201200Y-90704500I0J-79500D01*
G01*
G37*
G36*
G01*
X155891200Y-90704500D02*
X155891200Y-90905500D01*
G75*
G02*
X155811700Y-90985000I-79500J0D01*
G01*
X155652700Y-90985000D01*
G75*
G02*
X155573200Y-90905500I0J79500D01*
G01*
X155573200Y-90704500D01*
G75*
G02*
X155652700Y-90625000I79500J0D01*
G01*
X155811700Y-90625000D01*
G75*
G02*
X155891200Y-90704500I0J-79500D01*
G01*
G37*
%TD*%
%TO.C,R4*%
G36*
G01*
X144086000Y-89053500D02*
X144086000Y-89254500D01*
G75*
G02*
X144006500Y-89334000I-79500J0D01*
G01*
X143847500Y-89334000D01*
G75*
G02*
X143768000Y-89254500I0J79500D01*
G01*
X143768000Y-89053500D01*
G75*
G02*
X143847500Y-88974000I79500J0D01*
G01*
X144006500Y-88974000D01*
G75*
G02*
X144086000Y-89053500I0J-79500D01*
G01*
G37*
G36*
G01*
X144776000Y-89053500D02*
X144776000Y-89254500D01*
G75*
G02*
X144696500Y-89334000I-79500J0D01*
G01*
X144537500Y-89334000D01*
G75*
G02*
X144458000Y-89254500I0J79500D01*
G01*
X144458000Y-89053500D01*
G75*
G02*
X144537500Y-88974000I79500J0D01*
G01*
X144696500Y-88974000D01*
G75*
G02*
X144776000Y-89053500I0J-79500D01*
G01*
G37*
%TD*%
%TO.C,R3*%
G36*
G01*
X161993000Y-82449500D02*
X161993000Y-82650500D01*
G75*
G02*
X161913500Y-82730000I-79500J0D01*
G01*
X161754500Y-82730000D01*
G75*
G02*
X161675000Y-82650500I0J79500D01*
G01*
X161675000Y-82449500D01*
G75*
G02*
X161754500Y-82370000I79500J0D01*
G01*
X161913500Y-82370000D01*
G75*
G02*
X161993000Y-82449500I0J-79500D01*
G01*
G37*
G36*
G01*
X162683000Y-82449500D02*
X162683000Y-82650500D01*
G75*
G02*
X162603500Y-82730000I-79500J0D01*
G01*
X162444500Y-82730000D01*
G75*
G02*
X162365000Y-82650500I0J79500D01*
G01*
X162365000Y-82449500D01*
G75*
G02*
X162444500Y-82370000I79500J0D01*
G01*
X162603500Y-82370000D01*
G75*
G02*
X162683000Y-82449500I0J-79500D01*
G01*
G37*
%TD*%
%TO.C,R1*%
G36*
G01*
X162365000Y-81761500D02*
X162365000Y-81560500D01*
G75*
G02*
X162444500Y-81481000I79500J0D01*
G01*
X162603500Y-81481000D01*
G75*
G02*
X162683000Y-81560500I0J-79500D01*
G01*
X162683000Y-81761500D01*
G75*
G02*
X162603500Y-81841000I-79500J0D01*
G01*
X162444500Y-81841000D01*
G75*
G02*
X162365000Y-81761500I0J79500D01*
G01*
G37*
G36*
G01*
X161675000Y-81761500D02*
X161675000Y-81560500D01*
G75*
G02*
X161754500Y-81481000I79500J0D01*
G01*
X161913500Y-81481000D01*
G75*
G02*
X161993000Y-81560500I0J-79500D01*
G01*
X161993000Y-81761500D01*
G75*
G02*
X161913500Y-81841000I-79500J0D01*
G01*
X161754500Y-81841000D01*
G75*
G02*
X161675000Y-81761500I0J79500D01*
G01*
G37*
%TD*%
%TO.C,C18*%
G36*
G01*
X155583200Y-93445500D02*
X155583200Y-93244500D01*
G75*
G02*
X155662700Y-93165000I79500J0D01*
G01*
X155821700Y-93165000D01*
G75*
G02*
X155901200Y-93244500I0J-79500D01*
G01*
X155901200Y-93445500D01*
G75*
G02*
X155821700Y-93525000I-79500J0D01*
G01*
X155662700Y-93525000D01*
G75*
G02*
X155583200Y-93445500I0J79500D01*
G01*
G37*
G36*
G01*
X154893200Y-93445500D02*
X154893200Y-93244500D01*
G75*
G02*
X154972700Y-93165000I79500J0D01*
G01*
X155131700Y-93165000D01*
G75*
G02*
X155211200Y-93244500I0J-79500D01*
G01*
X155211200Y-93445500D01*
G75*
G02*
X155131700Y-93525000I-79500J0D01*
G01*
X154972700Y-93525000D01*
G75*
G02*
X154893200Y-93445500I0J79500D01*
G01*
G37*
%TD*%
%TO.C,C16*%
G36*
G01*
X155573200Y-90143500D02*
X155573200Y-89942500D01*
G75*
G02*
X155652700Y-89863000I79500J0D01*
G01*
X155811700Y-89863000D01*
G75*
G02*
X155891200Y-89942500I0J-79500D01*
G01*
X155891200Y-90143500D01*
G75*
G02*
X155811700Y-90223000I-79500J0D01*
G01*
X155652700Y-90223000D01*
G75*
G02*
X155573200Y-90143500I0J79500D01*
G01*
G37*
G36*
G01*
X154883200Y-90143500D02*
X154883200Y-89942500D01*
G75*
G02*
X154962700Y-89863000I79500J0D01*
G01*
X155121700Y-89863000D01*
G75*
G02*
X155201200Y-89942500I0J-79500D01*
G01*
X155201200Y-90143500D01*
G75*
G02*
X155121700Y-90223000I-79500J0D01*
G01*
X154962700Y-90223000D01*
G75*
G02*
X154883200Y-90143500I0J79500D01*
G01*
G37*
%TD*%
%TO.C,C15*%
G36*
G01*
X153315500Y-95563000D02*
X153516500Y-95563000D01*
G75*
G02*
X153596000Y-95642500I0J-79500D01*
G01*
X153596000Y-95801500D01*
G75*
G02*
X153516500Y-95881000I-79500J0D01*
G01*
X153315500Y-95881000D01*
G75*
G02*
X153236000Y-95801500I0J79500D01*
G01*
X153236000Y-95642500D01*
G75*
G02*
X153315500Y-95563000I79500J0D01*
G01*
G37*
G36*
G01*
X153315500Y-94873000D02*
X153516500Y-94873000D01*
G75*
G02*
X153596000Y-94952500I0J-79500D01*
G01*
X153596000Y-95111500D01*
G75*
G02*
X153516500Y-95191000I-79500J0D01*
G01*
X153315500Y-95191000D01*
G75*
G02*
X153236000Y-95111500I0J79500D01*
G01*
X153236000Y-94952500D01*
G75*
G02*
X153315500Y-94873000I79500J0D01*
G01*
G37*
%TD*%
%TO.C,C14*%
G36*
G01*
X148362500Y-95563000D02*
X148563500Y-95563000D01*
G75*
G02*
X148643000Y-95642500I0J-79500D01*
G01*
X148643000Y-95801500D01*
G75*
G02*
X148563500Y-95881000I-79500J0D01*
G01*
X148362500Y-95881000D01*
G75*
G02*
X148283000Y-95801500I0J79500D01*
G01*
X148283000Y-95642500D01*
G75*
G02*
X148362500Y-95563000I79500J0D01*
G01*
G37*
G36*
G01*
X148362500Y-94873000D02*
X148563500Y-94873000D01*
G75*
G02*
X148643000Y-94952500I0J-79500D01*
G01*
X148643000Y-95111500D01*
G75*
G02*
X148563500Y-95191000I-79500J0D01*
G01*
X148362500Y-95191000D01*
G75*
G02*
X148283000Y-95111500I0J79500D01*
G01*
X148283000Y-94952500D01*
G75*
G02*
X148362500Y-94873000I79500J0D01*
G01*
G37*
%TD*%
%TO.C,C13*%
G36*
G01*
X144086000Y-89815500D02*
X144086000Y-90016500D01*
G75*
G02*
X144006500Y-90096000I-79500J0D01*
G01*
X143847500Y-90096000D01*
G75*
G02*
X143768000Y-90016500I0J79500D01*
G01*
X143768000Y-89815500D01*
G75*
G02*
X143847500Y-89736000I79500J0D01*
G01*
X144006500Y-89736000D01*
G75*
G02*
X144086000Y-89815500I0J-79500D01*
G01*
G37*
G36*
G01*
X144776000Y-89815500D02*
X144776000Y-90016500D01*
G75*
G02*
X144696500Y-90096000I-79500J0D01*
G01*
X144537500Y-90096000D01*
G75*
G02*
X144458000Y-90016500I0J79500D01*
G01*
X144458000Y-89815500D01*
G75*
G02*
X144537500Y-89736000I79500J0D01*
G01*
X144696500Y-89736000D01*
G75*
G02*
X144776000Y-89815500I0J-79500D01*
G01*
G37*
%TD*%
%TO.C,C12*%
G36*
G01*
X148436500Y-84142000D02*
X148235500Y-84142000D01*
G75*
G02*
X148156000Y-84062500I0J79500D01*
G01*
X148156000Y-83903500D01*
G75*
G02*
X148235500Y-83824000I79500J0D01*
G01*
X148436500Y-83824000D01*
G75*
G02*
X148516000Y-83903500I0J-79500D01*
G01*
X148516000Y-84062500D01*
G75*
G02*
X148436500Y-84142000I-79500J0D01*
G01*
G37*
G36*
G01*
X148436500Y-84832000D02*
X148235500Y-84832000D01*
G75*
G02*
X148156000Y-84752500I0J79500D01*
G01*
X148156000Y-84593500D01*
G75*
G02*
X148235500Y-84514000I79500J0D01*
G01*
X148436500Y-84514000D01*
G75*
G02*
X148516000Y-84593500I0J-79500D01*
G01*
X148516000Y-84752500D01*
G75*
G02*
X148436500Y-84832000I-79500J0D01*
G01*
G37*
%TD*%
%TO.C,C11*%
G36*
G01*
X153008500Y-84269000D02*
X152807500Y-84269000D01*
G75*
G02*
X152728000Y-84189500I0J79500D01*
G01*
X152728000Y-84030500D01*
G75*
G02*
X152807500Y-83951000I79500J0D01*
G01*
X153008500Y-83951000D01*
G75*
G02*
X153088000Y-84030500I0J-79500D01*
G01*
X153088000Y-84189500D01*
G75*
G02*
X153008500Y-84269000I-79500J0D01*
G01*
G37*
G36*
G01*
X153008500Y-84959000D02*
X152807500Y-84959000D01*
G75*
G02*
X152728000Y-84879500I0J79500D01*
G01*
X152728000Y-84720500D01*
G75*
G02*
X152807500Y-84641000I79500J0D01*
G01*
X153008500Y-84641000D01*
G75*
G02*
X153088000Y-84720500I0J-79500D01*
G01*
X153088000Y-84879500D01*
G75*
G02*
X153008500Y-84959000I-79500J0D01*
G01*
G37*
%TD*%
%TO.C,C7*%
G36*
G01*
X144086000Y-90577500D02*
X144086000Y-90778500D01*
G75*
G02*
X144006500Y-90858000I-79500J0D01*
G01*
X143847500Y-90858000D01*
G75*
G02*
X143768000Y-90778500I0J79500D01*
G01*
X143768000Y-90577500D01*
G75*
G02*
X143847500Y-90498000I79500J0D01*
G01*
X144006500Y-90498000D01*
G75*
G02*
X144086000Y-90577500I0J-79500D01*
G01*
G37*
G36*
G01*
X144776000Y-90577500D02*
X144776000Y-90778500D01*
G75*
G02*
X144696500Y-90858000I-79500J0D01*
G01*
X144537500Y-90858000D01*
G75*
G02*
X144458000Y-90778500I0J79500D01*
G01*
X144458000Y-90577500D01*
G75*
G02*
X144537500Y-90498000I79500J0D01*
G01*
X144696500Y-90498000D01*
G75*
G02*
X144776000Y-90577500I0J-79500D01*
G01*
G37*
%TD*%
%TO.C,U4*%
G36*
G01*
X152910000Y-87216000D02*
X153685000Y-87216000D01*
G75*
G02*
X153735000Y-87266000I0J-50000D01*
G01*
X153735000Y-87366000D01*
G75*
G02*
X153685000Y-87416000I-50000J0D01*
G01*
X152910000Y-87416000D01*
G75*
G02*
X152860000Y-87366000I0J50000D01*
G01*
X152860000Y-87266000D01*
G75*
G02*
X152910000Y-87216000I50000J0D01*
G01*
G37*
G36*
G01*
X152910000Y-87616000D02*
X153685000Y-87616000D01*
G75*
G02*
X153735000Y-87666000I0J-50000D01*
G01*
X153735000Y-87766000D01*
G75*
G02*
X153685000Y-87816000I-50000J0D01*
G01*
X152910000Y-87816000D01*
G75*
G02*
X152860000Y-87766000I0J50000D01*
G01*
X152860000Y-87666000D01*
G75*
G02*
X152910000Y-87616000I50000J0D01*
G01*
G37*
G36*
G01*
X152910000Y-88016000D02*
X153685000Y-88016000D01*
G75*
G02*
X153735000Y-88066000I0J-50000D01*
G01*
X153735000Y-88166000D01*
G75*
G02*
X153685000Y-88216000I-50000J0D01*
G01*
X152910000Y-88216000D01*
G75*
G02*
X152860000Y-88166000I0J50000D01*
G01*
X152860000Y-88066000D01*
G75*
G02*
X152910000Y-88016000I50000J0D01*
G01*
G37*
G36*
G01*
X152910000Y-88416000D02*
X153685000Y-88416000D01*
G75*
G02*
X153735000Y-88466000I0J-50000D01*
G01*
X153735000Y-88566000D01*
G75*
G02*
X153685000Y-88616000I-50000J0D01*
G01*
X152910000Y-88616000D01*
G75*
G02*
X152860000Y-88566000I0J50000D01*
G01*
X152860000Y-88466000D01*
G75*
G02*
X152910000Y-88416000I50000J0D01*
G01*
G37*
G36*
G01*
X152910000Y-88816000D02*
X153685000Y-88816000D01*
G75*
G02*
X153735000Y-88866000I0J-50000D01*
G01*
X153735000Y-88966000D01*
G75*
G02*
X153685000Y-89016000I-50000J0D01*
G01*
X152910000Y-89016000D01*
G75*
G02*
X152860000Y-88966000I0J50000D01*
G01*
X152860000Y-88866000D01*
G75*
G02*
X152910000Y-88816000I50000J0D01*
G01*
G37*
G36*
G01*
X152910000Y-89216000D02*
X153685000Y-89216000D01*
G75*
G02*
X153735000Y-89266000I0J-50000D01*
G01*
X153735000Y-89366000D01*
G75*
G02*
X153685000Y-89416000I-50000J0D01*
G01*
X152910000Y-89416000D01*
G75*
G02*
X152860000Y-89366000I0J50000D01*
G01*
X152860000Y-89266000D01*
G75*
G02*
X152910000Y-89216000I50000J0D01*
G01*
G37*
G36*
G01*
X152910000Y-89616000D02*
X153685000Y-89616000D01*
G75*
G02*
X153735000Y-89666000I0J-50000D01*
G01*
X153735000Y-89766000D01*
G75*
G02*
X153685000Y-89816000I-50000J0D01*
G01*
X152910000Y-89816000D01*
G75*
G02*
X152860000Y-89766000I0J50000D01*
G01*
X152860000Y-89666000D01*
G75*
G02*
X152910000Y-89616000I50000J0D01*
G01*
G37*
G36*
G01*
X152910000Y-90016000D02*
X153685000Y-90016000D01*
G75*
G02*
X153735000Y-90066000I0J-50000D01*
G01*
X153735000Y-90166000D01*
G75*
G02*
X153685000Y-90216000I-50000J0D01*
G01*
X152910000Y-90216000D01*
G75*
G02*
X152860000Y-90166000I0J50000D01*
G01*
X152860000Y-90066000D01*
G75*
G02*
X152910000Y-90016000I50000J0D01*
G01*
G37*
G36*
G01*
X152910000Y-90416000D02*
X153685000Y-90416000D01*
G75*
G02*
X153735000Y-90466000I0J-50000D01*
G01*
X153735000Y-90566000D01*
G75*
G02*
X153685000Y-90616000I-50000J0D01*
G01*
X152910000Y-90616000D01*
G75*
G02*
X152860000Y-90566000I0J50000D01*
G01*
X152860000Y-90466000D01*
G75*
G02*
X152910000Y-90416000I50000J0D01*
G01*
G37*
G36*
G01*
X152910000Y-90816000D02*
X153685000Y-90816000D01*
G75*
G02*
X153735000Y-90866000I0J-50000D01*
G01*
X153735000Y-90966000D01*
G75*
G02*
X153685000Y-91016000I-50000J0D01*
G01*
X152910000Y-91016000D01*
G75*
G02*
X152860000Y-90966000I0J50000D01*
G01*
X152860000Y-90866000D01*
G75*
G02*
X152910000Y-90816000I50000J0D01*
G01*
G37*
G36*
G01*
X152910000Y-91216000D02*
X153685000Y-91216000D01*
G75*
G02*
X153735000Y-91266000I0J-50000D01*
G01*
X153735000Y-91366000D01*
G75*
G02*
X153685000Y-91416000I-50000J0D01*
G01*
X152910000Y-91416000D01*
G75*
G02*
X152860000Y-91366000I0J50000D01*
G01*
X152860000Y-91266000D01*
G75*
G02*
X152910000Y-91216000I50000J0D01*
G01*
G37*
G36*
G01*
X152910000Y-91616000D02*
X153685000Y-91616000D01*
G75*
G02*
X153735000Y-91666000I0J-50000D01*
G01*
X153735000Y-91766000D01*
G75*
G02*
X153685000Y-91816000I-50000J0D01*
G01*
X152910000Y-91816000D01*
G75*
G02*
X152860000Y-91766000I0J50000D01*
G01*
X152860000Y-91666000D01*
G75*
G02*
X152910000Y-91616000I50000J0D01*
G01*
G37*
G36*
G01*
X152910000Y-92016000D02*
X153685000Y-92016000D01*
G75*
G02*
X153735000Y-92066000I0J-50000D01*
G01*
X153735000Y-92166000D01*
G75*
G02*
X153685000Y-92216000I-50000J0D01*
G01*
X152910000Y-92216000D01*
G75*
G02*
X152860000Y-92166000I0J50000D01*
G01*
X152860000Y-92066000D01*
G75*
G02*
X152910000Y-92016000I50000J0D01*
G01*
G37*
G36*
G01*
X152910000Y-92416000D02*
X153685000Y-92416000D01*
G75*
G02*
X153735000Y-92466000I0J-50000D01*
G01*
X153735000Y-92566000D01*
G75*
G02*
X153685000Y-92616000I-50000J0D01*
G01*
X152910000Y-92616000D01*
G75*
G02*
X152860000Y-92566000I0J50000D01*
G01*
X152860000Y-92466000D01*
G75*
G02*
X152910000Y-92416000I50000J0D01*
G01*
G37*
G36*
G01*
X152410000Y-92916000D02*
X152510000Y-92916000D01*
G75*
G02*
X152560000Y-92966000I0J-50000D01*
G01*
X152560000Y-93741000D01*
G75*
G02*
X152510000Y-93791000I-50000J0D01*
G01*
X152410000Y-93791000D01*
G75*
G02*
X152360000Y-93741000I0J50000D01*
G01*
X152360000Y-92966000D01*
G75*
G02*
X152410000Y-92916000I50000J0D01*
G01*
G37*
G36*
G01*
X152010000Y-92916000D02*
X152110000Y-92916000D01*
G75*
G02*
X152160000Y-92966000I0J-50000D01*
G01*
X152160000Y-93741000D01*
G75*
G02*
X152110000Y-93791000I-50000J0D01*
G01*
X152010000Y-93791000D01*
G75*
G02*
X151960000Y-93741000I0J50000D01*
G01*
X151960000Y-92966000D01*
G75*
G02*
X152010000Y-92916000I50000J0D01*
G01*
G37*
G36*
G01*
X151610000Y-92916000D02*
X151710000Y-92916000D01*
G75*
G02*
X151760000Y-92966000I0J-50000D01*
G01*
X151760000Y-93741000D01*
G75*
G02*
X151710000Y-93791000I-50000J0D01*
G01*
X151610000Y-93791000D01*
G75*
G02*
X151560000Y-93741000I0J50000D01*
G01*
X151560000Y-92966000D01*
G75*
G02*
X151610000Y-92916000I50000J0D01*
G01*
G37*
G36*
G01*
X151210000Y-92916000D02*
X151310000Y-92916000D01*
G75*
G02*
X151360000Y-92966000I0J-50000D01*
G01*
X151360000Y-93741000D01*
G75*
G02*
X151310000Y-93791000I-50000J0D01*
G01*
X151210000Y-93791000D01*
G75*
G02*
X151160000Y-93741000I0J50000D01*
G01*
X151160000Y-92966000D01*
G75*
G02*
X151210000Y-92916000I50000J0D01*
G01*
G37*
G36*
G01*
X150810000Y-92916000D02*
X150910000Y-92916000D01*
G75*
G02*
X150960000Y-92966000I0J-50000D01*
G01*
X150960000Y-93741000D01*
G75*
G02*
X150910000Y-93791000I-50000J0D01*
G01*
X150810000Y-93791000D01*
G75*
G02*
X150760000Y-93741000I0J50000D01*
G01*
X150760000Y-92966000D01*
G75*
G02*
X150810000Y-92916000I50000J0D01*
G01*
G37*
G36*
G01*
X150410000Y-92916000D02*
X150510000Y-92916000D01*
G75*
G02*
X150560000Y-92966000I0J-50000D01*
G01*
X150560000Y-93741000D01*
G75*
G02*
X150510000Y-93791000I-50000J0D01*
G01*
X150410000Y-93791000D01*
G75*
G02*
X150360000Y-93741000I0J50000D01*
G01*
X150360000Y-92966000D01*
G75*
G02*
X150410000Y-92916000I50000J0D01*
G01*
G37*
G36*
G01*
X150010000Y-92916000D02*
X150110000Y-92916000D01*
G75*
G02*
X150160000Y-92966000I0J-50000D01*
G01*
X150160000Y-93741000D01*
G75*
G02*
X150110000Y-93791000I-50000J0D01*
G01*
X150010000Y-93791000D01*
G75*
G02*
X149960000Y-93741000I0J50000D01*
G01*
X149960000Y-92966000D01*
G75*
G02*
X150010000Y-92916000I50000J0D01*
G01*
G37*
G36*
G01*
X149610000Y-92916000D02*
X149710000Y-92916000D01*
G75*
G02*
X149760000Y-92966000I0J-50000D01*
G01*
X149760000Y-93741000D01*
G75*
G02*
X149710000Y-93791000I-50000J0D01*
G01*
X149610000Y-93791000D01*
G75*
G02*
X149560000Y-93741000I0J50000D01*
G01*
X149560000Y-92966000D01*
G75*
G02*
X149610000Y-92916000I50000J0D01*
G01*
G37*
G36*
G01*
X149210000Y-92916000D02*
X149310000Y-92916000D01*
G75*
G02*
X149360000Y-92966000I0J-50000D01*
G01*
X149360000Y-93741000D01*
G75*
G02*
X149310000Y-93791000I-50000J0D01*
G01*
X149210000Y-93791000D01*
G75*
G02*
X149160000Y-93741000I0J50000D01*
G01*
X149160000Y-92966000D01*
G75*
G02*
X149210000Y-92916000I50000J0D01*
G01*
G37*
G36*
G01*
X148810000Y-92916000D02*
X148910000Y-92916000D01*
G75*
G02*
X148960000Y-92966000I0J-50000D01*
G01*
X148960000Y-93741000D01*
G75*
G02*
X148910000Y-93791000I-50000J0D01*
G01*
X148810000Y-93791000D01*
G75*
G02*
X148760000Y-93741000I0J50000D01*
G01*
X148760000Y-92966000D01*
G75*
G02*
X148810000Y-92916000I50000J0D01*
G01*
G37*
G36*
G01*
X148410000Y-92916000D02*
X148510000Y-92916000D01*
G75*
G02*
X148560000Y-92966000I0J-50000D01*
G01*
X148560000Y-93741000D01*
G75*
G02*
X148510000Y-93791000I-50000J0D01*
G01*
X148410000Y-93791000D01*
G75*
G02*
X148360000Y-93741000I0J50000D01*
G01*
X148360000Y-92966000D01*
G75*
G02*
X148410000Y-92916000I50000J0D01*
G01*
G37*
G36*
G01*
X148010000Y-92916000D02*
X148110000Y-92916000D01*
G75*
G02*
X148160000Y-92966000I0J-50000D01*
G01*
X148160000Y-93741000D01*
G75*
G02*
X148110000Y-93791000I-50000J0D01*
G01*
X148010000Y-93791000D01*
G75*
G02*
X147960000Y-93741000I0J50000D01*
G01*
X147960000Y-92966000D01*
G75*
G02*
X148010000Y-92916000I50000J0D01*
G01*
G37*
G36*
G01*
X147610000Y-92916000D02*
X147710000Y-92916000D01*
G75*
G02*
X147760000Y-92966000I0J-50000D01*
G01*
X147760000Y-93741000D01*
G75*
G02*
X147710000Y-93791000I-50000J0D01*
G01*
X147610000Y-93791000D01*
G75*
G02*
X147560000Y-93741000I0J50000D01*
G01*
X147560000Y-92966000D01*
G75*
G02*
X147610000Y-92916000I50000J0D01*
G01*
G37*
G36*
G01*
X147210000Y-92916000D02*
X147310000Y-92916000D01*
G75*
G02*
X147360000Y-92966000I0J-50000D01*
G01*
X147360000Y-93741000D01*
G75*
G02*
X147310000Y-93791000I-50000J0D01*
G01*
X147210000Y-93791000D01*
G75*
G02*
X147160000Y-93741000I0J50000D01*
G01*
X147160000Y-92966000D01*
G75*
G02*
X147210000Y-92916000I50000J0D01*
G01*
G37*
G36*
G01*
X146035000Y-92416000D02*
X146810000Y-92416000D01*
G75*
G02*
X146860000Y-92466000I0J-50000D01*
G01*
X146860000Y-92566000D01*
G75*
G02*
X146810000Y-92616000I-50000J0D01*
G01*
X146035000Y-92616000D01*
G75*
G02*
X145985000Y-92566000I0J50000D01*
G01*
X145985000Y-92466000D01*
G75*
G02*
X146035000Y-92416000I50000J0D01*
G01*
G37*
G36*
G01*
X146035000Y-92016000D02*
X146810000Y-92016000D01*
G75*
G02*
X146860000Y-92066000I0J-50000D01*
G01*
X146860000Y-92166000D01*
G75*
G02*
X146810000Y-92216000I-50000J0D01*
G01*
X146035000Y-92216000D01*
G75*
G02*
X145985000Y-92166000I0J50000D01*
G01*
X145985000Y-92066000D01*
G75*
G02*
X146035000Y-92016000I50000J0D01*
G01*
G37*
G36*
G01*
X146035000Y-91616000D02*
X146810000Y-91616000D01*
G75*
G02*
X146860000Y-91666000I0J-50000D01*
G01*
X146860000Y-91766000D01*
G75*
G02*
X146810000Y-91816000I-50000J0D01*
G01*
X146035000Y-91816000D01*
G75*
G02*
X145985000Y-91766000I0J50000D01*
G01*
X145985000Y-91666000D01*
G75*
G02*
X146035000Y-91616000I50000J0D01*
G01*
G37*
G36*
G01*
X146035000Y-91216000D02*
X146810000Y-91216000D01*
G75*
G02*
X146860000Y-91266000I0J-50000D01*
G01*
X146860000Y-91366000D01*
G75*
G02*
X146810000Y-91416000I-50000J0D01*
G01*
X146035000Y-91416000D01*
G75*
G02*
X145985000Y-91366000I0J50000D01*
G01*
X145985000Y-91266000D01*
G75*
G02*
X146035000Y-91216000I50000J0D01*
G01*
G37*
G36*
G01*
X146035000Y-90816000D02*
X146810000Y-90816000D01*
G75*
G02*
X146860000Y-90866000I0J-50000D01*
G01*
X146860000Y-90966000D01*
G75*
G02*
X146810000Y-91016000I-50000J0D01*
G01*
X146035000Y-91016000D01*
G75*
G02*
X145985000Y-90966000I0J50000D01*
G01*
X145985000Y-90866000D01*
G75*
G02*
X146035000Y-90816000I50000J0D01*
G01*
G37*
G36*
G01*
X146035000Y-90416000D02*
X146810000Y-90416000D01*
G75*
G02*
X146860000Y-90466000I0J-50000D01*
G01*
X146860000Y-90566000D01*
G75*
G02*
X146810000Y-90616000I-50000J0D01*
G01*
X146035000Y-90616000D01*
G75*
G02*
X145985000Y-90566000I0J50000D01*
G01*
X145985000Y-90466000D01*
G75*
G02*
X146035000Y-90416000I50000J0D01*
G01*
G37*
G36*
G01*
X146035000Y-90016000D02*
X146810000Y-90016000D01*
G75*
G02*
X146860000Y-90066000I0J-50000D01*
G01*
X146860000Y-90166000D01*
G75*
G02*
X146810000Y-90216000I-50000J0D01*
G01*
X146035000Y-90216000D01*
G75*
G02*
X145985000Y-90166000I0J50000D01*
G01*
X145985000Y-90066000D01*
G75*
G02*
X146035000Y-90016000I50000J0D01*
G01*
G37*
G36*
G01*
X146035000Y-89616000D02*
X146810000Y-89616000D01*
G75*
G02*
X146860000Y-89666000I0J-50000D01*
G01*
X146860000Y-89766000D01*
G75*
G02*
X146810000Y-89816000I-50000J0D01*
G01*
X146035000Y-89816000D01*
G75*
G02*
X145985000Y-89766000I0J50000D01*
G01*
X145985000Y-89666000D01*
G75*
G02*
X146035000Y-89616000I50000J0D01*
G01*
G37*
G36*
G01*
X146035000Y-89216000D02*
X146810000Y-89216000D01*
G75*
G02*
X146860000Y-89266000I0J-50000D01*
G01*
X146860000Y-89366000D01*
G75*
G02*
X146810000Y-89416000I-50000J0D01*
G01*
X146035000Y-89416000D01*
G75*
G02*
X145985000Y-89366000I0J50000D01*
G01*
X145985000Y-89266000D01*
G75*
G02*
X146035000Y-89216000I50000J0D01*
G01*
G37*
G36*
G01*
X146035000Y-88816000D02*
X146810000Y-88816000D01*
G75*
G02*
X146860000Y-88866000I0J-50000D01*
G01*
X146860000Y-88966000D01*
G75*
G02*
X146810000Y-89016000I-50000J0D01*
G01*
X146035000Y-89016000D01*
G75*
G02*
X145985000Y-88966000I0J50000D01*
G01*
X145985000Y-88866000D01*
G75*
G02*
X146035000Y-88816000I50000J0D01*
G01*
G37*
G36*
G01*
X146035000Y-88416000D02*
X146810000Y-88416000D01*
G75*
G02*
X146860000Y-88466000I0J-50000D01*
G01*
X146860000Y-88566000D01*
G75*
G02*
X146810000Y-88616000I-50000J0D01*
G01*
X146035000Y-88616000D01*
G75*
G02*
X145985000Y-88566000I0J50000D01*
G01*
X145985000Y-88466000D01*
G75*
G02*
X146035000Y-88416000I50000J0D01*
G01*
G37*
G36*
G01*
X146035000Y-88016000D02*
X146810000Y-88016000D01*
G75*
G02*
X146860000Y-88066000I0J-50000D01*
G01*
X146860000Y-88166000D01*
G75*
G02*
X146810000Y-88216000I-50000J0D01*
G01*
X146035000Y-88216000D01*
G75*
G02*
X145985000Y-88166000I0J50000D01*
G01*
X145985000Y-88066000D01*
G75*
G02*
X146035000Y-88016000I50000J0D01*
G01*
G37*
G36*
G01*
X146035000Y-87616000D02*
X146810000Y-87616000D01*
G75*
G02*
X146860000Y-87666000I0J-50000D01*
G01*
X146860000Y-87766000D01*
G75*
G02*
X146810000Y-87816000I-50000J0D01*
G01*
X146035000Y-87816000D01*
G75*
G02*
X145985000Y-87766000I0J50000D01*
G01*
X145985000Y-87666000D01*
G75*
G02*
X146035000Y-87616000I50000J0D01*
G01*
G37*
G36*
G01*
X146035000Y-87216000D02*
X146810000Y-87216000D01*
G75*
G02*
X146860000Y-87266000I0J-50000D01*
G01*
X146860000Y-87366000D01*
G75*
G02*
X146810000Y-87416000I-50000J0D01*
G01*
X146035000Y-87416000D01*
G75*
G02*
X145985000Y-87366000I0J50000D01*
G01*
X145985000Y-87266000D01*
G75*
G02*
X146035000Y-87216000I50000J0D01*
G01*
G37*
G36*
G01*
X147210000Y-86041000D02*
X147310000Y-86041000D01*
G75*
G02*
X147360000Y-86091000I0J-50000D01*
G01*
X147360000Y-86866000D01*
G75*
G02*
X147310000Y-86916000I-50000J0D01*
G01*
X147210000Y-86916000D01*
G75*
G02*
X147160000Y-86866000I0J50000D01*
G01*
X147160000Y-86091000D01*
G75*
G02*
X147210000Y-86041000I50000J0D01*
G01*
G37*
G36*
G01*
X147610000Y-86041000D02*
X147710000Y-86041000D01*
G75*
G02*
X147760000Y-86091000I0J-50000D01*
G01*
X147760000Y-86866000D01*
G75*
G02*
X147710000Y-86916000I-50000J0D01*
G01*
X147610000Y-86916000D01*
G75*
G02*
X147560000Y-86866000I0J50000D01*
G01*
X147560000Y-86091000D01*
G75*
G02*
X147610000Y-86041000I50000J0D01*
G01*
G37*
G36*
G01*
X148010000Y-86041000D02*
X148110000Y-86041000D01*
G75*
G02*
X148160000Y-86091000I0J-50000D01*
G01*
X148160000Y-86866000D01*
G75*
G02*
X148110000Y-86916000I-50000J0D01*
G01*
X148010000Y-86916000D01*
G75*
G02*
X147960000Y-86866000I0J50000D01*
G01*
X147960000Y-86091000D01*
G75*
G02*
X148010000Y-86041000I50000J0D01*
G01*
G37*
G36*
G01*
X148410000Y-86041000D02*
X148510000Y-86041000D01*
G75*
G02*
X148560000Y-86091000I0J-50000D01*
G01*
X148560000Y-86866000D01*
G75*
G02*
X148510000Y-86916000I-50000J0D01*
G01*
X148410000Y-86916000D01*
G75*
G02*
X148360000Y-86866000I0J50000D01*
G01*
X148360000Y-86091000D01*
G75*
G02*
X148410000Y-86041000I50000J0D01*
G01*
G37*
G36*
G01*
X148810000Y-86041000D02*
X148910000Y-86041000D01*
G75*
G02*
X148960000Y-86091000I0J-50000D01*
G01*
X148960000Y-86866000D01*
G75*
G02*
X148910000Y-86916000I-50000J0D01*
G01*
X148810000Y-86916000D01*
G75*
G02*
X148760000Y-86866000I0J50000D01*
G01*
X148760000Y-86091000D01*
G75*
G02*
X148810000Y-86041000I50000J0D01*
G01*
G37*
G36*
G01*
X149210000Y-86041000D02*
X149310000Y-86041000D01*
G75*
G02*
X149360000Y-86091000I0J-50000D01*
G01*
X149360000Y-86866000D01*
G75*
G02*
X149310000Y-86916000I-50000J0D01*
G01*
X149210000Y-86916000D01*
G75*
G02*
X149160000Y-86866000I0J50000D01*
G01*
X149160000Y-86091000D01*
G75*
G02*
X149210000Y-86041000I50000J0D01*
G01*
G37*
G36*
G01*
X149610000Y-86041000D02*
X149710000Y-86041000D01*
G75*
G02*
X149760000Y-86091000I0J-50000D01*
G01*
X149760000Y-86866000D01*
G75*
G02*
X149710000Y-86916000I-50000J0D01*
G01*
X149610000Y-86916000D01*
G75*
G02*
X149560000Y-86866000I0J50000D01*
G01*
X149560000Y-86091000D01*
G75*
G02*
X149610000Y-86041000I50000J0D01*
G01*
G37*
G36*
G01*
X150010000Y-86041000D02*
X150110000Y-86041000D01*
G75*
G02*
X150160000Y-86091000I0J-50000D01*
G01*
X150160000Y-86866000D01*
G75*
G02*
X150110000Y-86916000I-50000J0D01*
G01*
X150010000Y-86916000D01*
G75*
G02*
X149960000Y-86866000I0J50000D01*
G01*
X149960000Y-86091000D01*
G75*
G02*
X150010000Y-86041000I50000J0D01*
G01*
G37*
G36*
G01*
X150410000Y-86041000D02*
X150510000Y-86041000D01*
G75*
G02*
X150560000Y-86091000I0J-50000D01*
G01*
X150560000Y-86866000D01*
G75*
G02*
X150510000Y-86916000I-50000J0D01*
G01*
X150410000Y-86916000D01*
G75*
G02*
X150360000Y-86866000I0J50000D01*
G01*
X150360000Y-86091000D01*
G75*
G02*
X150410000Y-86041000I50000J0D01*
G01*
G37*
G36*
G01*
X150810000Y-86041000D02*
X150910000Y-86041000D01*
G75*
G02*
X150960000Y-86091000I0J-50000D01*
G01*
X150960000Y-86866000D01*
G75*
G02*
X150910000Y-86916000I-50000J0D01*
G01*
X150810000Y-86916000D01*
G75*
G02*
X150760000Y-86866000I0J50000D01*
G01*
X150760000Y-86091000D01*
G75*
G02*
X150810000Y-86041000I50000J0D01*
G01*
G37*
G36*
G01*
X151210000Y-86041000D02*
X151310000Y-86041000D01*
G75*
G02*
X151360000Y-86091000I0J-50000D01*
G01*
X151360000Y-86866000D01*
G75*
G02*
X151310000Y-86916000I-50000J0D01*
G01*
X151210000Y-86916000D01*
G75*
G02*
X151160000Y-86866000I0J50000D01*
G01*
X151160000Y-86091000D01*
G75*
G02*
X151210000Y-86041000I50000J0D01*
G01*
G37*
G36*
G01*
X151610000Y-86041000D02*
X151710000Y-86041000D01*
G75*
G02*
X151760000Y-86091000I0J-50000D01*
G01*
X151760000Y-86866000D01*
G75*
G02*
X151710000Y-86916000I-50000J0D01*
G01*
X151610000Y-86916000D01*
G75*
G02*
X151560000Y-86866000I0J50000D01*
G01*
X151560000Y-86091000D01*
G75*
G02*
X151610000Y-86041000I50000J0D01*
G01*
G37*
G36*
G01*
X152010000Y-86041000D02*
X152110000Y-86041000D01*
G75*
G02*
X152160000Y-86091000I0J-50000D01*
G01*
X152160000Y-86866000D01*
G75*
G02*
X152110000Y-86916000I-50000J0D01*
G01*
X152010000Y-86916000D01*
G75*
G02*
X151960000Y-86866000I0J50000D01*
G01*
X151960000Y-86091000D01*
G75*
G02*
X152010000Y-86041000I50000J0D01*
G01*
G37*
G36*
G01*
X152410000Y-86041000D02*
X152510000Y-86041000D01*
G75*
G02*
X152560000Y-86091000I0J-50000D01*
G01*
X152560000Y-86866000D01*
G75*
G02*
X152510000Y-86916000I-50000J0D01*
G01*
X152410000Y-86916000D01*
G75*
G02*
X152360000Y-86866000I0J50000D01*
G01*
X152360000Y-86091000D01*
G75*
G02*
X152410000Y-86041000I50000J0D01*
G01*
G37*
G36*
G01*
X148930283Y-90011283D02*
X149514717Y-90011283D01*
G75*
G02*
X149764717Y-90261283I0J-250000D01*
G01*
X149764717Y-90845717D01*
G75*
G02*
X149514717Y-91095717I-250000J0D01*
G01*
X148930283Y-91095717D01*
G75*
G02*
X148680283Y-90845717I0J250000D01*
G01*
X148680283Y-90261283D01*
G75*
G02*
X148930283Y-90011283I250000J0D01*
G01*
G37*
G36*
G01*
X150205283Y-90011283D02*
X150789717Y-90011283D01*
G75*
G02*
X151039717Y-90261283I0J-250000D01*
G01*
X151039717Y-90845717D01*
G75*
G02*
X150789717Y-91095717I-250000J0D01*
G01*
X150205283Y-91095717D01*
G75*
G02*
X149955283Y-90845717I0J250000D01*
G01*
X149955283Y-90261283D01*
G75*
G02*
X150205283Y-90011283I250000J0D01*
G01*
G37*
G36*
G01*
X148930283Y-88736283D02*
X149514717Y-88736283D01*
G75*
G02*
X149764717Y-88986283I0J-250000D01*
G01*
X149764717Y-89570717D01*
G75*
G02*
X149514717Y-89820717I-250000J0D01*
G01*
X148930283Y-89820717D01*
G75*
G02*
X148680283Y-89570717I0J250000D01*
G01*
X148680283Y-88986283D01*
G75*
G02*
X148930283Y-88736283I250000J0D01*
G01*
G37*
G36*
G01*
X150205283Y-88736283D02*
X150789717Y-88736283D01*
G75*
G02*
X151039717Y-88986283I0J-250000D01*
G01*
X151039717Y-89570717D01*
G75*
G02*
X150789717Y-89820717I-250000J0D01*
G01*
X150205283Y-89820717D01*
G75*
G02*
X149955283Y-89570717I0J250000D01*
G01*
X149955283Y-88986283D01*
G75*
G02*
X150205283Y-88736283I250000J0D01*
G01*
G37*
%TD*%
D13*
%TO.C,U3*%
X166345000Y-92724000D03*
X166345000Y-88124000D03*
X166345000Y-90424000D03*
D14*
X160045000Y-90424000D03*
%TD*%
D12*
%TO.C,SW1*%
X162573000Y-78740000D03*
X171183000Y-78740000D03*
%TD*%
D15*
%TO.C,Q1*%
X138954000Y-99314000D03*
X140954000Y-98364000D03*
X140954000Y-100264000D03*
%TD*%
%TO.C,D2*%
G36*
G01*
X139773950Y-78328000D02*
X140286450Y-78328000D01*
G75*
G02*
X140505200Y-78546750I0J-218750D01*
G01*
X140505200Y-78984250D01*
G75*
G02*
X140286450Y-79203000I-218750J0D01*
G01*
X139773950Y-79203000D01*
G75*
G02*
X139555200Y-78984250I0J218750D01*
G01*
X139555200Y-78546750D01*
G75*
G02*
X139773950Y-78328000I218750J0D01*
G01*
G37*
G36*
G01*
X139773950Y-76753000D02*
X140286450Y-76753000D01*
G75*
G02*
X140505200Y-76971750I0J-218750D01*
G01*
X140505200Y-77409250D01*
G75*
G02*
X140286450Y-77628000I-218750J0D01*
G01*
X139773950Y-77628000D01*
G75*
G02*
X139555200Y-77409250I0J218750D01*
G01*
X139555200Y-76971750D01*
G75*
G02*
X139773950Y-76753000I218750J0D01*
G01*
G37*
%TD*%
%TO.C,D1*%
G36*
G01*
X141424950Y-78328000D02*
X141937450Y-78328000D01*
G75*
G02*
X142156200Y-78546750I0J-218750D01*
G01*
X142156200Y-78984250D01*
G75*
G02*
X141937450Y-79203000I-218750J0D01*
G01*
X141424950Y-79203000D01*
G75*
G02*
X141206200Y-78984250I0J218750D01*
G01*
X141206200Y-78546750D01*
G75*
G02*
X141424950Y-78328000I218750J0D01*
G01*
G37*
G36*
G01*
X141424950Y-76753000D02*
X141937450Y-76753000D01*
G75*
G02*
X142156200Y-76971750I0J-218750D01*
G01*
X142156200Y-77409250D01*
G75*
G02*
X141937450Y-77628000I-218750J0D01*
G01*
X141424950Y-77628000D01*
G75*
G02*
X141206200Y-77409250I0J218750D01*
G01*
X141206200Y-76971750D01*
G75*
G02*
X141424950Y-76753000I218750J0D01*
G01*
G37*
%TD*%
%TO.C,C6*%
G36*
G01*
X161120000Y-95373000D02*
X161120000Y-94873000D01*
G75*
G02*
X161345000Y-94648000I225000J0D01*
G01*
X161795000Y-94648000D01*
G75*
G02*
X162020000Y-94873000I0J-225000D01*
G01*
X162020000Y-95373000D01*
G75*
G02*
X161795000Y-95598000I-225000J0D01*
G01*
X161345000Y-95598000D01*
G75*
G02*
X161120000Y-95373000I0J225000D01*
G01*
G37*
G36*
G01*
X159570000Y-95373000D02*
X159570000Y-94873000D01*
G75*
G02*
X159795000Y-94648000I225000J0D01*
G01*
X160245000Y-94648000D01*
G75*
G02*
X160470000Y-94873000I0J-225000D01*
G01*
X160470000Y-95373000D01*
G75*
G02*
X160245000Y-95598000I-225000J0D01*
G01*
X159795000Y-95598000D01*
G75*
G02*
X159570000Y-95373000I0J225000D01*
G01*
G37*
%TD*%
%TO.C,C5*%
G36*
G01*
X165283000Y-85449600D02*
X165283000Y-85949600D01*
G75*
G02*
X165058000Y-86174600I-225000J0D01*
G01*
X164608000Y-86174600D01*
G75*
G02*
X164383000Y-85949600I0J225000D01*
G01*
X164383000Y-85449600D01*
G75*
G02*
X164608000Y-85224600I225000J0D01*
G01*
X165058000Y-85224600D01*
G75*
G02*
X165283000Y-85449600I0J-225000D01*
G01*
G37*
G36*
G01*
X166833000Y-85449600D02*
X166833000Y-85949600D01*
G75*
G02*
X166608000Y-86174600I-225000J0D01*
G01*
X166158000Y-86174600D01*
G75*
G02*
X165933000Y-85949600I0J225000D01*
G01*
X165933000Y-85449600D01*
G75*
G02*
X166158000Y-85224600I225000J0D01*
G01*
X166608000Y-85224600D01*
G75*
G02*
X166833000Y-85449600I0J-225000D01*
G01*
G37*
%TD*%
M02*
