M48
; DRILL file {KiCad (5.1.9)-1} date 09/09/21 09:31:17
; FORMAT={-:-/ absolute / metric / decimal}
; #@! TF.CreationDate,2021-09-09T09:31:17+08:00
; #@! TF.GenerationSoftware,Kicad,Pcbnew,(5.1.9)-1
; #@! TF.FileFunction,Plated,1,4,PTH
FMAT,2
METRIC
T1C0.305
T2C0.350
T3C0.900
T4C1.000
%
G90
G05
T1
X132.715Y-78.232
X132.715Y-79.248
X135.509Y-77.47
X136.271Y-80.01
X138.938Y-98.425
X138.963Y-77.191
X140.017Y-81.343
X140.462Y-91.186
X141.605Y-81.407
X141.732Y-98.933
X143.002Y-90.932
X143.002Y-91.948
X143.002Y-97.155
X143.18Y-79.299
X143.19Y-100.269
X143.383Y-81.788
X143.51Y-87.503
X143.637Y-91.567
X143.764Y-96.901
X145.161Y-89.916
X146.177Y-77.978
X146.812Y-95.479
X147.066Y-83.312
X147.447Y-95.987
X147.574Y-83.947
X147.828Y-82.804
X148.717Y-85.217
X148.717Y-96.774
X149.377Y-96.393
X149.606Y-83.058
X150.241Y-96.52
X150.749Y-79.375
X151.663Y-97.18
X152.273Y-83.693
X152.877Y-94.518
X152.908Y-85.725
X153.035Y-82.931
X153.543Y-83.693
X153.797Y-77.216
X153.797Y-79.375
X153.899Y-96.545
X153.924Y-82.55
X154.305Y-90.297
X154.368Y-92.773
X154.559Y-81.788
X154.813Y-77.597
X156.08Y-94.917
X156.337Y-88.671
X156.464Y-90.805
X156.464Y-91.567
X156.972Y-78.994
X158.242Y-78.994
X159.512Y-78.994
X159.512Y-86.106
X160.02Y-93.472
X160.782Y-99.06
X161.036Y-86.081
X162.712Y-95.123
X163.754Y-85.7
X166.345Y-94.361
X168.656Y-89.916
X172.339Y-87.884
T2
X148.585Y-88.641
X148.585Y-89.916
X148.585Y-91.191
X149.86Y-88.641
X149.86Y-89.916
X149.86Y-91.191
X151.135Y-88.641
X151.135Y-89.916
X151.135Y-91.191
T4
X128.27Y-77.47
X128.27Y-80.01
X128.27Y-82.55
X128.27Y-85.09
X128.27Y-87.63
X128.27Y-90.17
X128.27Y-92.71
X128.27Y-95.25
X128.27Y-97.79
X128.27Y-100.33
X130.81Y-77.47
X130.81Y-80.01
X130.81Y-82.55
X130.81Y-85.09
X130.81Y-87.63
X130.81Y-90.17
X130.81Y-92.71
X130.81Y-95.25
X130.81Y-97.79
X130.81Y-100.33
X146.177Y-99.822
X148.717Y-99.822
X151.257Y-99.822
X153.797Y-99.822
T3
X172.64Y-83.2
X172.94Y-83.2
X173.24Y-83.2
X173.54Y-83.2
X173.84Y-83.2
X174.24Y-83.2
X172.64Y-94.6
X172.94Y-94.6
X173.24Y-94.6
X173.54Y-94.6
X173.84Y-94.6
X174.24Y-94.6
T0
M30
