%TF.GenerationSoftware,KiCad,Pcbnew,(5.1.9)-1*%
%TF.CreationDate,2021-09-09T09:31:17+08:00*%
%TF.ProjectId,RP2040,52503230-3430-42e6-9b69-6361645f7063,rev?*%
%TF.SameCoordinates,Original*%
%TF.FileFunction,Legend,Top*%
%TF.FilePolarity,Positive*%
%FSLAX46Y46*%
G04 Gerber Fmt 4.6, Leading zero omitted, Abs format (unit mm)*
G04 Created by KiCad (PCBNEW (5.1.9)-1) date 2021-09-09 09:31:17*
%MOMM*%
%LPD*%
G01*
G04 APERTURE LIST*
%ADD10C,0.120000*%
%ADD11C,0.100000*%
%ADD12C,0.150000*%
G04 APERTURE END LIST*
D10*
X143256000Y-91186000D02*
X143510000Y-90932000D01*
X143256000Y-93091000D02*
X143256000Y-91186000D01*
X135661400Y-80721200D02*
X137312400Y-80721200D01*
X135432800Y-80467200D02*
X135636000Y-80695800D01*
X137312400Y-82905600D02*
X137312400Y-80721200D01*
X133858000Y-79375000D02*
X133858000Y-79527400D01*
X133858000Y-79375000D02*
X133858000Y-79222600D01*
X136296400Y-79375000D02*
X133858000Y-79375000D01*
X136296400Y-80391000D02*
X136296400Y-78409800D01*
%TO.C,Y1*%
X139751800Y-90671400D02*
X143051800Y-90671400D01*
X143051800Y-90671400D02*
X143051800Y-86671400D01*
%TO.C,J1*%
X172320000Y-84500000D02*
X171565000Y-84500000D01*
X175490000Y-95045000D02*
X176540000Y-95045000D01*
X175490000Y-82755000D02*
X176540000Y-82755000D01*
X172320000Y-84500000D02*
X172320000Y-93300000D01*
%TO.C,U2*%
X154882000Y-81203800D02*
X154882000Y-83928800D01*
X154882000Y-83928800D02*
X155142000Y-83928800D01*
X154882000Y-81203800D02*
X154882000Y-78478800D01*
X154882000Y-78478800D02*
X155142000Y-78478800D01*
X160332000Y-81203800D02*
X160332000Y-83928800D01*
X160332000Y-83928800D02*
X160072000Y-83928800D01*
X160332000Y-81203800D02*
X160332000Y-78478800D01*
X160332000Y-78478800D02*
X160072000Y-78478800D01*
X160072000Y-78478800D02*
X160072000Y-76803800D01*
%TO.C,U1*%
X148463000Y-82608000D02*
X151188000Y-82608000D01*
X151188000Y-82608000D02*
X151188000Y-82348000D01*
X148463000Y-82608000D02*
X145738000Y-82608000D01*
X145738000Y-82608000D02*
X145738000Y-82348000D01*
X148463000Y-77158000D02*
X151188000Y-77158000D01*
X151188000Y-77158000D02*
X151188000Y-77418000D01*
X148463000Y-77158000D02*
X145738000Y-77158000D01*
X145738000Y-77158000D02*
X145738000Y-77418000D01*
X145738000Y-77418000D02*
X144063000Y-77418000D01*
%TO.C,SW2*%
X166274667Y-98425000D02*
X166274667Y-99695000D01*
X165068000Y-99625000D02*
X166274667Y-99625000D01*
X165068000Y-99505000D02*
X166274667Y-99505000D01*
X165068000Y-99385000D02*
X166274667Y-99385000D01*
X165068000Y-99265000D02*
X166274667Y-99265000D01*
X165068000Y-99145000D02*
X166274667Y-99145000D01*
X165068000Y-99025000D02*
X166274667Y-99025000D01*
X165068000Y-98905000D02*
X166274667Y-98905000D01*
X165068000Y-98785000D02*
X166274667Y-98785000D01*
X165068000Y-98665000D02*
X166274667Y-98665000D01*
X165068000Y-98545000D02*
X166274667Y-98545000D01*
X168688000Y-98425000D02*
X165068000Y-98425000D01*
X168688000Y-99695000D02*
X168688000Y-98425000D01*
X165068000Y-99695000D02*
X168688000Y-99695000D01*
X165068000Y-98425000D02*
X165068000Y-99695000D01*
X163228000Y-96710000D02*
X163228000Y-98093000D01*
X163228000Y-96710000D02*
X164611000Y-96710000D01*
X170288000Y-99860000D02*
X170288000Y-101170000D01*
X170288000Y-96950000D02*
X170288000Y-98260000D01*
X163468000Y-99860000D02*
X163468000Y-101170000D01*
X163468000Y-96950000D02*
X163468000Y-98260000D01*
X163468000Y-101170000D02*
X170288000Y-101170000D01*
X163468000Y-96950000D02*
X170288000Y-96950000D01*
%TO.C,J3*%
X126940000Y-76140000D02*
X128270000Y-76140000D01*
X126940000Y-77470000D02*
X126940000Y-76140000D01*
X129540000Y-76140000D02*
X132140000Y-76140000D01*
X129540000Y-78740000D02*
X129540000Y-76140000D01*
X126940000Y-78740000D02*
X129540000Y-78740000D01*
X132140000Y-76140000D02*
X132140000Y-101660000D01*
X126940000Y-78740000D02*
X126940000Y-101660000D01*
X126940000Y-101660000D02*
X132140000Y-101660000D01*
%TO.C,C17*%
X134092836Y-77084600D02*
X133877164Y-77084600D01*
X134092836Y-77804600D02*
X133877164Y-77804600D01*
%TO.C,C10*%
X155492564Y-94568600D02*
X155708236Y-94568600D01*
X155492564Y-93848600D02*
X155708236Y-93848600D01*
%TO.C,C9*%
X155492564Y-92816000D02*
X155708236Y-92816000D01*
X155492564Y-92096000D02*
X155708236Y-92096000D01*
%TO.C,U4*%
X153470000Y-86956000D02*
X153470000Y-86306000D01*
X146250000Y-93526000D02*
X146900000Y-93526000D01*
X146250000Y-92876000D02*
X146250000Y-93526000D01*
X146250000Y-86306000D02*
X146900000Y-86306000D01*
X146250000Y-86956000D02*
X146250000Y-86306000D01*
X153470000Y-93526000D02*
X152820000Y-93526000D01*
X153470000Y-92876000D02*
X153470000Y-93526000D01*
%TO.C,U3*%
X167295000Y-93834000D02*
X161285000Y-93834000D01*
X165045000Y-87014000D02*
X161285000Y-87014000D01*
X161285000Y-93834000D02*
X161285000Y-92574000D01*
X161285000Y-87014000D02*
X161285000Y-88274000D01*
%TO.C,SW1*%
X167481333Y-79375000D02*
X167481333Y-78105000D01*
X168688000Y-78175000D02*
X167481333Y-78175000D01*
X168688000Y-78295000D02*
X167481333Y-78295000D01*
X168688000Y-78415000D02*
X167481333Y-78415000D01*
X168688000Y-78535000D02*
X167481333Y-78535000D01*
X168688000Y-78655000D02*
X167481333Y-78655000D01*
X168688000Y-78775000D02*
X167481333Y-78775000D01*
X168688000Y-78895000D02*
X167481333Y-78895000D01*
X168688000Y-79015000D02*
X167481333Y-79015000D01*
X168688000Y-79135000D02*
X167481333Y-79135000D01*
X168688000Y-79255000D02*
X167481333Y-79255000D01*
X165068000Y-79375000D02*
X168688000Y-79375000D01*
X165068000Y-78105000D02*
X165068000Y-79375000D01*
X168688000Y-78105000D02*
X165068000Y-78105000D01*
X168688000Y-79375000D02*
X168688000Y-78105000D01*
X170528000Y-81090000D02*
X170528000Y-79707000D01*
X170528000Y-81090000D02*
X169145000Y-81090000D01*
X163468000Y-77940000D02*
X163468000Y-76630000D01*
X163468000Y-80850000D02*
X163468000Y-79540000D01*
X170288000Y-77940000D02*
X170288000Y-76630000D01*
X170288000Y-80850000D02*
X170288000Y-79540000D01*
X170288000Y-76630000D02*
X163468000Y-76630000D01*
X170288000Y-80850000D02*
X163468000Y-80850000D01*
%TO.C,Q1*%
X139194000Y-97734000D02*
X140654000Y-97734000D01*
X139194000Y-100894000D02*
X141354000Y-100894000D01*
X139194000Y-100894000D02*
X139194000Y-99964000D01*
X139194000Y-97734000D02*
X139194000Y-98664000D01*
%TO.C,J2*%
X144847000Y-101152000D02*
X144847000Y-99822000D01*
X146177000Y-101152000D02*
X144847000Y-101152000D01*
X147447000Y-101152000D02*
X147447000Y-98492000D01*
X147447000Y-98492000D02*
X155127000Y-98492000D01*
X147447000Y-101152000D02*
X155127000Y-101152000D01*
X155127000Y-101152000D02*
X155127000Y-98492000D01*
%TO.C,D2*%
X139295200Y-76493000D02*
X139295200Y-78778000D01*
X140765200Y-76493000D02*
X139295200Y-76493000D01*
X140765200Y-78778000D02*
X140765200Y-76493000D01*
%TO.C,D1*%
X140946200Y-76493000D02*
X140946200Y-78778000D01*
X142416200Y-76493000D02*
X140946200Y-76493000D01*
X142416200Y-78778000D02*
X142416200Y-76493000D01*
%TO.C,C6*%
X160654420Y-95633000D02*
X160935580Y-95633000D01*
X160654420Y-94613000D02*
X160935580Y-94613000D01*
%TO.C,C5*%
X165748580Y-85189600D02*
X165467420Y-85189600D01*
X165748580Y-86209600D02*
X165467420Y-86209600D01*
%TO.C,R6*%
D11*
X157287133Y-91883666D02*
X157053800Y-91550333D01*
X156887133Y-91883666D02*
X156887133Y-91183666D01*
X157153800Y-91183666D01*
X157220466Y-91217000D01*
X157253800Y-91250333D01*
X157287133Y-91317000D01*
X157287133Y-91417000D01*
X157253800Y-91483666D01*
X157220466Y-91517000D01*
X157153800Y-91550333D01*
X156887133Y-91550333D01*
X157887133Y-91183666D02*
X157753800Y-91183666D01*
X157687133Y-91217000D01*
X157653800Y-91250333D01*
X157587133Y-91350333D01*
X157553800Y-91483666D01*
X157553800Y-91750333D01*
X157587133Y-91817000D01*
X157620466Y-91850333D01*
X157687133Y-91883666D01*
X157820466Y-91883666D01*
X157887133Y-91850333D01*
X157920466Y-91817000D01*
X157953800Y-91750333D01*
X157953800Y-91583666D01*
X157920466Y-91517000D01*
X157887133Y-91483666D01*
X157820466Y-91450333D01*
X157687133Y-91450333D01*
X157620466Y-91483666D01*
X157587133Y-91517000D01*
X157553800Y-91583666D01*
%TO.C,R10*%
X152335666Y-97300200D02*
X152002333Y-97533533D01*
X152335666Y-97700200D02*
X151635666Y-97700200D01*
X151635666Y-97433533D01*
X151669000Y-97366866D01*
X151702333Y-97333533D01*
X151769000Y-97300200D01*
X151869000Y-97300200D01*
X151935666Y-97333533D01*
X151969000Y-97366866D01*
X152002333Y-97433533D01*
X152002333Y-97700200D01*
X152335666Y-96633533D02*
X152335666Y-97033533D01*
X152335666Y-96833533D02*
X151635666Y-96833533D01*
X151735666Y-96900200D01*
X151802333Y-96966866D01*
X151835666Y-97033533D01*
X151635666Y-96200200D02*
X151635666Y-96133533D01*
X151669000Y-96066866D01*
X151702333Y-96033533D01*
X151769000Y-96000200D01*
X151902333Y-95966866D01*
X152069000Y-95966866D01*
X152202333Y-96000200D01*
X152269000Y-96033533D01*
X152302333Y-96066866D01*
X152335666Y-96133533D01*
X152335666Y-96200200D01*
X152302333Y-96266866D01*
X152269000Y-96300200D01*
X152202333Y-96333533D01*
X152069000Y-96366866D01*
X151902333Y-96366866D01*
X151769000Y-96333533D01*
X151702333Y-96300200D01*
X151669000Y-96266866D01*
X151635666Y-96200200D01*
%TO.C,C8*%
X157261733Y-89531000D02*
X157228400Y-89564333D01*
X157128400Y-89597666D01*
X157061733Y-89597666D01*
X156961733Y-89564333D01*
X156895066Y-89497666D01*
X156861733Y-89431000D01*
X156828400Y-89297666D01*
X156828400Y-89197666D01*
X156861733Y-89064333D01*
X156895066Y-88997666D01*
X156961733Y-88931000D01*
X157061733Y-88897666D01*
X157128400Y-88897666D01*
X157228400Y-88931000D01*
X157261733Y-88964333D01*
X157661733Y-89197666D02*
X157595066Y-89164333D01*
X157561733Y-89131000D01*
X157528400Y-89064333D01*
X157528400Y-89031000D01*
X157561733Y-88964333D01*
X157595066Y-88931000D01*
X157661733Y-88897666D01*
X157795066Y-88897666D01*
X157861733Y-88931000D01*
X157895066Y-88964333D01*
X157928400Y-89031000D01*
X157928400Y-89064333D01*
X157895066Y-89131000D01*
X157861733Y-89164333D01*
X157795066Y-89197666D01*
X157661733Y-89197666D01*
X157595066Y-89231000D01*
X157561733Y-89264333D01*
X157528400Y-89331000D01*
X157528400Y-89464333D01*
X157561733Y-89531000D01*
X157595066Y-89564333D01*
X157661733Y-89597666D01*
X157795066Y-89597666D01*
X157861733Y-89564333D01*
X157895066Y-89531000D01*
X157928400Y-89464333D01*
X157928400Y-89331000D01*
X157895066Y-89264333D01*
X157861733Y-89231000D01*
X157795066Y-89197666D01*
%TO.C,R7*%
X149922666Y-95493666D02*
X149589333Y-95727000D01*
X149922666Y-95893666D02*
X149222666Y-95893666D01*
X149222666Y-95627000D01*
X149256000Y-95560333D01*
X149289333Y-95527000D01*
X149356000Y-95493666D01*
X149456000Y-95493666D01*
X149522666Y-95527000D01*
X149556000Y-95560333D01*
X149589333Y-95627000D01*
X149589333Y-95893666D01*
X149222666Y-95260333D02*
X149222666Y-94793666D01*
X149922666Y-95093666D01*
%TO.C,Y1*%
X140445333Y-86185333D02*
X140778666Y-86185333D01*
X140078666Y-86418666D02*
X140445333Y-86185333D01*
X140078666Y-85952000D01*
X140778666Y-85352000D02*
X140778666Y-85752000D01*
X140778666Y-85552000D02*
X140078666Y-85552000D01*
X140178666Y-85618666D01*
X140245333Y-85685333D01*
X140278666Y-85752000D01*
%TO.C,J1*%
D12*
X173106666Y-80352380D02*
X173106666Y-81066666D01*
X173059047Y-81209523D01*
X172963809Y-81304761D01*
X172820952Y-81352380D01*
X172725714Y-81352380D01*
X174106666Y-81352380D02*
X173535238Y-81352380D01*
X173820952Y-81352380D02*
X173820952Y-80352380D01*
X173725714Y-80495238D01*
X173630476Y-80590476D01*
X173535238Y-80638095D01*
%TO.C,U2*%
D11*
X160525666Y-77749333D02*
X161092333Y-77749333D01*
X161159000Y-77716000D01*
X161192333Y-77682666D01*
X161225666Y-77616000D01*
X161225666Y-77482666D01*
X161192333Y-77416000D01*
X161159000Y-77382666D01*
X161092333Y-77349333D01*
X160525666Y-77349333D01*
X160592333Y-77049333D02*
X160559000Y-77016000D01*
X160525666Y-76949333D01*
X160525666Y-76782666D01*
X160559000Y-76716000D01*
X160592333Y-76682666D01*
X160659000Y-76649333D01*
X160725666Y-76649333D01*
X160825666Y-76682666D01*
X161225666Y-77082666D01*
X161225666Y-76649333D01*
%TO.C,U1*%
X144272066Y-76502466D02*
X144272066Y-77069133D01*
X144305400Y-77135800D01*
X144338733Y-77169133D01*
X144405400Y-77202466D01*
X144538733Y-77202466D01*
X144605400Y-77169133D01*
X144638733Y-77135800D01*
X144672066Y-77069133D01*
X144672066Y-76502466D01*
X145372066Y-77202466D02*
X144972066Y-77202466D01*
X145172066Y-77202466D02*
X145172066Y-76502466D01*
X145105400Y-76602466D01*
X145038733Y-76669133D01*
X144972066Y-76702466D01*
%TO.C,SW2*%
X165944666Y-96233333D02*
X166044666Y-96266666D01*
X166211333Y-96266666D01*
X166278000Y-96233333D01*
X166311333Y-96200000D01*
X166344666Y-96133333D01*
X166344666Y-96066666D01*
X166311333Y-96000000D01*
X166278000Y-95966666D01*
X166211333Y-95933333D01*
X166078000Y-95900000D01*
X166011333Y-95866666D01*
X165978000Y-95833333D01*
X165944666Y-95766666D01*
X165944666Y-95700000D01*
X165978000Y-95633333D01*
X166011333Y-95600000D01*
X166078000Y-95566666D01*
X166244666Y-95566666D01*
X166344666Y-95600000D01*
X166578000Y-95566666D02*
X166744666Y-96266666D01*
X166878000Y-95766666D01*
X167011333Y-96266666D01*
X167178000Y-95566666D01*
X167411333Y-95633333D02*
X167444666Y-95600000D01*
X167511333Y-95566666D01*
X167678000Y-95566666D01*
X167744666Y-95600000D01*
X167778000Y-95633333D01*
X167811333Y-95700000D01*
X167811333Y-95766666D01*
X167778000Y-95866666D01*
X167378000Y-96266666D01*
X167811333Y-96266666D01*
%TO.C,R31*%
X135414600Y-100646666D02*
X135181266Y-100313333D01*
X135014600Y-100646666D02*
X135014600Y-99946666D01*
X135281266Y-99946666D01*
X135347933Y-99980000D01*
X135381266Y-100013333D01*
X135414600Y-100080000D01*
X135414600Y-100180000D01*
X135381266Y-100246666D01*
X135347933Y-100280000D01*
X135281266Y-100313333D01*
X135014600Y-100313333D01*
X135647933Y-99946666D02*
X136081266Y-99946666D01*
X135847933Y-100213333D01*
X135947933Y-100213333D01*
X136014600Y-100246666D01*
X136047933Y-100280000D01*
X136081266Y-100346666D01*
X136081266Y-100513333D01*
X136047933Y-100580000D01*
X136014600Y-100613333D01*
X135947933Y-100646666D01*
X135747933Y-100646666D01*
X135681266Y-100613333D01*
X135647933Y-100580000D01*
X136747933Y-100646666D02*
X136347933Y-100646666D01*
X136547933Y-100646666D02*
X136547933Y-99946666D01*
X136481266Y-100046666D01*
X136414600Y-100113333D01*
X136347933Y-100146666D01*
%TO.C,R30*%
X135389200Y-98106666D02*
X135155866Y-97773333D01*
X134989200Y-98106666D02*
X134989200Y-97406666D01*
X135255866Y-97406666D01*
X135322533Y-97440000D01*
X135355866Y-97473333D01*
X135389200Y-97540000D01*
X135389200Y-97640000D01*
X135355866Y-97706666D01*
X135322533Y-97740000D01*
X135255866Y-97773333D01*
X134989200Y-97773333D01*
X135622533Y-97406666D02*
X136055866Y-97406666D01*
X135822533Y-97673333D01*
X135922533Y-97673333D01*
X135989200Y-97706666D01*
X136022533Y-97740000D01*
X136055866Y-97806666D01*
X136055866Y-97973333D01*
X136022533Y-98040000D01*
X135989200Y-98073333D01*
X135922533Y-98106666D01*
X135722533Y-98106666D01*
X135655866Y-98073333D01*
X135622533Y-98040000D01*
X136489200Y-97406666D02*
X136555866Y-97406666D01*
X136622533Y-97440000D01*
X136655866Y-97473333D01*
X136689200Y-97540000D01*
X136722533Y-97673333D01*
X136722533Y-97840000D01*
X136689200Y-97973333D01*
X136655866Y-98040000D01*
X136622533Y-98073333D01*
X136555866Y-98106666D01*
X136489200Y-98106666D01*
X136422533Y-98073333D01*
X136389200Y-98040000D01*
X136355866Y-97973333D01*
X136322533Y-97840000D01*
X136322533Y-97673333D01*
X136355866Y-97540000D01*
X136389200Y-97473333D01*
X136422533Y-97440000D01*
X136489200Y-97406666D01*
%TO.C,R29*%
X135414600Y-95566666D02*
X135181266Y-95233333D01*
X135014600Y-95566666D02*
X135014600Y-94866666D01*
X135281266Y-94866666D01*
X135347933Y-94900000D01*
X135381266Y-94933333D01*
X135414600Y-95000000D01*
X135414600Y-95100000D01*
X135381266Y-95166666D01*
X135347933Y-95200000D01*
X135281266Y-95233333D01*
X135014600Y-95233333D01*
X135681266Y-94933333D02*
X135714600Y-94900000D01*
X135781266Y-94866666D01*
X135947933Y-94866666D01*
X136014600Y-94900000D01*
X136047933Y-94933333D01*
X136081266Y-95000000D01*
X136081266Y-95066666D01*
X136047933Y-95166666D01*
X135647933Y-95566666D01*
X136081266Y-95566666D01*
X136414600Y-95566666D02*
X136547933Y-95566666D01*
X136614600Y-95533333D01*
X136647933Y-95500000D01*
X136714600Y-95400000D01*
X136747933Y-95266666D01*
X136747933Y-95000000D01*
X136714600Y-94933333D01*
X136681266Y-94900000D01*
X136614600Y-94866666D01*
X136481266Y-94866666D01*
X136414600Y-94900000D01*
X136381266Y-94933333D01*
X136347933Y-95000000D01*
X136347933Y-95166666D01*
X136381266Y-95233333D01*
X136414600Y-95266666D01*
X136481266Y-95300000D01*
X136614600Y-95300000D01*
X136681266Y-95266666D01*
X136714600Y-95233333D01*
X136747933Y-95166666D01*
%TO.C,R28*%
X135389200Y-93026666D02*
X135155866Y-92693333D01*
X134989200Y-93026666D02*
X134989200Y-92326666D01*
X135255866Y-92326666D01*
X135322533Y-92360000D01*
X135355866Y-92393333D01*
X135389200Y-92460000D01*
X135389200Y-92560000D01*
X135355866Y-92626666D01*
X135322533Y-92660000D01*
X135255866Y-92693333D01*
X134989200Y-92693333D01*
X135655866Y-92393333D02*
X135689200Y-92360000D01*
X135755866Y-92326666D01*
X135922533Y-92326666D01*
X135989200Y-92360000D01*
X136022533Y-92393333D01*
X136055866Y-92460000D01*
X136055866Y-92526666D01*
X136022533Y-92626666D01*
X135622533Y-93026666D01*
X136055866Y-93026666D01*
X136455866Y-92626666D02*
X136389200Y-92593333D01*
X136355866Y-92560000D01*
X136322533Y-92493333D01*
X136322533Y-92460000D01*
X136355866Y-92393333D01*
X136389200Y-92360000D01*
X136455866Y-92326666D01*
X136589200Y-92326666D01*
X136655866Y-92360000D01*
X136689200Y-92393333D01*
X136722533Y-92460000D01*
X136722533Y-92493333D01*
X136689200Y-92560000D01*
X136655866Y-92593333D01*
X136589200Y-92626666D01*
X136455866Y-92626666D01*
X136389200Y-92660000D01*
X136355866Y-92693333D01*
X136322533Y-92760000D01*
X136322533Y-92893333D01*
X136355866Y-92960000D01*
X136389200Y-92993333D01*
X136455866Y-93026666D01*
X136589200Y-93026666D01*
X136655866Y-92993333D01*
X136689200Y-92960000D01*
X136722533Y-92893333D01*
X136722533Y-92760000D01*
X136689200Y-92693333D01*
X136655866Y-92660000D01*
X136589200Y-92626666D01*
%TO.C,R27*%
X135389200Y-90461266D02*
X135155866Y-90127933D01*
X134989200Y-90461266D02*
X134989200Y-89761266D01*
X135255866Y-89761266D01*
X135322533Y-89794600D01*
X135355866Y-89827933D01*
X135389200Y-89894600D01*
X135389200Y-89994600D01*
X135355866Y-90061266D01*
X135322533Y-90094600D01*
X135255866Y-90127933D01*
X134989200Y-90127933D01*
X135655866Y-89827933D02*
X135689200Y-89794600D01*
X135755866Y-89761266D01*
X135922533Y-89761266D01*
X135989200Y-89794600D01*
X136022533Y-89827933D01*
X136055866Y-89894600D01*
X136055866Y-89961266D01*
X136022533Y-90061266D01*
X135622533Y-90461266D01*
X136055866Y-90461266D01*
X136289200Y-89761266D02*
X136755866Y-89761266D01*
X136455866Y-90461266D01*
%TO.C,R26*%
X135414600Y-87921266D02*
X135181266Y-87587933D01*
X135014600Y-87921266D02*
X135014600Y-87221266D01*
X135281266Y-87221266D01*
X135347933Y-87254600D01*
X135381266Y-87287933D01*
X135414600Y-87354600D01*
X135414600Y-87454600D01*
X135381266Y-87521266D01*
X135347933Y-87554600D01*
X135281266Y-87587933D01*
X135014600Y-87587933D01*
X135681266Y-87287933D02*
X135714600Y-87254600D01*
X135781266Y-87221266D01*
X135947933Y-87221266D01*
X136014600Y-87254600D01*
X136047933Y-87287933D01*
X136081266Y-87354600D01*
X136081266Y-87421266D01*
X136047933Y-87521266D01*
X135647933Y-87921266D01*
X136081266Y-87921266D01*
X136681266Y-87221266D02*
X136547933Y-87221266D01*
X136481266Y-87254600D01*
X136447933Y-87287933D01*
X136381266Y-87387933D01*
X136347933Y-87521266D01*
X136347933Y-87787933D01*
X136381266Y-87854600D01*
X136414600Y-87887933D01*
X136481266Y-87921266D01*
X136614600Y-87921266D01*
X136681266Y-87887933D01*
X136714600Y-87854600D01*
X136747933Y-87787933D01*
X136747933Y-87621266D01*
X136714600Y-87554600D01*
X136681266Y-87521266D01*
X136614600Y-87487933D01*
X136481266Y-87487933D01*
X136414600Y-87521266D01*
X136381266Y-87554600D01*
X136347933Y-87621266D01*
%TO.C,R25*%
X135414600Y-85457466D02*
X135181266Y-85124133D01*
X135014600Y-85457466D02*
X135014600Y-84757466D01*
X135281266Y-84757466D01*
X135347933Y-84790800D01*
X135381266Y-84824133D01*
X135414600Y-84890800D01*
X135414600Y-84990800D01*
X135381266Y-85057466D01*
X135347933Y-85090800D01*
X135281266Y-85124133D01*
X135014600Y-85124133D01*
X135681266Y-84824133D02*
X135714600Y-84790800D01*
X135781266Y-84757466D01*
X135947933Y-84757466D01*
X136014600Y-84790800D01*
X136047933Y-84824133D01*
X136081266Y-84890800D01*
X136081266Y-84957466D01*
X136047933Y-85057466D01*
X135647933Y-85457466D01*
X136081266Y-85457466D01*
X136714600Y-84757466D02*
X136381266Y-84757466D01*
X136347933Y-85090800D01*
X136381266Y-85057466D01*
X136447933Y-85024133D01*
X136614600Y-85024133D01*
X136681266Y-85057466D01*
X136714600Y-85090800D01*
X136747933Y-85157466D01*
X136747933Y-85324133D01*
X136714600Y-85390800D01*
X136681266Y-85424133D01*
X136614600Y-85457466D01*
X136447933Y-85457466D01*
X136381266Y-85424133D01*
X136347933Y-85390800D01*
%TO.C,R24*%
X135389200Y-82866666D02*
X135155866Y-82533333D01*
X134989200Y-82866666D02*
X134989200Y-82166666D01*
X135255866Y-82166666D01*
X135322533Y-82200000D01*
X135355866Y-82233333D01*
X135389200Y-82300000D01*
X135389200Y-82400000D01*
X135355866Y-82466666D01*
X135322533Y-82500000D01*
X135255866Y-82533333D01*
X134989200Y-82533333D01*
X135655866Y-82233333D02*
X135689200Y-82200000D01*
X135755866Y-82166666D01*
X135922533Y-82166666D01*
X135989200Y-82200000D01*
X136022533Y-82233333D01*
X136055866Y-82300000D01*
X136055866Y-82366666D01*
X136022533Y-82466666D01*
X135622533Y-82866666D01*
X136055866Y-82866666D01*
X136655866Y-82400000D02*
X136655866Y-82866666D01*
X136489200Y-82133333D02*
X136322533Y-82633333D01*
X136755866Y-82633333D01*
%TO.C,R23*%
X136913200Y-80402866D02*
X136679866Y-80069533D01*
X136513200Y-80402866D02*
X136513200Y-79702866D01*
X136779866Y-79702866D01*
X136846533Y-79736200D01*
X136879866Y-79769533D01*
X136913200Y-79836200D01*
X136913200Y-79936200D01*
X136879866Y-80002866D01*
X136846533Y-80036200D01*
X136779866Y-80069533D01*
X136513200Y-80069533D01*
X137179866Y-79769533D02*
X137213200Y-79736200D01*
X137279866Y-79702866D01*
X137446533Y-79702866D01*
X137513200Y-79736200D01*
X137546533Y-79769533D01*
X137579866Y-79836200D01*
X137579866Y-79902866D01*
X137546533Y-80002866D01*
X137146533Y-80402866D01*
X137579866Y-80402866D01*
X137813200Y-79702866D02*
X138246533Y-79702866D01*
X138013200Y-79969533D01*
X138113200Y-79969533D01*
X138179866Y-80002866D01*
X138213200Y-80036200D01*
X138246533Y-80102866D01*
X138246533Y-80269533D01*
X138213200Y-80336200D01*
X138179866Y-80369533D01*
X138113200Y-80402866D01*
X137913200Y-80402866D01*
X137846533Y-80369533D01*
X137813200Y-80336200D01*
%TO.C,R20*%
X135414600Y-99376666D02*
X135181266Y-99043333D01*
X135014600Y-99376666D02*
X135014600Y-98676666D01*
X135281266Y-98676666D01*
X135347933Y-98710000D01*
X135381266Y-98743333D01*
X135414600Y-98810000D01*
X135414600Y-98910000D01*
X135381266Y-98976666D01*
X135347933Y-99010000D01*
X135281266Y-99043333D01*
X135014600Y-99043333D01*
X135681266Y-98743333D02*
X135714600Y-98710000D01*
X135781266Y-98676666D01*
X135947933Y-98676666D01*
X136014600Y-98710000D01*
X136047933Y-98743333D01*
X136081266Y-98810000D01*
X136081266Y-98876666D01*
X136047933Y-98976666D01*
X135647933Y-99376666D01*
X136081266Y-99376666D01*
X136514600Y-98676666D02*
X136581266Y-98676666D01*
X136647933Y-98710000D01*
X136681266Y-98743333D01*
X136714600Y-98810000D01*
X136747933Y-98943333D01*
X136747933Y-99110000D01*
X136714600Y-99243333D01*
X136681266Y-99310000D01*
X136647933Y-99343333D01*
X136581266Y-99376666D01*
X136514600Y-99376666D01*
X136447933Y-99343333D01*
X136414600Y-99310000D01*
X136381266Y-99243333D01*
X136347933Y-99110000D01*
X136347933Y-98943333D01*
X136381266Y-98810000D01*
X136414600Y-98743333D01*
X136447933Y-98710000D01*
X136514600Y-98676666D01*
%TO.C,R19*%
X135389200Y-96836666D02*
X135155866Y-96503333D01*
X134989200Y-96836666D02*
X134989200Y-96136666D01*
X135255866Y-96136666D01*
X135322533Y-96170000D01*
X135355866Y-96203333D01*
X135389200Y-96270000D01*
X135389200Y-96370000D01*
X135355866Y-96436666D01*
X135322533Y-96470000D01*
X135255866Y-96503333D01*
X134989200Y-96503333D01*
X136055866Y-96836666D02*
X135655866Y-96836666D01*
X135855866Y-96836666D02*
X135855866Y-96136666D01*
X135789200Y-96236666D01*
X135722533Y-96303333D01*
X135655866Y-96336666D01*
X136389200Y-96836666D02*
X136522533Y-96836666D01*
X136589200Y-96803333D01*
X136622533Y-96770000D01*
X136689200Y-96670000D01*
X136722533Y-96536666D01*
X136722533Y-96270000D01*
X136689200Y-96203333D01*
X136655866Y-96170000D01*
X136589200Y-96136666D01*
X136455866Y-96136666D01*
X136389200Y-96170000D01*
X136355866Y-96203333D01*
X136322533Y-96270000D01*
X136322533Y-96436666D01*
X136355866Y-96503333D01*
X136389200Y-96536666D01*
X136455866Y-96570000D01*
X136589200Y-96570000D01*
X136655866Y-96536666D01*
X136689200Y-96503333D01*
X136722533Y-96436666D01*
%TO.C,R18*%
X135389200Y-94322066D02*
X135155866Y-93988733D01*
X134989200Y-94322066D02*
X134989200Y-93622066D01*
X135255866Y-93622066D01*
X135322533Y-93655400D01*
X135355866Y-93688733D01*
X135389200Y-93755400D01*
X135389200Y-93855400D01*
X135355866Y-93922066D01*
X135322533Y-93955400D01*
X135255866Y-93988733D01*
X134989200Y-93988733D01*
X136055866Y-94322066D02*
X135655866Y-94322066D01*
X135855866Y-94322066D02*
X135855866Y-93622066D01*
X135789200Y-93722066D01*
X135722533Y-93788733D01*
X135655866Y-93822066D01*
X136455866Y-93922066D02*
X136389200Y-93888733D01*
X136355866Y-93855400D01*
X136322533Y-93788733D01*
X136322533Y-93755400D01*
X136355866Y-93688733D01*
X136389200Y-93655400D01*
X136455866Y-93622066D01*
X136589200Y-93622066D01*
X136655866Y-93655400D01*
X136689200Y-93688733D01*
X136722533Y-93755400D01*
X136722533Y-93788733D01*
X136689200Y-93855400D01*
X136655866Y-93888733D01*
X136589200Y-93922066D01*
X136455866Y-93922066D01*
X136389200Y-93955400D01*
X136355866Y-93988733D01*
X136322533Y-94055400D01*
X136322533Y-94188733D01*
X136355866Y-94255400D01*
X136389200Y-94288733D01*
X136455866Y-94322066D01*
X136589200Y-94322066D01*
X136655866Y-94288733D01*
X136689200Y-94255400D01*
X136722533Y-94188733D01*
X136722533Y-94055400D01*
X136689200Y-93988733D01*
X136655866Y-93955400D01*
X136589200Y-93922066D01*
%TO.C,R17*%
X135389200Y-91756666D02*
X135155866Y-91423333D01*
X134989200Y-91756666D02*
X134989200Y-91056666D01*
X135255866Y-91056666D01*
X135322533Y-91090000D01*
X135355866Y-91123333D01*
X135389200Y-91190000D01*
X135389200Y-91290000D01*
X135355866Y-91356666D01*
X135322533Y-91390000D01*
X135255866Y-91423333D01*
X134989200Y-91423333D01*
X136055866Y-91756666D02*
X135655866Y-91756666D01*
X135855866Y-91756666D02*
X135855866Y-91056666D01*
X135789200Y-91156666D01*
X135722533Y-91223333D01*
X135655866Y-91256666D01*
X136289200Y-91056666D02*
X136755866Y-91056666D01*
X136455866Y-91756666D01*
%TO.C,R16*%
X135389200Y-89242066D02*
X135155866Y-88908733D01*
X134989200Y-89242066D02*
X134989200Y-88542066D01*
X135255866Y-88542066D01*
X135322533Y-88575400D01*
X135355866Y-88608733D01*
X135389200Y-88675400D01*
X135389200Y-88775400D01*
X135355866Y-88842066D01*
X135322533Y-88875400D01*
X135255866Y-88908733D01*
X134989200Y-88908733D01*
X136055866Y-89242066D02*
X135655866Y-89242066D01*
X135855866Y-89242066D02*
X135855866Y-88542066D01*
X135789200Y-88642066D01*
X135722533Y-88708733D01*
X135655866Y-88742066D01*
X136655866Y-88542066D02*
X136522533Y-88542066D01*
X136455866Y-88575400D01*
X136422533Y-88608733D01*
X136355866Y-88708733D01*
X136322533Y-88842066D01*
X136322533Y-89108733D01*
X136355866Y-89175400D01*
X136389200Y-89208733D01*
X136455866Y-89242066D01*
X136589200Y-89242066D01*
X136655866Y-89208733D01*
X136689200Y-89175400D01*
X136722533Y-89108733D01*
X136722533Y-88942066D01*
X136689200Y-88875400D01*
X136655866Y-88842066D01*
X136589200Y-88808733D01*
X136455866Y-88808733D01*
X136389200Y-88842066D01*
X136355866Y-88875400D01*
X136322533Y-88942066D01*
%TO.C,R15*%
X135414600Y-86676666D02*
X135181266Y-86343333D01*
X135014600Y-86676666D02*
X135014600Y-85976666D01*
X135281266Y-85976666D01*
X135347933Y-86010000D01*
X135381266Y-86043333D01*
X135414600Y-86110000D01*
X135414600Y-86210000D01*
X135381266Y-86276666D01*
X135347933Y-86310000D01*
X135281266Y-86343333D01*
X135014600Y-86343333D01*
X136081266Y-86676666D02*
X135681266Y-86676666D01*
X135881266Y-86676666D02*
X135881266Y-85976666D01*
X135814600Y-86076666D01*
X135747933Y-86143333D01*
X135681266Y-86176666D01*
X136714600Y-85976666D02*
X136381266Y-85976666D01*
X136347933Y-86310000D01*
X136381266Y-86276666D01*
X136447933Y-86243333D01*
X136614600Y-86243333D01*
X136681266Y-86276666D01*
X136714600Y-86310000D01*
X136747933Y-86376666D01*
X136747933Y-86543333D01*
X136714600Y-86610000D01*
X136681266Y-86643333D01*
X136614600Y-86676666D01*
X136447933Y-86676666D01*
X136381266Y-86643333D01*
X136347933Y-86610000D01*
%TO.C,R14*%
X135389200Y-84162066D02*
X135155866Y-83828733D01*
X134989200Y-84162066D02*
X134989200Y-83462066D01*
X135255866Y-83462066D01*
X135322533Y-83495400D01*
X135355866Y-83528733D01*
X135389200Y-83595400D01*
X135389200Y-83695400D01*
X135355866Y-83762066D01*
X135322533Y-83795400D01*
X135255866Y-83828733D01*
X134989200Y-83828733D01*
X136055866Y-84162066D02*
X135655866Y-84162066D01*
X135855866Y-84162066D02*
X135855866Y-83462066D01*
X135789200Y-83562066D01*
X135722533Y-83628733D01*
X135655866Y-83662066D01*
X136655866Y-83695400D02*
X136655866Y-84162066D01*
X136489200Y-83428733D02*
X136322533Y-83928733D01*
X136755866Y-83928733D01*
%TO.C,R13*%
X135363800Y-81622066D02*
X135130466Y-81288733D01*
X134963800Y-81622066D02*
X134963800Y-80922066D01*
X135230466Y-80922066D01*
X135297133Y-80955400D01*
X135330466Y-80988733D01*
X135363800Y-81055400D01*
X135363800Y-81155400D01*
X135330466Y-81222066D01*
X135297133Y-81255400D01*
X135230466Y-81288733D01*
X134963800Y-81288733D01*
X136030466Y-81622066D02*
X135630466Y-81622066D01*
X135830466Y-81622066D02*
X135830466Y-80922066D01*
X135763800Y-81022066D01*
X135697133Y-81088733D01*
X135630466Y-81122066D01*
X136263800Y-80922066D02*
X136697133Y-80922066D01*
X136463800Y-81188733D01*
X136563800Y-81188733D01*
X136630466Y-81222066D01*
X136663800Y-81255400D01*
X136697133Y-81322066D01*
X136697133Y-81488733D01*
X136663800Y-81555400D01*
X136630466Y-81588733D01*
X136563800Y-81622066D01*
X136363800Y-81622066D01*
X136297133Y-81588733D01*
X136263800Y-81555400D01*
%TO.C,R12*%
X136913200Y-79107466D02*
X136679866Y-78774133D01*
X136513200Y-79107466D02*
X136513200Y-78407466D01*
X136779866Y-78407466D01*
X136846533Y-78440800D01*
X136879866Y-78474133D01*
X136913200Y-78540800D01*
X136913200Y-78640800D01*
X136879866Y-78707466D01*
X136846533Y-78740800D01*
X136779866Y-78774133D01*
X136513200Y-78774133D01*
X137579866Y-79107466D02*
X137179866Y-79107466D01*
X137379866Y-79107466D02*
X137379866Y-78407466D01*
X137313200Y-78507466D01*
X137246533Y-78574133D01*
X137179866Y-78607466D01*
X137846533Y-78474133D02*
X137879866Y-78440800D01*
X137946533Y-78407466D01*
X138113200Y-78407466D01*
X138179866Y-78440800D01*
X138213200Y-78474133D01*
X138246533Y-78540800D01*
X138246533Y-78607466D01*
X138213200Y-78707466D01*
X137813200Y-79107466D01*
X138246533Y-79107466D01*
%TO.C,R2*%
X143521866Y-79999666D02*
X143188533Y-80233000D01*
X143521866Y-80399666D02*
X142821866Y-80399666D01*
X142821866Y-80133000D01*
X142855200Y-80066333D01*
X142888533Y-80033000D01*
X142955200Y-79999666D01*
X143055200Y-79999666D01*
X143121866Y-80033000D01*
X143155200Y-80066333D01*
X143188533Y-80133000D01*
X143188533Y-80399666D01*
X142888533Y-79733000D02*
X142855200Y-79699666D01*
X142821866Y-79633000D01*
X142821866Y-79466333D01*
X142855200Y-79399666D01*
X142888533Y-79366333D01*
X142955200Y-79333000D01*
X143021866Y-79333000D01*
X143121866Y-79366333D01*
X143521866Y-79766333D01*
X143521866Y-79333000D01*
%TO.C,J3*%
X129230466Y-80922066D02*
X129230466Y-81422066D01*
X129197133Y-81522066D01*
X129130466Y-81588733D01*
X129030466Y-81622066D01*
X128963800Y-81622066D01*
X129497133Y-80922066D02*
X129930466Y-80922066D01*
X129697133Y-81188733D01*
X129797133Y-81188733D01*
X129863800Y-81222066D01*
X129897133Y-81255400D01*
X129930466Y-81322066D01*
X129930466Y-81488733D01*
X129897133Y-81555400D01*
X129863800Y-81588733D01*
X129797133Y-81622066D01*
X129597133Y-81622066D01*
X129530466Y-81588733D01*
X129497133Y-81555400D01*
%TO.C,C17*%
X135592400Y-77669200D02*
X135559066Y-77702533D01*
X135459066Y-77735866D01*
X135392400Y-77735866D01*
X135292400Y-77702533D01*
X135225733Y-77635866D01*
X135192400Y-77569200D01*
X135159066Y-77435866D01*
X135159066Y-77335866D01*
X135192400Y-77202533D01*
X135225733Y-77135866D01*
X135292400Y-77069200D01*
X135392400Y-77035866D01*
X135459066Y-77035866D01*
X135559066Y-77069200D01*
X135592400Y-77102533D01*
X136259066Y-77735866D02*
X135859066Y-77735866D01*
X136059066Y-77735866D02*
X136059066Y-77035866D01*
X135992400Y-77135866D01*
X135925733Y-77202533D01*
X135859066Y-77235866D01*
X136492400Y-77035866D02*
X136959066Y-77035866D01*
X136659066Y-77735866D01*
%TO.C,C3*%
X154047000Y-79999666D02*
X154080333Y-80033000D01*
X154113666Y-80133000D01*
X154113666Y-80199666D01*
X154080333Y-80299666D01*
X154013666Y-80366333D01*
X153947000Y-80399666D01*
X153813666Y-80433000D01*
X153713666Y-80433000D01*
X153580333Y-80399666D01*
X153513666Y-80366333D01*
X153447000Y-80299666D01*
X153413666Y-80199666D01*
X153413666Y-80133000D01*
X153447000Y-80033000D01*
X153480333Y-79999666D01*
X153413666Y-79766333D02*
X153413666Y-79333000D01*
X153680333Y-79566333D01*
X153680333Y-79466333D01*
X153713666Y-79399666D01*
X153747000Y-79366333D01*
X153813666Y-79333000D01*
X153980333Y-79333000D01*
X154047000Y-79366333D01*
X154080333Y-79399666D01*
X154113666Y-79466333D01*
X154113666Y-79666333D01*
X154080333Y-79733000D01*
X154047000Y-79766333D01*
%TO.C,R32*%
X137980000Y-82917466D02*
X137746666Y-82584133D01*
X137580000Y-82917466D02*
X137580000Y-82217466D01*
X137846666Y-82217466D01*
X137913333Y-82250800D01*
X137946666Y-82284133D01*
X137980000Y-82350800D01*
X137980000Y-82450800D01*
X137946666Y-82517466D01*
X137913333Y-82550800D01*
X137846666Y-82584133D01*
X137580000Y-82584133D01*
X138213333Y-82217466D02*
X138646666Y-82217466D01*
X138413333Y-82484133D01*
X138513333Y-82484133D01*
X138580000Y-82517466D01*
X138613333Y-82550800D01*
X138646666Y-82617466D01*
X138646666Y-82784133D01*
X138613333Y-82850800D01*
X138580000Y-82884133D01*
X138513333Y-82917466D01*
X138313333Y-82917466D01*
X138246666Y-82884133D01*
X138213333Y-82850800D01*
X138913333Y-82284133D02*
X138946666Y-82250800D01*
X139013333Y-82217466D01*
X139180000Y-82217466D01*
X139246666Y-82250800D01*
X139280000Y-82284133D01*
X139313333Y-82350800D01*
X139313333Y-82417466D01*
X139280000Y-82517466D01*
X138880000Y-82917466D01*
X139313333Y-82917466D01*
%TO.C,C10*%
X157284000Y-94484000D02*
X157250666Y-94517333D01*
X157150666Y-94550666D01*
X157084000Y-94550666D01*
X156984000Y-94517333D01*
X156917333Y-94450666D01*
X156884000Y-94384000D01*
X156850666Y-94250666D01*
X156850666Y-94150666D01*
X156884000Y-94017333D01*
X156917333Y-93950666D01*
X156984000Y-93884000D01*
X157084000Y-93850666D01*
X157150666Y-93850666D01*
X157250666Y-93884000D01*
X157284000Y-93917333D01*
X157950666Y-94550666D02*
X157550666Y-94550666D01*
X157750666Y-94550666D02*
X157750666Y-93850666D01*
X157684000Y-93950666D01*
X157617333Y-94017333D01*
X157550666Y-94050666D01*
X158384000Y-93850666D02*
X158450666Y-93850666D01*
X158517333Y-93884000D01*
X158550666Y-93917333D01*
X158584000Y-93984000D01*
X158617333Y-94117333D01*
X158617333Y-94284000D01*
X158584000Y-94417333D01*
X158550666Y-94484000D01*
X158517333Y-94517333D01*
X158450666Y-94550666D01*
X158384000Y-94550666D01*
X158317333Y-94517333D01*
X158284000Y-94484000D01*
X158250666Y-94417333D01*
X158217333Y-94284000D01*
X158217333Y-94117333D01*
X158250666Y-93984000D01*
X158284000Y-93917333D01*
X158317333Y-93884000D01*
X158384000Y-93850666D01*
%TO.C,C9*%
X157287133Y-92706000D02*
X157253800Y-92739333D01*
X157153800Y-92772666D01*
X157087133Y-92772666D01*
X156987133Y-92739333D01*
X156920466Y-92672666D01*
X156887133Y-92606000D01*
X156853800Y-92472666D01*
X156853800Y-92372666D01*
X156887133Y-92239333D01*
X156920466Y-92172666D01*
X156987133Y-92106000D01*
X157087133Y-92072666D01*
X157153800Y-92072666D01*
X157253800Y-92106000D01*
X157287133Y-92139333D01*
X157620466Y-92772666D02*
X157753800Y-92772666D01*
X157820466Y-92739333D01*
X157853800Y-92706000D01*
X157920466Y-92606000D01*
X157953800Y-92472666D01*
X157953800Y-92206000D01*
X157920466Y-92139333D01*
X157887133Y-92106000D01*
X157820466Y-92072666D01*
X157687133Y-92072666D01*
X157620466Y-92106000D01*
X157587133Y-92139333D01*
X157553800Y-92206000D01*
X157553800Y-92372666D01*
X157587133Y-92439333D01*
X157620466Y-92472666D01*
X157687133Y-92506000D01*
X157820466Y-92506000D01*
X157887133Y-92472666D01*
X157920466Y-92439333D01*
X157953800Y-92372666D01*
%TO.C,C4*%
X162302000Y-85206666D02*
X162335333Y-85240000D01*
X162368666Y-85340000D01*
X162368666Y-85406666D01*
X162335333Y-85506666D01*
X162268666Y-85573333D01*
X162202000Y-85606666D01*
X162068666Y-85640000D01*
X161968666Y-85640000D01*
X161835333Y-85606666D01*
X161768666Y-85573333D01*
X161702000Y-85506666D01*
X161668666Y-85406666D01*
X161668666Y-85340000D01*
X161702000Y-85240000D01*
X161735333Y-85206666D01*
X161902000Y-84606666D02*
X162368666Y-84606666D01*
X161635333Y-84773333D02*
X162135333Y-84940000D01*
X162135333Y-84506666D01*
%TO.C,C2*%
X141793133Y-92528200D02*
X141759800Y-92561533D01*
X141659800Y-92594866D01*
X141593133Y-92594866D01*
X141493133Y-92561533D01*
X141426466Y-92494866D01*
X141393133Y-92428200D01*
X141359800Y-92294866D01*
X141359800Y-92194866D01*
X141393133Y-92061533D01*
X141426466Y-91994866D01*
X141493133Y-91928200D01*
X141593133Y-91894866D01*
X141659800Y-91894866D01*
X141759800Y-91928200D01*
X141793133Y-91961533D01*
X142059800Y-91961533D02*
X142093133Y-91928200D01*
X142159800Y-91894866D01*
X142326466Y-91894866D01*
X142393133Y-91928200D01*
X142426466Y-91961533D01*
X142459800Y-92028200D01*
X142459800Y-92094866D01*
X142426466Y-92194866D01*
X142026466Y-92594866D01*
X142459800Y-92594866D01*
%TO.C,C1*%
X138426000Y-87949866D02*
X138459333Y-87983200D01*
X138492666Y-88083200D01*
X138492666Y-88149866D01*
X138459333Y-88249866D01*
X138392666Y-88316533D01*
X138326000Y-88349866D01*
X138192666Y-88383200D01*
X138092666Y-88383200D01*
X137959333Y-88349866D01*
X137892666Y-88316533D01*
X137826000Y-88249866D01*
X137792666Y-88149866D01*
X137792666Y-88083200D01*
X137826000Y-87983200D01*
X137859333Y-87949866D01*
X138492666Y-87283200D02*
X138492666Y-87683200D01*
X138492666Y-87483200D02*
X137792666Y-87483200D01*
X137892666Y-87549866D01*
X137959333Y-87616533D01*
X137992666Y-87683200D01*
%TO.C,R11*%
X137954600Y-81596666D02*
X137721266Y-81263333D01*
X137554600Y-81596666D02*
X137554600Y-80896666D01*
X137821266Y-80896666D01*
X137887933Y-80930000D01*
X137921266Y-80963333D01*
X137954600Y-81030000D01*
X137954600Y-81130000D01*
X137921266Y-81196666D01*
X137887933Y-81230000D01*
X137821266Y-81263333D01*
X137554600Y-81263333D01*
X138621266Y-81596666D02*
X138221266Y-81596666D01*
X138421266Y-81596666D02*
X138421266Y-80896666D01*
X138354600Y-80996666D01*
X138287933Y-81063333D01*
X138221266Y-81096666D01*
X139287933Y-81596666D02*
X138887933Y-81596666D01*
X139087933Y-81596666D02*
X139087933Y-80896666D01*
X139021266Y-80996666D01*
X138954600Y-81063333D01*
X138887933Y-81096666D01*
%TO.C,R22*%
X140346866Y-82619000D02*
X140013533Y-82852333D01*
X140346866Y-83019000D02*
X139646866Y-83019000D01*
X139646866Y-82752333D01*
X139680200Y-82685666D01*
X139713533Y-82652333D01*
X139780200Y-82619000D01*
X139880200Y-82619000D01*
X139946866Y-82652333D01*
X139980200Y-82685666D01*
X140013533Y-82752333D01*
X140013533Y-83019000D01*
X139713533Y-82352333D02*
X139680200Y-82319000D01*
X139646866Y-82252333D01*
X139646866Y-82085666D01*
X139680200Y-82019000D01*
X139713533Y-81985666D01*
X139780200Y-81952333D01*
X139846866Y-81952333D01*
X139946866Y-81985666D01*
X140346866Y-82385666D01*
X140346866Y-81952333D01*
X139713533Y-81685666D02*
X139680200Y-81652333D01*
X139646866Y-81585666D01*
X139646866Y-81419000D01*
X139680200Y-81352333D01*
X139713533Y-81319000D01*
X139780200Y-81285666D01*
X139846866Y-81285666D01*
X139946866Y-81319000D01*
X140346866Y-81719000D01*
X140346866Y-81285666D01*
%TO.C,R21*%
X141997866Y-82619000D02*
X141664533Y-82852333D01*
X141997866Y-83019000D02*
X141297866Y-83019000D01*
X141297866Y-82752333D01*
X141331200Y-82685666D01*
X141364533Y-82652333D01*
X141431200Y-82619000D01*
X141531200Y-82619000D01*
X141597866Y-82652333D01*
X141631200Y-82685666D01*
X141664533Y-82752333D01*
X141664533Y-83019000D01*
X141364533Y-82352333D02*
X141331200Y-82319000D01*
X141297866Y-82252333D01*
X141297866Y-82085666D01*
X141331200Y-82019000D01*
X141364533Y-81985666D01*
X141431200Y-81952333D01*
X141497866Y-81952333D01*
X141597866Y-81985666D01*
X141997866Y-82385666D01*
X141997866Y-81952333D01*
X141997866Y-81285666D02*
X141997866Y-81685666D01*
X141997866Y-81485666D02*
X141297866Y-81485666D01*
X141397866Y-81552333D01*
X141464533Y-81619000D01*
X141497866Y-81685666D01*
%TO.C,R9*%
X143725066Y-100065666D02*
X143391733Y-100299000D01*
X143725066Y-100465666D02*
X143025066Y-100465666D01*
X143025066Y-100199000D01*
X143058400Y-100132333D01*
X143091733Y-100099000D01*
X143158400Y-100065666D01*
X143258400Y-100065666D01*
X143325066Y-100099000D01*
X143358400Y-100132333D01*
X143391733Y-100199000D01*
X143391733Y-100465666D01*
X143725066Y-99732333D02*
X143725066Y-99599000D01*
X143691733Y-99532333D01*
X143658400Y-99499000D01*
X143558400Y-99432333D01*
X143425066Y-99399000D01*
X143158400Y-99399000D01*
X143091733Y-99432333D01*
X143058400Y-99465666D01*
X143025066Y-99532333D01*
X143025066Y-99665666D01*
X143058400Y-99732333D01*
X143091733Y-99765666D01*
X143158400Y-99799000D01*
X143325066Y-99799000D01*
X143391733Y-99765666D01*
X143425066Y-99732333D01*
X143458400Y-99665666D01*
X143458400Y-99532333D01*
X143425066Y-99465666D01*
X143391733Y-99432333D01*
X143325066Y-99399000D01*
%TO.C,R8*%
X152335666Y-95493666D02*
X152002333Y-95727000D01*
X152335666Y-95893666D02*
X151635666Y-95893666D01*
X151635666Y-95627000D01*
X151669000Y-95560333D01*
X151702333Y-95527000D01*
X151769000Y-95493666D01*
X151869000Y-95493666D01*
X151935666Y-95527000D01*
X151969000Y-95560333D01*
X152002333Y-95627000D01*
X152002333Y-95893666D01*
X151935666Y-95093666D02*
X151902333Y-95160333D01*
X151869000Y-95193666D01*
X151802333Y-95227000D01*
X151769000Y-95227000D01*
X151702333Y-95193666D01*
X151669000Y-95160333D01*
X151635666Y-95093666D01*
X151635666Y-94960333D01*
X151669000Y-94893666D01*
X151702333Y-94860333D01*
X151769000Y-94827000D01*
X151802333Y-94827000D01*
X151869000Y-94860333D01*
X151902333Y-94893666D01*
X151935666Y-94960333D01*
X151935666Y-95093666D01*
X151969000Y-95160333D01*
X152002333Y-95193666D01*
X152069000Y-95227000D01*
X152202333Y-95227000D01*
X152269000Y-95193666D01*
X152302333Y-95160333D01*
X152335666Y-95093666D01*
X152335666Y-94960333D01*
X152302333Y-94893666D01*
X152269000Y-94860333D01*
X152202333Y-94827000D01*
X152069000Y-94827000D01*
X152002333Y-94860333D01*
X151969000Y-94893666D01*
X151935666Y-94960333D01*
%TO.C,R5*%
X157287133Y-91121666D02*
X157053800Y-90788333D01*
X156887133Y-91121666D02*
X156887133Y-90421666D01*
X157153800Y-90421666D01*
X157220466Y-90455000D01*
X157253800Y-90488333D01*
X157287133Y-90555000D01*
X157287133Y-90655000D01*
X157253800Y-90721666D01*
X157220466Y-90755000D01*
X157153800Y-90788333D01*
X156887133Y-90788333D01*
X157920466Y-90421666D02*
X157587133Y-90421666D01*
X157553800Y-90755000D01*
X157587133Y-90721666D01*
X157653800Y-90688333D01*
X157820466Y-90688333D01*
X157887133Y-90721666D01*
X157920466Y-90755000D01*
X157953800Y-90821666D01*
X157953800Y-90988333D01*
X157920466Y-91055000D01*
X157887133Y-91088333D01*
X157820466Y-91121666D01*
X157653800Y-91121666D01*
X157587133Y-91088333D01*
X157553800Y-91055000D01*
%TO.C,R4*%
X144144733Y-88632466D02*
X143911400Y-88299133D01*
X143744733Y-88632466D02*
X143744733Y-87932466D01*
X144011400Y-87932466D01*
X144078066Y-87965800D01*
X144111400Y-87999133D01*
X144144733Y-88065800D01*
X144144733Y-88165800D01*
X144111400Y-88232466D01*
X144078066Y-88265800D01*
X144011400Y-88299133D01*
X143744733Y-88299133D01*
X144744733Y-88165800D02*
X144744733Y-88632466D01*
X144578066Y-87899133D02*
X144411400Y-88399133D01*
X144844733Y-88399133D01*
%TO.C,R3*%
X163586333Y-82866666D02*
X163353000Y-82533333D01*
X163186333Y-82866666D02*
X163186333Y-82166666D01*
X163453000Y-82166666D01*
X163519666Y-82200000D01*
X163553000Y-82233333D01*
X163586333Y-82300000D01*
X163586333Y-82400000D01*
X163553000Y-82466666D01*
X163519666Y-82500000D01*
X163453000Y-82533333D01*
X163186333Y-82533333D01*
X163819666Y-82166666D02*
X164253000Y-82166666D01*
X164019666Y-82433333D01*
X164119666Y-82433333D01*
X164186333Y-82466666D01*
X164219666Y-82500000D01*
X164253000Y-82566666D01*
X164253000Y-82733333D01*
X164219666Y-82800000D01*
X164186333Y-82833333D01*
X164119666Y-82866666D01*
X163919666Y-82866666D01*
X163853000Y-82833333D01*
X163819666Y-82800000D01*
%TO.C,R1*%
X163586333Y-81977666D02*
X163353000Y-81644333D01*
X163186333Y-81977666D02*
X163186333Y-81277666D01*
X163453000Y-81277666D01*
X163519666Y-81311000D01*
X163553000Y-81344333D01*
X163586333Y-81411000D01*
X163586333Y-81511000D01*
X163553000Y-81577666D01*
X163519666Y-81611000D01*
X163453000Y-81644333D01*
X163186333Y-81644333D01*
X164253000Y-81977666D02*
X163853000Y-81977666D01*
X164053000Y-81977666D02*
X164053000Y-81277666D01*
X163986333Y-81377666D01*
X163919666Y-81444333D01*
X163853000Y-81477666D01*
%TO.C,C18*%
X157284000Y-93595000D02*
X157250666Y-93628333D01*
X157150666Y-93661666D01*
X157084000Y-93661666D01*
X156984000Y-93628333D01*
X156917333Y-93561666D01*
X156884000Y-93495000D01*
X156850666Y-93361666D01*
X156850666Y-93261666D01*
X156884000Y-93128333D01*
X156917333Y-93061666D01*
X156984000Y-92995000D01*
X157084000Y-92961666D01*
X157150666Y-92961666D01*
X157250666Y-92995000D01*
X157284000Y-93028333D01*
X157950666Y-93661666D02*
X157550666Y-93661666D01*
X157750666Y-93661666D02*
X157750666Y-92961666D01*
X157684000Y-93061666D01*
X157617333Y-93128333D01*
X157550666Y-93161666D01*
X158350666Y-93261666D02*
X158284000Y-93228333D01*
X158250666Y-93195000D01*
X158217333Y-93128333D01*
X158217333Y-93095000D01*
X158250666Y-93028333D01*
X158284000Y-92995000D01*
X158350666Y-92961666D01*
X158484000Y-92961666D01*
X158550666Y-92995000D01*
X158584000Y-93028333D01*
X158617333Y-93095000D01*
X158617333Y-93128333D01*
X158584000Y-93195000D01*
X158550666Y-93228333D01*
X158484000Y-93261666D01*
X158350666Y-93261666D01*
X158284000Y-93295000D01*
X158250666Y-93328333D01*
X158217333Y-93395000D01*
X158217333Y-93528333D01*
X158250666Y-93595000D01*
X158284000Y-93628333D01*
X158350666Y-93661666D01*
X158484000Y-93661666D01*
X158550666Y-93628333D01*
X158584000Y-93595000D01*
X158617333Y-93528333D01*
X158617333Y-93395000D01*
X158584000Y-93328333D01*
X158550666Y-93295000D01*
X158484000Y-93261666D01*
%TO.C,C16*%
X157258600Y-90293000D02*
X157225266Y-90326333D01*
X157125266Y-90359666D01*
X157058600Y-90359666D01*
X156958600Y-90326333D01*
X156891933Y-90259666D01*
X156858600Y-90193000D01*
X156825266Y-90059666D01*
X156825266Y-89959666D01*
X156858600Y-89826333D01*
X156891933Y-89759666D01*
X156958600Y-89693000D01*
X157058600Y-89659666D01*
X157125266Y-89659666D01*
X157225266Y-89693000D01*
X157258600Y-89726333D01*
X157925266Y-90359666D02*
X157525266Y-90359666D01*
X157725266Y-90359666D02*
X157725266Y-89659666D01*
X157658600Y-89759666D01*
X157591933Y-89826333D01*
X157525266Y-89859666D01*
X158525266Y-89659666D02*
X158391933Y-89659666D01*
X158325266Y-89693000D01*
X158291933Y-89726333D01*
X158225266Y-89826333D01*
X158191933Y-89959666D01*
X158191933Y-90226333D01*
X158225266Y-90293000D01*
X158258600Y-90326333D01*
X158325266Y-90359666D01*
X158458600Y-90359666D01*
X158525266Y-90326333D01*
X158558600Y-90293000D01*
X158591933Y-90226333D01*
X158591933Y-90059666D01*
X158558600Y-89993000D01*
X158525266Y-89959666D01*
X158458600Y-89926333D01*
X158325266Y-89926333D01*
X158258600Y-89959666D01*
X158225266Y-89993000D01*
X158191933Y-90059666D01*
%TO.C,C15*%
X154716000Y-95827000D02*
X154749333Y-95860333D01*
X154782666Y-95960333D01*
X154782666Y-96027000D01*
X154749333Y-96127000D01*
X154682666Y-96193666D01*
X154616000Y-96227000D01*
X154482666Y-96260333D01*
X154382666Y-96260333D01*
X154249333Y-96227000D01*
X154182666Y-96193666D01*
X154116000Y-96127000D01*
X154082666Y-96027000D01*
X154082666Y-95960333D01*
X154116000Y-95860333D01*
X154149333Y-95827000D01*
X154782666Y-95160333D02*
X154782666Y-95560333D01*
X154782666Y-95360333D02*
X154082666Y-95360333D01*
X154182666Y-95427000D01*
X154249333Y-95493666D01*
X154282666Y-95560333D01*
X154082666Y-94527000D02*
X154082666Y-94860333D01*
X154416000Y-94893666D01*
X154382666Y-94860333D01*
X154349333Y-94793666D01*
X154349333Y-94627000D01*
X154382666Y-94560333D01*
X154416000Y-94527000D01*
X154482666Y-94493666D01*
X154649333Y-94493666D01*
X154716000Y-94527000D01*
X154749333Y-94560333D01*
X154782666Y-94627000D01*
X154782666Y-94793666D01*
X154749333Y-94860333D01*
X154716000Y-94893666D01*
%TO.C,C14*%
X147759000Y-95843400D02*
X147792333Y-95876733D01*
X147825666Y-95976733D01*
X147825666Y-96043400D01*
X147792333Y-96143400D01*
X147725666Y-96210066D01*
X147659000Y-96243400D01*
X147525666Y-96276733D01*
X147425666Y-96276733D01*
X147292333Y-96243400D01*
X147225666Y-96210066D01*
X147159000Y-96143400D01*
X147125666Y-96043400D01*
X147125666Y-95976733D01*
X147159000Y-95876733D01*
X147192333Y-95843400D01*
X147825666Y-95176733D02*
X147825666Y-95576733D01*
X147825666Y-95376733D02*
X147125666Y-95376733D01*
X147225666Y-95443400D01*
X147292333Y-95510066D01*
X147325666Y-95576733D01*
X147359000Y-94576733D02*
X147825666Y-94576733D01*
X147092333Y-94743400D02*
X147592333Y-94910066D01*
X147592333Y-94476733D01*
%TO.C,C13*%
X143949000Y-91944000D02*
X143915666Y-91977333D01*
X143815666Y-92010666D01*
X143749000Y-92010666D01*
X143649000Y-91977333D01*
X143582333Y-91910666D01*
X143549000Y-91844000D01*
X143515666Y-91710666D01*
X143515666Y-91610666D01*
X143549000Y-91477333D01*
X143582333Y-91410666D01*
X143649000Y-91344000D01*
X143749000Y-91310666D01*
X143815666Y-91310666D01*
X143915666Y-91344000D01*
X143949000Y-91377333D01*
X144615666Y-92010666D02*
X144215666Y-92010666D01*
X144415666Y-92010666D02*
X144415666Y-91310666D01*
X144349000Y-91410666D01*
X144282333Y-91477333D01*
X144215666Y-91510666D01*
X144849000Y-91310666D02*
X145282333Y-91310666D01*
X145049000Y-91577333D01*
X145149000Y-91577333D01*
X145215666Y-91610666D01*
X145249000Y-91644000D01*
X145282333Y-91710666D01*
X145282333Y-91877333D01*
X145249000Y-91944000D01*
X145215666Y-91977333D01*
X145149000Y-92010666D01*
X144949000Y-92010666D01*
X144882333Y-91977333D01*
X144849000Y-91944000D01*
%TO.C,C12*%
X147697000Y-84793200D02*
X147730333Y-84826533D01*
X147763666Y-84926533D01*
X147763666Y-84993200D01*
X147730333Y-85093200D01*
X147663666Y-85159866D01*
X147597000Y-85193200D01*
X147463666Y-85226533D01*
X147363666Y-85226533D01*
X147230333Y-85193200D01*
X147163666Y-85159866D01*
X147097000Y-85093200D01*
X147063666Y-84993200D01*
X147063666Y-84926533D01*
X147097000Y-84826533D01*
X147130333Y-84793200D01*
X147763666Y-84126533D02*
X147763666Y-84526533D01*
X147763666Y-84326533D02*
X147063666Y-84326533D01*
X147163666Y-84393200D01*
X147230333Y-84459866D01*
X147263666Y-84526533D01*
X147130333Y-83859866D02*
X147097000Y-83826533D01*
X147063666Y-83759866D01*
X147063666Y-83593200D01*
X147097000Y-83526533D01*
X147130333Y-83493200D01*
X147197000Y-83459866D01*
X147263666Y-83459866D01*
X147363666Y-83493200D01*
X147763666Y-83893200D01*
X147763666Y-83459866D01*
%TO.C,C11*%
X152269000Y-84920200D02*
X152302333Y-84953533D01*
X152335666Y-85053533D01*
X152335666Y-85120200D01*
X152302333Y-85220200D01*
X152235666Y-85286866D01*
X152169000Y-85320200D01*
X152035666Y-85353533D01*
X151935666Y-85353533D01*
X151802333Y-85320200D01*
X151735666Y-85286866D01*
X151669000Y-85220200D01*
X151635666Y-85120200D01*
X151635666Y-85053533D01*
X151669000Y-84953533D01*
X151702333Y-84920200D01*
X152335666Y-84253533D02*
X152335666Y-84653533D01*
X152335666Y-84453533D02*
X151635666Y-84453533D01*
X151735666Y-84520200D01*
X151802333Y-84586866D01*
X151835666Y-84653533D01*
X152335666Y-83586866D02*
X152335666Y-83986866D01*
X152335666Y-83786866D02*
X151635666Y-83786866D01*
X151735666Y-83853533D01*
X151802333Y-83920200D01*
X151835666Y-83986866D01*
%TO.C,C7*%
X144155333Y-92934600D02*
X144122000Y-92967933D01*
X144022000Y-93001266D01*
X143955333Y-93001266D01*
X143855333Y-92967933D01*
X143788666Y-92901266D01*
X143755333Y-92834600D01*
X143722000Y-92701266D01*
X143722000Y-92601266D01*
X143755333Y-92467933D01*
X143788666Y-92401266D01*
X143855333Y-92334600D01*
X143955333Y-92301266D01*
X144022000Y-92301266D01*
X144122000Y-92334600D01*
X144155333Y-92367933D01*
X144388666Y-92301266D02*
X144855333Y-92301266D01*
X144555333Y-93001266D01*
%TO.C,U4*%
X154152666Y-86230666D02*
X154152666Y-86797333D01*
X154186000Y-86864000D01*
X154219333Y-86897333D01*
X154286000Y-86930666D01*
X154419333Y-86930666D01*
X154486000Y-86897333D01*
X154519333Y-86864000D01*
X154552666Y-86797333D01*
X154552666Y-86230666D01*
X155186000Y-86464000D02*
X155186000Y-86930666D01*
X155019333Y-86197333D02*
X154852666Y-86697333D01*
X155286000Y-86697333D01*
%TO.C,U3*%
X159486666Y-92961666D02*
X159486666Y-93528333D01*
X159520000Y-93595000D01*
X159553333Y-93628333D01*
X159620000Y-93661666D01*
X159753333Y-93661666D01*
X159820000Y-93628333D01*
X159853333Y-93595000D01*
X159886666Y-93528333D01*
X159886666Y-92961666D01*
X160153333Y-92961666D02*
X160586666Y-92961666D01*
X160353333Y-93228333D01*
X160453333Y-93228333D01*
X160520000Y-93261666D01*
X160553333Y-93295000D01*
X160586666Y-93361666D01*
X160586666Y-93528333D01*
X160553333Y-93595000D01*
X160520000Y-93628333D01*
X160453333Y-93661666D01*
X160253333Y-93661666D01*
X160186666Y-93628333D01*
X160153333Y-93595000D01*
%TO.C,SW1*%
X165970066Y-82096733D02*
X166070066Y-82130066D01*
X166236733Y-82130066D01*
X166303400Y-82096733D01*
X166336733Y-82063400D01*
X166370066Y-81996733D01*
X166370066Y-81930066D01*
X166336733Y-81863400D01*
X166303400Y-81830066D01*
X166236733Y-81796733D01*
X166103400Y-81763400D01*
X166036733Y-81730066D01*
X166003400Y-81696733D01*
X165970066Y-81630066D01*
X165970066Y-81563400D01*
X166003400Y-81496733D01*
X166036733Y-81463400D01*
X166103400Y-81430066D01*
X166270066Y-81430066D01*
X166370066Y-81463400D01*
X166603400Y-81430066D02*
X166770066Y-82130066D01*
X166903400Y-81630066D01*
X167036733Y-82130066D01*
X167203400Y-81430066D01*
X167836733Y-82130066D02*
X167436733Y-82130066D01*
X167636733Y-82130066D02*
X167636733Y-81430066D01*
X167570066Y-81530066D01*
X167503400Y-81596733D01*
X167436733Y-81630066D01*
%TO.C,Q1*%
X138000533Y-99380666D02*
X137967200Y-99447333D01*
X137900533Y-99514000D01*
X137800533Y-99614000D01*
X137767200Y-99680666D01*
X137767200Y-99747333D01*
X137933866Y-99714000D02*
X137900533Y-99780666D01*
X137833866Y-99847333D01*
X137700533Y-99880666D01*
X137467200Y-99880666D01*
X137333866Y-99847333D01*
X137267200Y-99780666D01*
X137233866Y-99714000D01*
X137233866Y-99580666D01*
X137267200Y-99514000D01*
X137333866Y-99447333D01*
X137467200Y-99414000D01*
X137700533Y-99414000D01*
X137833866Y-99447333D01*
X137900533Y-99514000D01*
X137933866Y-99580666D01*
X137933866Y-99714000D01*
X137933866Y-98747333D02*
X137933866Y-99147333D01*
X137933866Y-98947333D02*
X137233866Y-98947333D01*
X137333866Y-99014000D01*
X137400533Y-99080666D01*
X137433866Y-99147333D01*
%TO.C,J2*%
X145943666Y-97025666D02*
X145943666Y-97525666D01*
X145910333Y-97625666D01*
X145843666Y-97692333D01*
X145743666Y-97725666D01*
X145677000Y-97725666D01*
X146243666Y-97092333D02*
X146277000Y-97059000D01*
X146343666Y-97025666D01*
X146510333Y-97025666D01*
X146577000Y-97059000D01*
X146610333Y-97092333D01*
X146643666Y-97159000D01*
X146643666Y-97225666D01*
X146610333Y-97325666D01*
X146210333Y-97725666D01*
X146643666Y-97725666D01*
%TO.C,D2*%
X139026066Y-77554866D02*
X138326066Y-77554866D01*
X138326066Y-77388200D01*
X138359400Y-77288200D01*
X138426066Y-77221533D01*
X138492733Y-77188200D01*
X138626066Y-77154866D01*
X138726066Y-77154866D01*
X138859400Y-77188200D01*
X138926066Y-77221533D01*
X138992733Y-77288200D01*
X139026066Y-77388200D01*
X139026066Y-77554866D01*
X138392733Y-76888200D02*
X138359400Y-76854866D01*
X138326066Y-76788200D01*
X138326066Y-76621533D01*
X138359400Y-76554866D01*
X138392733Y-76521533D01*
X138459400Y-76488200D01*
X138526066Y-76488200D01*
X138626066Y-76521533D01*
X139026066Y-76921533D01*
X139026066Y-76488200D01*
%TO.C,D1*%
X143471066Y-77453266D02*
X142771066Y-77453266D01*
X142771066Y-77286600D01*
X142804400Y-77186600D01*
X142871066Y-77119933D01*
X142937733Y-77086600D01*
X143071066Y-77053266D01*
X143171066Y-77053266D01*
X143304400Y-77086600D01*
X143371066Y-77119933D01*
X143437733Y-77186600D01*
X143471066Y-77286600D01*
X143471066Y-77453266D01*
X143471066Y-76386600D02*
X143471066Y-76786600D01*
X143471066Y-76586600D02*
X142771066Y-76586600D01*
X142871066Y-76653266D01*
X142937733Y-76719933D01*
X142971066Y-76786600D01*
%TO.C,C6*%
X158430733Y-95423800D02*
X158397400Y-95457133D01*
X158297400Y-95490466D01*
X158230733Y-95490466D01*
X158130733Y-95457133D01*
X158064066Y-95390466D01*
X158030733Y-95323800D01*
X157997400Y-95190466D01*
X157997400Y-95090466D01*
X158030733Y-94957133D01*
X158064066Y-94890466D01*
X158130733Y-94823800D01*
X158230733Y-94790466D01*
X158297400Y-94790466D01*
X158397400Y-94823800D01*
X158430733Y-94857133D01*
X159030733Y-94790466D02*
X158897400Y-94790466D01*
X158830733Y-94823800D01*
X158797400Y-94857133D01*
X158730733Y-94957133D01*
X158697400Y-95090466D01*
X158697400Y-95357133D01*
X158730733Y-95423800D01*
X158764066Y-95457133D01*
X158830733Y-95490466D01*
X158964066Y-95490466D01*
X159030733Y-95457133D01*
X159064066Y-95423800D01*
X159097400Y-95357133D01*
X159097400Y-95190466D01*
X159064066Y-95123800D01*
X159030733Y-95090466D01*
X158964066Y-95057133D01*
X158830733Y-95057133D01*
X158764066Y-95090466D01*
X158730733Y-95123800D01*
X158697400Y-95190466D01*
%TO.C,C5*%
X165491333Y-84603400D02*
X165458000Y-84636733D01*
X165358000Y-84670066D01*
X165291333Y-84670066D01*
X165191333Y-84636733D01*
X165124666Y-84570066D01*
X165091333Y-84503400D01*
X165058000Y-84370066D01*
X165058000Y-84270066D01*
X165091333Y-84136733D01*
X165124666Y-84070066D01*
X165191333Y-84003400D01*
X165291333Y-83970066D01*
X165358000Y-83970066D01*
X165458000Y-84003400D01*
X165491333Y-84036733D01*
X166124666Y-83970066D02*
X165791333Y-83970066D01*
X165758000Y-84303400D01*
X165791333Y-84270066D01*
X165858000Y-84236733D01*
X166024666Y-84236733D01*
X166091333Y-84270066D01*
X166124666Y-84303400D01*
X166158000Y-84370066D01*
X166158000Y-84536733D01*
X166124666Y-84603400D01*
X166091333Y-84636733D01*
X166024666Y-84670066D01*
X165858000Y-84670066D01*
X165791333Y-84636733D01*
X165758000Y-84603400D01*
%TD*%
M02*
