%TF.GenerationSoftware,KiCad,Pcbnew,(5.1.9)-1*%
%TF.CreationDate,2021-09-09T09:31:17+08:00*%
%TF.ProjectId,RP2040,52503230-3430-42e6-9b69-6361645f7063,rev?*%
%TF.SameCoordinates,Original*%
%TF.FileFunction,Copper,L4,Bot*%
%TF.FilePolarity,Positive*%
%FSLAX46Y46*%
G04 Gerber Fmt 4.6, Leading zero omitted, Abs format (unit mm)*
G04 Created by KiCad (PCBNEW (5.1.9)-1) date 2021-09-09 09:31:17*
%MOMM*%
%LPD*%
G01*
G04 APERTURE LIST*
%TA.AperFunction,ComponentPad*%
%ADD10O,3.500000X1.900000*%
%TD*%
%TA.AperFunction,ComponentPad*%
%ADD11O,1.700000X1.700000*%
%TD*%
%TA.AperFunction,ComponentPad*%
%ADD12R,1.700000X1.700000*%
%TD*%
%TA.AperFunction,ComponentPad*%
%ADD13C,0.600000*%
%TD*%
%TA.AperFunction,ViaPad*%
%ADD14C,0.508000*%
%TD*%
%TA.AperFunction,Conductor*%
%ADD15C,0.250000*%
%TD*%
%TA.AperFunction,Conductor*%
%ADD16C,0.152400*%
%TD*%
%TA.AperFunction,Conductor*%
%ADD17C,0.381000*%
%TD*%
%TA.AperFunction,Conductor*%
%ADD18C,0.025400*%
%TD*%
%TA.AperFunction,Conductor*%
%ADD19C,0.350000*%
%TD*%
%ADD20C,0.304800*%
%ADD21C,0.350000*%
%ADD22O,2.500000X0.900000*%
G04 APERTURE END LIST*
D10*
%TO.P,J1,5*%
%TO.N,GND*%
X173440000Y-94600000D03*
X173440000Y-83200000D03*
%TD*%
D11*
%TO.P,J3,20*%
%TO.N,Net-(J3-Pad20)*%
X130810000Y-100330000D03*
%TO.P,J3,19*%
%TO.N,Net-(J3-Pad19)*%
X128270000Y-100330000D03*
%TO.P,J3,18*%
%TO.N,Net-(J3-Pad18)*%
X130810000Y-97790000D03*
%TO.P,J3,17*%
%TO.N,Net-(J3-Pad17)*%
X128270000Y-97790000D03*
%TO.P,J3,16*%
%TO.N,Net-(J3-Pad16)*%
X130810000Y-95250000D03*
%TO.P,J3,15*%
%TO.N,Net-(J3-Pad15)*%
X128270000Y-95250000D03*
%TO.P,J3,14*%
%TO.N,Net-(J3-Pad14)*%
X130810000Y-92710000D03*
%TO.P,J3,13*%
%TO.N,Net-(J3-Pad13)*%
X128270000Y-92710000D03*
%TO.P,J3,12*%
%TO.N,Net-(J3-Pad12)*%
X130810000Y-90170000D03*
%TO.P,J3,11*%
%TO.N,Net-(J3-Pad11)*%
X128270000Y-90170000D03*
%TO.P,J3,10*%
%TO.N,Net-(J3-Pad10)*%
X130810000Y-87630000D03*
%TO.P,J3,9*%
%TO.N,Net-(J3-Pad9)*%
X128270000Y-87630000D03*
%TO.P,J3,8*%
%TO.N,Net-(J3-Pad8)*%
X130810000Y-85090000D03*
%TO.P,J3,7*%
%TO.N,Net-(J3-Pad7)*%
X128270000Y-85090000D03*
%TO.P,J3,6*%
%TO.N,Net-(J3-Pad6)*%
X130810000Y-82550000D03*
%TO.P,J3,5*%
%TO.N,Net-(J3-Pad5)*%
X128270000Y-82550000D03*
%TO.P,J3,4*%
%TO.N,Net-(J3-Pad4)*%
X130810000Y-80010000D03*
%TO.P,J3,3*%
%TO.N,Net-(J3-Pad3)*%
X128270000Y-80010000D03*
%TO.P,J3,2*%
%TO.N,Vdrive*%
X130810000Y-77470000D03*
D12*
%TO.P,J3,1*%
%TO.N,GND*%
X128270000Y-77470000D03*
%TD*%
D13*
%TO.P,U4,57*%
%TO.N,GND*%
X148585000Y-91191000D03*
X148585000Y-89916000D03*
X148585000Y-88641000D03*
X149860000Y-91191000D03*
X149860000Y-89916000D03*
X149860000Y-88641000D03*
X151135000Y-91191000D03*
X151135000Y-89916000D03*
X151135000Y-88641000D03*
%TD*%
D11*
%TO.P,J2,4*%
%TO.N,GND*%
X153797000Y-99822000D03*
%TO.P,J2,3*%
%TO.N,/SWCLK*%
X151257000Y-99822000D03*
%TO.P,J2,2*%
%TO.N,/SWD*%
X148717000Y-99822000D03*
D12*
%TO.P,J2,1*%
%TO.N,+3V3*%
X146177000Y-99822000D03*
%TD*%
D14*
%TO.N,/USB_D+*%
X156464000Y-90805000D03*
%TO.N,/USB_D-*%
X156464000Y-91567000D03*
%TO.N,GND*%
X166344600Y-94361000D03*
X154813000Y-77597000D03*
X153797000Y-79375000D03*
X143510000Y-87503000D03*
X143383000Y-81788000D03*
X147574000Y-83947000D03*
X138963500Y-77190500D03*
X132715000Y-78232000D03*
X151663400Y-97180400D03*
X156080400Y-94917200D03*
X153898600Y-96545400D03*
X156337000Y-88671400D03*
X162712400Y-95123000D03*
X163753800Y-85699600D03*
X161036000Y-86080600D03*
X147447000Y-95986600D03*
X153035000Y-82931000D03*
X143002000Y-90932000D03*
X140462000Y-91186000D03*
%TO.N,+3V3*%
X153797000Y-77216000D03*
X159512000Y-86106000D03*
X160020000Y-93472000D03*
X141732000Y-98933000D03*
X145161000Y-89916000D03*
X154305000Y-90297000D03*
X152877500Y-94518500D03*
X154368500Y-92773500D03*
X152908000Y-85725000D03*
X148717000Y-85217000D03*
X143179800Y-79298800D03*
X146812000Y-95478600D03*
%TO.N,/USB_D-*%
X172339000Y-87884000D03*
%TO.N,/USB_D+*%
X168656000Y-89916000D03*
%TO.N,/SWCLK*%
X143637000Y-91567000D03*
X143764000Y-96901000D03*
%TO.N,/SWD*%
X143002000Y-91948000D03*
X143002000Y-97155000D03*
%TO.N,Vdrive*%
X138938000Y-98425000D03*
X135509000Y-77470000D03*
X136271000Y-80010000D03*
X148717000Y-96774000D03*
%TO.N,/DUT_PWR_CTL*%
X150241000Y-96520000D03*
X143190000Y-100269000D03*
%TO.N,/QSPI_SS*%
X159512000Y-78994000D03*
X153543000Y-83693000D03*
%TO.N,/LED1*%
X147828000Y-82804000D03*
X141605000Y-81407000D03*
%TO.N,/LED2*%
X147066000Y-83312000D03*
X140017500Y-81343500D03*
%TO.N,/QSPI_SD2*%
X154559000Y-81788000D03*
X156972000Y-78994000D03*
%TO.N,/QSPI_SD1*%
X153924000Y-82550000D03*
X158242000Y-78994000D03*
%TO.N,Net-(J3-Pad3)*%
X132715000Y-79248000D03*
%TO.N,/W25_SS*%
X146177000Y-77978000D03*
X152273000Y-83693000D03*
%TO.N,/SW_USER*%
X149377400Y-96393000D03*
X160782000Y-99060000D03*
%TO.N,/W25_SD3*%
X149606000Y-83058000D03*
X150749000Y-79375000D03*
%TD*%
D15*
%TO.N,/USB_D-*%
X172339000Y-87884000D02*
X172339000Y-87884000D01*
X172339000Y-88773000D02*
X172339000Y-87884000D01*
X169545000Y-91567000D02*
X172339000Y-88773000D01*
X156464000Y-91567000D02*
X169545000Y-91567000D01*
%TO.N,/USB_D+*%
X156464000Y-90805000D02*
X167767000Y-90805000D01*
X167767000Y-90805000D02*
X168656000Y-89916000D01*
X168656000Y-89916000D02*
X168656000Y-89916000D01*
D16*
%TO.N,/SWCLK*%
X143637000Y-96774000D02*
X143764000Y-96901000D01*
X143637000Y-91567000D02*
X143637000Y-96774000D01*
%TO.N,/SWD*%
X143002000Y-91948000D02*
X143002000Y-97155000D01*
%TO.N,Vdrive*%
X138938000Y-98425000D02*
X138938000Y-98425000D01*
D17*
X135509000Y-77470000D02*
X135509000Y-77470000D01*
X135509000Y-77470000D02*
X130810000Y-77470000D01*
D15*
X137096500Y-79184500D02*
X137223500Y-79184500D01*
X136271000Y-80010000D02*
X137096500Y-79184500D01*
D17*
X137223500Y-79184500D02*
X135509000Y-77470000D01*
X138938000Y-80899000D02*
X137223500Y-79184500D01*
D16*
X139036410Y-97691590D02*
X138938000Y-97790000D01*
X147799410Y-97691590D02*
X139036410Y-97691590D01*
X148717000Y-96774000D02*
X147799410Y-97691590D01*
D17*
X138938000Y-97790000D02*
X138938000Y-80899000D01*
X138938000Y-98425000D02*
X138938000Y-97790000D01*
D16*
%TO.N,/DUT_PWR_CTL*%
X148717000Y-98044000D02*
X150241000Y-96520000D01*
X145415000Y-98044000D02*
X148717000Y-98044000D01*
X143190000Y-100269000D02*
X145415000Y-98044000D01*
%TO.N,/QSPI_SS*%
X154813000Y-83693000D02*
X153543000Y-83693000D01*
X159512000Y-78994000D02*
X154813000Y-83693000D01*
%TO.N,/LED1*%
X141605000Y-81407000D02*
X141605000Y-81280000D01*
X142979799Y-82781799D02*
X141605000Y-81407000D01*
X147805799Y-82781799D02*
X142979799Y-82781799D01*
X147828000Y-82804000D02*
X147805799Y-82781799D01*
%TO.N,/LED2*%
X141986000Y-83312000D02*
X141922500Y-83248500D01*
X147066000Y-83312000D02*
X141986000Y-83312000D01*
X141922500Y-83248500D02*
X140017500Y-81343500D01*
%TO.N,/QSPI_SD2*%
X156972000Y-78994000D02*
X156972000Y-78994000D01*
X154559000Y-81788000D02*
X156972000Y-79375000D01*
X156972000Y-79375000D02*
X156972000Y-78994000D01*
%TO.N,/QSPI_SD1*%
X154686000Y-82550000D02*
X158242000Y-78994000D01*
X153924000Y-82550000D02*
X154686000Y-82550000D01*
%TO.N,Net-(J3-Pad3)*%
X129396201Y-78883799D02*
X128270000Y-80010000D01*
X132350799Y-78883799D02*
X129396201Y-78883799D01*
X132715000Y-79248000D02*
X132350799Y-78883799D01*
%TO.N,/W25_SS*%
X146177000Y-77978000D02*
X146177000Y-77978000D01*
X149456302Y-83693000D02*
X152273000Y-83693000D01*
X148590000Y-82826698D02*
X149456302Y-83693000D01*
X148590000Y-80391000D02*
X148590000Y-82826698D01*
X146177000Y-77978000D02*
X148590000Y-80391000D01*
%TO.N,/SW_USER*%
X149780601Y-95989799D02*
X157711799Y-95989799D01*
X149377400Y-96393000D02*
X149780601Y-95989799D01*
X157711799Y-95989799D02*
X160782000Y-99060000D01*
X160782000Y-99060000D02*
X160782000Y-99060000D01*
%TO.N,/W25_SD3*%
X149606000Y-83058000D02*
X149606000Y-80518000D01*
X149606000Y-80518000D02*
X150749000Y-79375000D01*
X150749000Y-79375000D02*
X150749000Y-79375000D01*
%TD*%
D18*
%TO.N,/USB_D-*%
X172552285Y-87997112D02*
X172535996Y-88030366D01*
X172535995Y-88030368D01*
X172518084Y-88066951D01*
X172517984Y-88067159D01*
X172502323Y-88100673D01*
X172502119Y-88101134D01*
X172488670Y-88133166D01*
X172488396Y-88133878D01*
X172477121Y-88166015D01*
X172476845Y-88166906D01*
X172467705Y-88200733D01*
X172467488Y-88201678D01*
X172460446Y-88238784D01*
X172460312Y-88239655D01*
X172455329Y-88281625D01*
X172455264Y-88282347D01*
X172452302Y-88330767D01*
X172452280Y-88331322D01*
X172451518Y-88375300D01*
X172226482Y-88375300D01*
X172225719Y-88331322D01*
X172225697Y-88330767D01*
X172222735Y-88282347D01*
X172222670Y-88281625D01*
X172217687Y-88239655D01*
X172217553Y-88238784D01*
X172210511Y-88201678D01*
X172210294Y-88200733D01*
X172201154Y-88166906D01*
X172200878Y-88166015D01*
X172189603Y-88133878D01*
X172189329Y-88133166D01*
X172175880Y-88101134D01*
X172175676Y-88100673D01*
X172160015Y-88067159D01*
X172159915Y-88066951D01*
X172142004Y-88030368D01*
X172142003Y-88030367D01*
X172125715Y-87997112D01*
X172339000Y-87775322D01*
X172552285Y-87997112D01*
%TA.AperFunction,Conductor*%
D19*
G36*
X172552285Y-87997112D02*
G01*
X172535996Y-88030366D01*
X172535995Y-88030368D01*
X172518084Y-88066951D01*
X172517984Y-88067159D01*
X172502323Y-88100673D01*
X172502119Y-88101134D01*
X172488670Y-88133166D01*
X172488396Y-88133878D01*
X172477121Y-88166015D01*
X172476845Y-88166906D01*
X172467705Y-88200733D01*
X172467488Y-88201678D01*
X172460446Y-88238784D01*
X172460312Y-88239655D01*
X172455329Y-88281625D01*
X172455264Y-88282347D01*
X172452302Y-88330767D01*
X172452280Y-88331322D01*
X172451518Y-88375300D01*
X172226482Y-88375300D01*
X172225719Y-88331322D01*
X172225697Y-88330767D01*
X172222735Y-88282347D01*
X172222670Y-88281625D01*
X172217687Y-88239655D01*
X172217553Y-88238784D01*
X172210511Y-88201678D01*
X172210294Y-88200733D01*
X172201154Y-88166906D01*
X172200878Y-88166015D01*
X172189603Y-88133878D01*
X172189329Y-88133166D01*
X172175880Y-88101134D01*
X172175676Y-88100673D01*
X172160015Y-88067159D01*
X172159915Y-88066951D01*
X172142004Y-88030368D01*
X172142003Y-88030367D01*
X172125715Y-87997112D01*
X172339000Y-87775322D01*
X172552285Y-87997112D01*
G37*
%TD.AperFunction*%
%TD*%
D18*
%TO.N,/USB_D-*%
X156610367Y-91370003D02*
X156610368Y-91370004D01*
X156646951Y-91387915D01*
X156647159Y-91388015D01*
X156680673Y-91403676D01*
X156681134Y-91403880D01*
X156713166Y-91417329D01*
X156713878Y-91417603D01*
X156746015Y-91428878D01*
X156746906Y-91429154D01*
X156780733Y-91438294D01*
X156781678Y-91438511D01*
X156818784Y-91445553D01*
X156819655Y-91445687D01*
X156861625Y-91450670D01*
X156862347Y-91450735D01*
X156910767Y-91453697D01*
X156911322Y-91453719D01*
X156955300Y-91454482D01*
X156955300Y-91679518D01*
X156911322Y-91680280D01*
X156910767Y-91680302D01*
X156862347Y-91683264D01*
X156861625Y-91683329D01*
X156819655Y-91688312D01*
X156818784Y-91688446D01*
X156781678Y-91695488D01*
X156780733Y-91695705D01*
X156746906Y-91704845D01*
X156746015Y-91705121D01*
X156713878Y-91716396D01*
X156713166Y-91716670D01*
X156681134Y-91730119D01*
X156680673Y-91730323D01*
X156647159Y-91745984D01*
X156646951Y-91746084D01*
X156610368Y-91763995D01*
X156610366Y-91763996D01*
X156577112Y-91780285D01*
X156355322Y-91567000D01*
X156577112Y-91353715D01*
X156610367Y-91370003D01*
%TA.AperFunction,Conductor*%
D19*
G36*
X156610367Y-91370003D02*
G01*
X156610368Y-91370004D01*
X156646951Y-91387915D01*
X156647159Y-91388015D01*
X156680673Y-91403676D01*
X156681134Y-91403880D01*
X156713166Y-91417329D01*
X156713878Y-91417603D01*
X156746015Y-91428878D01*
X156746906Y-91429154D01*
X156780733Y-91438294D01*
X156781678Y-91438511D01*
X156818784Y-91445553D01*
X156819655Y-91445687D01*
X156861625Y-91450670D01*
X156862347Y-91450735D01*
X156910767Y-91453697D01*
X156911322Y-91453719D01*
X156955300Y-91454482D01*
X156955300Y-91679518D01*
X156911322Y-91680280D01*
X156910767Y-91680302D01*
X156862347Y-91683264D01*
X156861625Y-91683329D01*
X156819655Y-91688312D01*
X156818784Y-91688446D01*
X156781678Y-91695488D01*
X156780733Y-91695705D01*
X156746906Y-91704845D01*
X156746015Y-91705121D01*
X156713878Y-91716396D01*
X156713166Y-91716670D01*
X156681134Y-91730119D01*
X156680673Y-91730323D01*
X156647159Y-91745984D01*
X156646951Y-91746084D01*
X156610368Y-91763995D01*
X156610366Y-91763996D01*
X156577112Y-91780285D01*
X156355322Y-91567000D01*
X156577112Y-91353715D01*
X156610367Y-91370003D01*
G37*
%TD.AperFunction*%
%TD*%
D18*
%TO.N,/USB_D+*%
X156610367Y-90608003D02*
X156610368Y-90608004D01*
X156646951Y-90625915D01*
X156647159Y-90626015D01*
X156680673Y-90641676D01*
X156681134Y-90641880D01*
X156713166Y-90655329D01*
X156713878Y-90655603D01*
X156746015Y-90666878D01*
X156746906Y-90667154D01*
X156780733Y-90676294D01*
X156781678Y-90676511D01*
X156818784Y-90683553D01*
X156819655Y-90683687D01*
X156861625Y-90688670D01*
X156862347Y-90688735D01*
X156910767Y-90691697D01*
X156911322Y-90691719D01*
X156955300Y-90692482D01*
X156955300Y-90917518D01*
X156911322Y-90918280D01*
X156910767Y-90918302D01*
X156862347Y-90921264D01*
X156861625Y-90921329D01*
X156819655Y-90926312D01*
X156818784Y-90926446D01*
X156781678Y-90933488D01*
X156780733Y-90933705D01*
X156746906Y-90942845D01*
X156746015Y-90943121D01*
X156713878Y-90954396D01*
X156713166Y-90954670D01*
X156681134Y-90968119D01*
X156680673Y-90968323D01*
X156647159Y-90983984D01*
X156646951Y-90984084D01*
X156610368Y-91001995D01*
X156610366Y-91001996D01*
X156577112Y-91018285D01*
X156355322Y-90805000D01*
X156577112Y-90591715D01*
X156610367Y-90608003D01*
%TA.AperFunction,Conductor*%
D19*
G36*
X156610367Y-90608003D02*
G01*
X156610368Y-90608004D01*
X156646951Y-90625915D01*
X156647159Y-90626015D01*
X156680673Y-90641676D01*
X156681134Y-90641880D01*
X156713166Y-90655329D01*
X156713878Y-90655603D01*
X156746015Y-90666878D01*
X156746906Y-90667154D01*
X156780733Y-90676294D01*
X156781678Y-90676511D01*
X156818784Y-90683553D01*
X156819655Y-90683687D01*
X156861625Y-90688670D01*
X156862347Y-90688735D01*
X156910767Y-90691697D01*
X156911322Y-90691719D01*
X156955300Y-90692482D01*
X156955300Y-90917518D01*
X156911322Y-90918280D01*
X156910767Y-90918302D01*
X156862347Y-90921264D01*
X156861625Y-90921329D01*
X156819655Y-90926312D01*
X156818784Y-90926446D01*
X156781678Y-90933488D01*
X156780733Y-90933705D01*
X156746906Y-90942845D01*
X156746015Y-90943121D01*
X156713878Y-90954396D01*
X156713166Y-90954670D01*
X156681134Y-90968119D01*
X156680673Y-90968323D01*
X156647159Y-90983984D01*
X156646951Y-90984084D01*
X156610368Y-91001995D01*
X156610366Y-91001996D01*
X156577112Y-91018285D01*
X156355322Y-90805000D01*
X156577112Y-90591715D01*
X156610367Y-90608003D01*
G37*
%TD.AperFunction*%
%TD*%
D18*
%TO.N,/USB_D+*%
X168726832Y-90146797D02*
X168691800Y-90158793D01*
X168691797Y-90158794D01*
X168653264Y-90171997D01*
X168653047Y-90172073D01*
X168618276Y-90184697D01*
X168617806Y-90184878D01*
X168585646Y-90198018D01*
X168584949Y-90198328D01*
X168554252Y-90213080D01*
X168553426Y-90213515D01*
X168523044Y-90230972D01*
X168522223Y-90231487D01*
X168491006Y-90252745D01*
X168490295Y-90253265D01*
X168457094Y-90279418D01*
X168456538Y-90279883D01*
X168420206Y-90312027D01*
X168419798Y-90312405D01*
X168388162Y-90342963D01*
X168229037Y-90183838D01*
X168259595Y-90152201D01*
X168259972Y-90151793D01*
X168292116Y-90115461D01*
X168292581Y-90114905D01*
X168318734Y-90081704D01*
X168319254Y-90080993D01*
X168340512Y-90049776D01*
X168341027Y-90048955D01*
X168358484Y-90018573D01*
X168358919Y-90017747D01*
X168373671Y-89987050D01*
X168373981Y-89986353D01*
X168387121Y-89954193D01*
X168387302Y-89953723D01*
X168399926Y-89918952D01*
X168400002Y-89918735D01*
X168413205Y-89880202D01*
X168413206Y-89880200D01*
X168425203Y-89845168D01*
X168732846Y-89839154D01*
X168726832Y-90146797D01*
%TA.AperFunction,Conductor*%
D19*
G36*
X168726832Y-90146797D02*
G01*
X168691800Y-90158793D01*
X168691797Y-90158794D01*
X168653264Y-90171997D01*
X168653047Y-90172073D01*
X168618276Y-90184697D01*
X168617806Y-90184878D01*
X168585646Y-90198018D01*
X168584949Y-90198328D01*
X168554252Y-90213080D01*
X168553426Y-90213515D01*
X168523044Y-90230972D01*
X168522223Y-90231487D01*
X168491006Y-90252745D01*
X168490295Y-90253265D01*
X168457094Y-90279418D01*
X168456538Y-90279883D01*
X168420206Y-90312027D01*
X168419798Y-90312405D01*
X168388162Y-90342963D01*
X168229037Y-90183838D01*
X168259595Y-90152201D01*
X168259972Y-90151793D01*
X168292116Y-90115461D01*
X168292581Y-90114905D01*
X168318734Y-90081704D01*
X168319254Y-90080993D01*
X168340512Y-90049776D01*
X168341027Y-90048955D01*
X168358484Y-90018573D01*
X168358919Y-90017747D01*
X168373671Y-89987050D01*
X168373981Y-89986353D01*
X168387121Y-89954193D01*
X168387302Y-89953723D01*
X168399926Y-89918952D01*
X168400002Y-89918735D01*
X168413205Y-89880202D01*
X168413206Y-89880200D01*
X168425203Y-89845168D01*
X168732846Y-89839154D01*
X168726832Y-90146797D01*
G37*
%TD.AperFunction*%
%TD*%
D18*
%TO.N,/SWCLK*%
X143850115Y-91679936D02*
X143831091Y-91716377D01*
X143808680Y-91754180D01*
X143787250Y-91787684D01*
X143767232Y-91818829D01*
X143766981Y-91819238D01*
X143748917Y-91849823D01*
X143748448Y-91850692D01*
X143732748Y-91882724D01*
X143732219Y-91883966D01*
X143719293Y-91919448D01*
X143718871Y-91920855D01*
X143709130Y-91961794D01*
X143708886Y-91963134D01*
X143702740Y-92011534D01*
X143702648Y-92012665D01*
X143700961Y-92058300D01*
X143573039Y-92058300D01*
X143571351Y-92012665D01*
X143571259Y-92011534D01*
X143565113Y-91963134D01*
X143564869Y-91961794D01*
X143555128Y-91920855D01*
X143554706Y-91919448D01*
X143541780Y-91883966D01*
X143541251Y-91882724D01*
X143525551Y-91850692D01*
X143525082Y-91849823D01*
X143507018Y-91819238D01*
X143506767Y-91818829D01*
X143486749Y-91787684D01*
X143465319Y-91754180D01*
X143442908Y-91716377D01*
X143423885Y-91679936D01*
X143637000Y-91458322D01*
X143850115Y-91679936D01*
%TA.AperFunction,Conductor*%
D19*
G36*
X143850115Y-91679936D02*
G01*
X143831091Y-91716377D01*
X143808680Y-91754180D01*
X143787250Y-91787684D01*
X143767232Y-91818829D01*
X143766981Y-91819238D01*
X143748917Y-91849823D01*
X143748448Y-91850692D01*
X143732748Y-91882724D01*
X143732219Y-91883966D01*
X143719293Y-91919448D01*
X143718871Y-91920855D01*
X143709130Y-91961794D01*
X143708886Y-91963134D01*
X143702740Y-92011534D01*
X143702648Y-92012665D01*
X143700961Y-92058300D01*
X143573039Y-92058300D01*
X143571351Y-92012665D01*
X143571259Y-92011534D01*
X143565113Y-91963134D01*
X143564869Y-91961794D01*
X143555128Y-91920855D01*
X143554706Y-91919448D01*
X143541780Y-91883966D01*
X143541251Y-91882724D01*
X143525551Y-91850692D01*
X143525082Y-91849823D01*
X143507018Y-91819238D01*
X143506767Y-91818829D01*
X143486749Y-91787684D01*
X143465319Y-91754180D01*
X143442908Y-91716377D01*
X143423885Y-91679936D01*
X143637000Y-91458322D01*
X143850115Y-91679936D01*
G37*
%TD.AperFunction*%
%TD*%
D18*
%TO.N,/SWCLK*%
X143702823Y-96466870D02*
X143702997Y-96468423D01*
X143709765Y-96507153D01*
X143710247Y-96509043D01*
X143721246Y-96541500D01*
X143722132Y-96543519D01*
X143737133Y-96570940D01*
X143738333Y-96572747D01*
X143757105Y-96596365D01*
X143758332Y-96597701D01*
X143780646Y-96618753D01*
X143781616Y-96619580D01*
X143807242Y-96639300D01*
X143807820Y-96639719D01*
X143836529Y-96659344D01*
X143836716Y-96659470D01*
X143868220Y-96680196D01*
X143894882Y-96698244D01*
X143817062Y-96995843D01*
X143522882Y-96906497D01*
X143521495Y-96857090D01*
X143523509Y-96807384D01*
X143528339Y-96763684D01*
X143535207Y-96723380D01*
X143543320Y-96684104D01*
X143551870Y-96643462D01*
X143551933Y-96643141D01*
X143560030Y-96599045D01*
X143560122Y-96598468D01*
X143566935Y-96548544D01*
X143567011Y-96547850D01*
X143571708Y-96489724D01*
X143571745Y-96489025D01*
X143573181Y-96432700D01*
X143701118Y-96432700D01*
X143702823Y-96466870D01*
%TA.AperFunction,Conductor*%
D19*
G36*
X143702823Y-96466870D02*
G01*
X143702997Y-96468423D01*
X143709765Y-96507153D01*
X143710247Y-96509043D01*
X143721246Y-96541500D01*
X143722132Y-96543519D01*
X143737133Y-96570940D01*
X143738333Y-96572747D01*
X143757105Y-96596365D01*
X143758332Y-96597701D01*
X143780646Y-96618753D01*
X143781616Y-96619580D01*
X143807242Y-96639300D01*
X143807820Y-96639719D01*
X143836529Y-96659344D01*
X143836716Y-96659470D01*
X143868220Y-96680196D01*
X143894882Y-96698244D01*
X143817062Y-96995843D01*
X143522882Y-96906497D01*
X143521495Y-96857090D01*
X143523509Y-96807384D01*
X143528339Y-96763684D01*
X143535207Y-96723380D01*
X143543320Y-96684104D01*
X143551870Y-96643462D01*
X143551933Y-96643141D01*
X143560030Y-96599045D01*
X143560122Y-96598468D01*
X143566935Y-96548544D01*
X143567011Y-96547850D01*
X143571708Y-96489724D01*
X143571745Y-96489025D01*
X143573181Y-96432700D01*
X143701118Y-96432700D01*
X143702823Y-96466870D01*
G37*
%TD.AperFunction*%
%TD*%
D18*
%TO.N,/SWD*%
X143215115Y-92060936D02*
X143196091Y-92097377D01*
X143173680Y-92135180D01*
X143152250Y-92168684D01*
X143132232Y-92199829D01*
X143131981Y-92200238D01*
X143113917Y-92230823D01*
X143113448Y-92231692D01*
X143097748Y-92263724D01*
X143097219Y-92264966D01*
X143084293Y-92300448D01*
X143083871Y-92301855D01*
X143074130Y-92342794D01*
X143073886Y-92344134D01*
X143067740Y-92392534D01*
X143067648Y-92393665D01*
X143065961Y-92439300D01*
X142938039Y-92439300D01*
X142936351Y-92393665D01*
X142936259Y-92392534D01*
X142930113Y-92344134D01*
X142929869Y-92342794D01*
X142920128Y-92301855D01*
X142919706Y-92300448D01*
X142906780Y-92264966D01*
X142906251Y-92263724D01*
X142890551Y-92231692D01*
X142890082Y-92230823D01*
X142872018Y-92200238D01*
X142871767Y-92199829D01*
X142851749Y-92168684D01*
X142830319Y-92135180D01*
X142807908Y-92097377D01*
X142788885Y-92060936D01*
X143002000Y-91839322D01*
X143215115Y-92060936D01*
%TA.AperFunction,Conductor*%
D19*
G36*
X143215115Y-92060936D02*
G01*
X143196091Y-92097377D01*
X143173680Y-92135180D01*
X143152250Y-92168684D01*
X143132232Y-92199829D01*
X143131981Y-92200238D01*
X143113917Y-92230823D01*
X143113448Y-92231692D01*
X143097748Y-92263724D01*
X143097219Y-92264966D01*
X143084293Y-92300448D01*
X143083871Y-92301855D01*
X143074130Y-92342794D01*
X143073886Y-92344134D01*
X143067740Y-92392534D01*
X143067648Y-92393665D01*
X143065961Y-92439300D01*
X142938039Y-92439300D01*
X142936351Y-92393665D01*
X142936259Y-92392534D01*
X142930113Y-92344134D01*
X142929869Y-92342794D01*
X142920128Y-92301855D01*
X142919706Y-92300448D01*
X142906780Y-92264966D01*
X142906251Y-92263724D01*
X142890551Y-92231692D01*
X142890082Y-92230823D01*
X142872018Y-92200238D01*
X142871767Y-92199829D01*
X142851749Y-92168684D01*
X142830319Y-92135180D01*
X142807908Y-92097377D01*
X142788885Y-92060936D01*
X143002000Y-91839322D01*
X143215115Y-92060936D01*
G37*
%TD.AperFunction*%
%TD*%
D18*
%TO.N,/SWD*%
X143067648Y-96709334D02*
X143067740Y-96710465D01*
X143073886Y-96758865D01*
X143074130Y-96760205D01*
X143083871Y-96801144D01*
X143084293Y-96802551D01*
X143097219Y-96838033D01*
X143097748Y-96839275D01*
X143113448Y-96871307D01*
X143113917Y-96872176D01*
X143131981Y-96902761D01*
X143132232Y-96903170D01*
X143152235Y-96934291D01*
X143173680Y-96967819D01*
X143196091Y-97005622D01*
X143215115Y-97042064D01*
X143002000Y-97263678D01*
X142788885Y-97042064D01*
X142807908Y-97005622D01*
X142830319Y-96967819D01*
X142851749Y-96934315D01*
X142871767Y-96903170D01*
X142872018Y-96902761D01*
X142890082Y-96872176D01*
X142890551Y-96871307D01*
X142906251Y-96839275D01*
X142906780Y-96838033D01*
X142919706Y-96802551D01*
X142920128Y-96801144D01*
X142929869Y-96760205D01*
X142930113Y-96758865D01*
X142936259Y-96710465D01*
X142936351Y-96709334D01*
X142938039Y-96663700D01*
X143065961Y-96663700D01*
X143067648Y-96709334D01*
%TA.AperFunction,Conductor*%
D19*
G36*
X143067648Y-96709334D02*
G01*
X143067740Y-96710465D01*
X143073886Y-96758865D01*
X143074130Y-96760205D01*
X143083871Y-96801144D01*
X143084293Y-96802551D01*
X143097219Y-96838033D01*
X143097748Y-96839275D01*
X143113448Y-96871307D01*
X143113917Y-96872176D01*
X143131981Y-96902761D01*
X143132232Y-96903170D01*
X143152235Y-96934291D01*
X143173680Y-96967819D01*
X143196091Y-97005622D01*
X143215115Y-97042064D01*
X143002000Y-97263678D01*
X142788885Y-97042064D01*
X142807908Y-97005622D01*
X142830319Y-96967819D01*
X142851749Y-96934315D01*
X142871767Y-96903170D01*
X142872018Y-96902761D01*
X142890082Y-96872176D01*
X142890551Y-96871307D01*
X142906251Y-96839275D01*
X142906780Y-96838033D01*
X142919706Y-96802551D01*
X142920128Y-96801144D01*
X142929869Y-96760205D01*
X142930113Y-96758865D01*
X142936259Y-96710465D01*
X142936351Y-96709334D01*
X142938039Y-96663700D01*
X143065961Y-96663700D01*
X143067648Y-96709334D01*
G37*
%TD.AperFunction*%
%TD*%
D18*
%TO.N,Vdrive*%
X135617678Y-77470000D02*
X135395563Y-77683597D01*
X135371709Y-77673314D01*
X135370610Y-77672900D01*
X135339309Y-77662719D01*
X135338194Y-77662411D01*
X135306439Y-77655199D01*
X135305425Y-77655012D01*
X135272457Y-77650295D01*
X135271634Y-77650205D01*
X135236697Y-77647512D01*
X135236107Y-77647480D01*
X135198444Y-77646336D01*
X135198078Y-77646330D01*
X135156931Y-77646264D01*
X135156760Y-77646265D01*
X135111372Y-77646803D01*
X135111354Y-77646803D01*
X135061030Y-77647471D01*
X135017700Y-77647725D01*
X135017700Y-77292275D01*
X135061030Y-77292528D01*
X135111354Y-77293196D01*
X135111372Y-77293196D01*
X135156760Y-77293734D01*
X135156931Y-77293735D01*
X135198078Y-77293669D01*
X135198444Y-77293663D01*
X135236107Y-77292519D01*
X135236697Y-77292487D01*
X135271634Y-77289794D01*
X135272457Y-77289704D01*
X135305425Y-77284987D01*
X135306439Y-77284800D01*
X135338194Y-77277588D01*
X135339309Y-77277280D01*
X135370610Y-77267099D01*
X135371709Y-77266685D01*
X135395563Y-77256403D01*
X135617678Y-77470000D01*
%TA.AperFunction,Conductor*%
D19*
G36*
X135617678Y-77470000D02*
G01*
X135395563Y-77683597D01*
X135371709Y-77673314D01*
X135370610Y-77672900D01*
X135339309Y-77662719D01*
X135338194Y-77662411D01*
X135306439Y-77655199D01*
X135305425Y-77655012D01*
X135272457Y-77650295D01*
X135271634Y-77650205D01*
X135236697Y-77647512D01*
X135236107Y-77647480D01*
X135198444Y-77646336D01*
X135198078Y-77646330D01*
X135156931Y-77646264D01*
X135156760Y-77646265D01*
X135111372Y-77646803D01*
X135111354Y-77646803D01*
X135061030Y-77647471D01*
X135017700Y-77647725D01*
X135017700Y-77292275D01*
X135061030Y-77292528D01*
X135111354Y-77293196D01*
X135111372Y-77293196D01*
X135156760Y-77293734D01*
X135156931Y-77293735D01*
X135198078Y-77293669D01*
X135198444Y-77293663D01*
X135236107Y-77292519D01*
X135236697Y-77292487D01*
X135271634Y-77289794D01*
X135272457Y-77289704D01*
X135305425Y-77284987D01*
X135306439Y-77284800D01*
X135338194Y-77277588D01*
X135339309Y-77277280D01*
X135370610Y-77267099D01*
X135371709Y-77266685D01*
X135395563Y-77256403D01*
X135617678Y-77470000D01*
G37*
%TD.AperFunction*%
%TD*%
D18*
%TO.N,Vdrive*%
X131328720Y-76798465D02*
X131458238Y-76880237D01*
X131570868Y-76959879D01*
X131673929Y-77035497D01*
X131674223Y-77035707D01*
X131774749Y-77105159D01*
X131775577Y-77105685D01*
X131880766Y-77166940D01*
X131882080Y-77167606D01*
X131999205Y-77218688D01*
X132000795Y-77219259D01*
X132137129Y-77258193D01*
X132138703Y-77258536D01*
X132301517Y-77283346D01*
X132302868Y-77283479D01*
X132487300Y-77291650D01*
X132487300Y-77648350D01*
X132302868Y-77656520D01*
X132301517Y-77656653D01*
X132138703Y-77681463D01*
X132137129Y-77681806D01*
X132000795Y-77720740D01*
X131999205Y-77721311D01*
X131882080Y-77772393D01*
X131880766Y-77773059D01*
X131775577Y-77834314D01*
X131774749Y-77834840D01*
X131674223Y-77904292D01*
X131673929Y-77904502D01*
X131570868Y-77980120D01*
X131458238Y-78059762D01*
X131328720Y-78141534D01*
X131182663Y-78219455D01*
X130403322Y-77470000D01*
X131182663Y-76720545D01*
X131328720Y-76798465D01*
%TA.AperFunction,Conductor*%
D19*
G36*
X131328720Y-76798465D02*
G01*
X131458238Y-76880237D01*
X131570868Y-76959879D01*
X131673929Y-77035497D01*
X131674223Y-77035707D01*
X131774749Y-77105159D01*
X131775577Y-77105685D01*
X131880766Y-77166940D01*
X131882080Y-77167606D01*
X131999205Y-77218688D01*
X132000795Y-77219259D01*
X132137129Y-77258193D01*
X132138703Y-77258536D01*
X132301517Y-77283346D01*
X132302868Y-77283479D01*
X132487300Y-77291650D01*
X132487300Y-77648350D01*
X132302868Y-77656520D01*
X132301517Y-77656653D01*
X132138703Y-77681463D01*
X132137129Y-77681806D01*
X132000795Y-77720740D01*
X131999205Y-77721311D01*
X131882080Y-77772393D01*
X131880766Y-77773059D01*
X131775577Y-77834314D01*
X131774749Y-77834840D01*
X131674223Y-77904292D01*
X131673929Y-77904502D01*
X131570868Y-77980120D01*
X131458238Y-78059762D01*
X131328720Y-78141534D01*
X131182663Y-78219455D01*
X130403322Y-77470000D01*
X131182663Y-76720545D01*
X131328720Y-76798465D01*
G37*
%TD.AperFunction*%
%TD*%
D18*
%TO.N,Vdrive*%
X136697963Y-79742162D02*
X136667405Y-79773798D01*
X136667027Y-79774206D01*
X136634883Y-79810538D01*
X136634418Y-79811094D01*
X136608265Y-79844295D01*
X136607745Y-79845006D01*
X136586487Y-79876223D01*
X136585972Y-79877044D01*
X136568515Y-79907426D01*
X136568080Y-79908252D01*
X136553328Y-79938949D01*
X136553018Y-79939646D01*
X136539878Y-79971806D01*
X136539697Y-79972276D01*
X136527073Y-80007047D01*
X136526997Y-80007264D01*
X136513794Y-80045797D01*
X136513793Y-80045800D01*
X136501797Y-80080832D01*
X136194154Y-80086846D01*
X136200168Y-79779203D01*
X136235200Y-79767206D01*
X136235202Y-79767205D01*
X136273735Y-79754002D01*
X136273952Y-79753926D01*
X136308723Y-79741302D01*
X136309193Y-79741121D01*
X136341353Y-79727981D01*
X136342050Y-79727671D01*
X136372747Y-79712919D01*
X136373573Y-79712484D01*
X136403955Y-79695027D01*
X136404776Y-79694512D01*
X136435993Y-79673254D01*
X136436704Y-79672734D01*
X136469905Y-79646581D01*
X136470461Y-79646116D01*
X136506793Y-79613972D01*
X136507201Y-79613595D01*
X136538838Y-79583037D01*
X136697963Y-79742162D01*
%TA.AperFunction,Conductor*%
D19*
G36*
X136697963Y-79742162D02*
G01*
X136667405Y-79773798D01*
X136667027Y-79774206D01*
X136634883Y-79810538D01*
X136634418Y-79811094D01*
X136608265Y-79844295D01*
X136607745Y-79845006D01*
X136586487Y-79876223D01*
X136585972Y-79877044D01*
X136568515Y-79907426D01*
X136568080Y-79908252D01*
X136553328Y-79938949D01*
X136553018Y-79939646D01*
X136539878Y-79971806D01*
X136539697Y-79972276D01*
X136527073Y-80007047D01*
X136526997Y-80007264D01*
X136513794Y-80045797D01*
X136513793Y-80045800D01*
X136501797Y-80080832D01*
X136194154Y-80086846D01*
X136200168Y-79779203D01*
X136235200Y-79767206D01*
X136235202Y-79767205D01*
X136273735Y-79754002D01*
X136273952Y-79753926D01*
X136308723Y-79741302D01*
X136309193Y-79741121D01*
X136341353Y-79727981D01*
X136342050Y-79727671D01*
X136372747Y-79712919D01*
X136373573Y-79712484D01*
X136403955Y-79695027D01*
X136404776Y-79694512D01*
X136435993Y-79673254D01*
X136436704Y-79672734D01*
X136469905Y-79646581D01*
X136470461Y-79646116D01*
X136506793Y-79613972D01*
X136507201Y-79613595D01*
X136538838Y-79583037D01*
X136697963Y-79742162D01*
G37*
%TD.AperFunction*%
%TD*%
D18*
%TO.N,Vdrive*%
X135740247Y-77399177D02*
X135749843Y-77423314D01*
X135750327Y-77424384D01*
X135765260Y-77453715D01*
X135765832Y-77454721D01*
X135783187Y-77482275D01*
X135783771Y-77483125D01*
X135803747Y-77509772D01*
X135804265Y-77510417D01*
X135827065Y-77537026D01*
X135827460Y-77537466D01*
X135853283Y-77564907D01*
X135853537Y-77565170D01*
X135882585Y-77594312D01*
X135882707Y-77594432D01*
X135915181Y-77626145D01*
X135915194Y-77626158D01*
X135951227Y-77661245D01*
X135982071Y-77691730D01*
X135730730Y-77943071D01*
X135700245Y-77912227D01*
X135665158Y-77876194D01*
X135665145Y-77876181D01*
X135633432Y-77843707D01*
X135633312Y-77843585D01*
X135604170Y-77814537D01*
X135603907Y-77814283D01*
X135576466Y-77788460D01*
X135576026Y-77788065D01*
X135549417Y-77765265D01*
X135548772Y-77764747D01*
X135522125Y-77744771D01*
X135521275Y-77744187D01*
X135493721Y-77726832D01*
X135492715Y-77726260D01*
X135463384Y-77711327D01*
X135462314Y-77710843D01*
X135438177Y-77701247D01*
X135432154Y-77393154D01*
X135740247Y-77399177D01*
%TA.AperFunction,Conductor*%
D19*
G36*
X135740247Y-77399177D02*
G01*
X135749843Y-77423314D01*
X135750327Y-77424384D01*
X135765260Y-77453715D01*
X135765832Y-77454721D01*
X135783187Y-77482275D01*
X135783771Y-77483125D01*
X135803747Y-77509772D01*
X135804265Y-77510417D01*
X135827065Y-77537026D01*
X135827460Y-77537466D01*
X135853283Y-77564907D01*
X135853537Y-77565170D01*
X135882585Y-77594312D01*
X135882707Y-77594432D01*
X135915181Y-77626145D01*
X135915194Y-77626158D01*
X135951227Y-77661245D01*
X135982071Y-77691730D01*
X135730730Y-77943071D01*
X135700245Y-77912227D01*
X135665158Y-77876194D01*
X135665145Y-77876181D01*
X135633432Y-77843707D01*
X135633312Y-77843585D01*
X135604170Y-77814537D01*
X135603907Y-77814283D01*
X135576466Y-77788460D01*
X135576026Y-77788065D01*
X135549417Y-77765265D01*
X135548772Y-77764747D01*
X135522125Y-77744771D01*
X135521275Y-77744187D01*
X135493721Y-77726832D01*
X135492715Y-77726260D01*
X135463384Y-77711327D01*
X135462314Y-77710843D01*
X135438177Y-77701247D01*
X135432154Y-77393154D01*
X135740247Y-77399177D01*
G37*
%TD.AperFunction*%
%TD*%
D18*
%TO.N,Vdrive*%
X148787837Y-97004552D02*
X148748594Y-97016875D01*
X148706050Y-97027750D01*
X148667195Y-97036290D01*
X148631018Y-97044158D01*
X148630551Y-97044269D01*
X148596151Y-97053123D01*
X148595206Y-97053406D01*
X148561455Y-97064954D01*
X148560202Y-97065458D01*
X148525972Y-97081408D01*
X148524678Y-97082105D01*
X148488842Y-97104165D01*
X148487722Y-97104940D01*
X148449153Y-97134818D01*
X148448289Y-97135552D01*
X148414827Y-97166628D01*
X148324372Y-97076173D01*
X148355447Y-97042710D01*
X148356181Y-97041846D01*
X148386059Y-97003277D01*
X148386834Y-97002157D01*
X148408894Y-96966321D01*
X148409591Y-96965027D01*
X148425541Y-96930797D01*
X148426045Y-96929544D01*
X148437593Y-96895793D01*
X148437876Y-96894848D01*
X148446730Y-96860448D01*
X148446841Y-96859981D01*
X148454703Y-96823831D01*
X148463249Y-96784949D01*
X148474124Y-96742405D01*
X148486448Y-96703163D01*
X148793846Y-96697154D01*
X148787837Y-97004552D01*
%TA.AperFunction,Conductor*%
D19*
G36*
X148787837Y-97004552D02*
G01*
X148748594Y-97016875D01*
X148706050Y-97027750D01*
X148667195Y-97036290D01*
X148631018Y-97044158D01*
X148630551Y-97044269D01*
X148596151Y-97053123D01*
X148595206Y-97053406D01*
X148561455Y-97064954D01*
X148560202Y-97065458D01*
X148525972Y-97081408D01*
X148524678Y-97082105D01*
X148488842Y-97104165D01*
X148487722Y-97104940D01*
X148449153Y-97134818D01*
X148448289Y-97135552D01*
X148414827Y-97166628D01*
X148324372Y-97076173D01*
X148355447Y-97042710D01*
X148356181Y-97041846D01*
X148386059Y-97003277D01*
X148386834Y-97002157D01*
X148408894Y-96966321D01*
X148409591Y-96965027D01*
X148425541Y-96930797D01*
X148426045Y-96929544D01*
X148437593Y-96895793D01*
X148437876Y-96894848D01*
X148446730Y-96860448D01*
X148446841Y-96859981D01*
X148454703Y-96823831D01*
X148463249Y-96784949D01*
X148474124Y-96742405D01*
X148486448Y-96703163D01*
X148793846Y-96697154D01*
X148787837Y-97004552D01*
G37*
%TD.AperFunction*%
%TD*%
D18*
%TO.N,Vdrive*%
X139115472Y-97976970D02*
X139114803Y-98027354D01*
X139114803Y-98027372D01*
X139114265Y-98072760D01*
X139114264Y-98072931D01*
X139114330Y-98114078D01*
X139114336Y-98114444D01*
X139115480Y-98152107D01*
X139115512Y-98152697D01*
X139118205Y-98187634D01*
X139118295Y-98188457D01*
X139123012Y-98221425D01*
X139123199Y-98222439D01*
X139130411Y-98254194D01*
X139130719Y-98255309D01*
X139140900Y-98286610D01*
X139141314Y-98287709D01*
X139151597Y-98311563D01*
X138938000Y-98533678D01*
X138724403Y-98311563D01*
X138734685Y-98287709D01*
X138735099Y-98286610D01*
X138745280Y-98255309D01*
X138745588Y-98254194D01*
X138752800Y-98222439D01*
X138752987Y-98221425D01*
X138757704Y-98188457D01*
X138757794Y-98187634D01*
X138760487Y-98152697D01*
X138760519Y-98152107D01*
X138761663Y-98114444D01*
X138761669Y-98114078D01*
X138761735Y-98072931D01*
X138761734Y-98072760D01*
X138761196Y-98027372D01*
X138761196Y-98027354D01*
X138760527Y-97976970D01*
X138760275Y-97933700D01*
X139115725Y-97933700D01*
X139115472Y-97976970D01*
%TA.AperFunction,Conductor*%
D19*
G36*
X139115472Y-97976970D02*
G01*
X139114803Y-98027354D01*
X139114803Y-98027372D01*
X139114265Y-98072760D01*
X139114264Y-98072931D01*
X139114330Y-98114078D01*
X139114336Y-98114444D01*
X139115480Y-98152107D01*
X139115512Y-98152697D01*
X139118205Y-98187634D01*
X139118295Y-98188457D01*
X139123012Y-98221425D01*
X139123199Y-98222439D01*
X139130411Y-98254194D01*
X139130719Y-98255309D01*
X139140900Y-98286610D01*
X139141314Y-98287709D01*
X139151597Y-98311563D01*
X138938000Y-98533678D01*
X138724403Y-98311563D01*
X138734685Y-98287709D01*
X138735099Y-98286610D01*
X138745280Y-98255309D01*
X138745588Y-98254194D01*
X138752800Y-98222439D01*
X138752987Y-98221425D01*
X138757704Y-98188457D01*
X138757794Y-98187634D01*
X138760487Y-98152697D01*
X138760519Y-98152107D01*
X138761663Y-98114444D01*
X138761669Y-98114078D01*
X138761735Y-98072931D01*
X138761734Y-98072760D01*
X138761196Y-98027372D01*
X138761196Y-98027354D01*
X138760527Y-97976970D01*
X138760275Y-97933700D01*
X139115725Y-97933700D01*
X139115472Y-97976970D01*
G37*
%TD.AperFunction*%
%TD*%
D18*
%TO.N,/DUT_PWR_CTL*%
X150311837Y-96750552D02*
X150272594Y-96762875D01*
X150230050Y-96773750D01*
X150191195Y-96782290D01*
X150155018Y-96790158D01*
X150154551Y-96790269D01*
X150120151Y-96799123D01*
X150119206Y-96799406D01*
X150085455Y-96810954D01*
X150084202Y-96811458D01*
X150049972Y-96827408D01*
X150048678Y-96828105D01*
X150012842Y-96850165D01*
X150011722Y-96850940D01*
X149973153Y-96880818D01*
X149972289Y-96881552D01*
X149938827Y-96912628D01*
X149848372Y-96822173D01*
X149879447Y-96788710D01*
X149880181Y-96787846D01*
X149910059Y-96749277D01*
X149910834Y-96748157D01*
X149932894Y-96712321D01*
X149933591Y-96711027D01*
X149949541Y-96676797D01*
X149950045Y-96675544D01*
X149961593Y-96641793D01*
X149961876Y-96640848D01*
X149970730Y-96606448D01*
X149970841Y-96605981D01*
X149978703Y-96569831D01*
X149987249Y-96530949D01*
X149998124Y-96488405D01*
X150010448Y-96449163D01*
X150317846Y-96443154D01*
X150311837Y-96750552D01*
%TA.AperFunction,Conductor*%
D19*
G36*
X150311837Y-96750552D02*
G01*
X150272594Y-96762875D01*
X150230050Y-96773750D01*
X150191195Y-96782290D01*
X150155018Y-96790158D01*
X150154551Y-96790269D01*
X150120151Y-96799123D01*
X150119206Y-96799406D01*
X150085455Y-96810954D01*
X150084202Y-96811458D01*
X150049972Y-96827408D01*
X150048678Y-96828105D01*
X150012842Y-96850165D01*
X150011722Y-96850940D01*
X149973153Y-96880818D01*
X149972289Y-96881552D01*
X149938827Y-96912628D01*
X149848372Y-96822173D01*
X149879447Y-96788710D01*
X149880181Y-96787846D01*
X149910059Y-96749277D01*
X149910834Y-96748157D01*
X149932894Y-96712321D01*
X149933591Y-96711027D01*
X149949541Y-96676797D01*
X149950045Y-96675544D01*
X149961593Y-96641793D01*
X149961876Y-96640848D01*
X149970730Y-96606448D01*
X149970841Y-96605981D01*
X149978703Y-96569831D01*
X149987249Y-96530949D01*
X149998124Y-96488405D01*
X150010448Y-96449163D01*
X150317846Y-96443154D01*
X150311837Y-96750552D01*
G37*
%TD.AperFunction*%
%TD*%
D18*
%TO.N,/DUT_PWR_CTL*%
X143582628Y-99966827D02*
X143551552Y-100000289D01*
X143550818Y-100001153D01*
X143520940Y-100039722D01*
X143520165Y-100040842D01*
X143498105Y-100076678D01*
X143497408Y-100077972D01*
X143481458Y-100112202D01*
X143480954Y-100113455D01*
X143469406Y-100147206D01*
X143469123Y-100148151D01*
X143460269Y-100182551D01*
X143460158Y-100183018D01*
X143452296Y-100219168D01*
X143443750Y-100258050D01*
X143432875Y-100300594D01*
X143420552Y-100339837D01*
X143113154Y-100345846D01*
X143119163Y-100038448D01*
X143158405Y-100026124D01*
X143200949Y-100015249D01*
X143239804Y-100006709D01*
X143275981Y-99998841D01*
X143276448Y-99998730D01*
X143310848Y-99989876D01*
X143311793Y-99989593D01*
X143345544Y-99978045D01*
X143346797Y-99977541D01*
X143381027Y-99961591D01*
X143382321Y-99960894D01*
X143418157Y-99938834D01*
X143419277Y-99938059D01*
X143457846Y-99908181D01*
X143458710Y-99907447D01*
X143492173Y-99876372D01*
X143582628Y-99966827D01*
%TA.AperFunction,Conductor*%
D19*
G36*
X143582628Y-99966827D02*
G01*
X143551552Y-100000289D01*
X143550818Y-100001153D01*
X143520940Y-100039722D01*
X143520165Y-100040842D01*
X143498105Y-100076678D01*
X143497408Y-100077972D01*
X143481458Y-100112202D01*
X143480954Y-100113455D01*
X143469406Y-100147206D01*
X143469123Y-100148151D01*
X143460269Y-100182551D01*
X143460158Y-100183018D01*
X143452296Y-100219168D01*
X143443750Y-100258050D01*
X143432875Y-100300594D01*
X143420552Y-100339837D01*
X143113154Y-100345846D01*
X143119163Y-100038448D01*
X143158405Y-100026124D01*
X143200949Y-100015249D01*
X143239804Y-100006709D01*
X143275981Y-99998841D01*
X143276448Y-99998730D01*
X143310848Y-99989876D01*
X143311793Y-99989593D01*
X143345544Y-99978045D01*
X143346797Y-99977541D01*
X143381027Y-99961591D01*
X143382321Y-99960894D01*
X143418157Y-99938834D01*
X143419277Y-99938059D01*
X143457846Y-99908181D01*
X143458710Y-99907447D01*
X143492173Y-99876372D01*
X143582628Y-99966827D01*
G37*
%TD.AperFunction*%
%TD*%
D18*
%TO.N,/QSPI_SS*%
X153692377Y-83498908D02*
X153730180Y-83521319D01*
X153763684Y-83542749D01*
X153794829Y-83562767D01*
X153795238Y-83563018D01*
X153825823Y-83581082D01*
X153826692Y-83581551D01*
X153858724Y-83597251D01*
X153859966Y-83597780D01*
X153895448Y-83610706D01*
X153896855Y-83611128D01*
X153937794Y-83620869D01*
X153939134Y-83621113D01*
X153987534Y-83627259D01*
X153988665Y-83627351D01*
X154034300Y-83629039D01*
X154034300Y-83756961D01*
X153988665Y-83758648D01*
X153987534Y-83758740D01*
X153939134Y-83764886D01*
X153937794Y-83765130D01*
X153896855Y-83774871D01*
X153895448Y-83775293D01*
X153859966Y-83788219D01*
X153858724Y-83788748D01*
X153826692Y-83804448D01*
X153825823Y-83804917D01*
X153795238Y-83822981D01*
X153794829Y-83823232D01*
X153763684Y-83843250D01*
X153730180Y-83864680D01*
X153692377Y-83887091D01*
X153655936Y-83906115D01*
X153434322Y-83693000D01*
X153655936Y-83479885D01*
X153692377Y-83498908D01*
%TA.AperFunction,Conductor*%
D19*
G36*
X153692377Y-83498908D02*
G01*
X153730180Y-83521319D01*
X153763684Y-83542749D01*
X153794829Y-83562767D01*
X153795238Y-83563018D01*
X153825823Y-83581082D01*
X153826692Y-83581551D01*
X153858724Y-83597251D01*
X153859966Y-83597780D01*
X153895448Y-83610706D01*
X153896855Y-83611128D01*
X153937794Y-83620869D01*
X153939134Y-83621113D01*
X153987534Y-83627259D01*
X153988665Y-83627351D01*
X154034300Y-83629039D01*
X154034300Y-83756961D01*
X153988665Y-83758648D01*
X153987534Y-83758740D01*
X153939134Y-83764886D01*
X153937794Y-83765130D01*
X153896855Y-83774871D01*
X153895448Y-83775293D01*
X153859966Y-83788219D01*
X153858724Y-83788748D01*
X153826692Y-83804448D01*
X153825823Y-83804917D01*
X153795238Y-83822981D01*
X153794829Y-83823232D01*
X153763684Y-83843250D01*
X153730180Y-83864680D01*
X153692377Y-83887091D01*
X153655936Y-83906115D01*
X153434322Y-83693000D01*
X153655936Y-83479885D01*
X153692377Y-83498908D01*
G37*
%TD.AperFunction*%
%TD*%
D18*
%TO.N,/QSPI_SS*%
X159582837Y-79224552D02*
X159543594Y-79236875D01*
X159501050Y-79247750D01*
X159462195Y-79256290D01*
X159426018Y-79264158D01*
X159425551Y-79264269D01*
X159391151Y-79273123D01*
X159390206Y-79273406D01*
X159356455Y-79284954D01*
X159355202Y-79285458D01*
X159320972Y-79301408D01*
X159319678Y-79302105D01*
X159283842Y-79324165D01*
X159282722Y-79324940D01*
X159244153Y-79354818D01*
X159243289Y-79355552D01*
X159209827Y-79386628D01*
X159119372Y-79296173D01*
X159150447Y-79262710D01*
X159151181Y-79261846D01*
X159181059Y-79223277D01*
X159181834Y-79222157D01*
X159203894Y-79186321D01*
X159204591Y-79185027D01*
X159220541Y-79150797D01*
X159221045Y-79149544D01*
X159232593Y-79115793D01*
X159232876Y-79114848D01*
X159241730Y-79080448D01*
X159241841Y-79079981D01*
X159249703Y-79043831D01*
X159258249Y-79004949D01*
X159269124Y-78962405D01*
X159281448Y-78923163D01*
X159588846Y-78917154D01*
X159582837Y-79224552D01*
%TA.AperFunction,Conductor*%
D19*
G36*
X159582837Y-79224552D02*
G01*
X159543594Y-79236875D01*
X159501050Y-79247750D01*
X159462195Y-79256290D01*
X159426018Y-79264158D01*
X159425551Y-79264269D01*
X159391151Y-79273123D01*
X159390206Y-79273406D01*
X159356455Y-79284954D01*
X159355202Y-79285458D01*
X159320972Y-79301408D01*
X159319678Y-79302105D01*
X159283842Y-79324165D01*
X159282722Y-79324940D01*
X159244153Y-79354818D01*
X159243289Y-79355552D01*
X159209827Y-79386628D01*
X159119372Y-79296173D01*
X159150447Y-79262710D01*
X159151181Y-79261846D01*
X159181059Y-79223277D01*
X159181834Y-79222157D01*
X159203894Y-79186321D01*
X159204591Y-79185027D01*
X159220541Y-79150797D01*
X159221045Y-79149544D01*
X159232593Y-79115793D01*
X159232876Y-79114848D01*
X159241730Y-79080448D01*
X159241841Y-79079981D01*
X159249703Y-79043831D01*
X159258249Y-79004949D01*
X159269124Y-78962405D01*
X159281448Y-78923163D01*
X159588846Y-78917154D01*
X159582837Y-79224552D01*
G37*
%TD.AperFunction*%
%TD*%
D18*
%TO.N,/LED1*%
X141835552Y-81336163D02*
X141847875Y-81375405D01*
X141858750Y-81417949D01*
X141867290Y-81456804D01*
X141875158Y-81492981D01*
X141875269Y-81493448D01*
X141884123Y-81527848D01*
X141884406Y-81528793D01*
X141895954Y-81562544D01*
X141896458Y-81563797D01*
X141912408Y-81598027D01*
X141913105Y-81599321D01*
X141935165Y-81635157D01*
X141935940Y-81636277D01*
X141965818Y-81674846D01*
X141966552Y-81675710D01*
X141997628Y-81709173D01*
X141907173Y-81799628D01*
X141873710Y-81768552D01*
X141872846Y-81767818D01*
X141834277Y-81737940D01*
X141833157Y-81737165D01*
X141797321Y-81715105D01*
X141796027Y-81714408D01*
X141761797Y-81698458D01*
X141760544Y-81697954D01*
X141726793Y-81686406D01*
X141725848Y-81686123D01*
X141691448Y-81677269D01*
X141690981Y-81677158D01*
X141654804Y-81669290D01*
X141615949Y-81660750D01*
X141573405Y-81649875D01*
X141534163Y-81637552D01*
X141528154Y-81330154D01*
X141835552Y-81336163D01*
%TA.AperFunction,Conductor*%
D19*
G36*
X141835552Y-81336163D02*
G01*
X141847875Y-81375405D01*
X141858750Y-81417949D01*
X141867290Y-81456804D01*
X141875158Y-81492981D01*
X141875269Y-81493448D01*
X141884123Y-81527848D01*
X141884406Y-81528793D01*
X141895954Y-81562544D01*
X141896458Y-81563797D01*
X141912408Y-81598027D01*
X141913105Y-81599321D01*
X141935165Y-81635157D01*
X141935940Y-81636277D01*
X141965818Y-81674846D01*
X141966552Y-81675710D01*
X141997628Y-81709173D01*
X141907173Y-81799628D01*
X141873710Y-81768552D01*
X141872846Y-81767818D01*
X141834277Y-81737940D01*
X141833157Y-81737165D01*
X141797321Y-81715105D01*
X141796027Y-81714408D01*
X141761797Y-81698458D01*
X141760544Y-81697954D01*
X141726793Y-81686406D01*
X141725848Y-81686123D01*
X141691448Y-81677269D01*
X141690981Y-81677158D01*
X141654804Y-81669290D01*
X141615949Y-81660750D01*
X141573405Y-81649875D01*
X141534163Y-81637552D01*
X141528154Y-81330154D01*
X141835552Y-81336163D01*
G37*
%TD.AperFunction*%
%TD*%
D18*
%TO.N,/LED1*%
X147936290Y-82813169D02*
X147697459Y-83006849D01*
X147662614Y-82984914D01*
X147626227Y-82959693D01*
X147593762Y-82936129D01*
X147593646Y-82936046D01*
X147563259Y-82914508D01*
X147562717Y-82914144D01*
X147532602Y-82895043D01*
X147531610Y-82894475D01*
X147499839Y-82878130D01*
X147498491Y-82877533D01*
X147463134Y-82864264D01*
X147461654Y-82863809D01*
X147420783Y-82853936D01*
X147419407Y-82853683D01*
X147371092Y-82847524D01*
X147369953Y-82847431D01*
X147324499Y-82845758D01*
X147324499Y-82717886D01*
X147373630Y-82716262D01*
X147374632Y-82716189D01*
X147426128Y-82710386D01*
X147427307Y-82710197D01*
X147471030Y-82701048D01*
X147472264Y-82700724D01*
X147510360Y-82688658D01*
X147511448Y-82688258D01*
X147546059Y-82673703D01*
X147546810Y-82673358D01*
X147580081Y-82656743D01*
X147580403Y-82656577D01*
X147614478Y-82638328D01*
X147651211Y-82619028D01*
X147692813Y-82599045D01*
X147733438Y-82582105D01*
X147936290Y-82813169D01*
%TA.AperFunction,Conductor*%
D19*
G36*
X147936290Y-82813169D02*
G01*
X147697459Y-83006849D01*
X147662614Y-82984914D01*
X147626227Y-82959693D01*
X147593762Y-82936129D01*
X147593646Y-82936046D01*
X147563259Y-82914508D01*
X147562717Y-82914144D01*
X147532602Y-82895043D01*
X147531610Y-82894475D01*
X147499839Y-82878130D01*
X147498491Y-82877533D01*
X147463134Y-82864264D01*
X147461654Y-82863809D01*
X147420783Y-82853936D01*
X147419407Y-82853683D01*
X147371092Y-82847524D01*
X147369953Y-82847431D01*
X147324499Y-82845758D01*
X147324499Y-82717886D01*
X147373630Y-82716262D01*
X147374632Y-82716189D01*
X147426128Y-82710386D01*
X147427307Y-82710197D01*
X147471030Y-82701048D01*
X147472264Y-82700724D01*
X147510360Y-82688658D01*
X147511448Y-82688258D01*
X147546059Y-82673703D01*
X147546810Y-82673358D01*
X147580081Y-82656743D01*
X147580403Y-82656577D01*
X147614478Y-82638328D01*
X147651211Y-82619028D01*
X147692813Y-82599045D01*
X147733438Y-82582105D01*
X147936290Y-82813169D01*
G37*
%TD.AperFunction*%
%TD*%
D18*
%TO.N,/LED2*%
X147174678Y-83312000D02*
X146953064Y-83525115D01*
X146916622Y-83506091D01*
X146878819Y-83483680D01*
X146845315Y-83462250D01*
X146814170Y-83442232D01*
X146813761Y-83441981D01*
X146783176Y-83423917D01*
X146782307Y-83423448D01*
X146750275Y-83407748D01*
X146749033Y-83407219D01*
X146713551Y-83394293D01*
X146712144Y-83393871D01*
X146671205Y-83384130D01*
X146669865Y-83383886D01*
X146621465Y-83377740D01*
X146620334Y-83377648D01*
X146574700Y-83375961D01*
X146574700Y-83248039D01*
X146620334Y-83246351D01*
X146621465Y-83246259D01*
X146669865Y-83240113D01*
X146671205Y-83239869D01*
X146712144Y-83230128D01*
X146713551Y-83229706D01*
X146749033Y-83216780D01*
X146750275Y-83216251D01*
X146782307Y-83200551D01*
X146783176Y-83200082D01*
X146813761Y-83182018D01*
X146814170Y-83181767D01*
X146845315Y-83161749D01*
X146878819Y-83140319D01*
X146916622Y-83117908D01*
X146953064Y-83098885D01*
X147174678Y-83312000D01*
%TA.AperFunction,Conductor*%
D19*
G36*
X147174678Y-83312000D02*
G01*
X146953064Y-83525115D01*
X146916622Y-83506091D01*
X146878819Y-83483680D01*
X146845315Y-83462250D01*
X146814170Y-83442232D01*
X146813761Y-83441981D01*
X146783176Y-83423917D01*
X146782307Y-83423448D01*
X146750275Y-83407748D01*
X146749033Y-83407219D01*
X146713551Y-83394293D01*
X146712144Y-83393871D01*
X146671205Y-83384130D01*
X146669865Y-83383886D01*
X146621465Y-83377740D01*
X146620334Y-83377648D01*
X146574700Y-83375961D01*
X146574700Y-83248039D01*
X146620334Y-83246351D01*
X146621465Y-83246259D01*
X146669865Y-83240113D01*
X146671205Y-83239869D01*
X146712144Y-83230128D01*
X146713551Y-83229706D01*
X146749033Y-83216780D01*
X146750275Y-83216251D01*
X146782307Y-83200551D01*
X146783176Y-83200082D01*
X146813761Y-83182018D01*
X146814170Y-83181767D01*
X146845315Y-83161749D01*
X146878819Y-83140319D01*
X146916622Y-83117908D01*
X146953064Y-83098885D01*
X147174678Y-83312000D01*
G37*
%TD.AperFunction*%
%TD*%
D18*
%TO.N,/LED2*%
X140248052Y-81272663D02*
X140260375Y-81311905D01*
X140271250Y-81354449D01*
X140279790Y-81393304D01*
X140287658Y-81429481D01*
X140287769Y-81429948D01*
X140296623Y-81464348D01*
X140296906Y-81465293D01*
X140308454Y-81499044D01*
X140308958Y-81500297D01*
X140324908Y-81534527D01*
X140325605Y-81535821D01*
X140347665Y-81571657D01*
X140348440Y-81572777D01*
X140378318Y-81611346D01*
X140379052Y-81612210D01*
X140410128Y-81645673D01*
X140319673Y-81736128D01*
X140286210Y-81705052D01*
X140285346Y-81704318D01*
X140246777Y-81674440D01*
X140245657Y-81673665D01*
X140209821Y-81651605D01*
X140208527Y-81650908D01*
X140174297Y-81634958D01*
X140173044Y-81634454D01*
X140139293Y-81622906D01*
X140138348Y-81622623D01*
X140103948Y-81613769D01*
X140103481Y-81613658D01*
X140067304Y-81605790D01*
X140028449Y-81597250D01*
X139985905Y-81586375D01*
X139946663Y-81574052D01*
X139940654Y-81266654D01*
X140248052Y-81272663D01*
%TA.AperFunction,Conductor*%
D19*
G36*
X140248052Y-81272663D02*
G01*
X140260375Y-81311905D01*
X140271250Y-81354449D01*
X140279790Y-81393304D01*
X140287658Y-81429481D01*
X140287769Y-81429948D01*
X140296623Y-81464348D01*
X140296906Y-81465293D01*
X140308454Y-81499044D01*
X140308958Y-81500297D01*
X140324908Y-81534527D01*
X140325605Y-81535821D01*
X140347665Y-81571657D01*
X140348440Y-81572777D01*
X140378318Y-81611346D01*
X140379052Y-81612210D01*
X140410128Y-81645673D01*
X140319673Y-81736128D01*
X140286210Y-81705052D01*
X140285346Y-81704318D01*
X140246777Y-81674440D01*
X140245657Y-81673665D01*
X140209821Y-81651605D01*
X140208527Y-81650908D01*
X140174297Y-81634958D01*
X140173044Y-81634454D01*
X140139293Y-81622906D01*
X140138348Y-81622623D01*
X140103948Y-81613769D01*
X140103481Y-81613658D01*
X140067304Y-81605790D01*
X140028449Y-81597250D01*
X139985905Y-81586375D01*
X139946663Y-81574052D01*
X139940654Y-81266654D01*
X140248052Y-81272663D01*
G37*
%TD.AperFunction*%
%TD*%
D18*
%TO.N,/QSPI_SD2*%
X154951628Y-81485827D02*
X154920552Y-81519289D01*
X154919818Y-81520153D01*
X154889940Y-81558722D01*
X154889165Y-81559842D01*
X154867105Y-81595678D01*
X154866408Y-81596972D01*
X154850458Y-81631202D01*
X154849954Y-81632455D01*
X154838406Y-81666206D01*
X154838123Y-81667151D01*
X154829269Y-81701551D01*
X154829158Y-81702018D01*
X154821296Y-81738168D01*
X154812750Y-81777050D01*
X154801875Y-81819594D01*
X154789552Y-81858837D01*
X154482154Y-81864846D01*
X154488163Y-81557448D01*
X154527405Y-81545124D01*
X154569949Y-81534249D01*
X154608804Y-81525709D01*
X154644981Y-81517841D01*
X154645448Y-81517730D01*
X154679848Y-81508876D01*
X154680793Y-81508593D01*
X154714544Y-81497045D01*
X154715797Y-81496541D01*
X154750027Y-81480591D01*
X154751321Y-81479894D01*
X154787157Y-81457834D01*
X154788277Y-81457059D01*
X154826846Y-81427181D01*
X154827710Y-81426447D01*
X154861173Y-81395372D01*
X154951628Y-81485827D01*
%TA.AperFunction,Conductor*%
D19*
G36*
X154951628Y-81485827D02*
G01*
X154920552Y-81519289D01*
X154919818Y-81520153D01*
X154889940Y-81558722D01*
X154889165Y-81559842D01*
X154867105Y-81595678D01*
X154866408Y-81596972D01*
X154850458Y-81631202D01*
X154849954Y-81632455D01*
X154838406Y-81666206D01*
X154838123Y-81667151D01*
X154829269Y-81701551D01*
X154829158Y-81702018D01*
X154821296Y-81738168D01*
X154812750Y-81777050D01*
X154801875Y-81819594D01*
X154789552Y-81858837D01*
X154482154Y-81864846D01*
X154488163Y-81557448D01*
X154527405Y-81545124D01*
X154569949Y-81534249D01*
X154608804Y-81525709D01*
X154644981Y-81517841D01*
X154645448Y-81517730D01*
X154679848Y-81508876D01*
X154680793Y-81508593D01*
X154714544Y-81497045D01*
X154715797Y-81496541D01*
X154750027Y-81480591D01*
X154751321Y-81479894D01*
X154787157Y-81457834D01*
X154788277Y-81457059D01*
X154826846Y-81427181D01*
X154827710Y-81426447D01*
X154861173Y-81395372D01*
X154951628Y-81485827D01*
G37*
%TD.AperFunction*%
%TD*%
D18*
%TO.N,/QSPI_SD2*%
X157185373Y-79107203D02*
X157163774Y-79152842D01*
X157163707Y-79152985D01*
X157142314Y-79199678D01*
X157142315Y-79199678D01*
X157123336Y-79240948D01*
X157105184Y-79278362D01*
X157086296Y-79313470D01*
X157065026Y-79348001D01*
X157039716Y-79383655D01*
X157008697Y-79422104D01*
X156970268Y-79465026D01*
X156931695Y-79504824D01*
X156841180Y-79414309D01*
X156860821Y-79390293D01*
X156862568Y-79387471D01*
X156876561Y-79356424D01*
X156877357Y-79354065D01*
X156877619Y-79352482D01*
X156880621Y-79322754D01*
X156880627Y-79320264D01*
X156880416Y-79318876D01*
X156874355Y-79289924D01*
X156873465Y-79287225D01*
X156860275Y-79258506D01*
X156859462Y-79257010D01*
X156841071Y-79227983D01*
X156840626Y-79227327D01*
X156818967Y-79197446D01*
X156818916Y-79197375D01*
X156796067Y-79166303D01*
X156774111Y-79133754D01*
X156759068Y-79106746D01*
X156972000Y-78885322D01*
X157185373Y-79107203D01*
%TA.AperFunction,Conductor*%
D19*
G36*
X157185373Y-79107203D02*
G01*
X157163774Y-79152842D01*
X157163707Y-79152985D01*
X157142314Y-79199678D01*
X157142315Y-79199678D01*
X157123336Y-79240948D01*
X157105184Y-79278362D01*
X157086296Y-79313470D01*
X157065026Y-79348001D01*
X157039716Y-79383655D01*
X157008697Y-79422104D01*
X156970268Y-79465026D01*
X156931695Y-79504824D01*
X156841180Y-79414309D01*
X156860821Y-79390293D01*
X156862568Y-79387471D01*
X156876561Y-79356424D01*
X156877357Y-79354065D01*
X156877619Y-79352482D01*
X156880621Y-79322754D01*
X156880627Y-79320264D01*
X156880416Y-79318876D01*
X156874355Y-79289924D01*
X156873465Y-79287225D01*
X156860275Y-79258506D01*
X156859462Y-79257010D01*
X156841071Y-79227983D01*
X156840626Y-79227327D01*
X156818967Y-79197446D01*
X156818916Y-79197375D01*
X156796067Y-79166303D01*
X156774111Y-79133754D01*
X156759068Y-79106746D01*
X156972000Y-78885322D01*
X157185373Y-79107203D01*
G37*
%TD.AperFunction*%
%TD*%
D18*
%TO.N,/QSPI_SD1*%
X158312837Y-79224552D02*
X158273594Y-79236875D01*
X158231050Y-79247750D01*
X158192195Y-79256290D01*
X158156018Y-79264158D01*
X158155551Y-79264269D01*
X158121151Y-79273123D01*
X158120206Y-79273406D01*
X158086455Y-79284954D01*
X158085202Y-79285458D01*
X158050972Y-79301408D01*
X158049678Y-79302105D01*
X158013842Y-79324165D01*
X158012722Y-79324940D01*
X157974153Y-79354818D01*
X157973289Y-79355552D01*
X157939827Y-79386628D01*
X157849372Y-79296173D01*
X157880447Y-79262710D01*
X157881181Y-79261846D01*
X157911059Y-79223277D01*
X157911834Y-79222157D01*
X157933894Y-79186321D01*
X157934591Y-79185027D01*
X157950541Y-79150797D01*
X157951045Y-79149544D01*
X157962593Y-79115793D01*
X157962876Y-79114848D01*
X157971730Y-79080448D01*
X157971841Y-79079981D01*
X157979703Y-79043831D01*
X157988249Y-79004949D01*
X157999124Y-78962405D01*
X158011448Y-78923163D01*
X158318846Y-78917154D01*
X158312837Y-79224552D01*
%TA.AperFunction,Conductor*%
D19*
G36*
X158312837Y-79224552D02*
G01*
X158273594Y-79236875D01*
X158231050Y-79247750D01*
X158192195Y-79256290D01*
X158156018Y-79264158D01*
X158155551Y-79264269D01*
X158121151Y-79273123D01*
X158120206Y-79273406D01*
X158086455Y-79284954D01*
X158085202Y-79285458D01*
X158050972Y-79301408D01*
X158049678Y-79302105D01*
X158013842Y-79324165D01*
X158012722Y-79324940D01*
X157974153Y-79354818D01*
X157973289Y-79355552D01*
X157939827Y-79386628D01*
X157849372Y-79296173D01*
X157880447Y-79262710D01*
X157881181Y-79261846D01*
X157911059Y-79223277D01*
X157911834Y-79222157D01*
X157933894Y-79186321D01*
X157934591Y-79185027D01*
X157950541Y-79150797D01*
X157951045Y-79149544D01*
X157962593Y-79115793D01*
X157962876Y-79114848D01*
X157971730Y-79080448D01*
X157971841Y-79079981D01*
X157979703Y-79043831D01*
X157988249Y-79004949D01*
X157999124Y-78962405D01*
X158011448Y-78923163D01*
X158318846Y-78917154D01*
X158312837Y-79224552D01*
G37*
%TD.AperFunction*%
%TD*%
D18*
%TO.N,/QSPI_SD1*%
X154073377Y-82355908D02*
X154111180Y-82378319D01*
X154144684Y-82399749D01*
X154175829Y-82419767D01*
X154176238Y-82420018D01*
X154206823Y-82438082D01*
X154207692Y-82438551D01*
X154239724Y-82454251D01*
X154240966Y-82454780D01*
X154276448Y-82467706D01*
X154277855Y-82468128D01*
X154318794Y-82477869D01*
X154320134Y-82478113D01*
X154368534Y-82484259D01*
X154369665Y-82484351D01*
X154415300Y-82486039D01*
X154415300Y-82613961D01*
X154369665Y-82615648D01*
X154368534Y-82615740D01*
X154320134Y-82621886D01*
X154318794Y-82622130D01*
X154277855Y-82631871D01*
X154276448Y-82632293D01*
X154240966Y-82645219D01*
X154239724Y-82645748D01*
X154207692Y-82661448D01*
X154206823Y-82661917D01*
X154176238Y-82679981D01*
X154175829Y-82680232D01*
X154144684Y-82700250D01*
X154111180Y-82721680D01*
X154073377Y-82744091D01*
X154036936Y-82763115D01*
X153815322Y-82550000D01*
X154036936Y-82336885D01*
X154073377Y-82355908D01*
%TA.AperFunction,Conductor*%
D19*
G36*
X154073377Y-82355908D02*
G01*
X154111180Y-82378319D01*
X154144684Y-82399749D01*
X154175829Y-82419767D01*
X154176238Y-82420018D01*
X154206823Y-82438082D01*
X154207692Y-82438551D01*
X154239724Y-82454251D01*
X154240966Y-82454780D01*
X154276448Y-82467706D01*
X154277855Y-82468128D01*
X154318794Y-82477869D01*
X154320134Y-82478113D01*
X154368534Y-82484259D01*
X154369665Y-82484351D01*
X154415300Y-82486039D01*
X154415300Y-82613961D01*
X154369665Y-82615648D01*
X154368534Y-82615740D01*
X154320134Y-82621886D01*
X154318794Y-82622130D01*
X154277855Y-82631871D01*
X154276448Y-82632293D01*
X154240966Y-82645219D01*
X154239724Y-82645748D01*
X154207692Y-82661448D01*
X154206823Y-82661917D01*
X154176238Y-82679981D01*
X154175829Y-82680232D01*
X154144684Y-82700250D01*
X154111180Y-82721680D01*
X154073377Y-82744091D01*
X154036936Y-82763115D01*
X153815322Y-82550000D01*
X154036936Y-82336885D01*
X154073377Y-82355908D01*
G37*
%TD.AperFunction*%
%TD*%
D18*
%TO.N,Net-(J3-Pad3)*%
X129490812Y-78948744D02*
X129325706Y-78968743D01*
X129323276Y-78969283D01*
X129321407Y-78970066D01*
X129204275Y-79030541D01*
X129202185Y-79031895D01*
X129199858Y-79034318D01*
X129130795Y-79128540D01*
X129129527Y-79130683D01*
X129128752Y-79132834D01*
X129096679Y-79255426D01*
X129096276Y-79258103D01*
X129090114Y-79403691D01*
X129090121Y-79404902D01*
X129098793Y-79568109D01*
X129098807Y-79568332D01*
X129111213Y-79743508D01*
X129116291Y-79924923D01*
X129103111Y-80107077D01*
X129062843Y-80276443D01*
X127982436Y-80297564D01*
X128003579Y-79215995D01*
X128176489Y-79152284D01*
X128176887Y-79152130D01*
X128330599Y-79089553D01*
X128330833Y-79089454D01*
X128464942Y-79031702D01*
X128464942Y-79031703D01*
X128587115Y-78979503D01*
X128704852Y-78933626D01*
X128826063Y-78894650D01*
X128958612Y-78863178D01*
X129110495Y-78839829D01*
X129289501Y-78825304D01*
X129490812Y-78820600D01*
X129490812Y-78948744D01*
%TA.AperFunction,Conductor*%
D19*
G36*
X129490812Y-78948744D02*
G01*
X129325706Y-78968743D01*
X129323276Y-78969283D01*
X129321407Y-78970066D01*
X129204275Y-79030541D01*
X129202185Y-79031895D01*
X129199858Y-79034318D01*
X129130795Y-79128540D01*
X129129527Y-79130683D01*
X129128752Y-79132834D01*
X129096679Y-79255426D01*
X129096276Y-79258103D01*
X129090114Y-79403691D01*
X129090121Y-79404902D01*
X129098793Y-79568109D01*
X129098807Y-79568332D01*
X129111213Y-79743508D01*
X129116291Y-79924923D01*
X129103111Y-80107077D01*
X129062843Y-80276443D01*
X127982436Y-80297564D01*
X128003579Y-79215995D01*
X128176489Y-79152284D01*
X128176887Y-79152130D01*
X128330599Y-79089553D01*
X128330833Y-79089454D01*
X128464942Y-79031702D01*
X128464942Y-79031703D01*
X128587115Y-78979503D01*
X128704852Y-78933626D01*
X128826063Y-78894650D01*
X128958612Y-78863178D01*
X129110495Y-78839829D01*
X129289501Y-78825304D01*
X129490812Y-78820600D01*
X129490812Y-78948744D01*
G37*
%TD.AperFunction*%
%TD*%
D18*
%TO.N,Net-(J3-Pad3)*%
X132446289Y-78886447D02*
X132447153Y-78887181D01*
X132485722Y-78917059D01*
X132486842Y-78917834D01*
X132522678Y-78939894D01*
X132523972Y-78940591D01*
X132558202Y-78956541D01*
X132559455Y-78957045D01*
X132593206Y-78968593D01*
X132594151Y-78968876D01*
X132628551Y-78977730D01*
X132629018Y-78977841D01*
X132665195Y-78985709D01*
X132704050Y-78994249D01*
X132746594Y-79005124D01*
X132785837Y-79017448D01*
X132791846Y-79324846D01*
X132484448Y-79318837D01*
X132472124Y-79279594D01*
X132461249Y-79237050D01*
X132452703Y-79198168D01*
X132444841Y-79162018D01*
X132444730Y-79161551D01*
X132435876Y-79127151D01*
X132435593Y-79126206D01*
X132424045Y-79092455D01*
X132423541Y-79091202D01*
X132407591Y-79056972D01*
X132406894Y-79055678D01*
X132384834Y-79019842D01*
X132384059Y-79018722D01*
X132354181Y-78980153D01*
X132353447Y-78979289D01*
X132322372Y-78945827D01*
X132412827Y-78855372D01*
X132446289Y-78886447D01*
%TA.AperFunction,Conductor*%
D19*
G36*
X132446289Y-78886447D02*
G01*
X132447153Y-78887181D01*
X132485722Y-78917059D01*
X132486842Y-78917834D01*
X132522678Y-78939894D01*
X132523972Y-78940591D01*
X132558202Y-78956541D01*
X132559455Y-78957045D01*
X132593206Y-78968593D01*
X132594151Y-78968876D01*
X132628551Y-78977730D01*
X132629018Y-78977841D01*
X132665195Y-78985709D01*
X132704050Y-78994249D01*
X132746594Y-79005124D01*
X132785837Y-79017448D01*
X132791846Y-79324846D01*
X132484448Y-79318837D01*
X132472124Y-79279594D01*
X132461249Y-79237050D01*
X132452703Y-79198168D01*
X132444841Y-79162018D01*
X132444730Y-79161551D01*
X132435876Y-79127151D01*
X132435593Y-79126206D01*
X132424045Y-79092455D01*
X132423541Y-79091202D01*
X132407591Y-79056972D01*
X132406894Y-79055678D01*
X132384834Y-79019842D01*
X132384059Y-79018722D01*
X132354181Y-78980153D01*
X132353447Y-78979289D01*
X132322372Y-78945827D01*
X132412827Y-78855372D01*
X132446289Y-78886447D01*
G37*
%TD.AperFunction*%
%TD*%
D18*
%TO.N,/W25_SS*%
X152381678Y-83693000D02*
X152160064Y-83906115D01*
X152123622Y-83887091D01*
X152085819Y-83864680D01*
X152052315Y-83843250D01*
X152021170Y-83823232D01*
X152020761Y-83822981D01*
X151990176Y-83804917D01*
X151989307Y-83804448D01*
X151957275Y-83788748D01*
X151956033Y-83788219D01*
X151920551Y-83775293D01*
X151919144Y-83774871D01*
X151878205Y-83765130D01*
X151876865Y-83764886D01*
X151828465Y-83758740D01*
X151827334Y-83758648D01*
X151781700Y-83756961D01*
X151781700Y-83629039D01*
X151827334Y-83627351D01*
X151828465Y-83627259D01*
X151876865Y-83621113D01*
X151878205Y-83620869D01*
X151919144Y-83611128D01*
X151920551Y-83610706D01*
X151956033Y-83597780D01*
X151957275Y-83597251D01*
X151989307Y-83581551D01*
X151990176Y-83581082D01*
X152020761Y-83563018D01*
X152021170Y-83562767D01*
X152052315Y-83542749D01*
X152085819Y-83521319D01*
X152123622Y-83498908D01*
X152160064Y-83479885D01*
X152381678Y-83693000D01*
%TA.AperFunction,Conductor*%
D19*
G36*
X152381678Y-83693000D02*
G01*
X152160064Y-83906115D01*
X152123622Y-83887091D01*
X152085819Y-83864680D01*
X152052315Y-83843250D01*
X152021170Y-83823232D01*
X152020761Y-83822981D01*
X151990176Y-83804917D01*
X151989307Y-83804448D01*
X151957275Y-83788748D01*
X151956033Y-83788219D01*
X151920551Y-83775293D01*
X151919144Y-83774871D01*
X151878205Y-83765130D01*
X151876865Y-83764886D01*
X151828465Y-83758740D01*
X151827334Y-83758648D01*
X151781700Y-83756961D01*
X151781700Y-83629039D01*
X151827334Y-83627351D01*
X151828465Y-83627259D01*
X151876865Y-83621113D01*
X151878205Y-83620869D01*
X151919144Y-83611128D01*
X151920551Y-83610706D01*
X151956033Y-83597780D01*
X151957275Y-83597251D01*
X151989307Y-83581551D01*
X151990176Y-83581082D01*
X152020761Y-83563018D01*
X152021170Y-83562767D01*
X152052315Y-83542749D01*
X152085819Y-83521319D01*
X152123622Y-83498908D01*
X152160064Y-83479885D01*
X152381678Y-83693000D01*
G37*
%TD.AperFunction*%
%TD*%
D18*
%TO.N,/W25_SS*%
X146407552Y-77907163D02*
X146419875Y-77946405D01*
X146430750Y-77988949D01*
X146439290Y-78027804D01*
X146447158Y-78063981D01*
X146447269Y-78064448D01*
X146456123Y-78098848D01*
X146456406Y-78099793D01*
X146467954Y-78133544D01*
X146468458Y-78134797D01*
X146484408Y-78169027D01*
X146485105Y-78170321D01*
X146507165Y-78206157D01*
X146507940Y-78207277D01*
X146537818Y-78245846D01*
X146538552Y-78246710D01*
X146569628Y-78280173D01*
X146479173Y-78370628D01*
X146445710Y-78339552D01*
X146444846Y-78338818D01*
X146406277Y-78308940D01*
X146405157Y-78308165D01*
X146369321Y-78286105D01*
X146368027Y-78285408D01*
X146333797Y-78269458D01*
X146332544Y-78268954D01*
X146298793Y-78257406D01*
X146297848Y-78257123D01*
X146263448Y-78248269D01*
X146262981Y-78248158D01*
X146226804Y-78240290D01*
X146187949Y-78231750D01*
X146145405Y-78220875D01*
X146106163Y-78208552D01*
X146100154Y-77901154D01*
X146407552Y-77907163D01*
%TA.AperFunction,Conductor*%
D19*
G36*
X146407552Y-77907163D02*
G01*
X146419875Y-77946405D01*
X146430750Y-77988949D01*
X146439290Y-78027804D01*
X146447158Y-78063981D01*
X146447269Y-78064448D01*
X146456123Y-78098848D01*
X146456406Y-78099793D01*
X146467954Y-78133544D01*
X146468458Y-78134797D01*
X146484408Y-78169027D01*
X146485105Y-78170321D01*
X146507165Y-78206157D01*
X146507940Y-78207277D01*
X146537818Y-78245846D01*
X146538552Y-78246710D01*
X146569628Y-78280173D01*
X146479173Y-78370628D01*
X146445710Y-78339552D01*
X146444846Y-78338818D01*
X146406277Y-78308940D01*
X146405157Y-78308165D01*
X146369321Y-78286105D01*
X146368027Y-78285408D01*
X146333797Y-78269458D01*
X146332544Y-78268954D01*
X146298793Y-78257406D01*
X146297848Y-78257123D01*
X146263448Y-78248269D01*
X146262981Y-78248158D01*
X146226804Y-78240290D01*
X146187949Y-78231750D01*
X146145405Y-78220875D01*
X146106163Y-78208552D01*
X146100154Y-77901154D01*
X146407552Y-77907163D01*
G37*
%TD.AperFunction*%
%TD*%
D18*
%TO.N,/SW_USER*%
X149770028Y-96090827D02*
X149738952Y-96124289D01*
X149738218Y-96125153D01*
X149708340Y-96163722D01*
X149707565Y-96164842D01*
X149685505Y-96200678D01*
X149684808Y-96201972D01*
X149668858Y-96236202D01*
X149668354Y-96237455D01*
X149656806Y-96271206D01*
X149656523Y-96272151D01*
X149647669Y-96306551D01*
X149647558Y-96307018D01*
X149639696Y-96343168D01*
X149631150Y-96382050D01*
X149620275Y-96424594D01*
X149607952Y-96463837D01*
X149300554Y-96469846D01*
X149306563Y-96162448D01*
X149345805Y-96150124D01*
X149388349Y-96139249D01*
X149427204Y-96130709D01*
X149463381Y-96122841D01*
X149463848Y-96122730D01*
X149498248Y-96113876D01*
X149499193Y-96113593D01*
X149532944Y-96102045D01*
X149534197Y-96101541D01*
X149568427Y-96085591D01*
X149569721Y-96084894D01*
X149605557Y-96062834D01*
X149606677Y-96062059D01*
X149645246Y-96032181D01*
X149646110Y-96031447D01*
X149679573Y-96000372D01*
X149770028Y-96090827D01*
%TA.AperFunction,Conductor*%
D19*
G36*
X149770028Y-96090827D02*
G01*
X149738952Y-96124289D01*
X149738218Y-96125153D01*
X149708340Y-96163722D01*
X149707565Y-96164842D01*
X149685505Y-96200678D01*
X149684808Y-96201972D01*
X149668858Y-96236202D01*
X149668354Y-96237455D01*
X149656806Y-96271206D01*
X149656523Y-96272151D01*
X149647669Y-96306551D01*
X149647558Y-96307018D01*
X149639696Y-96343168D01*
X149631150Y-96382050D01*
X149620275Y-96424594D01*
X149607952Y-96463837D01*
X149300554Y-96469846D01*
X149306563Y-96162448D01*
X149345805Y-96150124D01*
X149388349Y-96139249D01*
X149427204Y-96130709D01*
X149463381Y-96122841D01*
X149463848Y-96122730D01*
X149498248Y-96113876D01*
X149499193Y-96113593D01*
X149532944Y-96102045D01*
X149534197Y-96101541D01*
X149568427Y-96085591D01*
X149569721Y-96084894D01*
X149605557Y-96062834D01*
X149606677Y-96062059D01*
X149645246Y-96032181D01*
X149646110Y-96031447D01*
X149679573Y-96000372D01*
X149770028Y-96090827D01*
G37*
%TD.AperFunction*%
%TD*%
D18*
%TO.N,/SW_USER*%
X160513289Y-98698447D02*
X160514153Y-98699181D01*
X160552722Y-98729059D01*
X160553842Y-98729834D01*
X160589678Y-98751894D01*
X160590972Y-98752591D01*
X160625202Y-98768541D01*
X160626455Y-98769045D01*
X160660206Y-98780593D01*
X160661151Y-98780876D01*
X160695551Y-98789730D01*
X160696018Y-98789841D01*
X160732195Y-98797709D01*
X160771050Y-98806249D01*
X160813594Y-98817124D01*
X160852837Y-98829448D01*
X160858846Y-99136846D01*
X160551448Y-99130837D01*
X160539124Y-99091594D01*
X160528249Y-99049050D01*
X160519703Y-99010168D01*
X160511841Y-98974018D01*
X160511730Y-98973551D01*
X160502876Y-98939151D01*
X160502593Y-98938206D01*
X160491045Y-98904455D01*
X160490541Y-98903202D01*
X160474591Y-98868972D01*
X160473894Y-98867678D01*
X160451834Y-98831842D01*
X160451059Y-98830722D01*
X160421181Y-98792153D01*
X160420447Y-98791289D01*
X160389372Y-98757827D01*
X160479827Y-98667372D01*
X160513289Y-98698447D01*
%TA.AperFunction,Conductor*%
D19*
G36*
X160513289Y-98698447D02*
G01*
X160514153Y-98699181D01*
X160552722Y-98729059D01*
X160553842Y-98729834D01*
X160589678Y-98751894D01*
X160590972Y-98752591D01*
X160625202Y-98768541D01*
X160626455Y-98769045D01*
X160660206Y-98780593D01*
X160661151Y-98780876D01*
X160695551Y-98789730D01*
X160696018Y-98789841D01*
X160732195Y-98797709D01*
X160771050Y-98806249D01*
X160813594Y-98817124D01*
X160852837Y-98829448D01*
X160858846Y-99136846D01*
X160551448Y-99130837D01*
X160539124Y-99091594D01*
X160528249Y-99049050D01*
X160519703Y-99010168D01*
X160511841Y-98974018D01*
X160511730Y-98973551D01*
X160502876Y-98939151D01*
X160502593Y-98938206D01*
X160491045Y-98904455D01*
X160490541Y-98903202D01*
X160474591Y-98868972D01*
X160473894Y-98867678D01*
X160451834Y-98831842D01*
X160451059Y-98830722D01*
X160421181Y-98792153D01*
X160420447Y-98791289D01*
X160389372Y-98757827D01*
X160479827Y-98667372D01*
X160513289Y-98698447D01*
G37*
%TD.AperFunction*%
%TD*%
D18*
%TO.N,/W25_SD3*%
X149671648Y-82612334D02*
X149671740Y-82613465D01*
X149677886Y-82661865D01*
X149678130Y-82663205D01*
X149687871Y-82704144D01*
X149688293Y-82705551D01*
X149701219Y-82741033D01*
X149701748Y-82742275D01*
X149717448Y-82774307D01*
X149717917Y-82775176D01*
X149735981Y-82805761D01*
X149736232Y-82806170D01*
X149756235Y-82837291D01*
X149777680Y-82870819D01*
X149800091Y-82908622D01*
X149819115Y-82945064D01*
X149606000Y-83166678D01*
X149392885Y-82945064D01*
X149411908Y-82908622D01*
X149434319Y-82870819D01*
X149455749Y-82837315D01*
X149475767Y-82806170D01*
X149476018Y-82805761D01*
X149494082Y-82775176D01*
X149494551Y-82774307D01*
X149510251Y-82742275D01*
X149510780Y-82741033D01*
X149523706Y-82705551D01*
X149524128Y-82704144D01*
X149533869Y-82663205D01*
X149534113Y-82661865D01*
X149540259Y-82613465D01*
X149540351Y-82612334D01*
X149542039Y-82566700D01*
X149669961Y-82566700D01*
X149671648Y-82612334D01*
%TA.AperFunction,Conductor*%
D19*
G36*
X149671648Y-82612334D02*
G01*
X149671740Y-82613465D01*
X149677886Y-82661865D01*
X149678130Y-82663205D01*
X149687871Y-82704144D01*
X149688293Y-82705551D01*
X149701219Y-82741033D01*
X149701748Y-82742275D01*
X149717448Y-82774307D01*
X149717917Y-82775176D01*
X149735981Y-82805761D01*
X149736232Y-82806170D01*
X149756235Y-82837291D01*
X149777680Y-82870819D01*
X149800091Y-82908622D01*
X149819115Y-82945064D01*
X149606000Y-83166678D01*
X149392885Y-82945064D01*
X149411908Y-82908622D01*
X149434319Y-82870819D01*
X149455749Y-82837315D01*
X149475767Y-82806170D01*
X149476018Y-82805761D01*
X149494082Y-82775176D01*
X149494551Y-82774307D01*
X149510251Y-82742275D01*
X149510780Y-82741033D01*
X149523706Y-82705551D01*
X149524128Y-82704144D01*
X149533869Y-82663205D01*
X149534113Y-82661865D01*
X149540259Y-82613465D01*
X149540351Y-82612334D01*
X149542039Y-82566700D01*
X149669961Y-82566700D01*
X149671648Y-82612334D01*
G37*
%TD.AperFunction*%
%TD*%
D18*
%TO.N,/W25_SD3*%
X150819837Y-79605552D02*
X150780594Y-79617875D01*
X150738050Y-79628750D01*
X150699195Y-79637290D01*
X150663018Y-79645158D01*
X150662551Y-79645269D01*
X150628151Y-79654123D01*
X150627206Y-79654406D01*
X150593455Y-79665954D01*
X150592202Y-79666458D01*
X150557972Y-79682408D01*
X150556678Y-79683105D01*
X150520842Y-79705165D01*
X150519722Y-79705940D01*
X150481153Y-79735818D01*
X150480289Y-79736552D01*
X150446827Y-79767628D01*
X150356372Y-79677173D01*
X150387447Y-79643710D01*
X150388181Y-79642846D01*
X150418059Y-79604277D01*
X150418834Y-79603157D01*
X150440894Y-79567321D01*
X150441591Y-79566027D01*
X150457541Y-79531797D01*
X150458045Y-79530544D01*
X150469593Y-79496793D01*
X150469876Y-79495848D01*
X150478730Y-79461448D01*
X150478841Y-79460981D01*
X150486703Y-79424831D01*
X150495249Y-79385949D01*
X150506124Y-79343405D01*
X150518448Y-79304163D01*
X150825846Y-79298154D01*
X150819837Y-79605552D01*
%TA.AperFunction,Conductor*%
D19*
G36*
X150819837Y-79605552D02*
G01*
X150780594Y-79617875D01*
X150738050Y-79628750D01*
X150699195Y-79637290D01*
X150663018Y-79645158D01*
X150662551Y-79645269D01*
X150628151Y-79654123D01*
X150627206Y-79654406D01*
X150593455Y-79665954D01*
X150592202Y-79666458D01*
X150557972Y-79682408D01*
X150556678Y-79683105D01*
X150520842Y-79705165D01*
X150519722Y-79705940D01*
X150481153Y-79735818D01*
X150480289Y-79736552D01*
X150446827Y-79767628D01*
X150356372Y-79677173D01*
X150387447Y-79643710D01*
X150388181Y-79642846D01*
X150418059Y-79604277D01*
X150418834Y-79603157D01*
X150440894Y-79567321D01*
X150441591Y-79566027D01*
X150457541Y-79531797D01*
X150458045Y-79530544D01*
X150469593Y-79496793D01*
X150469876Y-79495848D01*
X150478730Y-79461448D01*
X150478841Y-79460981D01*
X150486703Y-79424831D01*
X150495249Y-79385949D01*
X150506124Y-79343405D01*
X150518448Y-79304163D01*
X150825846Y-79298154D01*
X150819837Y-79605552D01*
G37*
%TD.AperFunction*%
%TD*%
D20*
X156464000Y-90805000D03*
X156464000Y-91567000D03*
X166344600Y-94361000D03*
X154813000Y-77597000D03*
X153797000Y-79375000D03*
X143510000Y-87503000D03*
X143383000Y-81788000D03*
X147574000Y-83947000D03*
X138963500Y-77190500D03*
X132715000Y-78232000D03*
X151663400Y-97180400D03*
X156080400Y-94917200D03*
X153898600Y-96545400D03*
X156337000Y-88671400D03*
X162712400Y-95123000D03*
X163753800Y-85699600D03*
X161036000Y-86080600D03*
X147447000Y-95986600D03*
X153035000Y-82931000D03*
X143002000Y-90932000D03*
X140462000Y-91186000D03*
X153797000Y-77216000D03*
X159512000Y-86106000D03*
X160020000Y-93472000D03*
X141732000Y-98933000D03*
X145161000Y-89916000D03*
X154305000Y-90297000D03*
X152877500Y-94518500D03*
X154368500Y-92773500D03*
X152908000Y-85725000D03*
X148717000Y-85217000D03*
X143179800Y-79298800D03*
X146812000Y-95478600D03*
X172339000Y-87884000D03*
X168656000Y-89916000D03*
X143637000Y-91567000D03*
X143764000Y-96901000D03*
X143002000Y-91948000D03*
X143002000Y-97155000D03*
X138938000Y-98425000D03*
X135509000Y-77470000D03*
X136271000Y-80010000D03*
X148717000Y-96774000D03*
X150241000Y-96520000D03*
X143190000Y-100269000D03*
X159512000Y-78994000D03*
X153543000Y-83693000D03*
X147828000Y-82804000D03*
X141605000Y-81407000D03*
X147066000Y-83312000D03*
X140017500Y-81343500D03*
X154559000Y-81788000D03*
X156972000Y-78994000D03*
X153924000Y-82550000D03*
X158242000Y-78994000D03*
X132715000Y-79248000D03*
X146177000Y-77978000D03*
X152273000Y-83693000D03*
X149377400Y-96393000D03*
X160782000Y-99060000D03*
X149606000Y-83058000D03*
X150749000Y-79375000D03*
D21*
X173440000Y-91200000D03*
X173440000Y-86600000D03*
D22*
X173440000Y-94600000D03*
X173440000Y-83200000D03*
D21*
X130810000Y-100330000D03*
X128270000Y-100330000D03*
X130810000Y-97790000D03*
X128270000Y-97790000D03*
X130810000Y-95250000D03*
X128270000Y-95250000D03*
X130810000Y-92710000D03*
X128270000Y-92710000D03*
X130810000Y-90170000D03*
X128270000Y-90170000D03*
X130810000Y-87630000D03*
X128270000Y-87630000D03*
X130810000Y-85090000D03*
X128270000Y-85090000D03*
X130810000Y-82550000D03*
X128270000Y-82550000D03*
X130810000Y-80010000D03*
X128270000Y-80010000D03*
X130810000Y-77470000D03*
X128270000Y-77470000D03*
X148585000Y-91191000D03*
X148585000Y-89916000D03*
X148585000Y-88641000D03*
X149860000Y-91191000D03*
X149860000Y-89916000D03*
X149860000Y-88641000D03*
X151135000Y-91191000D03*
X151135000Y-89916000D03*
X151135000Y-88641000D03*
X153797000Y-99822000D03*
X151257000Y-99822000D03*
X148717000Y-99822000D03*
X146177000Y-99822000D03*
M02*
